<?xml version="1.0" encoding="utf-8"?>
<!-- Generator: Adobe Illustrator 21.0.0, SVG Export Plug-In . SVG Version: 6.00 Build 0)  -->
<svg version="1.1" id="Ebene_1" xmlns="http://www.w3.org/2000/svg" xmlns:xlink="http://www.w3.org/1999/xlink" x="0px" y="0px"
	 viewBox="0 0 13.062 16.057" style="enable-background:new 0 0 13.062 16.057;" xml:space="preserve">
<style type="text/css">
	.st0{fill:#020203;}
</style>
<g>
	<path class="st0" d="M11.562,5.901H2.984V2.974c0-1.232,1.326-1.969,3.578-1.97c0.014,0.001,1.291-0.066,2.109,0.704
		c0.477,0.449,0.719,1.116,0.719,1.98c0,0.276,0.224,0.5,0.5,0.5s0.5-0.224,0.5-0.5c0-1.155-0.35-2.068-1.041-2.715
		C8.21-0.093,6.565-0.003,6.531,0.005c-2.805,0-4.547,1.138-4.547,2.969v2.927H1.5c-0.827,0-1.5,0.673-1.5,1.5v7.156
		c0,0.827,0.673,1.5,1.5,1.5h10.062c0.827,0,1.5-0.673,1.5-1.5V7.401C13.062,6.573,12.39,5.901,11.562,5.901z M12.062,14.557
		c0,0.275-0.224,0.5-0.5,0.5H1.5c-0.276,0-0.5-0.225-0.5-0.5V7.401c0-0.275,0.224-0.5,0.5-0.5h10.062c0.276,0,0.5,0.225,0.5,0.5
		V14.557z"/>
	<path class="st0" d="M8.484,10.453H4.578c-0.276,0-0.5,0.224-0.5,0.5s0.224,0.5,0.5,0.5h3.906c0.276,0,0.5-0.224,0.5-0.5
		S8.761,10.453,8.484,10.453z"/>
</g>
</svg>
