<?xml version="1.0" standalone="no"?>
<!DOCTYPE svg PUBLIC "-//W3C//DTD SVG 1.1//EN" "http://www.w3.org/Graphics/SVG/1.1/DTD/svg11.dtd" >
<svg xmlns="http://www.w3.org/2000/svg">
<metadata></metadata>
<defs>
<font id="oyster_stencil_ceeregular" horiz-adv-x="626" >
<font-face units-per-em="2048" ascent="1638" descent="-410" />
<missing-glyph horiz-adv-x="380" />
<glyph horiz-adv-x="2048" />
<glyph horiz-adv-x="2048" />
<glyph unicode="&#xd;" horiz-adv-x="2048" />
<glyph unicode=" "  horiz-adv-x="380" />
<glyph unicode="&#x09;" horiz-adv-x="380" />
<glyph unicode="&#xa0;" horiz-adv-x="380" />
<glyph unicode="!" horiz-adv-x="251" d="M86 725v12v62l6 59q0 12 2 14v21v14v70v82q-5 16 -8 61q0 50 4 54v40v31v19v14v8l2 4q0 6 2 8l4 13l8 8l7 4q26 0 28 2q4 -4 15 -4l8 -4h4l4 -2v-4q1 -1 2 -3t2 -3v-9v-49q3 -18 6 -59q5 -58 5 -95q0 -35 -3 -63q0 -35 2 -37q0 -20 -2 -22v-13l-2 -6v-127q1 -13 8 -161 q3 -3 3 -31l10 -90l-15 -342q2 -2 2 -29q-1 0 -3.5 -0.5l-7.5 -1.5t-11 -2l-29 -4q-2 2 -2 6h-2q-19 31 -22 47q-2 85 -7 143v23q-1 2 -1.5 5.5t-1 5.5t-1.5 3v6l-6 156l-4 21v26q2 2 4 2h-2l-2 28t-1.5 21.5t-0.5 10.5v28q-1 5 -2 15t-2 14zM117 -14l6 100q10 3 35 6 q57 0 57 -2q-1 -8 -1 -24t3 -31q1 -14 1 -34t-3 -26l-16 -12q-17 0 -19 2q-12 2 -14 2q-4 0 -6 -2v2q-6 0 -8 -2h-13q-2 -2 -4 -2q-2 -2 -6 -2q-2 -2 -8 -2q-1 5 -2 11.5t-1.5 10t-0.5 5.5z" />
<glyph unicode="&#x22;" horiz-adv-x="348" d="M51 936q3 19 6 22q-2 2 -2 7l6 108v51q3 0 3 1l-1 1l3 101l8 24q0 13 -2 15l51 6q32 -6 41 -25q-4 0 -6 -2q2 0 4 -2l-4 -8l-2 -53q-1 -5 -2 -12.5t-1 -8.5q0 -2 1 -2l-4 -10v-19q0 -9 -3 -12l3 -2v-2h-3q0 -7 -16 -108l-4 -74l-4 -2v-6l-70 -13q-2 2 -2 25zM186 924 q0 10 2 12v31q2 6 2 43l3 2v8v10l6 31q4 36 4 57l4 12l8 142h14v-4q11 0 13 2h20q2 2 19 2q12 0 18 -6q-2 -2 -2 -9h-4v-2q0 -9 -14 -118v-76q-7 -7 -7 -60l-2 -2v-8q-2 -2 -2 -10q0 -10 -2 -12v-11q-2 0 -2 -4q-1 -3 -1 -9t1 -9l-16 -16q-6 0 -8 -2q-2 0 -2 -3l-5 -2h-8 q-14 0 -16 -2l-19 -2q-2 2 -2 11q-2 2 -2 4z" />
<glyph unicode="#" horiz-adv-x="778" d="M39 434q0 2 2 4l-1 2v2q0 13 13 52q14 3 17 6q8 0 12 4h4q70 0 78 8q0 6 2 8l4 12q0 5 2 7t2 6q4 49 21 82q0 8 2 10q24 77 36 111l-65 -5q0 -2 -1 -2q0 -1 -1 0q-38 -3 -53 -6q-5 12 -5 23t7 30q4 18 6 23q2 7 18 16l13 4h6l4 5h6q1 0 10.5 1t32 3.5t47.5 5.5l12 18 q0 8 2 10v11q0 4 2 6l5 10q2 2 2 8l4 11q4 4 4 8q0 28 20 61q3 12 2 17t0.5 7.5t7.5 6.5q2 1 7.5 2.5t7.5 3.5l24 6q7 1 15.5 2t10.5 1q3 0 3 -1q0 -6 -1 -9l-3 -9t-4 -15q-3 -11 -8 -16v-3q0 -14 -6 -34q0 -15 -13 -59q-12 -41 -12 -64q2 2 117 2h20h8l9 4h8l12 29 q50 139 72 184h4q0 7 8 15q15 -3 20 -8q25 0 27 -2l2 -5l-2 -4v-4l-12 -24q-2 -5 -12 -35l-9 -29l-12 -69q-1 -3 -12 -31l-6 -31v-6l6 -2q7 -3 20 -6l29 -8q9 -9 27 -9h8l8 5h8h19h16h4l2 2q2 2 4 2h6v-7q-7 -3 -10 -34l-8 -33q-2 -2 -2 -10q-6 0 -8 -2h-15q-2 -2 -20 -2 q-31 4 -59 4q-27 0 -42 -4l-71 -213v-29l67 -4l45 4q2 -2 2 -4t-2 -6l-4 -13v-12l-4 -12v-8q-2 0 -4 -2t-2 -9q-15 -3 -24 -6q-31 0 -52 -6q-2 2 -20 2l-2 -2q-2 -2 -4 -2h-6h-15q-3 -3 -6 -18q-15 0 -24 -76q-19 -87 -23 -133h-2v-11q-3 3 -8 3l-49 -13l-23 -10l-4 4 q-2 2 -2 6l2 27l1 5q1 5 1 11q2 4 5.5 16.5t6.5 20.5l15 53h2q0 19 10 52q1 3 4 19.5t6 31.5q6 24 6 26l-69 -8q-57 9 -74 19q-2 0 -2 -4q0 -5 -2 -5l-4 -8q-2 -2 -2 -6q-3 -16 -11 -20l-30 -54l-49 -143q0 -2 -2 -4l-5 -4q-12 0 -14 2h-12l-4 2q-45 -6 -47 -8q-1 5 -2 10.5 t-1 6.5q0 2 1 3q4 4 4 10q1 3 3 6l1 5q3 22 24 77q13 30 27 78q2 5 6 23l4 12q8 16 8 27q0 4 2 6l3 4h-35q-16 -2 -23 -2q-8 0 -20 2z" />
<glyph unicode="$" horiz-adv-x="624" d="M33 131v25q8 8 41 14q0 4 4 4q9 6 20 6q0 8 31 8l4 -10t4.5 -11t3.5 -9l13 -19l34 -20l9 -2q6 0 8 -2q4 0 10.5 -2t17.5 -2q27 -9 48 -9q31 0 68.5 19.5t56.5 36.5q14 22 24 33.5t21 29.5q6 9 10 21v4l12 35l8 41q3 24 6 36q0 86 -8 127q-4 0 -4 13l-31 84l-6 10 q0 11 -18 29l-33 57q-8 4 -10 12q-1 1 -3.5 2.5t-4.5 3.5t-2 4h-5l-7.5 7.5t-6.5 9.5l-4 4q-6 0 -20 14l-5 2l-4 4v4l-10 11l-7 6q-6 6 -11 6v2l-8 8q-1 4 -22.5 16.5t-27.5 14.5q-12 12 -26 14q0 4 -9 9.5t-14 5.5q0 4 -4 4v4l-2 2h-6l-2 4h-2q-4 4 -6 8h-4q0 2 -11 6 q-3 9 -30 27q-4 15 -11 22l-8 15v6h-2q-15 27 -18 39q-8 8 -8 26q0 22 -3 25q3 63 23 125q6 5 11.5 25.5t11.5 27.5l2 6q4 4 4 9l4 4q0 4 8 12l14 16q2 2 6.5 5.5t6.5 5.5l2 4l2 2h4v4q30 24 33 24q6 6 6 9q24 6 67 10q0 42 6 51h5v4h12v-4l4 2h12q2 2 12 2q5 0 11 1t8 1 l8 -2q0 -59 16 -88l17 -10q35 -22 59 -33l25 -25q0 -1 2 -4.5t2 -5.5q2 -3 10 -9.5t10 -8.5q0 -3 4.5 -5t4.5 -5q2 -9 14 -35t12 -33q0 -9 -6 -14t-16 -9t-13 -6l-18 -10l-12 -6h-8q0 3 -9 6l-16 18l-10 11l-8 12h-5q-2 2 -2 16q-21 24 -26 33h-2q-6 18 -15 21q-6 8 -14 12 v2q-2 0 -6 4h-2v4l-29 4h-43l-45 -20q-2 -3 -8 -7t-6 -10q-2 0 -2 -2v-4h-4l-7 -14h-4q-12 -37 -12 -66q0 -24 4 -34q2 0 2 -2q0 -5 4 -9l-2 -2l8 -10v-6l-2 -4h5q14 -21 14 -31h-2q0 2 -2 2q8 -14 13.5 -20t12.5 -12t13 -13q16 -10 18 -18q15 -6 25 -19h-9v-2q4 0 17 -5 t16 -5l-4 -4q2 0 4 -2h4q4 -6 11 -6q4 -7 6 -7q1 -1 2.5 -1.5t4.5 -1t5 -1.5v-8q6 0 14 -14l27 -17l2 -2v-4l4 -4h4v-2l8 -4v-4q36 -19 39 -31q10 -3 15 -14l16 -14q3 -5 28 -38.5t39 -60.5t19 -57v-2q0 -5 6 -29q0 -1 1 -6t1 -10l6 -19l2 -6l11 -53l2 -68q-5 -59 -19 -112 v-4q0 -3 -4 -17.5t-4 -17.5v-4q-9 -25 -31.5 -65.5t-31.5 -43.5q0 -3 -9 -12q-22 -28 -24 -35q-5 -4 -15.5 -13t-15.5 -13q-3 0 -6 -3t-7 -8t-5 -6h-4l-4 -4q-9 -24 -60 -39q0 -19 4 -51q0 -2 2 -4v-10q2 -2 2 -11q-2 2 -22 2l-68 -8q-7 11 -18 86q-8 2 -39 6q-19 0 -21 2 h-16q-2 2 -8 2q-4 1 -9 2.5t-14 5t-16 5.5l-2 2q-5 0 -12 5t-16 13t-11 10q0 3 -2 3q-2 4 -10 12q-12 0 -19 20h-4q0 11 -14 33z" />
<glyph unicode="%" horiz-adv-x="768" d="M39 1038l2 25q25 93 55.5 141.5t93.5 79.5v2q46 23 101 23q51 0 84.5 -23.5t33.5 -73.5q0 -4 -1 -6q0 -8 2 -10h4q0 -96 -8 -115l-54 -120q-38 -47 -59 -50v-2q-4 0 -14 -10q-2 0 -10.5 -5t-14.5 -5q-2 -1 -4.5 -2t-3.5 -1.5t-2 -0.5q-21 -11 -30 -14.5t-23.5 -7 t-32.5 -3.5q-58 9 -64 25q-10 3 -10 10q-8 0 -31 23l-2 6l-2 2v8q-2 0 -2 2l-2 4q0 1 -0.5 3t-1.5 6.5t-2 8.5q0 76 -2 80zM57 8q3 0 13 21v4q4 7 4 14l2 4q15 35 25 61.5t19 52t15 40.5q2 5 19 44.5t32 76.5q2 0 2 8v8q0 2 2 4t3 4v2l6 13q0 11 24 69q3 3 6 15 q29 57 58 129q0 11 19 53t20 49l16 39l59 186q17 37 37 88t37 84l4 4l23 56q0 4 7 21t7 24q1 2 5.5 10t7.5 15.5t3 13.5q42 82 52 92v4q4 4 8 4l6 -8q4 0 4 2h8q2 2 11 2l2 -2q0 2 36 2q-11 -34 -20 -49q-9 -9 -12 -29q-9 0 -9 -10q0 -2 -2 -6t-2 -6l-12 -29 q-12 -18 -12 -33h-4q-2 -2 -2 -14q-23 -57 -48 -134.5t-53 -142.5h-4v-4q-52 -120 -61 -170q0 -5 -2 -8.5t-2 -5.5h-4q-13 -27 -13 -33v-2l-8 -16q-4 -4 -4 -7q0 -6 -4 -10l-23 -43q-4 -17 -12 -35q-7 0 -10 -20l-4 -29q-15 -24 -27 -73l-26 -54l-11 -51q-17 -24 -26 -78 q-16 -16 -16 -25q0 -4 1 -5h-4q-57 -117 -90 -177l-8 -20l-8 -8q-19 0 -21 -2q-4 4 -15 4h-5q-19 0 -19 16zM360 137q0 77 33 168l8 25q3 3 3 4t-1 2l48 67h4q0 7 8 16.5t24 24t17 15.5q2 0 8 5t10 5q0 7 11.5 12.5t19.5 5.5v5q1 0 7 2t12.5 4.5t9.5 3.5h4q4 -4 6 -4h8 l41 -6q0 -3 18.5 -15.5t24.5 -15.5l4 -12h2l2 -5q0 -3 4 -8.5t4 -9.5h2l5 -12q6 0 11 -26.5t5 -39.5q6 0 6 -24q5 -12 5 -32q0 -18 -5 -50l-4 -43q0 -2 2 -2q-2 -7 -6 -29v-2q-1 -2 -2.5 -4t-1.5 -4v-8q-3 -12 -8 -29q0 -5 -2 -9t-2 -6l-19 -30q0 -7 -16 -23q0 -4 -14.5 -19 t-14.5 -20q-6 0 -16 -10l-4 -2q-4 -4 -9 -7t-8 -4.5t-11 -3t-10.5 -2t-14.5 -2t-15 -1.5l-35 -9l-47 2q-12 2 -63 27v4q-9 4 -17 21h-4q0 14 -20 24q-2 2 -2 17q-5 42 -5 69z" />
<glyph unicode="&#x26;" horiz-adv-x="792" d="M41 1069v100q0 3 2 12.5t2 14.5l4 8v6q2 12 5 20t9.5 19t10.5 19l10 20l4 2l10 13l4 2l4 4q0 1 2 2t3 2l4 2q4 8 6 10h4q7 7 10 8h2v4q59 47 90 56q0 2 9 2v2q13 3 38 6h6h60q63 0 141 -27l4 -4h4v-4q39 -35 56 -65t33 -89v-49q-16 -84 -19 -118q-37 -85 -51 -99 q-5 -15 -16 -28l-19 -35q-7 -4 -26.5 -25.5t-26.5 -23.5q-2 -6 -29 -33v-4q-10 -3 -14 -11q-12 0 -15 -18q-4 0 -20 -16q2 0 5.5 -5t6.5 -11t4 -7q0 -8 2 -10q4 0 9 -8q0 -2 2 -6t2 -5l2 -2v-2q6 -3 24 -30q8 -13 69 -90.5t91 -131.5l19 -30q6 -3 6 -8q4 0 6 -2v-3 q26 -22 39 -22q7 0 10 6q2 2 8 2v4q9 0 14.5 4t11.5 11t9 10q2 0 8 6q-2 2 -2 8q8 8 14 8q0 -3 7 -10q0 -6 2 -8l4 -8l2 -8q3 -6 13.5 -17.5t19 -21.5t8.5 -13l-4 -4l4 -8q-15 -9 -27 -27q-24 -15 -24 -28h-5l-14 -21q-10 -10 -14 -18q-6 -6 -8 -6l-9 -9q-2 0 -2 -2l-4 -2 l6 -10q10 -7 13 -12l18 -14q5 -10 14 -19q0 -12 19 -31q4 -4 4 -8q4 -4 4 -6q5 -5 8 -6q6 0 11 -8q0 -24 -13 -27v-6h-4l-2 -4q-3 -3 -9.5 -8t-10.5 -9l-21 -2q-5 5 -10.5 14t-9.5 13q-14 6 -23 33l-12 10q0 13 -19 23q0 2 -7 8t-9 6l-4 8h-4q-3 -10 -53 -45v-2 q-21 -9 -33 -21q-7 -4 -28 -17.5t-40.5 -26.5l-34.5 -23q-1 -1 -5 -3.5t-7.5 -4.5t-5.5 -2q-59 -14 -82 -29h-25q0 4 -43 4q-13 6 -38.5 17.5t-38.5 17.5q0 2 -2 2q-3 7 -11 10l-4 4l-4 2q-24 24 -26 33q-2 2 -5 2v4h-2q-3 16 -12 25q0 1 -1.5 4.5t-3.5 7.5l-3 6q0 5 -8 21 q0 1 -0.5 3t-1.5 6.5t-2 8.5v6q-1 0 -1.5 1.5t-1 3.5t-1.5 4v12l-9 53l-4 45q-1 9 -1 26q0 16 1 23v24q0 25 13 126q0 4 4 8q3 8 9.5 25t10.5 26q8 19 21 51.5t20 48.5t19 38.5t27 40t36 34.5l-2 6q-3 0 -9 8.5t-9 8.5q-8 11 -19 18q-13 18 -20 25l-45 59q-5 10 -9 14l-8 17 q-35 73 -47 117v14z" />
<glyph unicode="'" horiz-adv-x="251" d="M55 1206v8v7q0 13 6 34q8 8 50 11q2 0 4 2q4 2 10 2h8l4 2q4 0 6 2t7 2h4h4h12q31 0 33 2q-2 -2 -2 -8q-3 -3 -6 -39l-13 -133q-15 -111 -30 -162l-17 -23h-8l-8 -4l-45 -16v31q0 18 6 86q-6 45 -8 47l-4 49v20q-1 5 -1 9.5v6t-1 1.5q-4 13 -7 37v14z" />
<glyph unicode="(" horiz-adv-x="421" d="M37 567q0 15 2 17l-2 75l6 52q8 13 8 63q15 56 15 98q15 54 18 84q13 56 18 64v16q0 7 2 11t2 8v6l9 16l-2 4q8 8 14 45q4 8 12 25.5t11 24.5q8 31 20 43v6l12 18l23 41q0 7 28 55l13 17q8 6 20 26q13 22 21 25l6 6h2v4q10 10 14 10q0 3 2 5q19 21 32 21q9 0 13 -11 l15 -10v-5l6 -6l8 -8q-3 -26 -20 -35v-6q-10 -5 -15 -10l-10 -10l-4 -6q-4 -4 -12 -23q-5 -10 -9 -14q-15 -34 -28 -47q-30 -62 -68 -162h-2q-3 -8 -12 -35q-15 -30 -15 -39q-4 -18 -12 -43q-9 -24 -12 -45q-8 -35 -12 -53l-2 -21q-1 -11 -2 -20.5t-2 -13.5t-1 -5 q-1 -5 -1 -13q0 -7 1 -9l-8 -60q0 -6 -2 -8t-2 -10v-6v-111l8 -98v-2l2 -4l2 -4v-13v-22q2 -29 7 -53q3 -24 12 -45q0 -9 6 -27q8 -13 8 -25q2 -2 2 -4q2 -2 2 -6q3 0 6 -6l5 -4l2 -4v-2q0 -2 2 -2l2 -4l2 -4l2 -5q2 -6 6 -14l8 -16q-2 0 -2 -2q3 0 16 -25q11 -11 21 -31 q2 0 4 -2v-2l4 -4l4 -2v-4q12 -12 13 -14q3 -6 12 -15q0 -10 22 -32q-4 0 -6 -2q3 0 6 -3v-4q10 -10 15 -22l18 -23q0 -6 -2 -8q0 -6 -2 -8h6l-4 -8q-2 0 -10 -8q-21 -3 -25 -15q-3 0 -8 -8l-12 -2q-4 4 -8 4l-7 4l7 -2q0 2 2 4q-13 0 -25 15q-10 10 -18 14l-11 12 q-5 3 -12 19q-3 4 -6.5 8.5t-5 6.5t-2.5 3l-17 25q0 10 -8 18t-8 19h-4q-3 15 -14 26v10q-4 0 -17 19l-10 26h-2q-3 12 -10 19l-7 29l-4 12q0 8 -2 10q0 2 -2 6q0 2 -2 4q0 6 -2 8q0 5 -2 7h-4l-6 12l-25 84l-12 74q-1 7 -2 15.5t-1.5 13t-0.5 7.5q1 4 1 13q0 15 -5 22z" />
<glyph unicode=")" horiz-adv-x="321" d="M33 1439q0 6 1 9q6 6 12 8q25 19 52 27q6 0 10 -4q2 0 4 -2l4 -4l10 -25q0 -2 2 -4t2 -10q7 -7 7 -13h4q-2 -2 -2 -4q10 -10 28 -59q23 -48 23 -54v-1l35 -103q2 0 4 -2q6 -42 12 -51l4 -33l4 -16q0 -7 2 -11q2 -2 2 -4l6 -55l7 -59l4 -29v-6l4 -8v-13l12 -122 q2 -6 2 -18q0 -6 -2 -36q2 -14 2 -21q0 -8 -2 -22v-67q-1 -19 -2 -43t-1 -29q0 -7 1 -8l-2 -10v-21q-3 -9 -3 -20q0 -10 1 -15q-8 -19 -8 -35q-3 -59 -19 -96l-4 -8v-10v-21q-2 -2 -8 -24l-8 -25q-7 -7 -10 -22l-3 -7l-4 -12v-8l-2 -6h-4l-24 -62q-3 -24 -15 -36l-59 -109 h-6q-3 3 -31 6q-6 3 -27 6q0 9 -2 11t-2 4q5 5 13 26l8 17l4 8l4 4l4 8l19 55q2 0 12 23q2 12 6 16q0 9 4 13v4q4 0 4 6q10 17 25 69q7 3 10 35l8 37l-4 2q2 0 2 19l12 51l7 43q-4 4 -4 10q0 9 6 21v10l-4 22v23q2 2 2 12v219v6q-2 2 -2 25q-1 4 -1 10q0 10 3 13l-2 2v8v10 q-7 22 -9 35l-4 57q-3 45 -6 74q0 12 -2 16v11v6l-4 4q0 14 -2 16q-2 4 -2 17q-4 20 -4 22l2 2q-3 0 -6 8l-4 8v9q0 10 -2 12q-16 94 -35 131q-10 10 -27 66q-22 54 -31 57q0 5 -8 18q-3 9 -3 16z" />
<glyph unicode="*" horiz-adv-x="423" d="M51 1130q0 18 3 26t7.5 10t16.5 3q1 0 6 0.5t15 1t22 0.5l12 3q-4 12 -20 20q-23 14 -37 14l-8 4h-7q-3 3 -3 9q0 5 1 8q3 11 9 16l8 17l10 10q2 2 18 2q8 -11 33 -17q3 -8 17 -12q15 -6 22 -6v35l8 31l11 14l36 -6q9 -3 15 -6l8 -2q-6 -25 -6 -45q0 -18 6 -27q9 9 27 12 l73 43q4 4 17 4q-2 -2 -2 -8q5 -15 5 -44q0 -21 -1 -32h-11l-71 -30q-21 -15 -25 -15l6 -4l9 -8q4 -18 24 -27v-2h4q0 -9 41 -24l4 -4l2 -2q2 -2 4 -2l-6 -13q-6 -2 -16 -18q-6 -15 -10 -19q-2 -9 -9 -9q-4 0 -10 3l-8 4q-13 19 -29 19v4q-5 0 -20 12q-11 11 -17 11h-2 l-2 -1l-2 -61q2 -2 2 -53q-10 0 -47 -13v-4h-4q-6 3 -6 11q-2 2 -2 10v10v49q-2 4 -2 41h-4q-2 0 -2 -2q-4 0 -14 -10q-8 -4 -11 -17q-4 -4 -6 -8l-16 -16q-4 -8 -19 -23q-2 0 -20 11q-17 10 -19 12q0 13 11 24q0 5 6 17l8 8l12 8l15 15l14 20l-41 -6l-2 -2q-1 1 -4 1 q-2 0 -8 -3q-15 0 -17 2q0 24 -2 26z" />
<glyph unicode="+" horiz-adv-x="487" d="M49 495q0 1 1 3v2q3 30 10 41l8 4h6h8q1 1 3 1.5t5 1t5 1.5h14h27q2 2 20 2q22 0 43 -6q5 2 23 6l6 90q-3 22 -6 61q3 23 6 31h10q4 0 6 2t6 2h7l40 -4q0 -31 3 -37v-34q2 -2 2 -23q0 -78 2 -80h8q0 3 6 6h18h21h18h15h4l8 4h10q6 0 8 2t11 2h6l-4 -14l-2 -14 q1 -18 2 -39.5t1 -25.5q0 -6 -1 -7l-4 -2q-7 0 -13 -4q-4 0 -16 -4h-27q-2 2 -37 2q-4 0 -4 -2h-10q-2 -2 -12 -2q0 -11 -2 -21v-39q-2 -18 -2 -49l6 -82h-2v-12q-28 0 -86 -10l-4 4q-2 2 -2 4v39q2 4 2 49q0 37 -2 39v82q-11 0 -15 -4q-8 0 -10 -2h-22q-4 -2 -35 -2l-78 2 q-9 27 -9 36z" />
<glyph unicode="," horiz-adv-x="309" d="M53 8v12q0 18 7.5 69.5t11.5 64.5q3 9 8 14q3 3 7 4t11 2.5t13 3.5q13 6 28 6h3h8q23 4 63 15q17 0 27 -29q8 -40 8 -47v-2l2 -8l2 -93q-5 -38 -15.5 -59.5t-11.5 -23.5l-14 -31q-30 -23 -35 -25v-4q-60 -21 -84 -24q-2 2 -2 10l-1 1q-2 1 -2 2l1 1q9 9 20.5 26t14.5 19 q20 30 25.5 43t5.5 33v18q-72 -5 -86 -5q-8 0 -9 1z" />
<glyph unicode="-" horiz-adv-x="497" d="M57 532q0 33 2 35v2l4 4q5 29 16 29q3 0 8 -1t7 -1h4h3l2 1q5 0 8 -3h10h6l41 6q13 0 41 4q139 0 209 6q5 1 12 2t8 1q2 0 2 -1v-8q-2 0 -4 -2q-2 -4 -2 -45l-4 -12q-2 -2 -2 -10l-2 -4q0 -3 -2 -3v-6v-2l-8 -12h-6q-13 8 -134 8l-49 -10q-29 0 -75 1t-76 1q-6 -2 -8 -2 q-3 0 -5 2q-3 7 -6 20z" />
<glyph unicode="." horiz-adv-x="272" d="M55 76q0 59 21 74q4 4 12 8v4q26 16 39 17q23 3 57 -13v-2h6v-4q25 -16 25 -49q2 -16 2 -22q0 -19 -8 -38q-3 -3 -12 -18q-7 0 -7 -8h-6v-5q-9 -3 -12 -6v-2q-17 -3 -22 -6v-4q-2 -2 -25 -2l-25 8v2l-6 2v2l-6 4v2l-8 5q-2 2 -2 6h-2q-7 5 -14 19t-7 26z" />
<glyph unicode="/" horiz-adv-x="552" d="M33 -113q0 23 8 47l6 48q10 30 19 67l12 37q1 6 8 27v6l2 4q0 14 2 16t6 21q3 15 6 24q5 17 19 49l2 5v12q2 2 2 12l8 37q-2 2 -2 6q30 105 37 141q26 61 29 107l24 84q0 49 21 108q18 51 22 93q4 0 10 26h5q0 16 8 29q6 15 6 25q18 18 18 53q0 4 2 6t2 10l2 4l2 4 q0 14 9 29q8 13 8 29q8 20 12 34l8 43l2 5q2 2 2 8q2 2 2 8q3 3 3 10q0 6 2 8q7 11 7 18q0 3 -1 5q2 2 20 51l29 74q4 0 4 6q4 4 4 8q4 2 76 2q10 0 12 -2l-2 -2q0 -6 2 -8q-9 0 -12 -39q-21 -42 -33 -94h-4q-13 -19 -20 -76h-3q-6 -14 -12 -43l-6 -43l-29 -92 q-12 -21 -34 -107q-34 -124 -35 -131q-2 0 -4 -2t-2 -12q-31 -93 -45 -176l-31 -123q-2 -21 -19 -76l-16 -55l-43 -121q-26 -33 -41 -123q-27 -46 -27 -135q-16 0 -18 -2z" />
<glyph unicode="0" horiz-adv-x="673" d="M39 559v141v15q2 2 2 16q0 8 -2 10v45q3 3 6 29q3 30 10 37q-2 2 -2 8q21 112 74 225v5l2 2q0 2 2 2l2 4v2q2 2 2 4q4 0 19 24q0 3 8 11q0 4 2 6l2 4l4 4l2 2q2 2 2 6l2 2l4 4l4 4l2 5l4 4l3 2q2 2 2 4l16 14q6 9 12 12l4 5q14 14 15 16v2l12 8q39 39 72 49q6 6 16 11 l12 4h4h4l9 -4h10l22 2q7 1 19 1q10 0 14 -1q14 -3 17 -13q6 0 8 -2v-2q15 -3 39 -18l6 -6v-4q9 -3 12 -11q6 -6 14 -10l7 -6l4 -2q14 -25 14 -39q13 -4 13 -16v-2q-1 -2 -1 -3q7 0 9 -2q6 -15 6 -16h6v-6q10 0 10 -23q9 -15 12 -47l4 -8l2 -2q-1 -1 -1 -4q0 -2 4 -10l4 -21 q2 -2 2 -10q3 -12 6 -39q0 -74 2 -80q-2 0 -4 -2l4 -27q0 -92 -6 -126v-19q-4 -24 -4 -61q-2 -18 -7 -95l-14 -59q-13 -74 -14 -78q-3 -43 -10 -61q-21 -27 -33 -74q-5 -5 -15 -31l-6 -12l-4 -10q-2 -2 -2 -6q0 -11 -2 -13v-8l-2 -2q-7 -7 -14 -24h-6q0 -6 -11 -17 q-8 -13 -8 -20h-4q-11 -19 -18 -21l-9 -12l5 -4q-12 0 -15 -15q-9 0 -12 -18q-15 -4 -25 -14q-17 -12 -24 -19q-4 0 -4 -2l-9 -4l-2 -2q-2 -2 -4 -2q-13 -13 -65 -41h-6l-4 -2q-7 0 -9 -2h-10q-6 0 -12 4q-7 0 -19 4h-10h-6l-4 2l-16 8q-2 2 -2 5q-3 0 -9 6q-6 3 -6 8h-4v2 h-2l-2 6l-4 4q-1 1 -2 3t-2 3h-4v4h-2q-28 46 -31 56l-16 32q-2 16 -13 41q0 1 -1.5 4.5t-2.5 6.5q0 8 -4 12l-2 12l-14 53q-13 49 -13 50q-6 40 -12 123q2 0 2 1t-2 3v10q-1 1 -1 2t3 4q-2 2 -2 12q-2 2 -2 13z" />
<glyph unicode="1" horiz-adv-x="317" d="M37 1069q0 14 2 16q0 5 14 13q4 0 6 2t7 2q4 4 8 4l2 2q0 5 8 10q8 8 14 8v4q28 28 39 31q10 10 25 31h4q0 6 2 8q0 2 4 2l-2 2q10 12 20 51l15 27q2 2 14 2v-2q4 0 8 -4l11 -4q30 0 32 -2v-23q0 -8 2 -10t2 -8v-12q-6 -120 -14 -138l-4 -37q0 -20 -2 -24q0 -21 -2 -23 t-2 -22q-2 -4 -2 -25l-4 -37q-2 -2 -2 -84q-1 -8 -1 -23q0 -29 5 -61l-4 -24v-29l-4 -155q-4 -8 -4 -15q0 -4 2 -16q0 -13 2 -17v-38q2 -6 2 -52q0 -45 2 -51v-41q2 -4 2 -16l2 -4q0 -11 -2 -13t-2 -16q0 -8 4 -12h-4q1 -3 1 -13q0 -11 -1 -18q-1 -1 -1 -5q0 -3 1.5 -11.5 t1.5 -12.5q0 -90 2 -98q-2 -2 -2 -18l2 -27q2 -4 2 -39q-4 0 -4 -4q-10 2 -22 2q-8 0 -36 -2q-23 3 -30 10q-3 12 -3 24q0 10 3 21q-2 32 -2 40q0 14 2 22l-2 2q0 148 2 162l-9 53q0 78 -2 86q0 2 2 2v4q-2 2 -2 8t-2 8v9q0 147 2 161q0 23 -2 27v16l-2 7q0 39 2 43 q0 15 4 65q0 26 9 35h-2q0 16 -2 18v23q-2 6 -2 8t2 8q0 103 2 107l8 69q0 9 2 11v24q2 4 2 29l-2 2q-27 -21 -27 -35q-2 -2 -8 -2v-4h-2v-2q-7 -4 -25 -17q-13 -12 -30 -16l-13 -4v-2q-2 2 -10 2l-4 16z" />
<glyph unicode="2" horiz-adv-x="477" d="M37 1090q37 113 113 182q2 0 25 11t34 11q2 2 4 2q2 2 6 2q2 2 8 2h27q37 -8 102 -43v-4q7 -6 14 -14.5t13 -20t10.5 -20.5t10 -24t8.5 -22.5t8.5 -25t7.5 -22.5q-2 0 -2 -2q10 -3 10 -51q2 -26 2 -36q0 -18 -4 -44v-76q-4 -17 -8 -55l-2 -4q-2 -2 -2 -7q-6 -11 -14 -49 l-5 -4l-20 -82l-2 -2q-11 -64 -37 -133l-20 -78q-4 -4 -7 -18l-8 -25q-3 -9 -8 -14l-27 -80q-21 -34 -24 -59q-3 0 -10 -20.5t-7 -24.5l-16 -37l-4 -4q-2 -11 -16.5 -43t-14.5 -54h8q2 -2 11 -2q10 0 12 -2h16l2 2q12 -1 37 -4.5t48.5 -5.5t52.5 -2l47 12l2 -2q0 -4 2 -4 q0 -18 -2 -20v-33q-2 -4 -2 -35q-27 -3 -35 -6q-26 0 -71 3.5t-73 3.5q-26 0 -40 -1q-2 2 -13 2q-2 2 -12 2q-21 -3 -27 -6h-75v6q2 2 4 2h-4q5 21 15 57t17 64l25 103q4 0 4 10q38 126 45 143q28 63 37 100q14 33 72 173q3 13 6 20q0 1 -0.5 2.5t-0.5 2.5v2q7 27 23.5 70 t20.5 70q8 61 8 113q0 29 -3 72t-3 55l-4 12v11l-6 18h-2q0 18 -27 45q0 4 -2 6h-4q0 7 -33 23q-4 0 -8 4h-2q-32 4 -39 6q-16 -5 -59 -37q-3 -3 -19 -35l-6 -30l-4 -5q0 -6 2 -8q-10 -10 -37 -10h-16q-3 2 -16.5 8t-16.5 13z" />
<glyph unicode="3" horiz-adv-x="468" d="M33 43q0 3 0.5 8.5t1.5 16t2 20.5q20 3 26 6q61 0 99 10l20 15q14 4 60 33l28 45q29 70 31 77q21 75 23 101l-7 106q-3 0 0 6l-14 52q-3 3 -6 20q-8 0 -8 25l-15 47q-8 16 -47 74q-9 12 -37 40q-4 4 -10 7l-12 6q-22 22 -76 28l-20 5q-4 0 -6 2t-7 2l-2 4v6q-2 2 -2 8 q2 2 6 10l5 6l73 127l33 43l21 31l12 19l6 8l4 4l84 135q0 22 14 47q-6 3 -43 0q-38 -3 -43 -8q-8 0 -10 -2h-10q-2 -2 -6 -2q-42 0 -66 -8q-27 -9 -61 -9q-7 10 -13 41l-4 5q0 28 2 30q7 -3 13 0q8 0 10 2q0 2 20 2q2 2 50 2l4 2q14 0 16 2q5 0 8 3l13 4q8 0 10 2t14 2 l25 8h2h6l8 4h8q8 0 10 2t11 2q6 0 10 2q2 2 4 2l6 2q52 3 82 13l39 2q0 -5 2 -5q-6 0 -6 -14l-18 -45l-23 -59l-41 -86l-20 -43q-1 -3 -7 -15l-8 -16q-23 -55 -45 -92q-8 -13 -8 -19l-8 -16q-1 -2 -2 -5l-1.5 -4.5t-0.5 -2.5l-6 -11q-3 -3 -3 -6q0 -4 -2 -6t-2 -6 q-9 -18 -6 -31l8 -4q0 -9 15 -24l37 -39q20 -20 36 -49q-2 -2 5 -13q11 -11 8 -14h4l47 -111q0 -6 2 -8v-6l4 -4q0 -12 4 -16l2 -3q0 -4 6 -22l9 -37q13 -34 16 -63l-6 -103l-6 -63l-27 -92q-7 -7 -10 -19q-6 -12 -8 -14l2 -2q-6 0 -15 -21l-4 -8q-6 -3 -16 -16l-19 -25 q-32 -29 -63 -41v-2q-21 -3 -47 -18q-34 -8 -57 -19q-21 -3 -27 -6l-82 -4q-8 36 -8 43z" />
<glyph unicode="4" horiz-adv-x="489" d="M33 725q4 4 4 12l4 8l2 5q2 0 2 12l37 110v5q4 4 4 12l2 2q2 2 2 4l2 4q2 14 15 44.5t14 33.5l2 6l22 43l7 16q28 69 34 86q7 7 13 27q7 19 12 25q15 46 61 104q12 8 24 8q7 0 11 -4l4 -2h11q2 -2 12 -2q23 -3 31 -6q22 0 24 2q2 -2 12 -2l-4 -21q2 -2 2 -4t-2 -8v-14v-2 v-2v-88q3 -53 6 -74q0 -51 -2 -57q-1 -13 -1 -38q0 -23 1 -32v-8l5 -10v-11v-28l16 -4h16l17 -9h-4q0 -59 2 -61q-2 -2 -2 -19q-2 -2 -25 -2q-2 2 -25 2v-38l-4 -29v-12l-4 -54v-172q3 -83 3 -145q0 -22 -0.5 -65t-0.5 -66v-7q0 -4 1 -11.5t1 -10.5q0 -4 -0.5 -10.5 t-0.5 -9.5q0 -9 1 -13q-2 -4 -2 -49l2 -4v-10q2 -2 2 -16q0 -17 2 -19v-14l2 -4q0 -13 -6 -25l-28 -4h-31q-6 0 -8 2q-1 3 -5 9.5t-4 9.5t-1 13.5t-1 31.5q2 114 2 140q0 47 -2 77v14q2 0 2 1t-2 3v35v4l-4 12v17l-4 49q-1 6 -1 17t1 16q0 2 -2 4q0 14 -2 16v29q-2 6 -2 35 q-3 63 -6 108q-3 67 -6 70l-60 6l-120 -6v-2q-33 0 -39 2q-33 0 -35 2t-6 10z" />
<glyph unicode="5" horiz-adv-x="466" d="M39 1186v28q11 6 47 15q37 6 51 12q2 2 37 2q0 3 12 6q2 2 7 2q2 2 8 2h16q21 0 23 2q55 0 69 7q62 0 66 4q17 5 25 5q4 0 6 -1q8 0 18 -17l8 -43q-8 -3 -8 -4l4 -2v-4l-16 -4q-51 0 -78 -12v2l-4 -2l-41 -6l8 -4q-26 0 -41 -9h-25v-4h-16v-4q-10 0 -25 -6q-13 -8 -24 -8 l4 -4q-12 0 -14 -2t-9 -2q-8 0 -10 -2q-6 -3 -12 -9q0 -26 -8 -47v-20v-6q-1 -1 -2 -3.5t-2 -3.5v-6v-26h4v-2q0 -15 2 -17t2 -16l82 -27l12 -4l21 -12l18 -12l6 -2h4v-2q9 -6 23 -13l2 -2q2 -2 4 -6l8 -8l8 -8q2 -2 4.5 -6t3.5 -5q1 -2 9 -10l4 -2q0 -4 4 -8h4q3 -14 8 -19 l21 -45q4 0 4 -6q5 0 8 -18v-17v-4q1 -1 2 -3t2 -3v-4q9 -27 12 -39q10 -30 13 -51v-51q1 -5 1 -14t-1 -13v-49v-10l-5 -8v-4q-8 -8 -14 -66q-2 -2 -2 -20v-9l-4 -8q0 -4 -2 -6t-2 -6v-8v-2l-4 -2q-3 -56 -66 -158l-57 -76l-12 -20q-24 -18 -33 -33q-1 -1 -3 -2t-3 -2l-4 -4 q-1 -1 -5 -4t-6 -5l-4 -6l-12 -12q-14 -14 -20 -14v-4q-19 -3 -29 -19q0 -3 -12 -6q-13 7 -13 15v3h-4v5l4 4q-4 4 -4 22q-11 26 -11 47q0 16 7 23l12 4h13l30 20l19 19l4 2q0 2 4 2v2q27 18 61 76h5l28 45q3 11 33 76q17 31 25 77l4 2v41v93q0 21 -9 36q0 36 -8 72v4 q0 33 -20 47q0 12 -8 25q-3 0 -11 8l-14 25l-4 4q-2 4 -8 10l-4 4l-4 2l-5 4l-16 17q-9 6 -12 6v4q-8 0 -10 2q-9 0 -11 2v4q-2 2 -4 2q-2 2 -6 2q-2 2 -10 2l-8 4q0 2 -4 2q-5 2 -13.5 6t-11.5 5l-8 4h-4q-31 8 -62 8l-2 4q-2 2 -2 10l8 2h-4q-1 12 -1 42q0 33 1 52 q-5 23 -5 85q0 48 1 77l-4 2v2v21h-4zM190 854l5 -4l4 4h-9zM309 702l4 -2v5q-4 0 -4 -3z" />
<glyph unicode="6" horiz-adv-x="645" d="M39 545q3 30 10 37q0 10 6 28l8 41l5 19q0 2 2 4t2 10q22 42 30 74q2 12 19 35q15 24 18 38q58 107 58 113q2 0 12 23l8 12q2 2 14 20q7 14 7 17q8 3 28 41l2 4l8 8l5 4l2 2q2 2 2 4h2q0 9 6 15l6 8l12 12l4 4q1 2 9 10q2 0 43 50l16 16l20 23q7 10 13 10l49 37 q8 0 22 14q13 11 20 11q1 0 3 -1q4 -8 10 -14q0 -41 2 -45q0 -2 2 -4q0 -8 -6 -17q-6 -12 -6 -18q-9 0 -18 -12l-11 -11l-6 -4v-4h-4q-12 -9 -24 -24l-7 -5l-10 -10l-8 -8l-6 -6l-2 -4l-17 -17q-7 -2 -10 -14h-4q-47 -53 -47 -63h-2l-2 -4q-3 -3 -8 -13l-13 -20 q-3 -7 -8 -13q0 -4 -4 -8l-4 -8l-4 -4v-4l-2 -2q-18 -18 -27 -45q-6 -6 -28 -49q-4 -4 -13 -31q-2 -2 -18 -45q-6 -21 -6 -35h-2q-2 -2 -2 -20l-2 -2q0 -6 -3 -9q-2 -8 -6 -20l-8 -23q-11 -19 -11 -47q0 -2 0.5 -7.5t0.5 -8.5q-7 -32 -7 -47q0 -4 1 -6h6l33 12q28 6 37 12 l32 4q2 0 6.5 0.5t13 1.5t15.5 2h4q2 -2 4 -2q2 -2 6 -2h17q1 0 3 0.5t4 0.5q19 0 44 -13q10 0 25 -6v-4q8 -2 67 -29l4 -2l6 -6l11 -10q8 0 18 -17q7 0 10 -12h4v-4h5q0 -2 4 -6q-2 -2 -2 -4l6 -7l4 -4l2 -2q2 -2 2 -4q9 -12 16 -14q2 -10 19 -49q15 -35 18 -54 q0 -14 4 -18q-1 -15 -2 -29l-1.5 -21t-0.5 -9q-4 -32 -4 -41l-2 -13q-9 -39 -23 -61v-8h-4l-2 -2l-2 -2q0 -4 -2 -4l-4 -5l-2 -4l-8 -12q-6 -6 -6 -8l-10 -10l-5 -6q-5 -5 -8 -5l-2 -2q-2 -2 -4 -2l-4 -2l-12 -12q-12 -3 -21 -6q0 -8 -28 -14v-5q-3 0 -5 -2q-8 0 -10 -2v-4 q-79 -4 -108 -10l-56 10l-8 4l-4 4l-4 2q-3 0 -6 3q-2 2 -4 2q0 4 -15 10q-12 6 -12 14q-18 9 -18 19h-4q0 15 -37 30q-4 8 -13 17q-10 13 -12 20h-4q-3 12 -14 23q-3 16 -17 30q-9 19 -14 41l-8 29q-3 20 -10 27l-9 24v6q-1 0 -1.5 1.5t-1 3.5t-1.5 4v12l-4 35l-8 32v11v8 l-2 2q0 25 2 27v24q2 2 2 17z" />
<glyph unicode="7" horiz-adv-x="530" d="M33 4q0 57 8 70l-4 4h4q38 134 49 160q0 16 7 31t9 24q0 1 1 3t2 6.5t2 8.5q8 32 35 107.5t36 122.5q6 40 15 49q1 5 51 180q38 106 43 135q12 21 18 56h2q1 5 17 59q4 8 10 24q3 5 21 57t20 54l14 39q-25 -3 -74 -18q-49 0 -143 -11l-94 -6l-6 6q0 11 -2 28.5t-2 24.5 q0 5 2 15q0 14 3 20.5t15 6.5v2q4 0 12 4t11 4q65 0 92 6q53 5 132 20t91 17q1 0 21.5 7t23.5 7q7 3 14 3q6 0 9 -1q-2 -2 -2 -33q-3 0 -13.5 -40.5t-22 -90.5t-14.5 -59q-27 -81 -81 -299q-47 -142 -58 -164l2 -6h-2q0 -1 -6 -26t-6 -27q-6 -20 -11.5 -38.5t-8.5 -27 t-3 -10.5q-7 -31 -16 -63.5t-16.5 -58t-19.5 -62.5t-18 -56.5t-21 -62t-20 -56.5t-22.5 -62.5t-21.5 -59.5l-6 -13q0 -4 -2 -6l-3 -4l-59 -4q-6 0 -8 2q-4 0 -6 2z" />
<glyph unicode="8" horiz-adv-x="733" d="M39 381v10v27l2 2q2 2 4 2q-2 2 -6 2q0 71 8 90v6q0 30 8 43q6 27 6 43l15 35q10 41 16 49l17 43l20 37l27 37q3 0 14 14l8 8l6 7l2 4q24 20 31 30q-4 8 -12 11q-4 12 -6 14h-6v4q-2 0 -5 6l-2 4l-2 2q-2 2 -2 4q0 5 -4 9q-4 8 -12 16q-6 32 -19 39q-2 2 -2 33l5 32v17 q0 6 2 8q0 4 2 6l32 82l4 4q0 2 3 2l2 4l16 17l8 8l2 4l4 4q24 12 35 23q2 2 10 6l6 4l13 8l16 8q11 4 31 15q8 0 10 2q6 0 8 2t15 2q4 0 6 -2h28q11 4 23 4l57 -25q15 -3 27 -12l10 -10l6 -4l9 -9l18 -18l27 -45q0 -33 2 -35q2 0 2 -4v-12q0 -11 2 -13v-51q-9 -47 -13 -51 l-20 -55h-2q-9 -27 -39 -39q0 -4 -16 -10l-23 -17l4 -4l4 -2l4 -4l21 -12l16 -11q9 -15 19 -18q0 -2 8 -10l18 -19l13 -10q0 -2 2 -2l2 -4l2 -2q2 -2 2 -4h4l4 -6l4 -11q1 0 8 -10q8 -8 17 -24l2 -2q2 -2 2 -5l4 -4l2 -6l-2 -2q25 -51 25 -63q0 -1 -0.5 -1t-0.5 -1l2 -4 l3 -3q0 -4 2 -4q0 -7 16 -63l4 -47q7 -11 7 -23q0 -5 -1 -8q3 -14 3 -31q0 -16 -3 -36q0 -66 2 -72q0 -23 -2 -25q0 -20 -2 -22l-10 -43h-4l-25 -74q-4 0 -12 -14q-3 -14 -8 -19v-4h-6q-2 -2 -2 -8h-3q-23 -41 -55 -66v-4q-7 0 -20 -8t-17 -8l-8 -6v-4q-17 -3 -22 -6v-3 q-2 -2 -56 -8h-2h-6l-8 -4h-8q-28 -4 -43 -6q-2 -2 -21 -2l-20 4l-21 4h-22q-23 0 -25 2t-14 2q-6 2 -9 2t-5 -2q-45 10 -109 43h-2l-2 4h-4v4q-4 4 -10 7v4q-6 0 -17 20q-3 16 -10 23l-29 71q-11 45 -11 102q0 5 0.5 15.5t0.5 16.5v34v13zM281 766l12 6h-8zM438 760l2 2 q4 0 4 2h-6v-4zM459 750q2 0 4 -2v4q0 -2 -4 -2zM649 612q2 0 2 -4v4h-2z" />
<glyph unicode="9" horiz-adv-x="483" d="M39 1042q0 23 2 27q2 2 2 21q2 4 2 22q12 19 14 31l13 22q5 10 6 11q20 23 39 34l20 21l4 2l9 8q17 10 32 21l25 16l16 8q4 11 23 14l10 5q0 2 20 8q13 8 23 8q47 0 94 -18v-3q15 0 15 -6l12 -4v-6l4 -2q-2 -2 -2 -8h-6v-4l2 -2q2 -2 2 -4v-9q1 -4 2 -8.5t1 -5.5t-1 -2 h-2l2 -2l2 -2q8 -39 8 -59q2 -4 2 -56q0 -55 -2 -61t-2 -58q-12 -138 -12 -167q0 -33 2 -39v-9l4 -12v-12v-35q0 -66 2 -76q0 -10 2 -12v-12q2 -2 2 -9q0 -36 -2 -67v-129q-2 -55 -2 -158v-41q0 -49 -2 -51l-2 -90q0 -14 2 -16t2 -21q0 -18 -2 -20l-6 -13q-32 -3 -37 -8h-10 l-9 -4h-4v2q-2 0 -12 10q2 0 2 4q0 7 -2 9v6l-4 141q0 6 2 8q4 0 6 2h-6v13q0 12 -2 14v6l-4 86v72v20v10q-1 2 -2 6t-2 5v12v23q0 92 2 102q2 2 2 33l4 37q3 -3 4 -3q0 5 2 7q-6 3 -6 8l4 33q0 6 6 55q8 36 8 100q0 99 -2 109q-11 0 -28 -10l-13 -7q-4 0 -8 -4h-2 q-9 -3 -43 -6q-37 -6 -57 -6v-4q-6 2 -74 2q-12 0 -14 2t-8 2q-12 9 -27 12l-21 25l-8 16q-8 10 -14 78q-2 2 -2 12z" />
<glyph unicode=":" horiz-adv-x="292" d="M57 192q0 50 30 60v4q32 20 54 20q20 0 44 -17q29 -20 29 -54q2 -16 2 -22q0 -19 -8 -38q-3 -4 -9.5 -15.5t-10 -15.5t-11 -10t-18.5 -10q-5 -2 -20 -2q-27 0 -40 8v4l-6 2v2l-6 3v4q-13 7 -21.5 29.5t-8.5 47.5zM63 534q0 49 30 59v4q34 21 54 21q19 0 45 -18 q28 -20 28 -54q2 -16 2 -21q0 -19 -8 -38q-3 -4 -9.5 -15.5t-10 -15.5t-11 -10t-18.5 -10q-7 -3 -20 -3q-25 0 -40 9v4l-6 2v2l-6 2v4q-13 7 -21.5 30t-8.5 48z" />
<glyph unicode=";" horiz-adv-x="305" d="M51 8v12v7q2 2 2 4q2 2 2 6v8v35h4q-2 2 -4 2l13 37q3 3 6 12t8 14q11 11 33 19q24 12 32 20q38 6 56 6l8 9q17 0 27 -29q8 -40 8 -47v-2l2 -8l6 -93q-7 -34 -27 -112l-14 -31q-28 -22 -35 -24v-5q-60 -21 -84 -24q-2 2 -2 10q-2 2 -2 4q23 23 35 31q25 40 31 72 q-5 42 -5 56q0 7 1 9q-72 -5 -86 -5q-8 0 -9 1zM60 363q0 9 1 10q0 35 19 67h2v4h4q0 4 8 7q0 14 29 24v2l12 4q15 4 17 6q39 -7 51 -14v-2q3 0 8 -8q6 -6 8 -6q0 -11 2 -13q3 0 12 -18q-2 -2 -2 -4h5q-3 -3 -3 -6q3 0 5 -2q-2 -2 -2 -37q-3 -9 -3 -41l-2 -4q-2 -2 -2 -4 q-2 -2 -2 -6l-4 -13h-2l-10 -10q-6 -2 -14 -6l-19 -6q-8 0 -10 -2t-4 -2l-35 -2l-4 2h-8l-4 2l-4 2q-2 2 -9 2l-26 16v4h-2q-4 4 -4 10q-5 5 -5 7q-3 25 -3 37z" />
<glyph unicode="&#x3c;" horiz-adv-x="516" d="M47 381q0 22 37 65q35 35 41 39q1 1 6 11l4 4h4v2q20 13 31 30l6 5l10 10l6 5q6 4 11 9q3 7 16 21q16 9 19 16q2 0 22 20q23 20 31 25q0 4 2 4q3 0 20 17l9 8l6 4q2 0 4 2l4 4q0 4 10 14q9 12 25 25l16 16q28 28 70 57l8 7h1h1l-2 -2q0 -15 1 -43.5t1 -32.5v-4l-6 -19 l-8 -8l-4 -2v-4h-5l-4 -4q0 -2 -2 -4l-4 -4l-14 -15q-6 -3 -10 -14q-21 -12 -21 -24h-4l-23 -23q-8 -13 -22 -27q0 -1 -6 -10l-10 -10h-5l-65 -72l-4 -4q-2 0 -2 -2l-4 -2v-4h-2l-4 -4l-2 -4l-5 -4q-21 -21 -24 -35h-2l-2 -2q0 -4 -2 -4q-2 -2 -2 -8h-4q-6 -6 -15 -21 q20 -39 33 -39q0 -10 20 -27q17 -15 31 -24v-2l19 -19q4 -4 7 -8l3 -4q9 -6 12 -16q1 -1 2 -3t2 -3l4 -4q1 -1 4 -5t5 -6q2 0 4 -2v-4q8 -3 12 -10q2 0 4 -2v-2l4 -4l8 -13l11 -14q20 -30 38 -43q15 -15 29 -22v-3q2 -2 10 -2l19 -30q0 -13 2 -15l-14 -14q-17 -17 -17 -18 l-10 -7v-2h-4l-2 -2v-4l-8 -4q0 -3 -5 -8l-20 12l-29 37q-14 18 -37 41l-16 10v4l-16 13q-10 10 -13 16q-6 0 -32 29q-23 33 -27 33l-14 16l-2 2l-4 4l-5 8l-14 25q-8 8 -16 8q-2 12 -15 16q0 7 -14 13l-33 32q0 4 -8 9l-4 4l-2 2q-2 2 -4 2q-18 9 -27 43q-2 0 -4 2z M156 512q2 2 6 2h-6v-2z" />
<glyph unicode="=" horiz-adv-x="694" d="M53 403v50q2 2 8 2l11 -2q50 0 65 6q2 2 15 2q6 0 8 2t8 2q2 2 10 2q15 0 17 2h26q15 3 31 3q14 0 22 -1v2q52 2 60 2q20 0 22 -2q2 2 90 2q4 2 58 2h65q4 -2 56 -2q2 0 2 -2h2q2 0 2 -2t2 -4q-4 -12 -4 -19q0 -14 8 -28q-4 0 -4 -2q10 0 10 -27h-6l-4 -8q-19 1 -49 1 q-34 0 -39 -5l-66 -2q-15 -5 -37 -5q-16 0 -24 1q-2 2 -39 2q-1 0 -4.5 -0.5t-11 -1.5t-15.5 -2l-39 -4q-42 0 -121 -11q-22 0 -28 -2h-19h-10l-8 -4q-10 0 -60 -4l-4 8zM63 639h7l-2 6q-2 2 -2 12h12l12 5h4l76 6l29 10q27 5 48 5q12 0 17 -1q66 0 68 2l10 -4v4q28 0 84 -6 q58 -3 84 -6l20 4l70 -6v-4h10q-2 -2 -2 -66h-4l-2 -8q-15 -1 -33 -2t-22 -1q-5 0 -6 1q-19 -8 -95 -8q-8 2 -32 6q-154 0 -168 -2l-47 -11q-38 0 -74 -8q-2 2 -53 2q-6 20 -9 70z" />
<glyph unicode="&#x3e;" horiz-adv-x="458" d="M47 2q-6 9 4 25h2l6 12q6 0 15 20t18 23q0 14 60 74l61 61q1 1 3 2t3 2l4 4l6 6q15 21 15 25q12 7 35 51q20 20 20 49q-1 0 -4 9l-4 2l-14 18l-7 6q-1 1 -3.5 4.5t-4.5 5.5l-10 21h-4q0 5 -8 18t-8 17l-56 88l-55 86h-2q0 10 -14 24q-15 15 -15 25q-9 3 -16 20 q-9 16 0 25l4 2l4 2l4 4q4 0 8 4q4 1 9 4.5t6 3.5q7 3 12 7q0 5 20 8l7 -8l10 -21l14 -29q24 -44 33 -53l37 -53q21 -27 35 -41v-4q0 -1 14 -23l20 -34l11 -17h4q0 -8 16 -24q3 -14 6 -17q7 0 21 -33q17 -32 26 -38q0 -12 15 -15q0 -24 -4 -28l-7 -7l-4 -4q-2 -4 -8 -10 q-25 -22 -33 -41h-4l-43 -59q-8 -12 -139 -131v-4q-9 0 -31 -25q-18 -21 -28 -41q-2 2 -21 2l-2 -2v2q-30 3 -39 0z" />
<glyph unicode="?" d="M33 987v8h2q3 47 10 54l47 114q6 6 21 35l47 55q14 13 18 15q56 50 160 65q37 0 59 -16q19 -3 33 -17l4 -2h6q1 -1 15 -8l16 -8q18 -15 33 -18v-4q17 -8 24 -19q1 -1 5.5 -6t7.5 -8v-4q7 -7 14 -37q2 0 4 -2q14 -46 14 -62h5l4 -37v-12l4 -8v-6v-107l-4 -39 q-4 -28 -4 -30l-5 -13q0 -6 -2 -8t-2 -10l-4 -12q-2 -2 -2 -9q-6 -12 -12 -36q-3 -15 -10 -35q-2 -9 -13 -35q-28 -73 -43 -98q-18 -29 -84 -154q-29 -39 -26 -49q-10 -3 -25 -62q-13 -13 -22 -67l-29 -98v-2v-7l-4 -8v-8l-4 -37q-7 -25 -10 -82q0 -8 -2 -10q-51 0 -64 -8 l-6 6v55v21l4 18v25v12q3 8 0 8q3 81 31 187h4l10 30q11 26 12 27l33 49l62 98l32 50q0 2 4 2q0 6 17 30q0 7 4 11l2 4q2 2 2 8l4 8q2 2 2 6q4 0 10 21v12q0 4 2 6q2 0 2 4v4q3 17 19 54q15 93 22 96q-3 6 0 16q0 19 2 21q3 9 0 12l7 74q-21 102 -25 106t-2 6q-27 58 -41 62 v4q-65 41 -133 41q-26 -4 -33 -6v-4l-41 -11v-2q-33 -3 -74 -65q0 -7 -8 -15q-3 -15 -2 -16h-4q-1 -1 -4 -13.5t-6 -23.5l-8 -29q-1 -2 -2 -4.5t-1.5 -3.5t-0.5 -2l-5 -43q7 -21 7 -24l-2 -2v-9q-5 0 -76 23q-2 2 -2 8zM193 -51q0 2 2 4t2 6l4 2l12 4q2 2 6 2t6 2q28 9 31 6 h31q0 -14 6 -41q5 -31 8 -34l-6 -6l-2 -5l-6 -12l-8 -4q-8 -3 -11 -6q-26 0 -28 -2q-3 0 -31 4q-6 3 -12 25q0 8 2 10q-6 40 -6 45z" />
<glyph unicode="@" horiz-adv-x="1007" d="M39 602q4 28 4 43q-2 14 -2 23q0 8 2 22l6 53q7 10 10 39h2v6q29 62 60 93q15 24 26 28v4h7q0 7 2 9h6q0 6 16 16q0 18 35 39q3 3 11 9.5t14 12.5t8 9q42 28 45 39q4 1 20.5 16.5t22.5 17.5q0 7 75.5 31.5t94.5 28.5q0 4 2 4q25 4 50 4q26 0 44 -6q22 -3 49 -13 q42 -7 86 -28h6q4 -4 9 -4q4 -4 10 -4l43 -33q4 -7 28 -31.5t44 -52.5t22 -51q0 -2 6.5 -8.5t7.5 -14.5q8 0 23 -63h4q-2 -2 -2 -4q28 -53 28 -116q0 -22 -3 -44h4v-2q0 -33 2 -35q-1 -1 -1 -6q0 -8 5 -55q0 -78 -64 -154q-41 -34 -43 -37q0 -9 -30 -18l-46 -13h-34l-80 21 l-33 24q-18 18 -39 27q-66 -66 -146 -66q-75 0 -128.5 57.5t-53.5 147.5l11 51q8 24 8 44l3 9t4 10t5 7q0 2 3 5.5t3 4.5l8 13q2 0 12 14t13 14q26 32 55 47t80 25q6 2 74 2q54 -9 72 -22v-5l28 -8q29 -16 41 -28q0 -20 -6 -29q-6 -19 -12 -57q-11 -38 -17 -76q0 -12 3 -15 v-24q2 -2 2 -27q0 -3 3 -6.5t3 -5.5t2 -2q6 -15 6 -19l16 -18l21 -4q13 -3 18 -8q25 0 27 -2q59 0 65 14l4 4l5 2q12 12 20 12q0 12 8 15q1 2 3.5 8t4.5 8q0 2 4.5 6.5t4.5 8.5q19 31 19 48q0 5 -1 7q2 2 2 76l-2 2l-6 61q0 5 -2 10t-2 11q-20 27 -29 108l-14 41h-4 q0 3 -11 14q-8 13 -8 21l-20 20q-2 0 -6.5 2t-6.5 2q-3 16 -30 25v4l-17 4q-10 10 -47.5 27.5t-58.5 17.5h-4q-40 16 -87 16q-34 0 -63 -5q-13 0 -24 -11h-8q-9 -4 -28 -12.5t-28 -13.5l-43 -25q-46 -27 -61 -57q-40 -26 -83 -86t-61 -78q-4 -8 -15 -31.5t-17 -36.5 q0 -8 2 -10q-9 -46 -9 -51q-1 -9 -1 -23q0 -16 6 -22l-2 -4q0 -5 4 -17q0 -68 43 -188q8 -22 20 -49.5t19 -45.5t8 -30q1 -5 12.5 -21t11.5 -18q3 -15 70 -55t102 -56l29 -8l29 4h16q2 2 12 2v5q23 0 25 2q20 0 22 2l21 4h47q15 3 37 10.5t39 11.5h29q9 2 20 13q16 3 35 14 q21 27 39 27q0 2 8 10l14 18q0 3 7.5 12t7.5 11h4q0 11 8 14v4q3 3 9.5 9t10.5 10q0 2 2 4q0 5 13 18q2 6 6 10h2q0 15 20 15q1 -8 5 -12.5t14.5 -9t11.5 -5.5q0 -22 -14 -33q-17 -53 -55.5 -101t-77.5 -69q-51 -32 -56 -37q-78 -40 -159 -49v-4q-14 -1 -27.5 -2t-19.5 -1.5 t-7 -0.5l-32 -4q-19 3 -37.5 5.5t-27 4t-29.5 7.5t-60 20q-13 8 -37.5 22t-36.5 21.5t-29 20t-30 26t-25 31.5h-2q-9 12 -12 12v6h-4q-3 8 -6 8q-4 3 -9.5 11.5t-9.5 11.5h-2l-6 10q-9 12 -16.5 24.5t-14 28t-11 25.5t-10 30.5t-8 29t-7.5 34.5t-6.5 33.5t-7.5 39.5t-7 40 l-2 96q-2 2 -2 4z" />
<glyph unicode="A" horiz-adv-x="673" d="M31 30q0 17 13 79l4 36q0 28 24 136l52 194q25 91 26 92q25 134 41 197q5 25 13 49q3 21 6 27q0 6 2 8v8l2 2q19 49 53 191l20 63l41 129q21 49 21 66l41 6q10 0 12 -2h31q6 -2 41 -2v-4v-41q0 -14 8 -58q9 -46 12 -84l15 -82l10 -61q21 -107 31 -178q10 -66 14 -119 q20 -114 20 -131l9 -57l6 -97q3 -73 6 -102l8 -94l8 -49q0 -20 9 -54l4 -32v-21l4 -20q-2 -2 -2 -17l-90 -8q-12 3 -15 20v13v8q-1 1 -2 4.5t-2 5.5v12v43q-10 89 -16 107l-13 84q-8 100 -16 127l-16 74q-7 34 -21 45q-3 2 -10 2q-5 0 -16.5 -2t-14.5 -2h-4q-2 -1 -7.5 -2 t-8.5 -2h-21h-43q-8 -4 -49 -7q-44 -3 -65 -12q-57 -247 -82 -399q-4 0 -19 -96q-31 0 -37 -3q-32 0 -34 -2q-3 2 -3 12z" />
<glyph unicode="B" horiz-adv-x="655" d="M39 39v27q1 0 4 20v6q2 2 2 4q2 2 2 6v11v26v29l4 29q-2 12 -2 147q6 56 6 131v191q-2 14 -2 176q0 8 -2 10v25q-2 4 -2 26q-3 45 -6 86q0 291 2 293q-2 0 -2 23l16 2l17 4h10l8 4q1 0 4.5 0.5t11 1.5t15.5 2l119 -6l55 -17l29 -16q9 -6 12 -6v-2q19 0 54 -25t52 -51 l29 -45q-1 -1 -1 -3q0 -5 7 -9l2 -17q3 -7 6 -32q3 -18 7 -21l2 -16q0 -19 -2 -21q1 -8 2 -18.5t1 -13.5q0 -4 -1 -5q3 -11 3 -25q0 -44 -26 -120q-36 -98 -78 -127q0 -5 -32 -27q-26 -10 -35 -22q11 -4 28 -6q2 -2 4 -2q2 -2 7 -2l10 -5h4l8 -4q4 0 8 -4q9 0 13 -4l32 -16 q8 -4 23 -13l14 -8q4 -4 8 -4q24 -19 43 -45q7 -7 31 -37q9 -9 21 -30l12 -23l4 -10q4 -4 4 -8v-7l4 -8v-8v-4h4q0 -31 2 -33v-2l2 -6v-41q-9 -51 -24 -86q-4 -21 -29 -72l-33 -53q-8 -16 -34 -39l-35 -28q-11 -14 -37 -23q-12 -4 -21 -10l-16 -4l-37 -13l-16 -4l-12 -4 q-2 -2 -7 -2q-22 0 -22 -4q-6 -2 -70 -2l-76 8q-40 3 -55 6l-31 6q-12 2 -22 19z" />
<glyph unicode="C" horiz-adv-x="690" d="M37 545v12v25v53q0 20 2 22t2 23v27q0 143 31 235q34 100 73 145q3 16 13 19q18 32 39 53q46 46 65 58q39 33 103 45q27 8 60 8q31 0 69 -6l22 -23q13 -3 33 -29q23 -23 33 -28q0 -5 12 -29q3 -3 18 -41l6 -12q0 -8 -2 -8q18 -34 18 -42q0 -3 -1 -3q5 -5 8 -31l2 -2v-8 v-13q1 -5 2 -11.5t1.5 -10t0.5 -6.5l4 -23l-6 -6q0 -2 -6 -8q-7 1 -23 1q-17 0 -26 -1q-35 0 -47 -12q-13 13 -13 19q0 4 5 7q-2 10 -2 14q0 5 2 11v67q-9 125 -33 135q-18 18 -57 18q-13 0 -21 -1q-56 0 -66 -17q-18 -6 -22 -10t-10 -4q-107 -82 -142 -162 q-34 -72 -73 -293q2 -52 14 -100q0 -51 8 -78q2 -2 2 -12q2 -4 2 -14l4 -21q2 -2 2 -8q2 0 2 -2q-2 0 -2 -10l25 -60q19 -97 51 -141q36 -62 62 -88q25 -25 61 -45l45 -17q2 -2 21 -2l6 2l16 13l25 14q42 48 55 84q12 22 16 49q4 8 15 19q14 0 16 -2h25q6 0 8 -2t8 -2h10 l4 -3l-10 -51q-40 -118 -98 -182l-4 -2l-4 -4l-2 -2q-2 -2 -5 -2q-6 -6 -18 -10v-3q-27 -10 -31 -14q-16 0 -18 -2q-6 0 -10 -2t-9 -2h-6l-92 27l-26 14q-5 2 -13 4.5t-11 4.5t-12 10t-26 26q-67 70 -67 86q-12 0 -15 23h-4q-33 67 -33 79q-20 59 -24 78l-15 58l-6 28 q-3 9 -6 45q-3 43 -6 54z" />
<glyph unicode="D" horiz-adv-x="694" d="M37 20l6 11l2 78q3 211 12 411q7 180 7 237q0 23 -3 68q0 27 -2 29q2 18 2 31t-4 57q0 94 6 141v185q-4 0 -4 22q7 0 9 2t10 2l12 4h12h25h12h6q2 -2 5 -2q2 -2 6 -2h12h47q34 -2 96 -14q0 -2 58 -20l30 -15q41 -24 54 -37q37 -30 47 -53q2 0 4 -2l4 -6l12 -17 q8 -19 17 -28l20 -45l29 -56h2v-6l6 -12q0 -13 12 -47q4 -23 23 -68l12 -110q0 -27 2 -33v-23l4 -20v-45q2 -4 2 -29l-2 -8v-27q-2 -6 -2 -38l-14 -56q-4 -19 -9 -36.5t-8.5 -28.5t-3.5 -13l-28 -82q-12 -41 -45 -88q-7 -16 -60 -79q-44 -51 -84 -74q-56 -35 -106 -49 q-107 -25 -137 -29l-89 4q-12 4 -20 6q-2 2 -2 4q-2 2 -2 6z" />
<glyph unicode="E" horiz-adv-x="489" d="M41 1085q0 74 2 80q2 38 2 59q0 20 -2 60q-2 2 -2 4q0 4 2 6t2 6q3 0 6 9h17q42 11 119 11q75 0 184 -9q72 0 80 -8q0 -5 2 -7h-7v-26q-1 -7 -1 -19q0 -10 1 -14l5 -29q0 -3 -5 -8q0 -4 -2 -6t-2 -4q-49 0 -98 -14q-2 2 -63 2q-9 0 -11 -2h-8l-2 -2q-29 0 -33 2t-71 2 l-4 -19q0 -27 2 -50t2 -52v-17l4 -16v-20v-50q3 -70 6 -100v-27q5 -1 15 -1q9 0 12 1h4l12 4h12q17 7 25 7q6 8 12 8l6 -2q0 -6 2 -8l-4 -2l-6 -76l6 -78l-8 -4v-4q-13 -3 -47 -6q-23 0 -25 -2q-20 0 -22 -2q4 0 4 -506q16 3 76 3q59 0 161 -3q19 0 19 -8q0 -1 -1 -7.5 t-1 -11.5q-2 -2 -2 -14q1 -4 1 -16q0 -22 -5 -89q-3 0 -6 -8q-2 -2 -17 -2v2q-18 6 -61 6q-51 0 -64 8q-98 0 -145 9h-30q-14 0 -21 -7q-2 2 -2 23v31v71v17v4l-5 8v10v27v67q0 27 -2 31q-2 2 -2 25q-2 4 -2 24l-4 52q0 98 2 108q-4 84 -4 127v25v262q0 11 -2.5 39t-2.5 41 q0 12 1 16v12z" />
<glyph unicode="F" horiz-adv-x="489" d="M41 12v21q4 32 4 61q0 6 6 94v2q-1 212 -1 487q0 176 1 189q-1 1 -1 6q0 2 0.5 11.5t0.5 17.5q-2 6 -2 37q-1 8 -1 22q0 6 0.5 18t0.5 17v44q0 49 2 79q1 1 1 2l-2 11q-1 11 -1 20q2 18 2 22q0 7 -2 13v16t0.5 18.5t2 15.5t5 14t9.5 7q3 3 6 3h4q125 15 214 15 q30 0 42 -1q19 0 36.5 1t28.5 2t13 1h2l37 -4l2 -2q1 -7 1 -29q0 -4 -0.5 -12t-0.5 -12v-48q0 -4 -2 -6q-3 -3 -3 -4q-2 -2 -14 -2h-6l-8 -4q-2 -2 -6 -2l-95 -6q-73 -12 -167 -19q-1 -25 -2 -57.5t-1 -40.5v-14v-22q0 -26 1.5 -75.5t1.5 -70.5v-25q2 -2 2 -8q8 -23 16 -24 q9 -1 32 -2.5t42.5 -2.5t23.5 -2q23 0 25 -2q-5 -4 -8 -22q-2 -10 -2 -17q0 -6 2 -16v-29l-4 -16q-2 2 -33 2q-103 -11 -103 -12v-109q-1 -15 -1 -46t1 -46q0 -21 7 -192q-2 -34 -2 -54q0 -91 16 -202q-2 -2 -2 -15q-60 0 -107 -8l-6 4z" />
<glyph unicode="G" horiz-adv-x="739" d="M37 551q0 46 11 147q14 108 15 113q12 57 42 121q2 4 2 6q6 0 6 10l23 39q12 48 33 57l2 5q2 2 2 10q0 4 2 6l4 4q2 2 2 4q6 3 12 12l11 11q6 9 65 59q61 48 96 64l23 6l8 4h8l11 4l38 14q35 7 53 7q5 0 7 -1q2 2 55 2q58 -21 86 -69q27 -46 27 -78q-4 -4 -10 -16 q-5 0 -7 -2h-12q-3 -3 -12 -3q-7 0 -16 -0.5t-14 -1t-8 -0.5h-5q-18 4 -21 15h4q-30 65 -65 65q-47 -3 -96 -20q-34 -13 -82 -41q-3 -2 -58 -47q-27 -27 -34 -41l-5 -4q-3 -6 -8 -11q-8 0 -22 -32q-6 0 -21 -37q-12 -21 -28 -117q-16 -82 -19 -168q2 -2 2 -16q2 -2 2 -21 q0 -27 35 -217q3 -24 31 -82h2q0 -6 2 -8q3 -10 6 -10l10 -14q3 -3 15 -23q0 -18 36 -51q38 -38 82 -53q17 -7 32 -7q28 0 56 23q14 0 62 57l18 31q11 40 29 76q10 49 18 69v21q0 26 5 33l-43 6q-15 0 -17 2q-14 0 -16 2t-23 2q-13 3 -16 6l-6 6l-2 4q9 70 26 76 q36 -8 209 -8q0 -49 2 -55q-2 -2 -8 -70q-6 -58 -12 -82l-8 -49q-1 -3 -3.5 -14.5t-3.5 -18.5l-2 -18l-8 -29q-4 -25 -8 -27v-6h-4q-52 -115 -123 -153l-115 -29q-2 2 -10 2t-10 2q-8 0 -29 6l-61 19q-76 57 -117 104q-33 39 -53 72l-8 22q-3 10 -25 60q-21 54 -31 98 q-8 41 -20 127q-3 15 -3 39z" />
<glyph unicode="H" horiz-adv-x="514" d="M41 1110q0 62 7 129h2l6 39q0 2 2 4h4v4q20 10 39 10q4 0 14 -2q15 0 35 4h11l8 -4q-17 -245 -17 -404q0 -72 2 -99q31 8 64 8q121 0 127 -2q2 2 10 2q0 59 2 73v13q1 3 2 10.5t2 11.5v25v65q0 126 2 144q0 106 8 119q0 14 7 18q1 1 2 1q4 0 16 -5h53q0 -4 2 -6h4 q0 -9 -2 -11l-2 -4q-2 -6 -2 -161q-7 -113 -7 -242q0 -127 7 -238q0 -242 13 -366l2 -109q10 -49 10 -83q0 -11 -2 -25q-32 0 -72 -21q-2 2 -18 2q-17 37 -17 106v25q-7 30 -16 303q0 86 -2 88q-2 8 -2 13q0 4 2 12q-3 62 -6 82v47l-25 -4q-2 -2 -16 -2l-13 -4h-8 q-1 0 -4 -0.5t-8.5 -1.5t-11.5 -2l-2 -2l-2 -2h-7l-18 -4l-25 -5h-28q-3 3 -27 3q-1 -15 -1 -54q0 -105 7 -270q6 -223 17 -305q0 -19 -23 -19q-2 0 -4 -2v-2q-34 -3 -53 -10q-10 0 -10 68q-3 3 -21 194q-13 103 -13 194q0 50 5 103q0 19 6 84q0 44 -2 62q-1 6 -2 23.5 t-2 25.5v53l-4 113q1 1 1 13q0 19 -1 32v10q-2 2 -2 4q-2 2 -2 6v10v21v57q-1 12 -1 37z" />
<glyph unicode="I" horiz-adv-x="233" d="M37 1221v4v6l4 14v19l-4 20q6 4 14 4q11 0 43 -10q29 -11 51 -11q2 0 6 0.5t5 0.5q4 0 4 -2q4 0 6 -2q-3 -12 -3 -31t3 -41v-57h-6q4 0 6 -2q0 -33 2 -39v-68q3 -33 3 -69q0 -34 -1 -52q-7 -69 -7 -112q0 -15 1 -21q1 -13 1 -49q0 -43 -1 -70l-2 -2l14 -501l-4 -13 q0 -18 2 -22q2 -2 2 -17q2 -4 2 -18l4 -41q0 -4 -2 -6v-4v-9q-2 -2 -2 -10l-102 -10q-6 0 -8 2q-5 0 -7 2q-1 3 -1 15q0 16 1 26q2 20 2 23q0 8 -2 10q2 130 2 167q0 55 -2 111q0 52 -6 205q-2 37 -8 101q0 254 -2 268v74v24v8l-4 8v7v14v45q0 33 2 35q0 14 -2 16v23v20 q-1 3 -2 9t-2 8z" />
<glyph unicode="J" horiz-adv-x="636" d="M37 371v71h4v7q8 0 10 2q2 0 4 2q1 1 19 8q13 6 45 12q3 -3 6 -18q2 -2 2 -19q15 -70 16 -76q13 -50 13 -69l8 -17q3 -19 18 -65q2 -12 19 -45q11 -22 22 -33q9 -9 29 -12q9 -3 19 -3q9 0 20 3q29 10 49 20v2q40 15 63 66q26 50 39 112q0 9 9 52q6 42 12 71t10 103l2 39 v4l17 155l4 252l4 254q-3 7 -3 19q0 22 11 63h12l74 -12v-6l-2 -62l-1.5 -46.5t-0.5 -20.5q0 -19 0.5 -54t0.5 -50q0 -175 -11 -253q-15 -135 -15 -192q0 -107 -2 -119q-3 -116 -16 -207q-15 -123 -39 -170l-21 -24l-41 -47l-20 -25l-12 -6q0 -3 -15 -12t-22 -9 q0 -11 -45 -14q-29 0 -33 -2h-25l-8 -2q-23 3 -65 6h-4q-104 41 -144 250h-4q-12 62 -12 117z" />
<glyph unicode="K" horiz-adv-x="505" d="M43 514q0 9 1 10v62v30l4 29v64q2 2 4 2h-4v151q-2 4 -2 74q14 106 14 287v4l4 12v18v37h92l3 -2q0 -2 -5 -4v-168q-2 -2 -2 -104l-8 -101h4l8 13l9 12q13 0 114 162q101 158 105 176h18q0 -12 19 -21l32 -16q16 -12 16 -13t-1 -1q-2 0 -2 -8v-5q-8 -3 -8 -6 q-4 -4 -11 -6l-123 -190l-122 -193q-11 -31 -11 -41v-4l27 -86l53 -168l27 -86h2q8 -42 80 -227q67 -164 71 -203h-32h-15h-4q-1 -1 -3 -2t-3 -2h-6q-8 -2 -11 -2q-4 0 -10 2q-8 0 -12 4q-4 0 -8 4t-4 8q0 5 -2 7t-2 4l-4 14l-4 10q-1 3 -2 6.5t-2 5.5t-1 3q-5 8 -8 16 l-18 55q-9 27 -12 35l-9 25l-2 6l-4 16q-5 12 -18 60l-25 86q-14 25 -14 41l-4 28q-3 16 -21 74q-50 164 -53 164h-4q0 -13 4 -49v-13l-4 -16v-16q3 -53 3 -117q0 -61 -1 -94q2 -4 2 -166q2 -88 2 -112q0 -39 -2 -73h-4l-16 -4h-19q-11 -1 -27 -1q-15 0 -18 3v15h2 q-2 12 -2 100l-8 285q-1 28 -2 60.5t-1 39.5z" />
<glyph unicode="L" horiz-adv-x="370" d="M39 272v37q4 94 4 105l6 147q9 268 14 268h-4l7 52q0 43 2 49v49q3 75 6 160t4 98v37q-2 0 -2 26q0 3 -1.5 8.5t-1.5 7.5t1 3q3 1 12 1t14 -1q31 0 52 6q6 -6 6 -68q0 -142 -35 -618q0 -460 2 -483l8 -68q34 2 56 2q19 0 63 -2q11 5 37 5q19 0 30 -1l-2 -2q2 -2 2 -18 q15 -57 15 -60v-2l-66 2q-84 -12 -138 -12q-67 0 -85 18q-2 2 -2 121q1 15 1 42q0 49 -5 91z" />
<glyph unicode="M" horiz-adv-x="571" d="M43 722q0 14 2 36q4 4 4 135v143v92v35v17l4 16v18v89q0 15 6 30q68 0 76 -2h45l37 -4q12 0 16 -4q1 -3 1 -8q0 -3 -1 -4q0 -11 2 -13v-1q0 -18 35 -158q38 -155 41 -158q10 26 16 29q3 31 88 241q4 0 4 11q21 47 31 57q2 -2 70 -2v-10v-4l-2 -5q0 -332 -2 -352v-90v-45 v-16q0 -5 -2 -9q-3 -3 -3 -6v-10v-53v-66v-24v-11v-6l-4 -4v-14v-72q2 -2 2 -35q0 -43 2 -47q0 -95 -4 -205v-65q-2 -10 -2 -86q0 -55 -8 -68q-3 -3 -26 -6l-33 -8q-2 -2 -5 -2q-2 0 -8 2q-4 0 -8 4q-2 56 -3.5 107t-2.5 84.5t-2 59.5t-1 38l-1 12q0 76 2 88v180v142v6 l-4 12v19l-4 22v21q-2 2 -2 4q-2 2 -2 6v10v14l2 7q0 18 -2 20v21q-2 2 -2 12v7q-7 -13 -10 -13q0 -11 -41 -64q-39 -56 -39 -59h-11q-52 94 -67 94q-13 29 -66 82l-2 -6v-17q-2 -8 -2 -26q0 -1 -6 -432q-1 -57 -1 -143q0 -68 1 -87v-108v-82q-5 -3 -22 -6h-56 q-18 18 -18 176q0 6 -0.5 20t-1.5 39.5t-2 48.5q1 39 1 106q0 65 -3 107q0 9 -0.5 29t-1.5 57.5t-2 71.5q-2 26 -2 38z" />
<glyph unicode="N" horiz-adv-x="514" d="M39 74v12l2 94q0 172 6 230q25 486 25 763q0 60 -2 152q1 1 5 1q3 0 17.5 -1t26.5 -2q0 -8 6 -29q3 -17 6 -20q0 -19 45 -129l92 -256q44 -129 49 -129v-1q0 -4 21 -69q24 -67 29 -67v125v116v49q4 44 4 45v43q0 33 2 39t2 39v60q2 4 2 26l-2 2q0 85 18 138q3 1 9 1 l10 -1q2 -2 6 -2q3 0 6 -3q0 -2 2 -2t4 2q2 -2 14 -2q11 0 11 -18q-2 -84 -2 -169q0 -57 2 -255q-9 -46 -9 -96v-47q0 -15 13 -254q0 -23 2 -27q0 -22 2 -24q-2 -2 -2 -15v-6q2 -2 2 -4q2 -2 2 -6v-10v-27l4 -35v-22q2 -2 2 -25v-25q0 -34 2 -36v-60q0 -82 2 -88 q-2 -2 -2 -22l-63 -2q-4 4 -7 4l-26 75q-3 38 -86 304q-34 105 -49 210l-15 58l-32 110l-15 56q-3 23 -24 78h-2v-234l-4 -160v-100q-3 -9 -3 -57v-35v-23q0 -26 -2 -30v-54l-12 -149q0 -59 -8 -72q-22 -5 -36 -5q-8 0 -11 1q-28 3 -35 8v35v14q0 7 -2 9q0 4 -2 6z" />
<glyph unicode="O" horiz-adv-x="727" d="M39 557v117q0 53 2 55l2 88q26 189 88 313q59 109 121 136v4h1q1 -1 2 -1q12 0 34 13q12 6 30 6q15 0 17 -2h12l33 -10q18 -6 27 -6v-4q22 -3 28 -9h2q76 -27 119 -88q0 -2 2 -6l4 -4q2 -2 2 -4l6 -12l2 -4h2l21 -43h4l2 -2v-9q2 -2 2 -8l12 -28q7 -9 23 -78 q0 -4 27 -154l14 -129q-2 -14 -2 -156q-5 -22 -5 -56q0 -20 1 -30l-23 -161q0 -7 -4 -11q0 -7 -8 -28q0 -3 -4 -19t-4 -18l-4 -12q0 -1 -0.5 -3t-1.5 -5.5t-2 -6.5q-3 -16 -9 -22q0 -11 -4 -15q-4 -20 -18 -45q-16 -29 -31 -41q-35 -21 -47 -26q-36 -19 -70 -27v-2h-10 l-12 -4h-12h-35v2q-60 9 -107 35q-45 23 -63 41q-19 19 -21 24h-4h-2q0 8 -39 70q-29 50 -49 111q-51 125 -51 274z" />
<glyph unicode="P" horiz-adv-x="602" d="M37 1245q6 47 14 55q15 9 58 9q24 0 26 2h47q8 1 28 1q21 0 32 -1q29 0 65 -8q25 -3 58 -17q30 -12 49 -31q149 -52 149 -268q-3 -31 -10 -35q-8 -13 -8 -26v-8l-2 -5l-2 -4v-2l-4 -8l-2 -4l-5 -4q-15 -30 -61 -82q-24 -24 -61 -43q-46 -18 -46 -27l-18 -6l-37 -12 q-18 -6 -20 -8q-93 -13 -154 -15q-2 -2 -2 -161v-449v-78q-12 -6 -16 -6q-2 -2 -41 -2l-8 6q-5 45 -5 49q-1 13 -1 31q0 10 1 10q-2 2 -2 17q4 12 4 97q0 29 -2 165q-1 69 -1 168q0 92 3 104q-2 2 -2 27l-2 162q0 2 2 2l-4 8q0 18 -2 20t-2 25q-2 4 -2 29q0 24 -2 30v23 l-4 20v11v6q-1 2 -2 6t-2 6v14v47v105v2q-4 28 -4 53z" />
<glyph unicode="Q" horiz-adv-x="727" d="M37 623v43q3 54 20 135q9 47 21 90q9 53 31 82l10 16l2 6l6 13q0 4 4 8t4 8q13 22 21 25q84 136 151 178q34 21 70 21q33 0 61 -17q32 0 74 -31q78 -65 135 -192l33 -152q7 -49 7 -110q0 -168 -58 -398q-5 -32 -29 -115q-20 -66 -33 -75l-18 -33l-21 -31l-8 -12l-2 -2 q-2 -2 -2 -4l-4 -4q0 -76 25 -121q0 -19 -2 -21q-9 0 -11 -2q-6 0 -10 -2h-6l-8 -4q-5 0 -17 -4h-8l-4 -2q-7 3 -10 16q-13 0 -43 99q-62 -39 -115 -39q-6 0 -20 2q-53 8 -99 39q-35 28 -45 55l-18 31q-2 2 -2 6q-28 57 -39 106q-19 99 -23 142q-9 73 -12 139q-2 2 -8 111z " />
<glyph unicode="R" horiz-adv-x="528" d="M43 725q4 36 4 57q4 20 4 43q2 8 2 15q0 200 -2 231l-4 229q3 3 6 3h-6l4 4l148 4q91 -12 120 -27v-2q41 0 80 -45q45 -51 66 -109q26 -64 29 -129q1 -7 1 -21q0 -50 -26 -87q-27 -89 -100 -150v-2l-43 -24l-9 -4q-2 -2 -8 -2l-8 -4l-8 -5h-8q-7 0 -9 -2q-4 0 -6 -2 q3 -20 23 -55q12 -33 20 -57l93 -297q65 -200 75 -203l8 -37v-22l-77 -25q-5 5 -11 20q-7 18 -10 21q-3 17 -12 37l-8 33q-107 312 -113 340l-37 102q-1 1 -2.5 6t-3.5 8q0 7 -4 19l-8 20l-4 17q-4 4 -4 8q-5 5 -5 6q-9 12 -12 27q-10 13 -14 24l-10 10l-4 7q0 -226 -5 -656 l-61 -6q0 2 -2 2t-4 2l-4 2v23q0 2 2 4q-2 2 -8 67q-8 34 -17 230q-8 93 -8 352z" />
<glyph unicode="S" horiz-adv-x="679" d="M31 47v10q0 23 2 25q3 12 6 16q0 30 24 39q332 0 332 47q24 9 62 68q6 0 20 39q15 49 17 96v12q0 53 -27 111l-6 10q-4 4 -4 12l-4 9l-2 4l-11 20q-29 29 -227 162q-53 38 -72 66q-7 0 -28 34q-20 20 -41 99q-3 15 -3 32q0 60 31 132l9 12l18 28q10 14 20 17q6 23 52 49 q71 41 86 49l41 23l36 10l54 8q86 0 159 -49v-2q0 -2 3 -2q31 -39 34 -53q10 0 25 -54q4 -20 6 -32q-2 0 -2 -2q-2 -2 -4 -2v-3q-2 -2 -2 -4q-55 -3 -84 -10l-4 21v18v12v6l-4 5v8q0 18 -2 20q-4 15 -6 17q-8 4 -11 10q-4 4 -16 8l-23 6l-16 4h-8q-2 2 -8 2q-2 -2 -21 -2h-8 l-25 -12l-110 -53q0 -3 -13 -10l-4 -3l-8 -8q-71 -41 -71 -130q0 -14 6 -50l12 -49l10 -23l55 -45l58 -45q32 -11 74 -39q101 -70 153 -180q2 0 14 -41q3 -26 9 -35v-4q2 -2 2 -4q2 -2 2 -6v-14v-19q0 -97 -43 -225q-57 -80 -88 -102q-45 -45 -82 -60q-36 -14 -68 -24 q-13 -3 -24.5 -5.5t-16.5 -4t-6 -1.5q-18 -6 -18 -10q-13 1 -35 1q-48 0 -68 -7q-69 3 -104 6q0 4 -2 4q-2 2 -2 37z" />
<glyph unicode="T" horiz-adv-x="567" d="M31 1178q6 61 12 77h-2q3 6 6 21l53 2h9q1 -1 4 -2t4 -2h2q4 0 6 -2t6 -2q17 0 19 2t22 2v4q127 11 211 11q86 0 147 -11v-4q-6 0 -6 -2h4q-2 -2 -2 -27q-2 -4 -2 -28v-33v-21q0 -10 -2 -12v-8v-2v-2h-129h-2q-2 2 -4 2q-2 2 -6 2h-10q-21 3 -33 6q-37 0 -41 -2 q-4 -28 -4 -33q-2 -2 -2 -4q-2 -2 -2 -6v-10q-2 -2 -2 -13q-2 0 -2 -1t2 -3q-19 -129 -31 -487q-6 -120 -6 -223q0 -166 14 -301l4 -62q2 0 4 -2q-2 -2 -26 -2l-49 2l-9 8q-6 9 -6 158q4 74 4 115q0 28 -2 86q11 169 11 209q-2 64 -2 99q0 46 4 150l10 152q-2 2 -2 33l2 20 v41l6 82h-20q-62 4 -64 4q-3 0 -92 6z" />
<glyph unicode="U" d="M37 782v9v8q3 140 24 438q3 107 7 111q-2 0 -2 10q18 9 38 9q13 0 25 -3l10 -37v-37q2 -4 2 -45l-4 -37q-13 -77 -16 -207q0 -80 -2 -96v-80q-2 -8 -2 -43v-98q1 -18 2 -41.5t1 -29.5q0 -9 -1 -11q12 -92 24 -143q6 -48 33 -125q19 -59 19 -60q22 -52 59 -98 q36 -36 51 -45l25 -8h12l12 -4q26 3 54 39l18 108l18 111q0 45 2 49v47q3 6 3 31q0 56 8 127l18 254q5 101 10 133l7 153q0 2 0.5 9t1.5 19.5t2 25.5v12l4 16v19v47l2 2q2 2 2 4q65 0 78 -8l4 -6v-8q2 0 2 -5v-20q0 -17 -2 -21v-24q-8 -63 -8 -78h-5l2 -2v-2q0 -8 -2 -10 v-15v-20v-23l-6 -108q-3 -103 -6 -139l-4 -72v-31v-10q0 -2 -2 -6q-2 0 -2 -4v-4q-2 -4 -2 -25q-2 -2 -2 -29q-2 -4 -2 -28q-2 -24 -2 -28q0 -9 2 -9l-10 -180l-9 -181q-6 -21 -12 -65q-2 -2 -2 -4q-2 -2 -2 -6v-11l-4 -18v-10q-4 -4 -4 -17q-8 -13 -8 -18q-8 -19 -21 -35 q-10 -17 -35 -31t-100 -14q-55 12 -72 29q-37 9 -84 65q-47 47 -47 69v3l-2 2l-4 8l-4 8l-2 4q-1 2 -6 15q-1 3 -4 9t-4 9q-9 15 -9 35q-5 8 -12 35q-5 15 -5 25q0 5 1 6q-13 22 -13 67q0 3 0.5 9.5t0.5 9.5q-9 36 -13 59l-6 39l-8 102q0 54 -6 109v43v12v6z" />
<glyph unicode="V" horiz-adv-x="657" d="M31 1296l4 4v3q2 0 2 2h59q0 -5 2 -7v-6q0 -19 6 -43l17 -90q0 -5 12 -63l107 -457l28 -131l21 -90q7 -33 12 -49l8 -33q3 -15 6 -21l9 -24q4 -18 8.5 -41.5t7.5 -38.5t6 -25q12 0 14 2l11 5q6 0 8 2t8 2l4 4q2 0 4 2v6q7 0 121 1024q7 30 14 37q5 5 21 8q8 0 10 -2t8 -2 q7 0 9 -2q4 0 6 -2t6 -2q2 2 22 2q2 -2 6 -10h-6q2 0 2 -3q5 0 7 -2q-9 -24 -9 -63q-30 -174 -51 -352q-35 -277 -37 -287q0 -29 -2 -33v-24q-2 -2 -2 -13q0 -12 -2 -16q-4 -16 -4 -29q-1 -3 -2 -9.5t-2 -10.5q-2 -6 -2 -12l-14 -89l-21 -100v-2v-6l-4 -8v-8l-4 -37 q-7 -26 -10 -78q0 -51 2 -53l-13 -5v-2q-27 -3 -41 -10q-16 -5 -81 -8h-19v4q-13 3 -31 76l-32 145l-17 72q-15 68 -28 115q-15 57 -101 534l-14 86l-12 70v20v8l-5 9v6q-2 2 -18 88q-2 2 -2 6q-2 2 -2 8q-2 2 -2 15q-3 20 -6 26v4z" />
<glyph unicode="W" horiz-adv-x="753" d="M39 1239v16q58 3 70 11h10v-6v-3q-2 0 -2 -4v-12q0 -8 2 -10t2 -8l6 -80q0 -31 2 -35v-25l2 -8q0 -135 6 -237v-138v-53v-20v-11v-6l-4 -4v-12q0 -78 -2 -82q-2 -6 -2 -63v-23l-4 -20l-4 -31v-19v-12l4 -4q4 -3 7 -3q4 0 5 5q10 40 19 43q4 8 6.5 14t5 14.5t5.5 16.5 q28 70 59 195q11 44 23.5 104.5t21 100t18 77.5t18 57t17.5 19q79 0 108 -18l66 -514l26 -160q7 22 7 55q-1 8 -1 22q0 28 7 35q0 7 6 72l8 72q0 33 8 80q0 6 2 16q3 15 6 49l9 72q13 84 20 178l25 191q12 111 26 120q23 0 25 -2q20 0 22 -2q2 2 17 2v-75q0 -1 -4 -29 q0 -3 -4 -39q-4 -25 -11.5 -69t-10.5 -76t-5 -82q-9 -35 -39 -426q-38 -410 -49 -453l-4 -2q-4 0 -10 2l-81 26q-9 4 -62 372.5t-58 373.5q-4 4 -10 4q-9 0 -11 -8q-14 -57 -24 -74q-9 -16 -42.5 -146t-79 -282t-83.5 -221q-4 -8 -13 -8q-6 0 -19.5 5.5t-18.5 5.5 q-3 0 -6 -3h-9q-5 0 -8 318q-8 260 -8 622v94v58q-4 52 -4 53v47h-4z" />
<glyph unicode="X" horiz-adv-x="800" d="M31 47q3 3 41 98l94 228l88 215h2l35 92q28 75 28 90q0 4 -2 6l-36 129l-68 213l-35 105q-1 1 -8 18q-6 16 -12 19q-3 18 -6 30l-2 13q-3 3 -3 6v4l3 2h-3l-2 2q2 2 39 2q6 2 43 2q7 3 13 3q7 0 10 -5q1 -1 1 -2q0 -3 -7 -6q8 -8 20 -49q19 -51 21 -56q4 -4 16 -51 l37 -106l31 -113q15 -38 30 -96q5 0 7 -2l18 39q0 2 4 2q0 12 104 174q68 98 113 190l12 23l15 28l6 13h27q2 2 32 2q4 0 6 -2h9q2 -2 12 -2q0 -2 -16 -52l-74 -135l-107 -213q-63 -111 -63 -129q-27 -30 -27 -121v-20l29 -139l72 -402q-2 -2 -2 -4t2 -6l16 -74 q-7 -7 -27 -10q-12 -2 -20 -2q-7 0 -25 2h-30l-7 2q-8 19 -8 27v30v13l-4 2l-4 16l-6 31q-29 152 -37 268q-8 109 -31 275l-12 -25q-47 -119 -82 -193l-119 -268l-59 -125q0 -6 -2 -8l-2 -4l-2 -4v-8l-2 -4q-20 -2 -28 -2q-38 0 -52 14z" />
<glyph unicode="Y" horiz-adv-x="718" d="M31 6q0 35 18 53q23 61 47 113l4 8l6 13l3 6l170 395l2 4q4 4 4 12q0 4 4 8q0 9 4 13t14 31q7 17 8 18q-3 19 11 27l-31 51q-29 56 -29 57h-4l-31 57l-65 115l-21 33l-8 12l-4 8l-6 9l-59 131l-5 8q-17 34 -18 35l-10 26q0 7 -2 11q-2 6 -2 10q5 8 12 8h2q6 3 6 2 q56 0 58 -2q12 -4 22 -14q0 -9 14 -23l99 -192q50 -93 114 -232h7q9 21 51 88q40 61 78 133q3 0 30 52q12 20 19 34l22 41q14 25 19 37q40 64 53 72l8 -4v-2l37 -17v-4v-10q-12 -15 -18 -55h-5l-22 -54l-49 -108q-21 -53 -25 -53q0 -2 2 -4l-20 -41q-1 -1 -8 -19 q-7 -11 -7 -12l-4 -8q0 -4 -2 -6l-2 -5l-6 -12q-2 -2 -2 -10h-2q0 -3 -6 -6l-4 -17l-29 -53l-47 -94v-4q-217 -481 -233 -481q-5 -12 -33 -66q-5 -5 -10 -18q-11 -16 -17 -33q-4 -12 -20 -78h-9q-2 2 -61 2z" />
<glyph unicode="Z" horiz-adv-x="602" d="M31 115v6v2v4l4 8v10l14 58q120 430 141 430l5 4v8q0 2 2 2l2 4q72 290 151 420q13 34 24.5 64.5t16.5 44t6 14.5q-58 -2 -80 -2q-25 0 -69 2v-2h-139h-23q-2 0 -14 4q-5 0 -17 4q-6 2 -6 9q0 2 2 8l6 40q2 2 2 21v8q3 4 7 14q6 6 16 9q6 0 8 2q6 0 8 2q33 0 99 -4 q244 -19 256 -19q4 0 106 13l6 -7l-4 -2q2 0 2 -2t-2 -4q-2 -4 -2 -10q0 -3 -6 -21q3 -6 3 -15q0 -10 -3 -23l-6 -19q-3 -20 -10 -39l-13 -37q-21 -57 -21 -66l1 -1l-27 -56q-29 -56 -35 -75q-35 -76 -151 -357l-152 -387l-33 -67q23 0 25 -2l8 4q1 1 17 1q11 0 66.5 -1 t103.5 -2q88 -3 143 -11q27 0 29 2q3 3 16 3q9 0 12 -3h4l13 -4h12q0 -84 -4 -84l-4 -6q-3 -3 -8 -3q-2 0 -4 1h-66q-82 7 -102 8q-65 -8 -99 -8q-62 -6 -84 -6t-108 6q-1 -1 -3 -1q-1 0 -7 1t-11 2q-7 7 -10 21l-6 24l-4 9v8v16v12q0 5 -2 7t-2 6z" />
<glyph unicode="[" horiz-adv-x="303" d="M49 1300v13v12v6l4 4v8q-2 2 -2 148q2 10 2 11q0 3 -2 3v15h53v-2q2 2 7 2h2q1 1 3 1l3 -1h8l12 -4h8l9 -5q20 -3 26 -6l6 -2h11q2 -2 4 -2q2 -2 6 -2q2 -2 8 -2l49 -2v-49q-1 -7 -2 -21t-2 -20v-21h-8l-12 -4h-15q-2 -2 -30 -2q-2 2 -11 2q-39 -6 -51 -24q-3 -36 -6 -92 l-4 -134q-6 -14 -6 -37q0 -24 6 -57q0 -62 6 -147v-8q1 -3 2 -13t2 -14v-39v-74q1 -5 1 -17q0 -9 -1.5 -26.5t-1.5 -23.5q0 -19 -2 -21v-14q-2 -2 -2 -8q1 -19 3.5 -109t4.5 -157q1 0 4 -3q0 -4 0.5 -14t1.5 -29t2 -36q-2 -96 -2 -146v-6l4 -8h9l2 -2q2 -2 4 -2h6l4 -4 q2 -2 8 -2l25 -7h12l8 -4h4v-6h7v-86q-43 -4 -58 -10h-53l-43 10q-9 8 -9 27q0 2 0.5 6t0.5 6q-6 65 -6 105q0 14 -2 16v16q-2 4 -2 8q0 3 2 9l-7 90v82q0 2 1 11t2.5 28.5t3.5 40.5l-5 61q-4 20 -4 42q0 21 4 36v127v82v45v24q2 2 2 13q0 10 -2 12q2 2 2 33q0 21 3 24v17 v10v10v15q-3 3 -3 22q0 31 -2 33v24v13l-4 12q-5 0 -5 69q0 61 1 103v8q-2 2 -2 4q-2 2 -2 6z" />
<glyph unicode="\" horiz-adv-x="552" d="M33 1321q2 2 2 8l-2 2q2 2 12 2q74 0 76 -2l4 -8q3 -6 6 -6l29 -74q18 -49 18 -51q-1 -2 -1 -5q0 -7 7 -18q0 -6 2 -8t2 -10v-8l5 -8l2 -5l10 -43q4 -4 4 -16q1 -1 2 -3t2 -3v-4q2 -2 2 -8q0 -16 8 -29t8 -29q2 -2 2 -8q0 -3 3 -6q0 -2 2 -4t2 -6q0 -35 18 -53l8 -25 l4 -16l4 -13h5q3 -26 8 -26q3 -24 24 -93q19 -74 19 -108l24 -84q3 -34 31 -107q2 -26 35 -141q0 -4 -2 -6q8 -8 8 -37q0 -4 2 -6t2 -6v-12l2 -5q7 -21 19 -49l12 -61q12 -26 24 -74q9 -37 19 -67l4 -48q8 -24 8 -47l-51 -16q-2 2 -16 2q0 85 -29 135q-12 85 -41 123 l-43 121q-2 2 -14 55q-2 17 -13 45q-8 19 -8 31l-31 123q-7 51 -45 176v12q-2 2 -4 2l-35 131q-21 83 -36 107l-29 92l-4 21v22l-13 43h-4q-7 57 -20 76h-2q-19 74 -33 94q-6 39 -14 39z" />
<glyph unicode="]" horiz-adv-x="358" d="M33 1483q1 0 4 8q1 0 5.5 0.5t14.5 1.5t21 2l53 4l12 4h4q6 3 7 4h6l4 2l57 2q16 9 29 9h8q6 -89 27 -209q-1 -13 -1 -48q0 -24 1.5 -85.5t1.5 -92.5q0 -30 2 -32q0 -43 6 -131l4 -13v-12v-25v-16l4 -16v-9q2 -2 2 -12v-104q-2 -2 -2 -27q-2 -4 -2 -26l2 -15v-24 q1 -1 2 -4t2 -5v-8v-18q2 -6 2 -25l2 -198q-1 -7 -1 -23t1 -23q0 -41 -2 -43h2q0 -4 0.5 -15.5l1.5 -34.5l2 -46q-3 -6 -3 -14q0 -9 1 -14q0 -3 -6 -33q-3 -37 -6 -53q-1 -9 -1 -21q0 -7 1 -8q-9 -19 -14 -21q-2 0 -2 -4h-6l-3 -2q-45 0 -51 -2q-52 0 -65 -8q-19 10 -19 74 q9 6 29 6v4q29 21 43 35h8v4l4 4l-2 106q0 27 2 29q2 18 2 26q0 9 -2 21l-4 29v16q0 86 -8 138q0 36 2 40q-6 70 -6 189q-1 19 -2 43t-1 29q0 7 1 8l-6 96l-8 53v51q0 3 2 3q-4 4 -7 32v14q0 15 2 17l-4 16q-3 70 -6 93l4 94q0 66 -8 139l-4 4q-36 0 -63 -12h-5q-2 -2 -4 -2 q-2 -2 -6 -2h-16q-18 -6 -29 -6q0 6 -4 10q0 10 -4 14q0 8 2 10q0 5 -2 5q0 4 -2 6q0 32 -6 47z" />
<glyph unicode="^" horiz-adv-x="456" d="M51 989q-6 13 6 37q0 4 21 39q0 6 2 8l10 21q23 41 37 69l55 103l17 20l12 21h14v-4h4v4h9l2 -2q2 -2 2 -5q3 9 53 0v-2q2 -2 2 -4q2 -2 2 -6v-10q3 -22 2 -23q9 -12 12 -26q5 0 11 -21q8 -13 8 -22l4 -2q0 -4 2 -6l2 -7q3 -3 0 -6q2 0 4 -2q0 -10 2 -12l37 -76 q14 -14 23 -43l-5 2l-4 4v-14q-2 2 -10 2q-16 -2 -61 -29q-9 3 -15 25q-6 0 -6 10h-4l-31 70q0 4 -14 24h-2l-2 2q-2 2 -2 5l-4 4q-8 8 -10 8q-7 -10 -11 -21q-15 -6 -32 -26q-18 -25 -25 -37h-2l-21 -29l-8 -16l-4 -4l-2 -4l-4 -4q-5 0 -8 -3q-2 -2 -8 -2q-13 0 -15 -2 t-8 -2q-29 -3 -37 -6z" />
<glyph unicode="_" horiz-adv-x="518" d="M68 -27q0 14 8 17q0 4 2 6h24v4h19v-4q37 3 61 0h17l16 4h8h8h21l24 -4h25h72h28h15h6q2 0 2 -2l4 -2h16l2 -6h-2v-11l5 -20v-29l-3 -2q-2 -2 -4 -2v-4l-2 -4h-12q-4 0 -6 -2t-6 -2h-6h-15h-8q-2 -2 -4 -2q-2 -2 -6 -2h-12h-41q-56 -6 -78 -6q-42 3 -146 6h-6q-2 2 -4 2 q-2 2 -6 2h-10q0 8 -2 10v14q-2 2 -2 17q0 20 2 22h-4z" />
<glyph unicode="`" horiz-adv-x="278" d="M49 1313q2 2 4 2v6q0 2 2 2t4 2q13 0 31 6q22 3 25 6v-4q0 4 2 6h12v4h10l8 -4v-6q0 -2 3 -2q0 -9 16 -31v-18q9 -14 9 -17l-1 -1l31 -82l4 -6l12 -13q0 -4 2 -6t2 -4q-2 0 -6 -4q-2 -2 -2 -4l-37 -6q-9 6 -10 6l-2 2q0 4 -2 4h-4q0 6 -17 20l-22 33q0 6 -12 21 q-1 1 -2.5 3t-2.5 3l-4 4l-8 8q0 10 -24 37z" />
<glyph unicode="a" horiz-adv-x="661" d="M33 911q2 2 2 31v19q0 8 -2 10q0 4 4 8h4h12h78h2h6q119 -11 133 -14l7 -2h8q52 -3 110 -29q53 -24 86 -57l6 -7l19 -18q8 -13 24 -29q19 -25 21 -32q7 0 16 -21q14 -32 27 -111q14 -60 14 -227q-7 -49 -10 -153q0 -15 -2 -25v-39q-1 -2 -1.5 -5t-1 -8t-1.5 -9v-27 q-2 -14 -2 -37l-12 -70l4 -51h-35q-5 -1 -15.5 -2t-13.5 -2h-16q-34 0 -47 -4h-13l-104 8l-84 6q-86 24 -92 37l-4 2h-4l-9 4l-4 2v4q-13 5 -32 21l-19 14q-6 13 -14 13q-29 63 -37 110q-2 20 -2 31q0 27 6 57q9 26 29 60q14 21 32 39q18 12 21 12l10 6q44 20 80 25h16 q3 1 7.5 1.5t11.5 1t12 1.5h39h45l23 2l53 -8q3 -3 6 -3q2 -2 8 -2l13 -4l4 -2h12q0 33 2 35v2v8v13q0 16 -2 20v23l-8 88q-4 28 -4 47q-4 18 -4 31v22q-4 18 -5 21q-29 68 -135 106q-101 37 -190 37l-4 -2h-11h-12h-16q-2 -1 -5 -1.5t-4.5 -1t-2.5 -1.5h-7q-22 0 -24 2 q0 22 -2 24z" />
<glyph unicode="b" horiz-adv-x="632" d="M41 53q0 5 1 8q-1 40 -1 101q0 69 5 74l3 124q0 7 2 9l-2 94h-3l3 178q0 27 6 100v41v19l4 76v18q0 2 2 2l-2 2l8 84v6q0 4 4 4q-1 1 -1 2t1 2q2 2 2 4q41 15 74 15l-2 -25v-18q-2 -2 -2 -6q-2 -2 -2 -9v-16v-33q-2 -8 -2 -196q-1 0 -1 -4t-0.5 -14t-2.5 -21 q-4 -26 -9 -180q0 -48 2 -50q55 22 99 29q37 5 65 5q69 0 131 -19q33 -10 59 -26.5t40.5 -30t40.5 -42.5l16 -30l4 -19q0 -14 2 -16t2 -21l4 -18v-18l-4 -13v-4q-15 -72 -45 -119q-8 -12 -15.5 -20.5t-18 -16t-17 -11t-21.5 -11.5t-22 -12q-16 -8 -29 -12.5t-20.5 -5.5 t-31.5 -3t-42 -4h-2q-13 0 -25 2q-38 0 -75 4q-33 0 -103 4q-24 4 -69 25q-10 6 -10 12z" />
<glyph unicode="c" horiz-adv-x="475" d="M37 451v12v6q1 1 2 4.5t2 5.5v10v37l4 35l4 29q3 21 12 45q5 5 5 14q2 2 2 4q2 2 2 6l2 5l4 8q10 28 43 73q39 55 57 70q23 29 31 29v2q2 2 14 6v4l72 47l16 8q11 7 15 7l88 8q17 -7 18 -8q2 -2 2 -17q-3 -3 -3 -11q0 -5 1 -9q1 -3 1 -9q0 -7 -5 -12q0 -6 -20 -12 q-22 -8 -48 -12l-24 -7v-2q-3 -3 -19 -8q-8 -2 -20 -8q-9 -3 -21 -12l-12 -8l-2 -3q-2 -2 -4 -2l-4 -4l-6 -6v-2q-7 0 -25 -12q-11 -14 -16 -14l-4 -5q-2 -2 -8 -14l-11 -18q-9 -13 -28 -56h-2q-9 -21 -9 -34q-5 0 -26 -136v-100q0 -39 8 -80l10 -22q9 -16 12 -29l9 -21 q3 -13 6 -16l2 -4l4 -4q3 -6 12 -12l15 -17q22 -22 63 -37l115 -43q12 0 14 2q8 0 10 2l9 5q6 2 10 6v4h10l6 -99q-16 -3 -31 -12l-53 -8q-94 3 -131 29l-12 10q-14 8 -25 12v4q-41 30 -41 37q-6 0 -12 14l-10 13q-34 60 -43 102q-8 42 -17 55v7l-4 12v12v21q-1 2 -2 6.5 t-2 5.5v6q-1 14 -2 26.5t-1.5 18t-0.5 6.5l-4 31q-1 6 -2 11.5t-1.5 8t-0.5 3.5z" />
<glyph unicode="d" horiz-adv-x="532" d="M33 276h4v35q5 42 35 113q20 41 59 80q45 33 72 49l55 25l25 8q15 0 57 10h45l-2 2v4v8v13q0 18 -2 20q0 33 -2 35q0 154 2 160v14q-1 1 -1.5 3t-1 5.5t-1.5 5.5v15v32v58q-2 6 -2 39q3 32 6 45l8 2q4 4 8 4h17h6q2 0 2 -2l4 -2h10l15 -4l4 -4q4 0 6 -2q3 -12 3 -21 q0 -5 -1 -6v-19l-2 -2h2q-2 -22 -2 -29q0 -10 2 -18v-18l4 -33v-39l-2 -2h2v-10v-10v-2v-7l4 -8v-8v-102v-115q0 -107 -2 -115q0 -10 2 -12v-35q2 -6 2 -47q-1 -1 -1 -22q0 -14 1 -87t2 -135q-4 -36 -4 -73q2 -18 2 -24q0 -32 -14 -46l-121 -2h-35q-36 3 -43 10l-2 2h-8 q-2 2 -12 2q-21 3 -27 6l-12 3q-123 41 -146 110l-4 10l-4 17v10l-4 8q-8 31 -8 98z" />
<glyph unicode="e" horiz-adv-x="520" d="M37 487v13v22v23v10l4 8v8v19v57q6 69 25 119q14 44 49 59q17 17 20 19q9 10 23 14q0 7 26 19q20 14 35 14v4q41 12 49 12q2 -2 23 -2l33 -4q13 -3 16 -12q14 0 29 -12q14 -9 28 -29l23 -23l14 -30l12 -27q9 -9 9 -27l4 -16q2 -2 2 -10l4 -33q2 -2 2 -35l4 -45v-20v-11 v-6l4 -4v-12q-2 -2 -2 -6q-2 -7 -14 -11q-18 -4 -23 -6q-20 0 -55 -6h-27h-24l-11 2q-63 10 -204 13v-27v-10v-6q1 0 2 -2q1 -1 1 -1.5t1 -1.5v-8q0 -4 2 -6t2 -6v-12l2 -4q2 -2 2 -13l2 -6q0 -2 -2 -2q3 -5 6 -29v-8q2 -4 2 -5t-2 -3q8 -34 14 -70q8 -69 48 -153q3 0 6 -10 l8 -25q3 -12 27 -27q21 -12 63 -12l16 4q27 6 29 8q18 6 33 33q10 18 26 70l-4 76q2 2 2 20v29q1 5 4 12t3 8h51l4 -16v-17v-4l-4 -8v-10v-27v-61v-12l-4 -17v-16q-3 -34 -6 -47q-2 -17 -11 -39h-2l-24 -33q-6 -9 -21 -18l-14 -11h-4l-4 -4q-2 -2 -9 -2q-13 -3 -20 -6h-57 q-12 4 -17 4q-8 4 -12 4h-10l-6 2l-13 2q-30 9 -51 33q-23 23 -35 39q-10 16 -14 16l-2 11l-10 20l-2 4v4q-5 5 -5 8q0 5 -2 7t-2 6l-12 28q-2 5 -6 23q-6 11 -10 33q-2 12 -8 24v6l-3 5q-2 6 -22 96v12v64v20v8z" />
<glyph unicode="f" horiz-adv-x="446" d="M39 494l10 100l6 72q0 40 6 67q7 31 7 43q2 7 6 33l10 41q1 2 3.5 8t4.5 10v6l2 5l12 39l27 36l23 27q20 20 26 20q13 13 21 17q9 6 30 12q24 7 25 8q5 1 15 1l102 -40q0 -6 10 -16l6 -25l4 -14q15 -95 15 -98v-2l-2 -6q-5 -5 -5 -9l-8 -6l-12 -6h-18q0 10 -7 17 q-15 77 -75 77q-4 1 -14 1l-36 -5q-36 -16 -63 -59q-9 -30 -12 -39q-9 -15 -15 -92l4 -33q-1 -5 -1 -18q0 -16 1 -25q0 -24 -0.5 -53t-1 -45t-0.5 -24v-13q4 -4 17 -4q5 1 13 1q7 0 9 -1q2 -39 11 -60l-2 -2h-7q-2 -2 -8 -2l-28 -12q-2 -2 -6 -4.5t-5 -3.5l-8 -8l6 -95v-20 q-1 -4 -1.5 -11.5t-1 -19.5t-1.5 -22v-74v-43v-14l-4 -17v-10q-2 -2 -2 -10q0 -3 2 -23v-33q-51 -15 -51 -18h-6q-11 4 -13 16v2v7l-4 8v8v18q0 37 2 39q-13 112 -16 301q1 0 1 2q0 1 -1 2z" />
<glyph unicode="g" horiz-adv-x="606" d="M31 199l2 67q8 0 8 2q2 2 33 2l10 4h8q2 2 17 2q0 -4 2 -6q-2 0 -2 -1t2 -3l2 -6q0 -52 13.5 -95t41.5 -52v-2q30 -11 78 -25h59q1 -1 3 -1q1 0 7 1t11 2q3 3 20 6q60 27 80 82q2 2 2 4q2 2 2 6l4 9q3 3 6 18l9 25l4 36q0 21 2 25q2 2 2 27l8 73l-4 82q-46 -9 -74 -12 q-55 0 -57 2h-25q-4 0 -6 2t-4 2q-3 3 -14 6l-33 8l-45 19l-17 8q-8 8 -16 8l-12 8l-37 25q-17 17 -29 37q-10 0 -16 41q-10 27 -13 76v11q0 45 33 90t68.5 70.5t71.5 43.5v4q145 53 282 53l4 -2q15 -6 19 -10q10 -7 10 -8q4 0 4 -5q4 -4 4 -10q-2 -2 -2 -14q0 -23 -2 -25 v-41q0 -49 2 -53q-2 0 -2 -27q-2 0 -4 -2h2v-157q-9 -67 -9 -82q0 -2 0.5 -5.5t0.5 -4.5v-14q0 -48 -10 -169q0 -128 -27 -217q-11 -20 -19 -28l-2 -3l-6 -10q0 -4 -6 -10l-6 -8l-12 -12l-4 -3l-4 -4l-5 -4l-4 -2q-3 -9 -16 -12q-18 -9 -18 -12l-21 -9l-18 -4l-25 -8 q-13 -8 -23 -8h-40q-2 -2 -31 -2h-17q-10 0 -12 2h-12q-2 2 -21 8l-26 8q-10 6 -20 13t-14 9.5t-5 2.5v2q-29 10 -68 78q-7 19 -10 39q-9 21 -12 39z" />
<glyph unicode="h" horiz-adv-x="491" d="M43 102q2 29 2 91v56v17q0 13 0.5 40t0.5 41q0 33 -1 50q0 59 6 117l-4 70l2 6v14q2 2 2 23q2 22 2 27q0 10 -2 12v4v262v14q0 17 43 17h19q21 0 24 -5q2 0 2 -8q0 -2 0.5 -4t0.5 -4q0 -10 -2.5 -28t-2.5 -29v-13q0 -84 2 -86q-2 -6 -2 -77q5 -47 5 -92q0 -24 -1 -37 q2 -2 2 -15q2 2 6 2q2 2 9 2h18l57 -6q47 -15 50 -18q10 0 26 -8q6 -2 21 -17l6 -4l8 -4q2 -2 5.5 -4.5t4.5 -3.5l6 -2l7 -6q4 -4 8 -9t6.5 -8t3.5 -4l5 -5q4 -6 9 -11q17 -46 19 -60q1 0 4 -14q15 -37 18 -102q6 -68 8 -70v-66l-6 -96q0 -20 -2 -22v-11q-26 -10 -57 -10 q-9 0 -29 2q-4 3 -4 13q0 11 4 26l-4 21v12q-2 2 -2 8v21l-2 30l-2 2q-6 76 -6 78q0 30 -4 58v20l-2 12q0 30 -10.5 64.5t-24.5 48.5q-6 6 -8 6q0 14 -29 14q-2 0 -2 2q-21 2 -35 7q-2 2 -26 2h-19q-17 0 -37 -54q-8 -13 -8 -65q-1 -23 -2 -46.5t-1.5 -35.5t-0.5 -16 q-2 -30 -2 -34q0 -11 2 -11q-6 -89 -6 -162q1 -6 1 -15q0 -8 -3 -8q0 -3 -29 -6q-2 -2 -20 -2q-13 0 -17 4q-3 0 -6 8q-2 2 -2 13q-1 1 -1 5q0 7 1 11v14q0 15 -1 30.5t-1 16.5z" />
<glyph unicode="i" horiz-adv-x="198" d="M37 860v19v10l4 8v4q0 8 2 10t2 4q0 3 2 3t4 2l2 2q4 0 4 2l31 10q2 0 6 0.5t6 0.5q18 0 29 -11q4 -36 4 -64l-2 -4l-4 -4q0 -4 -4 -8t-8 -4q-20 -4 -21 -4q-2 -2 -33 -2v4q-12 0 -18 6q-6 3 -6 16zM47 756l10 20h13q0 3 13 3q8 0 13 -1l27 -4l-8 -45q1 -7 1 -21 q0 -15 -1 -22v-12q1 -3 2 -11t2 -12v-28q0 -31 12 -78q0 -60 2 -64q0 -16 2 -18v-17q2 -2 2 -10q2 -10 2 -11q0 -3 -2 -5q8 -13 8 -58q0 -28 -2 -34v-41v-29q-1 -4 -2 -10.5t-2 -9.5v-9v-200l-6 -19l-70 -10q-7 3 -10 33v164q-1 2 -1 14q0 18 1 31q0 41 4 45q-2 2 -2 24v29 q0 49 2 53v29v37v10q-1 2 -2 5.5t-2 4.5v6v9v47q2 2 2 18q0 37 -2 49v35v12q-1 2 -2 6.5t-2 6.5v6v53q-2 8 -2 29z" />
<glyph unicode="j" horiz-adv-x="468" d="M31 199q0 35 10 45l55 6q-2 -2 -2 -6q2 -2 2 -15q0 -6 2 -8t2 -6q0 -6 2 -6q0 -12 9 -27l24 -47l12 -14l25 -27l12 -14v-4q13 -6 45 -10q20 0 35 6q12 4 27 16q9 6 18 21q8 12 13 22q3 13 6 16q2 2 2 9v2v6l4 8v8q1 5 1 12t-3 7q0 12 2 14v10q0 29 2 31t2 68q-3 33 -3 54 q0 22 3 36q0 43 2 45q3 106 3 181q0 124 -9 153q0 18 -2 20l-2 25q-1 1 -1 2q0 2 1.5 7.5t1.5 8.5v6l2 12l4 5l2 4h12q24 0 60 -7v-2h2q-8 0 -8 -43q0 -11 2 -55v-26v-11v-4q2 -4 4 -6v-6q2 -4 2 -33q0 -10 -2 -10q9 -9 9 -39q0 -17 -3 -43q0 -25 2 -27q0 -45 -2 -49 q-6 -52 -6 -57q0 -3 -6 -47v-144q-3 -64 -23 -157q-13 -46 -29 -66q-22 -31 -24 -33l-13 -10q-6 0 -24 -12t-76 -21q-21 0 -61 21l-37 33l-37 32l-2 2q0 5 -4 9l-4 12q-16 22 -25 53q-13 39 -16 64z" />
<glyph unicode="k" horiz-adv-x="468" d="M43 10q3 52 6 72q2 2 2 33q-2 2 -2 12t2 12v92l2 66q-2 4 -2 72q0 39 2 41l-4 14q0 16 -2 20v39q-2 8 -2 49q-2 4 -2 43l6 107q0 176 6 188q39 0 41 2h27q20 5 23 5h4v-9v-14q-3 -3 -3 -37v-76q-20 -212 -20 -228v-3h4l2 2l4 4l4 4l9 8l8 9l4 2q26 29 39 32q9 9 12 15 l10 10l2 4l19 18l41 33l18 17q0 2 16 24l31 31q14 14 19 14q0 17 39 23v-4l4 -15l12 -30q1 -5 1 -11q0 -4 -1 -4q0 -12 -8 -20l-13 -12l-8 -7v-4h-4q-6 -3 -18 -18l-23 -23q-14 -14 -20 -14v-6q-8 -4 -25 -21q-16 -16 -20 -24h-4l-5 -6l-12 -13q-14 -14 -16 -14l-43 -51 l-43 -51q0 -13 2 -15q4 -4 22 -41q12 -34 29 -41q0 -5 12 -20q12 -16 25 -29q11 -14 14 -14l103 -162l30 -33l33 -34h-4v-9l-51 -6q-37 0 -41 -2q0 2 -6 14q-9 9 -13 21q-2 8 -2 10v2l-6 6q-3 6 -8 11l-8 8q-2 2 -2 6q-14 0 -31 33l-49 76q-19 39 -43 63l-10 10l-4 6 q0 2 -2 4t-2 7l-5 4q-1 1 -3 4t-3 4q-10 13 -12 20h-2l-8 -41q-5 -95 -5 -119q0 -14 1 -18v-35v-8v-4q-2 -4 -4 -6v-6v-12h-7q4 0 7 -3q-4 -6 -4 -11t4 -15q0 -24 -3 -27v-6l-26 -4h-29l-2 2q-2 2 -2 4z" />
<glyph unicode="l" horiz-adv-x="190" d="M39 35v57q2 4 2 35q0 333 8 369l6 30l2 105q0 403 6 465q2 5 33 8q10 1 22.5 2t15.5 1q4 0 5 -1v-4q-3 -15 -6 -68q0 -382 -6 -432q4 -19 4 -64q0 -59 -6 -161v-70q2 -6 2 -78q0 -63 -2 -67q0 -29 2 -31v-102q-2 0 -2 -2t-2 -4l-2 -5q0 -2 -2 -2t-4 -2l-4 -4 q-2 -2 -19 -2q-6 0 -8 -2t-16 -2q-9 0 -11 -2t-10 -2q-4 7 -8 35z" />
<glyph unicode="m" horiz-adv-x="632" d="M41 809l4 51v33q1 5 11 5q8 0 12 -1q2 2 36 2v-2l7 -29v-2v-6l4 -8v-10l4 -21v-6l4 -29h8h4l12 9q13 8 27 8q53 0 88 -15q42 -14 64 -43h6q0 12 18 21q14 33 105 33h2q59 -15 80 -58q21 -47 24 -98q3 -54 6 -63l6 -80v-56q2 0 2 -4v-18q0 -30 3 -33q-1 -7 -1 -26 q0 -15 2.5 -74.5t2.5 -79.5q-4 -53 -17 -141l-6 -54q-30 -9 -50 -9q-14 0 -22 5l-2 29q-2 6 -2 76v108v31q1 4 2 14t2 13v18v25v61q4 40 5 45v16q1 8 1 29q0 24 -1 37q0 50 -3 53l-10 68l-14 29h-2q0 14 -21 14h-8q-25 -3 -35 -29h-4q-32 -32 -35 -172v-2q-10 -167 -10 -225 v-15q-2 -2 -2 -86q2 -44 2 -53q0 -19 -2 -33q0 -10 2 -12t2 -20l-6 -13q-21 -6 -32 -6q-14 0 -19 8q0 2 2 2q-6 6 -6 213q2 2 2 50q0 73 2 79v9q1 3 2 10.5t2 11.5v35v107q-2 2 -2 22q0 58 -2 64l-4 16l-4 12v6q-4 11 -17 19q-8 8 -32 8q-55 -12 -70 -39q-24 -30 -33 -94 q-10 -120 -10 -211l-2 -84l-2 -86l8 -96q0 -25 2 -27t2 -14q0 -4 -2 -6q0 -7 2 -9q-29 -3 -63 -16q-13 3 -13 106q-1 47 -2 94.5t-1.5 72t-0.5 34.5q0 99 2 101l-6 100l-4 65q-1 4 -1 17q0 16 1 26q-3 39 -3 62q0 24 3 31v41q-2 4 -2 41q0 16 -2 18z" />
<glyph unicode="n" horiz-adv-x="483" d="M41 727q0 19 2 21v47v45q3 58 6 82l17 4q12 4 20 6q2 2 16 2q10 -3 13 -10q0 -2 -0.5 -6t-0.5 -5q0 -19 11 -30h2q0 1 -0.5 1t-0.5 1q0 5 9 14q30 17 53 23q72 10 107 10l24 -8l3 -2h4q6 -9 10 -9t8 -4t8 -4q17 -17 37 -45q19 -37 21 -67l8 -52l8 -49q-2 -2 -2 -4 q0 -41 2 -51v-37q2 -6 2 -14q0 -117 -2 -127t-2 -140q-2 -12 -2 -286q0 -6 -2 -8q0 -5 -2 -7q-25 -4 -50 -4q-21 0 -32 4q-10 10 -10 70q0 68 4 72q-2 2 -2 6q0 2 2 10l4 19l-4 2q0 20 2 24v49q2 10 2 62q3 71 6 110q0 68 -8 115q3 3 3 20q0 32 -7 89v43q0 15 -9 45 q-3 22 -12 37q-6 6 -8 10l-14 14q-13 11 -29 11q-1 0 -3 -0.5t-3 -0.5q-38 -3 -49 -10v-4q-11 0 -21 -16q-12 -12 -28 -68q-20 -54 -29 -135v-88v-62q-1 -10 -1.5 -21.5t-1 -19t-1.5 -12.5v-29q6 -160 12 -241l2 -64q3 -20 3 -31t-3 -14h-16q-4 0 -6 -2l-5 -2q-2 -2 -10 -2 h-6l-2 -2q-2 -2 -4 -2h-6h-21q-4 4 -4 12q0 4 -2 6t-2 5q0 136 8 155q0 228 -2 240t-2 125v39l-4 28v13v28q-1 4 -2 12t-2 11v10q0 2 4 2h-4q0 17 -2 19t-2 22zM342 434h6q-4 0 -4 -2z" />
<glyph unicode="o" d="M37 461v31q3 29 6 40q-1 1 2 37q0 1 4 17q0 4 6 28l6 21v10l2 6h3q0 3 16 49q16 32 37 62q20 33 22 35l27 18q10 10 49 39l27 18l32 21q22 16 31 16q5 5 25 11q20 5 30 5q4 0 7 -1q2 -2 12 -2q4 -2 12 -2l19 -5v-4l47 -18l4 -4l2 -2q2 -2 2 -4l4 -2l8 -9q5 -5 2 -8 q41 -30 56 -86q6 -6 14 -28q9 -21 6 -27q7 -3 10 -29l11 -63q-3 -152 -13 -238q-9 -81 -12 -98q-3 -21 -12 -45q-9 -12 -15 -57q-35 -84 -47 -89v-2q-2 0 -14 -18q-13 -16 -23 -23q-12 -12 -65 -30q-50 -20 -135 -31q-50 16 -78 33v4q-40 12 -74 88l-27 88l-14 68 q0 12 -2 14q0 4 -2 6v10q-2 2 -2 8l-4 35z" />
<glyph unicode="p" horiz-adv-x="589" d="M41 -213q0 175 6 270q0 74 2 80q0 92 2 96q1 23 1 58q0 40 -5 45v51q0 142 2 150v67q-2 2 -2 27v28l-2 3q2 2 2 28q0 4 2 6v13q2 4 2 20l10 29q4 4 33 4q40 9 47 16h15q-6 -21 -6 -30q0 -5 2 -7l4 -79q14 0 20 6l4 2q0 2 2 2t4 2l9 4l43 14q4 2 94 8q96 -6 102 -20 q13 -3 37 -27q20 -13 29 -41q3 0 14 -20l12 -23q8 0 11 -22v-17l4 -12v-6q8 -8 8 -35q0 -24 -6 -65l-17 -39q-11 -22 -18 -29l-6 -12l-80 -78l-66 -35l-106 -26q-30 0 -45 6q-13 8 -70 8q-11 -116 -11 -165q0 -24 3 -38q0 -72 2 -76q0 -14 -2 -18v-10v-6q-1 0 -2 -2t-2 -3 v-8v-20l-2 -13q0 -41 -8 -98l-70 -8v4h-2v41z" />
<glyph unicode="q" horiz-adv-x="583" d="M37 346q0 106 6 127l2 4v10q2 2 2 17q3 24 8 24q0 41 27 68q28 81 121 127v2q58 25 98 25l41 -9q92 0 184 -51q0 -6 2 -8l-8 -8l-2 -4q0 -66 2 -72v-49q4 -66 4 -219q5 -40 5 -94q0 -50 -5 -140q-3 -62 -3 -129q0 -114 9 -246q-3 -55 -10 -73q-32 0 -53 8l-4 2l-4 4 q0 4 -4 4v15l4 16v20v54v61v16q-1 2 -2 7.5t-2 7.5v10v14v11v8v22v39v17l-4 12v12v27q0 94 -2 102q-37 -21 -78 -24q-47 3 -86 6q-33 0 -33 4q-34 0 -68 12q-37 15 -53 31q-19 15 -37 37q-20 26 -20 30q-7 7 -11 15q-7 23 -12 31l-6 32z" />
<glyph unicode="r" horiz-adv-x="466" d="M43 324v36q2 2 2 46q0 38 2 40v19l2 80q7 76 7 165q0 37 -1 56v36q0 89 13 134l14 2h14h6q2 0 2 2l5 2q2 2 24 2q10 0 14 -4q-3 -27 -3 -51q0 -22 1 -31l21 10q14 10 27 13l49 20h2q21 3 32 3q15 0 15 -5q1 1 4 1q2 0 8.5 -1.5t9.5 -1.5l9 -2l20 -8q1 -1 4 -2t4 -2l8 -4 q4 -2 7 -2q0 -3 10 -13q12 -12 16 -20q10 -17 10 -25q6 0 15 -37q2 -2 14 -51q-4 0 -4 -10q-31 -8 -43 -16q-11 -11 -31 -17l-2 10q0 9 -2 11q-3 9 -4 10l-10 22l-12 25q-8 8 -15 10q0 5 -16 8q-2 2 -31 2q-2 -2 -16 -2q-14 -3 -37 -18q0 -2 -2 -4q-2 0 -2 -2l-4 -2l-6 -4 l-11 -11q-2 -2 -8 -14q-5 -5 -10 -18q-19 -68 -19 -107q-10 -58 -10 -84q-8 -21 -14 -217q-1 -29 -1 -83q0 -125 7 -202q0 -3 -66 -18q-4 4 -6 4l-4 8v8q-2 2 -2 9q0 18 -2 20v43q-2 6 -2 58q-1 34 -1 89q0 47 1 64q0 2 2 2z" />
<glyph unicode="s" horiz-adv-x="514" d="M31 51v10h4q0 6 9 21q1 1 2 3t2 3l4 4q4 8 8 12l8 11l4 16h8q9 0 9 -4l16 -4l27 -4q51 0 83 9t74 34q44 28 56 61q3 0 6 15q6 12 12 49q0 8 2 16t2 16q0 29 2 35t2 25l-4 49l-6 12q-3 0 -6 19l-8 12l-9 16q-14 14 -27.5 29.5t-26.5 29t-36 32.5q-39 26 -53 26v2l-29 10 q-37 15 -41 19q-19 11 -34 29q-22 19 -31 45q-2 4 -2 39q23 94 75.5 144t143.5 58q47 0 79 2t41 2q4 0 44 -2q2 2 20 2q3 -4 11 -6v-12h-3q-2 -6 -2 -68q-2 -2 -2 -14q-34 0 -47 8l-6 2q-4 0 -20 4l-29 4h-63q-11 0 -33 -8q-18 -7 -27 -16l-18 -19l-2 -4l-4 -3q-4 -3 -5 -5 q-2 -4 -8 -10l-4 -8l-4 -17q0 -16 -2 -18q15 -41 23 -45q14 -14 51 -37v-2l8 -4v-2l51 -33q30 -26 37 -35l25 -33q1 -1 9.5 -14t11.5 -18t12 -19t13 -22t10.5 -21.5t10 -24t6 -22.5t2.5 -22q0 -56 -14 -144l-25 -65l-2 -6q-6 -11 -19.5 -37.5t-19.5 -37t-20.5 -30t-27.5 -29 t-35 -21.5t-50 -20q-57 -17 -135 -20q-63 12 -69 27q-15 0 -15 24z" />
<glyph unicode="t" horiz-adv-x="481" d="M31 696q15 83 18 86q0 10 19 13l20 4h21q5 1 26 8q48 3 64 14q0 96 14 121q40 -6 49 -12h2l4 -2l4 -2h9v-13q-1 -1 -2.5 -4t-2.5 -4v-2v-26v-25l9 -16l2 -9l4 -4q3 -3 4 -3q2 0 2 3h14h25q6 2 14 2q5 0 23 -2l-4 -8h2l2 -2q-4 -4 -4 -28q0 -8 2 -46l-4 -18 q-91 -15 -107 -25q-2 -22 -12 -65q-13 -256 -13 -335q0 -5 0.5 -12t0.5 -8q-3 -18 -3 -24q0 -20 7 -78q9 -27 12 -35q38 -41 59 -41h2q19 0 54 62q3 54 16 57l16 -10q9 -3 9 -6q4 0 6 -2t6 -2q0 1 2 1q3 0 6 -1h16q-2 -2 -2 -54l-8 -39l-16 -32q-15 -30 -21 -33 q0 -30 -80 -39l-32 8q-20 0 -35 12q-17 10 -23 19l-4 4q0 2 -2 2l-2 4h-2q0 2 -2 4v2q0 2 -2 2l-2 4q-2 0 -2 2l-2 5q-2 2 -6 10l-2 6l-4 4q-1 1 -2.5 3t-2.5 3l-10 23l-10 45q-25 209 -25 289v16q-2 2 -2 4l11 98v29v10v6l4 4v7v14l4 12v8v13q3 13 6 20q-40 -12 -72 -12h-8 q-2 1 -7.5 2t-8.5 2h-23q-15 6 -18 12z" />
<glyph unicode="u" horiz-adv-x="538" d="M39 653v52l8 96v49q11 26 12 27q2 2 4 2q2 2 7 2q36 23 39 26l12 6q3 1 7 2t5 1t2 -1l4 -18q-3 -25 -6 -37q-1 -7 -1 -20q0 -12 1 -17v-12q1 -2 2 -9.5t2 -10.5v-29v-39q2 -4 2 -35q-1 -3 -1 -24q0 -55 14 -277q-2 -16 -2 -20q0 -11 4 -19q0 -107 10 -192q9 -44 45 -64 q27 0 29 -2l6 4q8 0 10 2t8 2h12q71 56 80 101h2q3 16 9 22q18 59 24 137v56q0 57 2 59l4 23q0 14 -2 16q7 4 7 24q0 9 -1 15v7q0 2 2 40q-3 12 -3 49q0 40 1 66q3 41 3 69q0 29 -3 47q0 23 2 25q0 12 -2 14v13v12q3 6 7 10q16 -1 40 -1q18 0 23 1q0 -33 -2 -37t-2 -47 q-1 -1 -1 -3t1 -9.5t2 -13.5h-4l4 -5q2 -2 2 -4v-14q0 -23 -2 -25t-2 -40v-64l4 -37l4 -57q3 -59 12 -129q-6 -86 -6 -99t6 -43q-3 -47 -6 -63q6 -92 6 -100q2 -6 2 -10q0 -3 -2 -13q-2 -2 -2 -65q-3 0 -13.5 -2t-16.5 -3h-2h-7l-8 -4h-8q-2 -2 -16 -2l-9 2q-5 6 -8 13 q2 0 2 4q0 10 -2 12q0 6 2 8q0 6 -2 8q0 5 -2 7q-36 -65 -149 -91q-15 0 -17 -2l-55 19q-42 25 -66 74l-14 38q-5 30 -5 36q0 2 1 3q-24 125 -24 161q0 9 2 13l-9 123l-6 33q0 3 -0.5 8t-1.5 14.5t-2 18.5v27q-2 4 -2 18q-3 48 -6 92z" />
<glyph unicode="v" horiz-adv-x="616" d="M31 895q0 4 2 6t2 8v4l2 2q2 2 2 5l10 4l19 6q17 0 36 8l17 2v-4q5 0 8 -16q2 -10 2 -16q0 -5 -2 -15v-17q2 0 8 -28l6 -115l31 -213q3 -60 16 -139l29 -193l12 -88q23 0 25 2h14q2 2 9 2q4 0 6 2h4q4 0 6 2t6 2q4 4 16 7l-2 2h4l78 327q0 12 6 33q9 15 9 25q0 20 18 67 l23 105l36 147q5 19 10 37t7 25t2 8h4q3 13 12 29q50 0 56 -3q0 -11 -13 -65q-10 -38 -10 -45l-22 -88q0 -28 -9 -43q0 -4 -2 -6t-2 -15v-6l-4 -8l-4 -21q-1 -3 -2 -6.5t-1.5 -5t-0.5 -2.5q-12 -42 -18 -67q-12 -32 -13 -35q-7 -20 -8 -27q-3 -3 -6 -16l-2 -8l-2 -5 q-2 -2 -2 -4q-2 -2 -2 -6l-4 -12l-9 -33l-4 -29q-11 -76 -24 -126v-3l-35 -145q-10 -14 -19 -43q-10 -37 -16 -43q-23 -5 -48 -5q-23 0 -50 3q-32 7 -55 7q-8 0 -11 -1q-64 15 -73 365v20q-6 68 -33 201q-25 141 -25 156q0 32 -8 73q-6 24 -12 74z" />
<glyph unicode="w" horiz-adv-x="645" d="M39 307v4v8q0 62 2 66t2 51q3 15 6 182q0 85 2 93v63q2 4 2 21q3 152 8 157l39 -10h13l4 -2l4 -2h2q1 -16 1 -43q0 -37 -5 -55q-2 -14 -2 -258q0 -156 2 -158q0 -76 -2 -84q2 -2 2 -4v-4v-4q0 -11 2 -13q0 -14 2 -16q3 -5 6 -25l8 -32q3 -8 9.5 -31.5t11 -34.5 t13.5 -26.5t22 -23.5t30 -11v-2q12 -6 27 -6q4 0 18 2q16 3 31 24q5 6 11 62t6 84q0 1 -0.5 3t-0.5 3v9q0 18 4.5 41.5t4.5 26.5q0 5 2 7h2l2 2h8q18 0 20 -2h11q4 0 6 2q2 0 4 2h8l4 -4q2 -2 4 -2l8 -68q0 -3 1 -46t6.5 -76.5t17.5 -37.5q3 -1 8 -1t8 3q2 2 13 2l8 9l2 4 l4 4q2 2 2 12l4 14q0 17 2 19t2 20q3 178 17 254q6 108 14 139l-2 21v66q-2 33 -2 100q0 14 2 18v29q1 10 2 20.5t1.5 16t0.5 8.5q0 8 2 10t2 8v17q0 4 2 6q0 2 2 4q0 15 4 19q0 2 2 2q3 0 7 -2q0 -1 8 -5q1 -1 4 -2t4 -2q8 -8 41 -8q8 -13 8 -45q-4 -32 -10 -45 q-2 -2 -2 -205l-2 -2q2 0 2 -69q0 -78 -2 -84l2 -23q1 -7 1 -21q0 -13 -1 -18q0 -1 -0.5 -3.5l-1.5 -7.5t-2 -11q0 -6 -0.5 -20.5t-1.5 -41.5t-2 -53q0 -43 -25 -162q-21 -99 -61 -123v-2q-10 -3 -29 -6q-6 0 -8 -2h-8l-3 -2q-25 3 -43 18q-2 2 -5.5 5t-4.5 4l-12 12l-16 33 h-3q-7 -23 -57 -52q-59 -6 -94 -6q-61 22 -86 47q-32 26 -35 37l-4 17l-1 3q-1 3 -1 7q-5 8 -8 16q-6 18 -13 25l-2 16l-4 17q-4 12 -6 20q-8 31 -8 51v25v6z" />
<glyph unicode="x" horiz-adv-x="651" d="M31 16l4 21l10 20l10 21l6 12q11 37 21 47l2 4v6l8 21q4 4 4 12q2 3 3.5 7.5t2.5 5.5q3 8 6.5 17t4.5 11l8 23q4 8 4 10q119 238 127 285v2q0 23 -37 98q-35 78 -43 86q-5 16 -14 31l-13 20h-4q0 11 -8 19l-4 4q-1 1 -2 3t-2 3l-6 6l-2 4l-6 10q-14 14 -17 29q-6 0 -6 12 l-6 13q0 13 6 34q13 0 31 9q26 3 35 12l2 2q12 -4 37 -41l2 -2v-4l4 -8v-4l2 -3q2 -2 2 -4l16 -43l6 -22l19 -31l32 -61q5 -10 10 -18.5t7 -12t2 -4.5q-2 0 -2 -2t6 -10q2 0 12 16l23 47l18 27l13 18l4 6q28 54 32 58q24 78 52 90q2 -2 14 -2q2 -2 8 -2h14q3 1 7 2t5 1 q2 0 3 -1q-6 -18 -6 -21l-4 -8l-5 -8q0 -6 -4 -6l-24 -58q-7 0 -10 -20q-10 0 -35 -66q-29 -73 -29 -80h-4q0 -4 -8 -12q-6 -9 -6 -20q0 -27 2 -29q3 -24 18 -53q7 -22 45 -82q0 -12 8 -25l13 -20l20 -45q11 -28 80 -156q60 -112 60 -156q0 -2 -0.5 -4.5t-0.5 -3.5 q-46 -8 -57 -26l-4 -2h-12q-4 -2 -19 -2q-63 142 -96 186l-12 31q-10 3 -15 22q-7 20 -12 23q0 2 -2 4t-2 6q0 8 -4 12l-4 17q-4 4 -4 10q-4 4 -19 31q-40 72 -53 75q-10 -10 -10 -39h-4q-11 -27 -11 -31v-1q-20 -33 -20 -37l-29 -70q-36 -62 -43 -90q-26 -45 -26 -51 q-3 0 -6 -8l-5 -9q0 -4 -2 -6l-2 -4q0 -4 -2 -6t-2 -6l-12 -31h-2l-23 -53q-4 0 -4 2h-6l-57 4q-2 2 -2 12z" />
<glyph unicode="y" horiz-adv-x="563" d="M37 664v47v6l4 12v12q6 27 8 29q5 0 8 18q41 13 70 13v-2q2 0 8 -94q6 -95 6 -99q20 -105 52 -121v-2l4 -2q2 -2 6 -2t6 -2q0 -2 4 -2t4 -2q2 -2 10 -2l15 -4q4 -1 12.5 -2t11.5 -2q15 6 21 12q4 4 12 4l6 4q2 0 4 2q0 5 8 13l19 18q11 11 18 25q12 10 23 28q13 27 16 37 q10 17 13 37q8 13 8 35q4 28 4 31v10v6l4 4v6v27q-2 12 -2 17q0 6 2 14q0 22 2 24q10 2 17 2q15 0 38 -6q25 0 27 -2q-1 -30 -2 -65t-1 -42q0 -11 1 -12v-28q1 -3 2 -11t2 -10v-12v-25v-12v-4q1 -1 2 -3t2 -3v-13q-3 -105 -12 -135q-8 -23 -17 -215l-37 -121q-5 -13 -20 -28 q-14 -56 -94 -109q-46 -30 -97 -30q-32 0 -69 14q-80 44 -80 71q-3 0 -16 23l-13 33q0 17 15 32q12 12 28 21q6 5 13 5q3 0 4 -1l12 -33q34 -37 66 -45q29 -6 44 -6q7 0 15 2q25 8 53 27l21 14q1 1 3 2t3 2l4 4l6 4l4 4l2 3q2 2 2 4t2 4l4 4l19 41l33 223q0 69 6 104h-4 q0 -2 -6 -14q0 -7 -3 -10q-2 -2 -2 -4q-1 0 -20 -19q-9 -15 -21 -18q-25 -21 -73 -39q-39 -14 -82 -14q-9 0 -31 2q-62 9 -86 61h-2q-3 3 -6 15q-3 11 -6 14l-8 16q0 3 -3 6q-2 2 -2 4l-4 7q0 10 -2 12t-2 8q-2 2 -2 8q-10 0 -10 45l-2 46l-1.5 34.5t-0.5 14.5z" />
<glyph unicode="z" horiz-adv-x="475" d="M31 36q0 5 4 9q14 99 66 231l4 11l6 18q7 24 10 27q8 47 35 106q27 56 27 72q5 0 35 68l67 147q39 80 53 94v2h5l8 21q-19 0 -21 -2v4l-45 -8v-5h-33l-12 -4q-4 -4 -33 -4q-9 -3 -82 -6q-2 2 -12 2q-2 2 -12 2v-4q-2 2 -21 2q-1 3 -1 8q0 8 5 13q0 79 3 82q3 10 14 10v-4 q14 0 20 2h17l4 2l4 4v-4q15 6 37 6q14 2 24 2q9 0 31 -2h39q61 8 91 8q18 0 32 -4l24 4q2 2 13 2v-69v-23q0 -30 -21 -65q-20 -33 -20 -46h-4l-95 -229q-42 -77 -45 -110q-3 0 -6 -9l-4 -8q-2 -2 -2 -8l-4 -4l-2 -2q-2 -2 -2 -4q-16 -37 -27 -56l-22 -45q-2 -8 -13 -30 q-8 -13 -8 -37l-24 -70q26 0 51 -14q44 -13 51 -13q9 -6 84 -12q72 0 72 6l24 6l-12 -92q0 -7 -8 -10v-2q-13 2 -37 6l-20 4l-21 -4h-4q-2 -1 -5 -2t-5 -2h-13h-10q-2 -2 -10 -2q-6 0 -6 -2h-6h-2q-52 0 -54 -2l-12 4q-2 2 -10 2l-4 2q-2 0 -2 2h-6h-3l-102 6q-6 0 -8 2 q-4 0 -6 2q-4 0 -6 2q-1 0 -4 3q-2 2 -9 2q-4 5 -4 11z" />
<glyph unicode="{" horiz-adv-x="335" d="M33 778q24 91 35 150h4q8 20 12 41q5 72 5 85q0 8 -1 9l6 43q0 2 0.5 5.5t1.5 10t2 11.5v8q0 4 2 6h-2q0 47 11 65q0 31 2 33h2q5 22 14 41q4 12 4 19q2 3 4 9t4 9q0 2 1 5.5t1 4.5l6 6q0 4 5 9q21 57 47 69q5 3 16 17q4 6 14 16l4 4q1 1 3 2l5 2.5t5 3.5l16 13 q14 9 25 9q6 0 12 -3l-4 -21q0 -43 2 -47t2 -49q-3 -8 -14 -12v-4h-4q-11 -11 -11 -15h-4l-4 -4l-8 -12l-12 -17q-6 -6 -9 -16q-7 -5 -24 -35q-9 -17 -9 -29q0 -2 0.5 -4.5t0.5 -3.5l-4 -88q-4 -66 -4 -75l-5 -9v-20q2 -2 2 -33q0 -14 -2 -16v-13q-8 -13 -8 -22 q-6 -28 -8 -35q0 -6 -0.5 -11t-1 -7.5t-0.5 -3.5h-4l-8 -21q-2 -2 -2 -8l-2 -4q0 -2 -2 -2v-8l-5 -5v-22q7 0 15 -14l18 -21l27 -53l4 -29q5 -14 6 -16q0 -8 4 -12v-5q2 -14 2 -18q0 -6 -2 -12q5 -22 5 -33t-5 -18q3 -26 6 -35v-88l13 -90l4 -11v-59q1 -1 1 -6q0 -7 -3 -19 q2 -2 2 -6q-2 -2 -2 -10l2 -2q2 -2 2 -4v-6q2 -2 2 -15q-6 -6 -6 -9q0 -1 2 -5l4 -12q2 -2 2 -11q3 -31 10 -38v-5l29 -45q8 -5 8 -32q-2 -8 -2 -16q0 -18 6 -54h-6h-12l-13 4h-8q-60 25 -90 127l-22 145l-3 15l-4 8v8v17q-2 2 -2 20v172q-10 100 -22 139l-19 52 q-4 0 -12 14l-4 4q-2 4 -8 10v4h-4v4q-7 0 -19 15q-9 12 -16 12q-2 2 -2 8h-2z" />
<glyph unicode="|" horiz-adv-x="204" d="M45 557v59l6 60q0 14 2 16v21v12v70q-4 114 -4 143l4 53q-5 16 -8 62q0 47 4 51v98q-2 2 -2 6l2 4l4 13l4 16q6 9 15 12l28 4q2 0 6 -4q5 0 9 -4q12 0 16 -4l4 -20v-8l2 -7q-2 0 -4 -2q2 -2 2 -28l6 -62q7 -98 7 -155t-5 -115q0 -33 2 -35q0 -20 -2 -22v-17l-2 -4v-127 q9 -155 9 -160q2 -2 2 -32q0 -24 6 -27q0 -16 2 -18v-17q1 -2 1 -6t-1 -6q0 -15 2 -17l-4 -65q0 -31 -2 -33v-41q0 -31 2 -33v-6q0 -8 -2 -10v-16l-4 -21l-5 -24l-2 -2q0 -42 2 -48v-41q3 -6 3 -30l-52 -6l-2 4h-2q-4 15 -8 49l-2 127q-9 9 -9 39q0 3 0.5 9.5t0.5 10.5 q-2 2 -8 64q-4 31 -13 90q0 6 -2 8v8q-2 2 -2 6v27h2q-1 13 -2 27.5t-1.5 22.5t-0.5 11q-1 19 -2 36t-1.5 25t-0.5 9z" />
<glyph unicode="}" horiz-adv-x="372" d="M33 1417v33l8 25v16q7 3 20 6l41 -10l21 -4q4 -1 8.5 -2t6.5 -1.5t3 -0.5q27 -15 62 -62q3 0 18 -35q2 0 8 -6q0 -6 2 -8t2 -12l9 -21l4 -20l2 -8l2 -7v-18q2 -8 2 -27v-34q-6 -138 -6 -209v-6l4 -21v-29q7 -11 10 -38l2 -3q0 -2 2 -2l2 -4v-2q2 -2 2 -4q0 -33 19 -61 q22 -29 51 -43v-15q-2 0 -16 -14l-21 -14v-4h-4q-9 -9 -12 -15l-6 -6l-3 -2l-4 -4l-4 -8q-2 -2 -2 -119l6 -45q0 -19 -2 -21t-2 -32q0 -13 4 -17q-6 -30 -6 -90q1 -2 1 -11q0 -7 -1 -32t-2 -45q-7 -3 -10 -22q-2 -10 -2 -14q0 -5 2 -9q-5 -5 -8 -47q-12 -17 -12 -28 q0 -3 2 -7q-8 0 -17 -41l-29 -49h-4q-2 -2 -2 -10h-4q-3 -22 -55 -62q-4 0 -8 -4l-11 -4l-10 -4q-4 -4 -8 -4h-18l-4 4l-3 2q-2 2 -4 2q-8 0 -8 15q2 0 2 6q0 14 -2 16t-2 14q-2 2 -2 15v32h6q1 1 6 2.5t7 2.5h20q0 2 14 8l11 10q9 27 26 47h2q0 6 2 8l2 2l4 7q0 3 3 6 q2 2 2 6l6 6l14 39q4 0 4 8q4 8 4 9t-2 3q3 8 12 35q2 21 7 35v10v12q0 7 2 9l6 6l6 67q0 50 2 54q-3 32 -12 67l-11 129q-3 8 -6 37q-12 39 -12 57v5v14l-4 12v4q0 39 2 41t2 33l6 53l-6 90v97l-2 4h2q-3 30 -6 39q-2 2 -2 49q-2 2 -2 39l-2 6v8l-6 21q-5 0 -11 26l-26 29 q-2 0 -8 6l-9 4q0 4 -6 4l-14 8q-6 2 -10 6q-28 7 -35 7q0 22 -2 24z" />
<glyph unicode="~" horiz-adv-x="524" d="M53 1098q18 84 35 90q4 8 10 14q32 41 85 41q8 0 24 -2h24l41 -16l11 -6q2 -1 10 -9q7 -2 37 -24q23 -20 41 -23q21 2 30 11t13 30l2 4q3 5 6.5 10t5 7.5t2.5 3.5q12 0 39 -21q-3 -30 -16 -53l-2 -2l-5 -4l-4 -8q-6 -7 -10 -17q-15 -15 -43 -30h-33q-21 9 -30 12l-35 20 l-4 2l-6 9q-10 10 -11 12l-32 18q-30 5 -52 5t-39 -5l-2 -2q-6 0 -8 -2l-14 -20l-14 -45q0 -2 -3 -2v-4q-5 -5 -6 -5l-8 5q-14 0 -16 2l-13 4h-10z" />
<glyph unicode="&#xa1;" horiz-adv-x="215" d="M43 47q3 46 8 62l-4 53q0 29 4 143v70v14v19q-2 2 -2 16l-6 59v60l1 8q0 8 1 25t2 38q0 3 0.5 10.5t1.5 21.5l2 28h-2v26q2 2 2 13q2 2 2 10l21 156q0 2 -0.5 5.5t-0.5 5.5q0 21 9 48l2 127q3 39 8 47h2q0 2 2 4l51 -6q0 -27 -2 -29v-45q-2 -4 -2 -45l2 -2l5 -26l4 -21 v-12q2 -2 2 -12v-7q-2 -2 -2 -32v-39q2 -2 2 -33l4 -68q-2 -2 -2 -16q1 -2 1 -6t-1 -6v-19q-2 -2 -2 -14q-6 -6 -6 -31q0 -26 -3 -29q-7 -148 -8 -161v-127l2 -6v-15q2 -2 2 -22q-2 -2 -2 -35q5 -58 5 -115t-7 -155l-6 -62q0 -27 -2 -29h4l-2 -6v-12v-8q-1 -1 -2 -4t-2 -4 v-2l-4 -2h-4l-8 -5q-9 0 -15 -6l-28 4l-7 4l-8 9v6l-4 8l-4 12q-2 2 -2 6q0 5 2 7v98q-4 4 -4 51zM74 1270q0 20 4 24h2l4 -2l4 -2h8l21 -4v4q1 -1 6 -1q8 0 14 1q2 2 19 2q10 -10 16 -12q3 -6 3 -25q0 -20 -1 -34q-3 -15 -3 -31q0 -17 1 -25q0 -2 -57 -2q-26 3 -35 6z" />
<glyph unicode="&#xa2;" horiz-adv-x="632" d="M41 549v6l4 12v17l4 49l6 26l6 29q5 5 5 12q2 2 2 5q2 2 2 6q0 2 2 4q6 15 14 20q16 42 27 60q3 28 22 41v8h4q3 12 13 16q8 8 8 17h4l8 12q9 6 14 6q3 6 9 6v4h6l6 13h2q0 4 2 6h4v4l31 12v4q2 2 10 2v2q2 2 27 2l-2 66l4 20l37 4h10l8 4h4l4 -8h-6q4 0 6 -2l12 -37h5 v-4l4 -2l4 -4q2 0 6 -4q7 10 27 10q18 0 36 -6q18 -3 39 -12q24 -7 25 -8v-2q16 -3 55 -29q2 0 4 -2l2 -2l4 -8q2 -50 2 -60q0 -20 -2 -30l-24 -9l-4 2l-6 7l-13 8v4q-7 2 -20 12q-10 7 -19 12v4q-3 3 -8 3v2l-24 8q-52 9 -58 9h-3l-3 -1q-41 -3 -59 -16v-2q-18 0 -41 -13 q0 -6 -19 -16v-2q-8 -2 -20 -15l-8 -8l-6 -4v-4q-23 0 -60 -98q0 -1 -2.5 -8.5t-8 -27.5t-11.5 -40q-18 -67 -18 -128q0 -58 16 -107h2q3 -37 16 -60q3 0 6 -10q1 -1 2 -3t2 -3l4 -4l2 -7h2l11 -20l16 -20q3 -4 7 -9t6.5 -8.5t4.5 -5.5q0 -2 11 -6q1 -1 3 -2t3 -2l4 -4l6 -2 v-2l39 -21q7 -3 35 -10l6 -2h14l8 -4h9q4 -2 12 -2h41l84 14q2 2 6 2q2 2 8 2v2l29 14q0 4 10 11l4 2l8 8q10 -3 13 -12v-4q0 -54 8 -78l-51 -31l-4 -2l-9 -4q-8 0 -12 -4v-4l-20 -9v-4q-5 -2 -23 -6v-2q-2 0 -22 -4q-13 0 -15 -2q-4 -2 -20 -2q-2 -2 -4 -2q-2 -2 -6 -2h-11 q-4 -2 -14 -2q-26 4 -33 6q0 -4 6 -39q2 -18 2 -23q0 -12 -4 -14q1 -1 1 -3q0 -4 -3 -7h-24h-11l-8 4h-8l-10 16v3v6l-4 8v8q0 19 -2 21t-2 22q-7 0 -9 2q-4 0 -6 2q-4 0 -6 2h-14q-2 2 -15 2v2q-7 0 -12 8q-6 2 -10 13q-4 0 -6 2l-4 2v6h-6q-2 2 -5 5.5t-4 4.5l-10 11 q0 2 -4 6l-6 6q-2 2 -2 4l-4 2v4h-4v4q-16 16 -19 27h-2l-26 55h-5q-20 39 -20 51q-8 18 -12 35v2q0 4 -2 6v8q-2 2 -2 11l-5 20v6l-18 74q0 31 -2 33q-2 4 -2 45z" />
<glyph unicode="&#xa3;" horiz-adv-x="684" d="M39 651v11q0 20 16 53q9 0 27 6l16 4q2 2 11 2l-4 41q0 45 -2 53v39l-3 10q3 25 8 76.5t9 82t15 68.5t28 62q20 29 20 35q43 63 82 96q35 35 70 47q15 12 53 15q8 2 21 2q8 0 16 -4h8l6 -2q1 0 4.5 1t4.5 1q12 0 36 -17q36 -12 84 -49q45 -29 60 -67h4q0 -4 6 -13 q8 -11 8 -24q0 -2 1 -8t1 -9q0 -16 -2 -26q-28 -19 -45 -47q-2 0 -8 6q-4 4 -4 10l-43 45l-23 16h-4q-7 7 -12 7q-11 11 -14 12q-1 0 -4.5 2.5t-6.5 3.5l-12 8l-29 19l-100 -2q-34 -10 -72 -62q-47 -59 -47 -72q-5 0 -8 -12q-2 -2 -2 -14q-16 -75 -16 -107q0 -16 2 -22 q0 -20 1 -40.5t1 -21.5q0 -104 4 -108q9 0 52 5t83 5h41q2 -2 2 -6q0 -3 -1 -7.5t-1 -6.5v-27q4 -8 4 -10q0 -1 -1 -2t-1 -2v-5q0 -6 2 -8v-6l-4 -4q-6 0 -8 -4l-13 -6q-30 0 -32 -2h-17l-16 -4h-8h-8q-22 -12 -25 -19v-4l2 -2q2 -2 2 -6v-10v-15l4 13v-23v-41l4 -31v-34 v-74l-16 -174l-31 -107q46 0 74 -4q10 0 12 -2t12 -2h15q2 -2 8 -2h16h25q41 0 45 2h72h2l2 -2q21 0 96 -6v-10q-6 -9 -6 -27q0 -15 6 -39q0 -18 -2 -20q-6 -6 -16 -6q-3 0 -10 1t-11 1q-2 -2 -29 -2q-6 -3 -30 -3q-4 -2 -54 -2h-26h-12q-2 -2 -5 -2q-2 -2 -6 -2h-10h-22 h-60h-20q-82 0 -166 -2q-16 -3 -19 -6q-6 9 -6 19q0 2 1 6t1 6q0 29 -2 31q0 3 -1 9.5t-1 8.5t1 5.5t1 4.5q0 12 8 23q1 3 50 98l20 64l2 41q0 57 -2 63v68l-4 59q-1 3 -2 11t-2 12v20l-4 12v11l-10 55q-6 -6 -21 -6q-5 0 -20.5 -2.5t-25.5 -2.5q-13 0 -30 5q-10 0 -10 24z " />
<glyph unicode="&#xa4;" horiz-adv-x="598" d="M51 244v12q4 8 6 10l13 21l2 4l4 8q0 6 2 8t2 8q8 8 8 11q4 4 12 8q-4 16 -4 22q-4 8 -4 17l-2 4q-2 2 -4 2q-8 67 -8 99q0 20 4 36q11 33 37 84q36 28 47 31q0 11 -8 24t-8 19q-19 16 -19 26l29 23q0 4 4 8l4 4q2 0 2 2l4 2h4l4 2l13 4q4 0 6 2q3 3 6 3q3 -28 18 -54 q16 10 33 13l23 12l2 2q1 1 3 2t3 2h2q2 2 4 2l8 4q17 0 19 2h14q6 0 8 2q4 0 6 2h27q4 0 24 -4q12 0 15 -10l4 -2q4 0 8 -4l4 -2q2 -2 6 -2h13l30 24q7 11 17 11h6q0 -16 14 -27q16 -17 29 -19q-3 -11 -6 -14l-2 -4v-4q-4 0 -4 -4q-5 0 -9 -4l-8 -8q-1 -1 -2 -3.5t-2 -3.5 l-4 -4l-14 -14q2 -6 6 -14l2 -9q28 -45 31 -98q-3 -3 -3 -65q-4 -28 -22 -64q-21 -15 -21 -24h-4l2 -5q2 -2 2 -10l4 -3q4 -3 5 -5q2 -4 8 -10l4 -4l2 -4q1 -1 2 -3t2 -2q2 -2 2 -12l-8 -12q-4 -8 -10 -14q-2 0 -2 -5h-2q-2 -2 -5 -5.5t-4 -4.5l-10 -10q-7 0 -12 8l-4 4 l-4 2l-4 4q0 3 -2 5l-5 4q-2 2 -2 6l-4 4l-4 2l-6 6q-12 -6 -16 -10q-1 -1 -3 -2t-3 -2l-5 -4l-4 -2q-16 -10 -16 -15q-4 0 -4 -2q-2 -2 -6 -2l-8 -4q-3 -3 -17 -6q-4 0 -6 -2q-4 0 -6 -2t-6 -2l-13 -4q-50 0 -88 10q-52 9 -73 43l-6 -10q-1 -1 -2.5 -3t-2.5 -3l-4 -5l-4 -4 q-1 -2 -2 -4.5t-1 -3.5t1 -2q-4 0 -10 -6q0 -4 -4 -8q0 -9 -4 -13l-4 -10h-2q0 -9 -13 -12v4h-4q-3 9 -26 18l-7 5q-8 4 -10 6z" />
<glyph unicode="&#xa5;" horiz-adv-x="518" d="M41 1247l4 23q3 5 18 16q12 3 17 8q20 23 26 23h3q12 -18 12 -31v-4q8 0 18 -20l17 -21l8 -6l4 -4v-4l4 -6q0 -4 8 -15q2 0 13 -14l4 -6l16 -17l8 -12l10 -10q26 -37 48 -55q0 -8 22 -17l10 15l4 8q4 0 7 8q1 1 2 2.5t2 2.5t2 1q4 22 24 55q20 37 37 52l17 38l12 29l4 12 l8 17h12q0 -17 15 -29t18 -24q-3 -30 -37 -88q-33 -53 -49 -109q-33 -44 -33 -70h-2l-2 -2v-10l-6 -12l-6 -15v-10l-2 -2v-46t0.5 -36t1 -24.5t0.5 -16v-6.5l3 -27h13q3 0 7 2.5t6 2.5q27 0 30 -9q0 -1 -1 -2q-5 -12 -5 -18q3 -26 10 -33q-4 -4 -4 -18q-44 -13 -61 -13 q-4 -28 -4 -41q0 -27 10 -47q0 -3 5.5 -4.5t12.5 -2.5t9 -3h10h25l2 -4q-2 0 -2 -2t2 -4t2 -47l4 -25v-26q-2 -2 -13 -2q-3 -3 -10 -3q-22 0 -26 -2q-25 0 -27 -2q0 -15 -1 -38t-1 -31q0 -34 4 -54q0 -54 -8 -98v-22l4 -25v-14v-41q-2 -2 -2 -51l4 -41v-52q-4 0 -6 -2v-6 q-34 -3 -41 -10l-2 2q-2 2 -2 4h-2l-2 6v31q-2 6 -2 41q-2 43 -2 86v10q-9 12 -9 88v35l-12 94q-8 52 -8 64q-29 0 -33 -2q-27 0 -29 -2q0 2 -2 2t-4 2q0 33 -2 35v26v23v6l4 12v15q37 24 66 24q2 2 4 2v17l-2 4q-2 4 -2 6v10v25q-2 4 -2 22q-2 4 -10 4q-13 0 -21 -4 q-23 -10 -27 -10q-2 0 -2 4l-4 2q-6 58 -6 88v14l4 -4q0 7 2 11h-4v4q6 0 23 14q16 16 45 25l-15 77q0 29 -16 39l-2 6l-4 7l-4 12h-4l-4 10q-4 0 -13 21l-22 41q-4 4 -4 8q-1 1 -2 4t-2 4l-2 2l-2 4q-3 3 -17 31q-16 22 -16 35q-2 0 -4 2q-4 4 -6 4q0 1 -7 12l-4 10l-12 17 l-12 16q-1 2 -3 5l-3 4.5t-2 2.5l-5 7q-9 26 -20 30z" />
<glyph unicode="&#xa6;" horiz-adv-x="221" d="M43 1004v2l6 6q12 0 39 6q27 5 36 5q5 0 7 -1q-2 0 -2 -2l2 -14t1 -9q0 -3 -1 -4q2 -6 2 -78q0 -36 -2 -38t-2 -11q3 -8 6 -28q6 -37 6 -39q-2 -6 -2 -72q-4 -4 -10 -16l-20 -6q-23 -6 -37 -11l-4 4q-2 4 -2 50q-5 0 -5 75q-14 101 -14 176zM70 444l4 21l2 4q17 3 22 6 q2 4 4 4q3 0 11 -8h53l4 -4q-2 -64 -2 -95t2 -93v-107q2 -12 2 -76l-4 -8l-76 -6q-6 2 -16 12q4 4 4 56v12l4 12q0 85 -8 137q-6 88 -6 133z" />
<glyph unicode="&#xa7;" horiz-adv-x="622" d="M33 188q0 7 8 9q0 4 4 4q0 8 18 20q11 11 20 11q4 0 7 -3l4 -12l8 -12l19 -29q4 -4 16 -24l21 -21q17 -14 24 -16q13 -10 31 -13q2 -2 35 -2l45 4q0 4 8 7q21 12 29 20l20 14l6 7q1 1 5 3.5t6 4.5l12 12l4 4l2 4l4 4l4 4l2 5l4 4l8 16q1 4 7 10l2 2q0 4 2 4l2 4 q0 10 6 13q0 7 6 22q0 5 4 13q0 2 4 18v23h4q-2 0 -2 18l-2 6v12l-8 45q-3 27 -12 60q-4 4 -6 10q-12 49 -37 74h-2h-4q-9 0 -11 -2q-12 0 -14 -2t-29 -2l-20 -4h-23q-95 15 -141 61q-15 3 -37 25q-24 18 -24 30q-20 27 -23 60q-1 12 -1 30t3 25q8 22 25 49q21 30 32 41 q22 22 37 31q15 15 25 20q5 1 12 9q0 2 2 2q51 46 62 51l8 8l-78 25q-6 6 -18 8q-16 3 -19 6l-37 29q-2 6 -18 22l-8 8l-2 4l-4 4l-2 2l-11 46q-2 4 -2 55q12 53 35 69q18 29 47 62q37 37 51 37v4l37 20q29 14 49 17l78 6q20 0 64 -6q21 -8 45 -8l28 -19l27 -16 q75 -82 75 -111q0 -4 -1 -6l-4 -2q-3 -3 -15 -6l-22 -8l-43 -17l-29 25q-29 42 -43 49q-54 45 -111 45q-19 0 -34 -4q-79 -25 -109 -90v-45q46 -115 191 -162l2 -4q3 0 34 -25q12 -3 33 -18l27 -17v-2l2 -2l4 -4q5 -3 8 -8l10 -8l27 -27l8 -12l13 -16q30 -18 36 -72 q3 -27 3 -48t-3 -34l-4 -27q-1 -4 -2 -8.5t-1.5 -6.5t-0.5 -3l-14 -21l-21 -28l-14 -15q-1 -1 -3.5 -4.5t-4.5 -5.5q-13 -13 -31 -16q0 -12 6 -27q1 -6 17 -33l12 -24q0 -4 4 -8l8 -21l8 -26l7 -29l-4 -4q14 -36 14 -88v-19l-12 -82q-8 -29 -25 -57q-12 -18 -14 -20l-9 -13 l-8 -8l-4 -2q0 -6 -18 -27l-8 -8l-3 -2q-2 -2 -2 -4t-2 -2t-4 -2t-2 -4l-2 -2q-41 -33 -53 -35q-2 -2 -2 -4q-13 0 -25 -6q-9 -2 -32 -17q-23 -10 -25 -12h-8q-2 -2 -4 -2q-2 -2 -6 -2h-13h-33q-89 18 -169 127q-35 46 -35 61z" />
<glyph unicode="&#xa8;" horiz-adv-x="407" d="M53 1081q0 1 0.5 4t0.5 5q6 27 18 45l10 10l9 8l6 4v4h33v-4h12q0 -4 2 -4q4 0 8 -4q2 0 4 -2v-2q6 0 8 -2l2 -4h2q0 -73 -8 -86h-2q-2 -2 -2 -9q-4 0 -6 -2v-2q-8 0 -10 -2v-4q-6 -3 -15 -6q-16 0 -18 -2l-35 14v2q-2 2 -6 2v3q-13 13 -13 34zM228 1093q0 7 2 17l16 33 q2 2 8 2q8 12 21 12q2 0 10 -2v-2h12q1 -1 23 -12q15 -9 18 -17q13 0 13 -28v-13q-2 -2 -6 -14q-5 -6 -7 -10q-2 0 -2 -2l-6 -10h-2q-7 -13 -33 -19l-24 8q-2 1 -23 8v3q-15 9 -18 26q-2 14 -2 20z" />
<glyph unicode="&#xa9;" horiz-adv-x="999" d="M37 690q3 35 12 90h2q3 31 6 41h4q6 44 31 94l2 9q0 10 2 12h2q0 1 1 3t1 3q5 5 11 20.5t8 18.5q3 6 7.5 15.5t6 12l4.5 7.5t6 7.5t7 6t10 8.5l6 9h4v4q1 0 8 7t10 7q0 3 12 15t15 12v2h4v4q2 2 6 2q0 7 8 10v4h7q4 4 8 4v2q23 16 31 19v4q15 12 24 12v2q80 39 132 39 q12 0 42 -4h31q1 0 2 -0.5t3.5 -1.5t4.5 -2q8 0 12 -4q13 0 31 -6l21 -11v-2q57 -9 104 -35v-4q4 0 6 -2h2l-2 -2q17 -7 19 -14q6 0 12 -6l8 -8v-4h6l15 -21q12 -6 16 -10v-2q6 -2 12 -8v-2q34 -17 34 -25l-1 -2h6v-2q29 -29 35 -39q0 2 2 2l10 -20l4 -3v-6q2 0 2 -2l2 -2 h-2q2 0 9.5 -12.5t9.5 -20.5h4q-2 -2 -2 -4q2 0 4 -2v-6q8 -8 18 -45l9 -16q-2 -2 -2 -6h4q31 -125 35 -154l-5 -66q-29 -134 -41 -172l-20 -49h-4q-14 -18 -14 -26h-3l-18 -31h-4q0 -1 -12 -16q-13 -16 -13 -23h-2l-10 -10q-2 -2 -2 -4q-3 -3 -10 -17h-2v-4h-4 q-11 -11 -21 -26h-4q-8 -14 -31 -27v-2q-6 0 -20 -14l-10 -11l-6 -4v-2q-2 -2 -78 -39l-76 -16l-49 -2q-5 3 -15.5 4t-26.5 2.5t-30 3.5q-88 15 -173 68t-116 131h-4q-29 55 -88 223q-2 6 -2 8l-8 60zM224 663q0 -27 3 -30l4 -31q14 -45 22 -65.5t24 -51t33.5 -45t46 -27.5 t67.5 -18q4 0 6 -2q7 0 13 2t14 2l20 4l27 5q51 9 51 16q3 0 15 7t16 7v2q2 2 6 2v4l6 4q7 3 14.5 7.5t10.5 7.5l10 10l39 49q0 6 2 8l4 9q0 2 -2 4l-2 2l-35 14q0 4 -2 6l-4 4h-12q-15 -31 -29 -34v-3l-8 -8l-6 -4q-47 -35 -105 -35l-20 -4q-3 0 -76 17l-17 12v4 q-6 0 -16 10q-7 11 -10 11q-29 76 -29 94q-2 2 -2 26l2 62q0 4 2 6l4 12l4 17q5 12 14.5 38t14.5 36.5t18 25.5t31 25v2q12 6 23 6v4l28 8q13 8 25 8q2 1 4.5 2t3.5 2q2 2 8 2q48 -11 95 -26v-4l2 -2q2 -2 4 -2q3 -3 6 -3q2 -2 8 -2q0 7 2 9h4q0 22 6 51q2 11 2.5 16t1.5 10 t-3.5 7t-6 3t-12 4t-16.5 5l-41 12q-6 2 -80 2q-21 0 -23 -2q-59 0 -92 -33q-23 -14 -60 -56.5t-44 -78.5q-2 -8 -3.5 -16.5t-2.5 -12t-1 -4.5q-7 -80 -7 -125z" />
<glyph unicode="&#xaa;" horiz-adv-x="491" d="M49 1071q3 51 35 98h4q-2 2 -2 5q2 0 2 6h4q19 25 29 28q0 9 8 9l2 4q0 4 2 6h4l4 8h6q0 4 13 14l12 13h6q0 16 84 47l47 6q34 -4 51 -8q3 -3 13 -6t12 -9q3 -7 3 -27.5t1 -35.5q0 -7 -10 -92q3 -78 16 -129h2l6 -9l13 -12q28 0 30 -2q0 -11 -6 -59q0 -2 1 -3.5t1 -2.5 q-4 0 -6 -2q0 -19 -61 -19q-2 2 -13 2q-2 2 -10 2v2q-13 3 -43 27v2q-9 0 -22 -16q-64 -20 -80 -31l-53 -2q-55 11 -80 62t-25 124z" />
<glyph unicode="&#xab;" horiz-adv-x="526" d="M49 307v10q4 4 4 13l4 8l2 4l11 10q15 9 22 23h4v2q2 2 4 2l2 4q6 7 9 14l12 19h2v2l27 35q2 0 10 14l4 4q2 4 8 10l27 35q20 16 28 33h2q0 10 23 33q15 25 29 30v2h4v2q1 1 4 3.5t4 3.5l4 4q6 6 12 6v2q17 0 19 -2q1 -1 4 -3t4 -3l4 -4l16 -17q0 -10 -14 -24 q-16 -10 -16 -21h-4l-17 -33q0 -2 -4 -6t-4 -6l-2 -4l-4 -4l-2 -4q-2 0 -4 -2v-6q-17 -21 -37 -56l-27 -30l-2 -4q-1 -1 -6 -11l-8 -12h-4q0 -4 -2 -6t-2 -8h-4q-7 -7 -11 -15q-22 -32 -30 -37q-2 -2 -2 -16q6 -12 14 -20q0 -10 14 -21q0 -2 2 -2l2 -4l4 -4l7 -6q2 0 4 -2 v-6q4 0 14 -13q8 -11 14 -14q2 0 6 -4l7 -6q0 -7 20 -21q4 0 14 -10q2 -2 6 -4.5t5 -3.5l6 -6q2 0 4 -2l4 -5q2 -2 6 -2v-2q30 -17 39 -34l8 -9l6 -6q-2 -2 -2 -24q-4 -2 -20 -17q-12 -10 -25 -14q-12 4 -14 6q0 5 -21 23l-10 10q-4 2 -14 12l-21 16q-18 18 -18 21 q-5 0 -27 25q-14 14 -26 32l-2 2q-2 2 -4 2h-2v5h-7q2 2 2 6h-8q0 8 -2 10q-2 0 -4 2l-4 4q-6 3 -6 6q-5 8 -14 8v4l-7 3v2q-5 0 -8 8q-6 6 -6 10q-18 18 -31 41q-8 5 -8 10zM212 323q0 6 1 9h4q0 3 6 12l8 12h5l4 13h4q0 8 2 10l8 8q0 2 4 6l2 4l2 4l8 9h2q10 17 25 36h2 q0 8 8 13q8 8 8 12q3 0 11 14h4q2 2 2 4q2 2 2 7l6 10q9 6 22 29q12 20 23 28l6 12l6 7l2 4h4l7 12q0 6 2 8q19 0 47 -28h2q11 -3 14 -11v-4q0 -2 -2 -4q-5 -5 -5 -6t1 -2q-9 0 -12 -14q-13 -16 -13 -21q-6 0 -10 -4l-8 -8v-2q0 -2 -2 -2l-2 -4q-2 0 -2 -2l-2 -5 q-10 -10 -10 -14l-2 -4q-5 -5 -5 -6l-8 -8l-10 -11l-4 -4q-2 0 -4 -2l-4 -4l-11 -10q0 -8 -2 -10t-2 -4q-4 0 -4 -2l-2 -4l-2 -3q-2 -3 -4 -4q0 -2 -6 -8l-2 -6l-4 -4l-2 -2q-2 -2 -2 -4q-10 -13 -13 -23q-6 -9 -6 -18q4 0 6 -2q4 -16 11 -25l10 -16l8 -8l2 -4 q11 -11 16 -21q10 -3 35 -35q0 -2 4 -6q5 -5 5 -6q0 -2 2 -2l2 -4l4 -4l4 -8l2 -3q6 -12 10 -16q-18 -9 -18 -22q-4 0 -11 -7l-6 -6l-4 -4l-2 -4l-6 -12q-21 21 -27 31l-4 2l-8 8l-8 8l-4 2l-21 31q-18 30 -18 35l-19 18l-4 4q-1 1 -4 3t-4 3q-50 28 -50 59z" />
<glyph unicode="&#xac;" horiz-adv-x="536" d="M53 299h2q0 17 8 25h7l2 2q2 2 2 4q0 -4 10 -4l82 6h74l196 2q2 2 19 2q2 2 20 2q-4 -7 -4 -19q0 -14 6 -32v-39q-2 -30 -2 -40q0 -32 6 -42q-2 -2 -2 -10q-1 -2 -1 -6q0 -5 1 -7q0 -12 -2 -14t-2 -6l-2 -4q-2 2 -8 2l-45 -2q-4 21 -8 65q0 3 -6 21q-7 17 -7 22 q-6 1 -14 2t-10 1q-3 0 -4 -1l-29 -4q-65 -3 -106 -12q-119 -3 -160 -10v4h-8l-9 33q-1 7 -1 17q0 6 1 7l-2 16l-1.5 12t-0.5 5z" />
<glyph unicode="&#xad;" horiz-adv-x="651" d="M60 268q-10 3 0 35l4 51q0 10 12 25q0 2 4 2v4h9v8h49l65 -14q2 2 37 2q31 -3 41 -6l53 -4q4 0 25 -15q57 -8 180 -8q34 -4 49 -8q4 0 4 -2l4 -2q-8 -8 -8 -57h-4q-6 -6 -24 -9h-13l-2 2q-2 2 -4 2h-6h-14h-27q-12 0 -12 -2l-221 13q-110 -3 -201 -17z" />
<glyph unicode="&#xae;" horiz-adv-x="884" d="M39 828q0 38 6 102h4q0 17 6 47q8 13 8 33q3 3 9.5 23t6.5 28q2 2 5 2l8 20q3 13 12 25l12 20h2q51 91 88 125h5v7h4q0 4 16 20l16 16l5 6q6 5 10 5v2l8 2v6q21 12 29 20q2 2 6 2v2q82 56 151 78q0 2 2 4h34q141 0 251 -160q29 -42 51 -92q34 -148 39 -153l2 -68 q2 -2 2 -16l10 -72v-14q-2 -2 -2 -14q-2 -11 -6.5 -33t-7.5 -33l-10 -20l-12 -29q0 -5 -2.5 -10t-2.5 -11h-4l-8 -20q0 -5 -14 -25q0 -2 -4 -6q0 -4 -3.5 -9.5t-8 -12t-5.5 -9.5q-3 0 -14.5 -11.5t-11.5 -14.5h-4q-2 -2 -9 -10.5t-12.5 -14.5t-7.5 -6v-4h-4q-2 -2 -2 -4 q-2 0 -2 -2v-2q-3 0 -19.5 -11t-19.5 -14v-2q-2 0 -21 -11l-18 -11v-4h-6v-5q-41 -14 -117 -28v-2q-20 0 -33 -8l-57 -11h-49q-91 26 -133 29q-40 19 -45 29l-25 12v2q-2 2 -10 6v4q-2 2 -8 2q-2 2 -2 8l-5 3v2h-4q-4 12 -18 26q-3 6 -11.5 19.5t-11.5 23.5q0 2 -2 6t-2 6 q-4 4 -4 11h-2l-4 16h-4q-15 89 -18 137q0 2 2 4q-4 12 -4 42zM221 606q32 -12 51 -14q4 21 10 29v10q0 4 2 6q0 2 2 4v6q7 7 13 43q9 80 36 162q6 -25 11 -25q18 -50 28 -141h4q0 -19 3 -22v-19q2 -2 2 -12q9 -56 18 -62h2v4l43 15l47 2v16q2 0 4 -2q0 9 -2 14.5t-2 14.5 q-6 12 -12 39q-2 14 -9 33t-7 28q-9 30 -9 53q-3 3 -4 3q0 7 -2 12.5t-2 13.5q-2 2 -2 12l-4 2q0 7 -8 15q0 4 -4.5 17.5t-5.5 17.5q-6 3 -9 26l68 15q10 9 25 16l16 16q0 1 5 13t9 18q27 40 27 112q0 46 -14 46v4l-5 2l-16 22q-13 9 -27 11q-7 7 -34 12.5t-50 5.5 q-38 -12 -71 -12q-7 -7 -10 -12q-3 0 -3 -2q-7 -20 -34 -136q-5 -7 -17 -79.5t-18 -84.5q-5 -9 -6 -26.5t-2 -20.5q0 -1 -0.5 -3.5l-1.5 -7.5t-2 -11l-5 -21l-18 -86q2 -2 2 -6q0 -9 -8 -28v-39q0 -5 -2 -7q0 -2 -2 -4v-8zM358 987q22 85 29 113q6 22 8 22t6 4q6 6 20 6 q24 0 51.5 -15t28.5 -32q-18 -56 -28 -59q-2 -2 -2 -6l-33 -19q-2 -2 -15 -7t-16 -7h-18q-6 0 -8 -2q-5 0 -7 -2z" />
<glyph unicode="&#xaf;" horiz-adv-x="495" d="M55 1143q0 11 8 14q0 3 3 6q2 2 24 2v2h19v-2q1 1 61 -2h16l17 4h8h8h21l24 -4h25h71h29h14h7q2 0 2 -2l4 -2h16l2 -6h-2v-6q2 -2 2 -12q2 -2 2 -11v-30q-2 0 -6 -4v-3q0 -4 -2 -6h-12q-4 0 -6 -2t-7 -2h-6h-14h-8q-2 -2 -4 -2q-2 -2 -6 -2h-13h-41q-55 -6 -78 -6 q-43 3 -145 6h-6q-2 2 -4 2q-2 2 -6 2h-11q0 8 -2 10v15q-2 2 -2 16q0 21 2 23q-2 0 -4 2z" />
<glyph unicode="&#xb0;" horiz-adv-x="395" d="M51 1120q0 4 4 8l2 5q2 2 2 6l4 8q3 3 3 6q2 2 4 2q6 34 51 51v2q43 26 69 33q7 0 11 2q6 2 10 2l18 6q24 -6 39 -18q7 -7 17 -12q12 -6 16 -17l8 -4l-2 -2q0 -1 6 -10l9 -12l2 -5v-2q11 -27 20 -94q0 -4 -10 -49q-13 -28 -29 -35q0 -2 -41 -37q-12 -4 -61 -18h-37l-4 2 h-8l-4 2l-5 2q-2 2 -8 2v2q-2 0 -33 17v2h-4l-4 6l-8 8q-10 10 -10 16q-25 31 -25 60q-2 2 -2 65z" />
<glyph unicode="&#xb1;" horiz-adv-x="495" d="M63 675q0 6 2 20t2 22q0 3 2.5 8.5t2.5 7.5l8 4q1 0 5.5 0.5t14.5 1.5t21 2h26q2 2 23 2q10 0 23.5 -1t19.5 -1q13 0 22 2v13q2 2 2 6q2 4 2 8v64q-1 10 -1 32q0 11 0.5 31t0.5 29l29 4l45 -4v-64v-8v-23q0 -4 0.5 -14t1.5 -29t2 -36h6q0 2 7 6q13 -4 35 -4q12 0 34 1.5 t29 1.5q16 0 16 -5q2 0 2 -4q0 -1 -2 -11q2 -44 2 -50q0 -17 -2 -21l-30 -11h-29q-2 2 -35 2l-29 -4q0 -104 -2 -108l6 -82h-4v-12q-20 0 -84 -11q-6 6 -6 9v38q2 4 2 50q0 36 -2 38v82q-12 0 -16 -4q-6 0 -8 -2h-25q-4 -2 -35 -2l-78 2q-6 10 -6 24zM73 314q0 33 9 46 q7 9 20 9q9 0 25 -4h16l41 6q13 0 41 4q139 0 209 6q5 1 12 2t8 1q2 0 3 -1v-8q-2 0 -3.5 -17.5t-4.5 -37.5t-7 -25q-6 -8 -149 -8q-79 -8 -201 -8q-6 -6 -10 -6q-8 0 -8 28q0 2 -0.5 6t-0.5 7z" />
<glyph unicode="&#xb2;" horiz-adv-x="399" d="M49 1335v6q0 49 49 119h2v4q14 11 21 13q42 16 59 24q31 7 54 7q10 0 14 -1l31 -6v-4h12q-2 0 -2 -4q4 0 6 -2q4 0 4 -2q2 -2 6 -2q3 -16 17 -19l20 -47q0 -6 2 -8v-10q2 -2 2 -12q-9 -67 -39 -134v-6q-5 0 -8 -14q-5 0 -12 -10q-3 -10 -6 -10q-14 -44 -37 -60l-23 -29 q-2 -2 -2 -10q1 0 3.5 0.5t8 1.5t11.5 2h4q1 1 2.5 1.5t4.5 1t5 1.5h16l25 4q6 1 12.5 2t13 2.5t9.5 2.5v-29q5 -12 5 -29q0 -11 -1 -16q-38 -3 -64 -10l-182 -4h-4v18l2 4l6 6h4l11 21l12 16q4 8 6 10h2q3 9 12 21h4q0 3 7 14q2 7 12 10l6 7l6 12l8 12h2q18 41 29 45 q0 2 10 19l29 59l8 25l-2 2l2 4q2 2 2 10l2 4l2 4q0 6 -2 8h-2l-4 2q0 2 -2 4t-2 7q-4 4 -4 6h-4q0 14 -14 14q-8 3 -15 3q-6 0 -14 -3l-25 -4q-12 -16 -26 -23l-11 -12q-2 -2 -14 -22v-17q-10 0 -10 -55l-2 -12h-6q-5 1 -11.5 2t-10 1.5t-5.5 0.5q-25 0 -27 2q-3 21 -6 33 v16z" />
<glyph unicode="&#xb3;" horiz-adv-x="348" d="M43 1430v10l4 8q0 2 2 2l17 45q2 2 53 2q10 0 12 2h21q2 2 22 2q0 6 43 6l31 6q42 5 48 5h5q0 -5 2 -7q-2 -6 -16 -20l-2 -4l-4 -4l-5 -4l-4 -4q-2 -2 -2 -5l-51 -57l-35 -43l-8 -4v-4l6 -2l4 -4q1 -1 3.5 -2t3.5 -2v-4l6 -5l10 -10q9 -20 16 -24q14 -38 23 -47l4 -13v-4 l2 -2q2 -2 2 -4l2 -4l6 -37q0 -106 -8 -119l-35 -59q-5 -5 -9 -10l-5 -6l-10 -11q-40 -24 -72 -30q-2 -2 -25 -2l-8 20q-5 15 -5 18q0 1 1 2q-2 2 -2 5q-2 2 -2 6t-2 6t-2 6q-2 6 -2 8t2 4q3 6 8 6q0 4 33 15l24 18l13 21q10 13 14 24q3 34 10 45q-2 2 -2 45l-2 2v9 q-2 0 -2 2l-2 4q0 1 -0.5 3t-1.5 6.5t-2 8.5q-6 11 -12 37q-8 0 -11 12q-19 11 -24 13q-53 12 -55 14v10h4q0 9 22 37q23 23 35 29q0 10 23 20q0 6 2 8q2 0 2 2l2 5q0 2 2 2l2 4l-113 -15z" />
<glyph unicode="&#xb4;" horiz-adv-x="307" d="M49 1114v10q0 4 2 6q2 0 2 5q3 0 6 8q1 4 7 10q4 0 24 33q27 34 27 39q9 12 18 39q14 32 21 39v14l6 6l4 2v2q19 -3 22 -6q40 -3 66 -10l2 -4q-5 -5 -2 -11q-8 -8 -8 -14q-8 0 -21 -29q-32 -46 -37 -51q-2 0 -4 -2q0 -2 -4 -6q-11 -24 -35 -64q-16 -4 -18 -4 q-11 -4 -33 -8l-20 -4q-12 -4 -17 -4v-4h-2l-4 4z" />
<glyph unicode="&#xb5;" horiz-adv-x="538" d="M45 -311l12 8q0 1 0.5 4.5t1.5 11t2 15.5q-2 0 -2 2v2l17 123l4 79q0 39 10 172l6 207q6 31 6 46q0 8 -2 12v10q1 10 2 31t2 45h7q-5 0 -5 6v8q2 2 2 3t-2 3q-1 37 -1 84q0 30 1 31v10l-2 2q-2 2 -2 4v6v17q0 37 -2 39v43h4q-2 2 -2 18q-3 6 -3 18q0 13 1 21l9 4h16h6 q2 -2 4 -2q2 -2 6 -2h11h26q0 -20 -2 -22v-17l-2 -6q0 -94 2 -104q0 -8 -0.5 -23t-0.5 -21q0 -61 9 -81l-2 -2q-2 -2 -4 -2l15 -115q0 -34 10 -51q-2 -2 -2 -7l8 -16q4 -4 4 -12q4 -4 4 -8q3 -10 10 -13q0 -2 19 -12l4 -2l4 -2l8 -4q2 -2 6 -2q60 0 66 -2l12 6q0 2 4 2 q0 4 8 12q13 35 19 41q24 108 24 156q7 68 7 76q2 7 6 39l2 114q-2 2 -2 6h2v15q-2 2 -2 28q0 19 4 23l-2 4q3 6 10 6q2 2 5 2q1 0 7 -2q2 -2 15 -2q2 1 7 1q4 0 12.5 -1.5t12.5 -1.5q0 -76 2 -84v-47q-1 -5 -2 -17t-2 -16v-12v-47v-21l-4 -20v-23q-6 -78 -14 -94 q-13 -93 -14 -96q-21 -95 -41 -98q0 -4 -27 -25l-70 -2q-95 9 -110 33q-6 0 -6 -17q0 -6 -2 -10q-2 -6 -2 -10q-5 -18 -13 -101q0 -89 -20 -159q0 -46 -6 -86q0 -92 -2 -94v-37l-9 -4q7 0 9 -2q-2 0 -2 -7q-15 0 -17 -2h-12q-2 1 -5 2t-5 2h-5h-4l-10 5h-12q-2 0 -6.5 0.5 t-13 1.5t-15.5 2v4z" />
<glyph unicode="&#xb6;" horiz-adv-x="622" d="M39 1161q0 31 3 56q13 49 33 86l14 14q2 4 8 10l25 25v2q2 4 14 8q0 4 4 4v2l35 31q6 0 35 16q31 17 37 17v2q38 14 124 14q6 -3 24 -3q19 0 32 1q11 1 28 1q21 0 25 -5l31 -4l14 -4q10 -2 25 -7q28 0 34 -6q0 -19 3 -22q-16 -95 -19 -248q0 -8 2 -10q-41 -270 -41 -322 h-4v-2q2 0 4 -2l-4 -16q0 -6 -2 -8q0 -7 -2 -9l-16 -125q-2 -2 -2 -12q-5 -36 -7 -65q-14 -37 -20 -123q-7 -18 -10 -76q-2 -46 -11 -76q-3 -50 -18 -106v-33q-8 -57 -8 -78q-3 -18 -6 -49q0 -14 -2 -16v-13q-2 -2 -2 -6l-62 -2q-13 3 -16 6q1 0 4 12q1 5 1 12q0 4 -1 5 l6 31l10 86q0 51 2 55l8 65l7 56l4 24q0 7 2 11q0 6 2 8t2 6q2 6 2 61l18 95q0 35 9 59q6 43 6 65l4 13q0 18 2 20v33q2 4 2 33l14 104q0 76 2 78q-45 0 -47 -2q-6 -43 -12 -57l-17 -74q-2 -16 -8 -41q0 -17 -4 -33q-2 -6 -2 -16q-13 -58 -16 -119q-3 -26 -6 -35l-4 -31 l-7 -30q0 -6 -2 -10q0 -9 -2 -11l-6 -88v-28v-23q-2 -2 -2 -10q0 -6 -2 -8l-4 -25l-4 -29l-10 -80v-22q-9 -27 -13 -43q-6 -85 -22 -135l-33 -4l-12 6l-10 4q-2 2 -7 2q-1 1 -1 6q0 9 3 21q-3 3 -3 12q0 13 10 45q-2 2 -2 29l32 233q0 4 1.5 12t4.5 25.5t5 32.5q8 41 8 75 q0 5 4 33q0 17 2 23q2 4 2 24v4q2 2 2 9q0 6 2 8v8q2 6 2 23l-2 2v2l6 53q0 6 2 8v16q2 2 2 21q1 15 19 139v15q0 4 2 6t2 6v6q0 68 2 74q-1 0 -7 -0.5t-19 -1.5t-27 -2q-76 0 -95 8q-41 14 -49 22q-6 3 -31 25l-6 6q-4 4 -4 6q-7 18 -8 19h-2l-8 26q-5 50 -5 84z" />
<glyph unicode="&#xb7;" horiz-adv-x="272" d="M55 563q0 59 21 74q4 4 12 8v4q26 16 39 17q23 3 57 -13v-2h6v-4q25 -16 25 -49q2 -16 2 -21q0 -19 -8 -38q-1 -1 -12 -19q-7 0 -7 -8h-6v-4q-9 -3 -12 -6v-2q-17 -3 -22 -6v-5q-2 -2 -25 -2l-25 9v2l-6 2v2l-6 4v2l-8 4q-2 2 -2 6h-2q-7 5 -14 19t-7 26z" />
<glyph unicode="&#xb8;" horiz-adv-x="280" d="M53 -182l49 -8q28 9 41 28q0 2 0.5 6t0.5 6q0 31 -17 48l-4 4l-2 4l-4 4l-6 6l-5 4q-1 1 -2 3t-2 3q-12 12 -14 19h-4v4q-14 14 -14 16h-4v4h-5q0 11 -2 11q0 8 2 8l15 4v12h20q15 -6 15 -12q12 0 22 -17q34 -24 53 -51q30 -15 39 -82l-2 -43q-6 -12 -12 -22l-4 -4 q-2 -2 -4 -2l-4 -4q-2 0 -2 -3l-4 -2q-7 -4 -7 -6h-4v-4q-5 0 -32 -12l-87 16q-6 15 -10 19v43z" />
<glyph unicode="&#xb9;" horiz-adv-x="294" d="M45 1346l25 38h4q0 4 12 19l8 8q0 2 4 6l2 4q5 0 21 25q14 20 22 24q0 5 4 9q3 6 7 6h2v4l4 4l4 2l6 6h4v4l12 4q0 8 14 8q3 0 25 -4q0 -30 2 -32q-2 -8 -2 -90q3 -25 6 -91q2 -45 7 -88l-5 -104v-35q-1 -10 -1 -24q0 -11 1 -13l-4 -8v-6q-51 -3 -69 -12q-2 2 -2 4 q-2 2 -2 6h-2q0 65 6 80q0 82 2 86q3 69 12 78v104h-6q-9 -16 -25 -22l2 -3q-2 -2 -6 -2q-3 -10 -24 -22q-20 -10 -23 -19q-17 0 -43 33z" />
<glyph unicode="&#xba;" horiz-adv-x="471" d="M53 1190l4 31l4 16q2 2 2 10l5 4l10 27l4 12q5 0 8 13v2q4 4 4 6q2 1 4 4t2 4q5 12 11 18h4v6q8 5 24 31h4q2 7 9 10v5h4q0 6 16 16l31 14v2q38 10 54 10q9 0 17 -4q56 0 70 -14q28 -9 35 -29l8 -8q-2 0 -4 -2q4 0 6 -2v-2h-6v-4h10l6 -12l-2 -2h6q3 -13 7 -17 q-5 0 -7 -2q3 -11 5.5 -21t4 -14.5t1.5 -5.5q2 0 2 -20q4 -4 4 -76q-2 -8 -6 -20l-4 -17l-9 -12l-8 -17q-4 -13 -14 -30v-6h-4v-4h-2l-13 -17l-8 -8q-1 -1 -3 -4t-3 -4l-2 -2h-4v-4q-10 0 -16 -13q-9 0 -29 -14q-50 -20 -121 -23q-26 6 -61 21v2q-2 2 -4 2q-13 10 -13 13v1 q-9 3 -16 17l-9 13l1 1q-19 19 -19 119z" />
<glyph unicode="&#xbb;" horiz-adv-x="497" d="M49 143l21 37q6 12 8 15q3 9 6 12l4 8q8 8 12 23q6 0 6 12q2 7 17 29q9 15 24 30l39 66l37 57q2 0 2 6q3 5 0 8q-22 28 -22 33l-15 10l-12 13q-16 26 -43 47l-4 4q-2 2 -2 6h-2v4q-11 4 -23 19l-8 8l-2 2q-2 2 -4 2t-2 2t-2 4t-4 2l-8 8q10 20 28 29q18 12 33 -6 q41 -18 53 -49l15 -15l12 -12l4 -6q6 0 8 -2q0 -8 29 -37l4 -8l4 -8l2 -2h2q0 -3 17 -27l12 -8l10 -8q3 0 8 -5q-2 -2 -2 -18h-6l-2 -2v-6l-6 -10l2 -2q-12 0 -39 -70q-7 -14 -16 -25v-8q-4 0 -4 -2v-4h-4q-3 0 -3 -4q-36 -45 -40 -70h-5l-2 -4l-8 -12q-4 -4 -6 -10 q-4 -4 -4 -6l-8 -9l-4 -6l-13 -12q0 -4 -4 -4q-11 -27 -20 -33q-21 -21 -21 -33h-6q-4 4 -8 4q-15 15 -18 21q-17 10 -17 22zM182 676q3 6 11 10q15 6 24 21l51 4q3 -3 11 -6l10 -11q3 -3 6 -12q27 -18 61 -64l23 -16q3 -16 16 -22v-5l23 -22l26 -27l2 -8q-2 -2 -2 -18 q-3 -12 -6 -21q-27 -47 -24 -57h-4q-4 -25 -17 -49l-8 -17l-6 -12q-2 -2 -2 -8l-43 -76q-6 -20 -10 -24q0 -3 -2 -5q-3 -3 -3 -6l-16 -24l-18 -33l-37 -57q-1 0 -2 -2t-2 -3l-2 -4l-4 -4q-2 -10 -11 -14l-32 16q-2 2 -2 4h-3l-2 7l5 4l4 8q4 8 6 10t6 10l4 9l18 45h5l4 12 q0 4 2 6t2 6q2 2 4 2q9 45 22 53q4 15 6 17q0 1 3 4q0 4 2 6l4 8q2 2 2 8l8 9q10 20 18 28v9l2 2l15 34q2 0 12 23l6 12l4 10q2 2 2 7q0 26 -24 53q-36 74 -90 117q-3 0 -11 8q-3 0 -8 8l-10 10q-13 5 -18 10q-3 3 -7 11q-4 4 -4 6z" />
<glyph unicode="&#xbc;" horiz-adv-x="761" d="M33 1346l24 38h4q0 3 13 19l8 8q0 2 4 6l2 4q5 0 21 25q14 20 22 24q0 5 4 9q3 6 6 6h2v4l4 4l5 2l6 6h4v4l12 4q0 8 14 8q3 0 25 -4q0 -30 2 -32q-2 -8 -2 -90q3 -25 6 -91q3 -61 6 -88l-4 -104v-35q-1 -10 -1 -24q0 -11 1 -13l-4 -8v-6q-52 -3 -70 -12q-2 2 -2 4 q-2 2 -2 6h-2q0 65 6 80q0 80 3 86q3 69 12 78v104h-6q-9 -16 -25 -22l2 -3q-2 -2 -6 -2q-3 -10 -25 -22q-19 -9 -22 -19q-17 0 -43 33zM86 29q0 23 8 47l6 47q10 30 19 67l12 37q1 6 8 27v6l2 4q0 15 2 17q4 4 7 20q4 17 6 25q7 24 18 49l2 4v12q2 2 2 12l8 37q-2 2 -2 6 q30 103 37 142q26 61 29 106l24 84q0 50 21 109q18 51 22 92q5 0 11 27h4q0 15 8 28q6 15 6 25q19 19 19 53q0 4 2 6t2 10l2 5l2 4q0 15 8 28t8 29q8 18 12 35l9 43l2 4q2 2 2 8q2 2 2 8q2 2 2 11q0 6 2 8q7 11 7 18q0 2 -1 4q2 2 20 51l29 74q4 0 4 6q4 4 4 9q4 2 76 2 q10 0 12 -2l-2 -3q0 -6 2 -8q-9 0 -12 -39q-43 -103 -72 -213l-6 -43l-28 -92q-14 -25 -35 -106q-34 -124 -35 -131q-2 0 -4 -2t-2 -13q-31 -93 -45 -176l-31 -123q-3 -25 -18 -75l-17 -56l-43 -121q-5 -20 -20 -54.5t-21 -67.5q-3 -14 -10.5 -40t-11.5 -48t-4 -48 q-17 0 -19 -2zM401 518v22q0 20 1 48.5t1 34.5q0 19 3 22v10q28 11 57 11q9 0 29 -2q3 -2 3 -20v-25q0 -11 1 -15v-12q2 -2 2 -8v-21q1 -26 3 -64t3 -59t2.5 -43t4 -32.5t5.5 -12.5q26 -3 35 -6q2 -2 27 -2q24 0 41.5 13.5t17.5 31.5v176q0 70 4 70q0 3 29 6q2 2 20 2 q13 0 17 -4q3 0 6 -8q2 -2 2 -13q1 -1 1 -5q0 -7 -1 -11v-14q0 -11 0.5 -22t1 -17t0.5 -8q-1 -28 -1 -87q0 -99 5 -294v-4q0 -22 0.5 -44.5t0.5 -24.5q-2 0 -3 -19v-13q2 -2 2 -12v-14q0 -17 -43 -17q-7 -1 -19 -1q-21 0 -24 5q-2 0 -2 9q0 37 2 44t2 48q-5 47 -5 92 q0 24 1 37q-2 2 -2 14q-2 -2 -6 -2q-2 -2 -9 -2h-18l-57 6q-41 4 -64 4q-13 0 -27.5 -1t-16.5 -1q-10 0 -12.5 4.5t-4.5 24.5q0 2 -0.5 4t-1 4.5t-0.5 5.5q-4 9 -6.5 50t-4.5 98.5t-2 62.5z" />
<glyph unicode="&#xbd;" horiz-adv-x="686" d="M33 1346l24 38h4q0 3 13 19l8 8q0 2 4 6l2 4q5 0 21 25q14 20 22 24q0 5 4 9q3 6 6 6h2v4l4 4l5 2l6 6h4v4l12 4q0 8 14 8q3 0 25 -4q0 -30 2 -32q-2 -8 -2 -90q3 -25 6 -91q3 -61 6 -88l-4 -104v-35q-1 -10 -1 -24q0 -11 1 -13l-4 -8v-6q-52 -3 -70 -12q-2 2 -2 4 q-2 2 -2 6h-2q0 65 6 80q0 80 3 86q3 69 12 78v104h-6q-9 -16 -25 -22l2 -3q-2 -2 -6 -2q-3 -10 -25 -22q-19 -9 -22 -19q-17 0 -43 33zM86 29q0 23 8 47l6 47q10 30 19 67l12 37q1 6 8 27v6l2 4q0 15 2 17q4 4 7 20q4 17 6 25q7 24 18 49l2 4v12q2 2 2 12l8 37q-2 2 -2 6 q30 103 37 142q26 61 29 106l24 84q0 50 21 109q18 51 22 92q5 0 11 27h4q0 15 8 28q6 15 6 25q19 19 19 53q0 4 2 6t2 10l2 5l2 4q0 15 8 28t8 29q8 18 12 35l9 43l2 4q2 2 2 8q2 2 2 8q2 2 2 11q0 6 2 8q7 11 7 18q0 2 -1 4q2 2 20 51l29 74q4 0 4 6q4 4 4 9q4 2 76 2 q10 0 12 -2l-2 -3q0 -6 2 -8q-9 0 -12 -39q-43 -103 -72 -213l-6 -43l-28 -92q-14 -25 -35 -106q-34 -124 -35 -131q-2 0 -4 -2t-2 -13q-31 -93 -45 -176l-31 -123q-3 -25 -18 -75l-17 -56l-43 -121q-5 -20 -20 -54.5t-21 -67.5q-3 -14 -10.5 -40t-11.5 -48t-4 -48 q-17 0 -19 -2zM350 297v6q0 49 49 119h2v4q12 9 21 12q35 13 59 25q31 7 54 7q10 0 14 -1l31 -6v-4q36 -6 63 -76q0 -6 2 -8v-10q2 -2 2 -13q-8 -55 -38 -124.5t-64 -108.5l-23 -29q-2 -2 -2 -10q1 0 3.5 0.5t8 1.5t11.5 2h4l12 4h16l25 4q17 2 35 6v-28q5 -12 5 -30 q0 -10 -1 -15q-34 -2 -64 -11l-182 -4h-4v19l2 4l6 6h4l11 20l12 17q8 8 48.5 67t45.5 64l2 3q1 2 3 6.5t5 8.5l29 60l8 24l-2 2l2 4q2 2 2 11q1 1 1 5q0 12 -10 28t-21 16q-7 3 -15 3q-6 0 -14 -3l-25 -4q-12 -16 -26 -23l-11 -12q-24 -24 -24 -94l-2 -13h-6q-5 1 -11.5 2 t-10 1.5t-5.5 0.5q-24 0 -27 3q-3 19 -6 32v17z" />
<glyph unicode="&#xbe;" horiz-adv-x="724" d="M33 1370v10l4 9q0 2 2 2l16 45q2 2 54 2q10 0 12 2h20q2 2 23 2q0 6 43 6l31 6q42 5 48 5q4 0 5 -1q0 -4 2 -6q-1 -5 -17 -20l-2 -5l-4 -4l-4 -4l-4 -4q-2 -2 -2 -4l-51 -57l-35 -43l-8 -4v-4l6 -3l4 -4q1 -1 3 -2t3 -2v-4l6 -4l11 -10q9 -22 16 -25q14 -38 23 -47l4 -12 v-4l2 -2q2 -2 2 -4l2 -4l6 -37q0 -106 -8 -119l-35 -59q-5 -5 -9 -11l-5 -6l-11 -10q-43 -25 -71 -31q-2 -2 -25 -2l-8 21q-5 15 -5 18q0 1 1 2q-2 2 -2 4q-2 2 -2 6t-2 6t-2 7q-2 6 -2 7q0 3 2 5q3 6 8 6q0 3 33 14l24 19l12 20q11 14 15 25q3 35 10 45q-2 2 -2 45l-2 2v8 q-2 0 -2 2l-2 4q0 1 -0.5 3.5t-1.5 7t-2 8.5q-8 15 -13 37q-7 0 -10 12q-15 9 -24 12q-53 12 -56 15v10h4q0 7 23 37q21 21 35 28q0 12 22 21q0 6 2 8q2 0 2 2l2 4q0 2 3 2l2 4l-113 -14zM49 29q0 23 8 47l6 47q10 30 19 67l12 37q1 6 8 27v6l2 4q0 15 2 17q4 4 7 20 q3 17 6 25q7 24 18 49l2 4v12q2 2 2 12l9 37q-3 3 -3 6q29 103 37 142q26 61 29 106l25 84q0 53 20 109q20 55 23 92q4 0 10 27h4q0 15 8 28q6 15 6 25q19 19 19 53q0 4 2 6t2 10l2 5l2 4q0 15 8 28t8 29q10 24 13 35l8 43l2 4q2 2 2 8q2 2 2 8q2 2 2 11q0 6 2 8q7 11 7 18 q0 2 -1 4q4 4 21 51l28 74q4 0 4 6q4 4 4 9q4 2 76 2q11 0 13 -2l-3 -3q0 -5 3 -8q-10 0 -13 -39q-41 -97 -71 -213l-7 -43l-28 -92q-14 -25 -35 -106q-34 -124 -35 -131q-2 0 -4 -2t-2 -13q-31 -93 -45 -176l-31 -123q-3 -25 -18 -75l-17 -56l-43 -121q-5 -20 -20 -54.5 t-21 -67.5q-3 -14 -10.5 -40t-11.5 -48t-4 -48q-17 0 -19 -2zM364 518v22q0 20 1.5 48.5t1.5 34.5q0 20 2 22v10q28 11 57 11q9 0 29 -2q3 -2 3 -20v-25q0 -11 1 -15v-12q2 -2 2 -8v-21q1 -26 3 -64t3 -59t2.5 -43t4 -32.5t5.5 -12.5q25 -3 35 -6q2 -2 27 -2q24 0 41.5 13.5 t17.5 31.5v176q0 70 4 70q0 3 29 6q2 2 20 2q13 0 17 -4q3 0 6 -8q2 -2 2 -13q1 -1 1 -5q0 -7 -1 -11v-14q0 -11 0.5 -22t1 -17t0.5 -8q-1 -28 -1 -87q0 -99 5 -294v-4q0 -22 0.5 -44.5t0.5 -24.5q-2 0 -3 -19v-13q2 -2 2 -12v-14q0 -17 -43 -17q-7 -1 -19 -1q-21 0 -24 5 q-2 0 -2 9q0 37 2 44t2 48q-5 47 -5 92q0 24 1 37q-2 2 -2 14q-2 -2 -6 -2q-2 -2 -8 -2h-19l-57 6q-41 4 -64 4q-13 0 -27.5 -1t-16.5 -1q-10 0 -12.5 4.5t-4.5 24.5q0 2 -0.5 4t-1 4.5t-0.5 5.5q-4 9 -6.5 50t-4.5 98.5t-2 62.5z" />
<glyph unicode="&#xbf;" d="M39 135v4q2 10 2 105l6 69q2 2 14 52q5 10 7 20l4 10q4 4 4 8q0 3 2 3l2 4v8q0 10 2 12t2 8l8 17l6 18q23 60 41 96q35 56 86 156q25 35 25 47v2q8 3 26 60q15 15 23 69l27 101l12 57l6 84q2 2 2 8q51 0 64 8l6 -6v-55v-39v-12l-2 -5l-2 -4v-2v-14q-2 -4 -2 -5t2 -1 q-3 -87 -29 -187q-2 -2 -4 -2l-10 -30l-13 -25l-30 -49l-66 -100l-33 -50h-4q0 -3 -16 -32l-12 -37q-6 0 -9 -19q-6 -21 -6 -28l-18 -53q-15 -87 -25 -97q2 -4 2 -7t-2 -9v-21l-2 -10q0 -10 -2 -12v-29q-2 -4 -2 -33l23 -108q4 -3 4 -5v-1q25 -48 39 -62v-2q67 -43 135 -43 l33 8v2l41 11v4q33 3 73 63q0 6 6 15q5 12 5 14q0 1 -1 2h5l12 37q3 22 8 29v8l2 2l2 45q-3 18 -6 24h4v9q36 0 76 -21v-10v-6q0 -2 -2 -2q-3 -47 -10 -54l-45 -114l-5 -4l-4 -4l-4 -9l-4 -10q-4 -4 -4 -8l-49 -55l-8 -9l-4 -2l-4 -4q-60 -48 -162 -63q-40 0 -60 14 q-17 3 -32 17q-18 7 -41 20q-20 12 -31 18v3q-19 10 -27 20q-3 8 -10 12v6q-7 4 -16 37h-2q-1 9 -17 62h-2q0 8 -2 10q0 12 -2 14t-2 13v12v6q0 2 -2 2zM326 1296l6 13q4 8 6 10l20 12q25 0 27 2q3 0 31 -4q6 -3 12 -24q0 -9 -2 -11q8 -21 8 -45l-6 -12h-2q-2 0 -2 -2l-4 -2 h-8q-4 0 -6 -2t-7 -2q-6 0 -8 -2l-8 -4q-2 -2 -8 -2h-4h-31q0 14 -6 41q-8 13 -8 34z" />
<glyph unicode="&#xc0;" horiz-adv-x="673" d="M31 30q0 17 13 79l4 36q0 28 24 136l52 194q25 91 26 92q25 134 41 197q5 25 13 49q3 21 6 27q0 6 2 8v8l2 2q19 49 53 191l20 63l41 129q21 49 21 66l41 6q10 0 12 -2h31q6 -2 41 -2v-4v-41q0 -14 8 -58q9 -46 12 -84l15 -82l10 -61q21 -107 31 -178q10 -66 14 -119 q20 -114 20 -131l9 -57l6 -97q3 -73 6 -102l8 -94l8 -49q0 -20 9 -54l4 -32v-21l4 -20q-2 -2 -2 -17l-90 -8q-12 3 -15 20v13v8q-1 1 -2 4.5t-2 5.5v12v43q-10 89 -16 107l-13 84q-8 100 -16 127l-16 74q-7 34 -21 45q-3 2 -10 2q-5 0 -16.5 -2t-14.5 -2h-4q-2 -1 -7.5 -2 t-8.5 -2h-21h-43q-8 -4 -49 -7q-44 -3 -65 -12q-57 -247 -82 -399q-4 0 -19 -96q-31 0 -37 -3q-32 0 -34 -2q-3 2 -3 12zM286 1528q2 2 4 2v6q0 2 2 2t4 2q13 0 31 6q21 3 24 6v-4q0 3 3 6h12v5h10l8 -5v-6q0 -2 2 -2q0 -6 17 -30v-19q8 -13 8 -17v-1l31 -82l4 -6l12 -13 q0 -4 2 -6t2 -4q-2 0 -6 -4q-2 -2 -2 -4l-37 -6q-9 6 -10 6l-2 2q0 4 -2 4h-4q0 6 -17 20l-22 33q0 5 -13 21q-1 1 -2 3t-2 3l-4 4l-8 8q0 9 -25 37z" />
<glyph unicode="&#xc1;" horiz-adv-x="673" d="M31 30q0 17 13 79l4 36q0 28 24 136l52 194q25 91 26 92q25 134 41 197q5 25 13 49q3 21 6 27q0 6 2 8v8l2 2q19 49 53 191l20 63l41 129q21 49 21 66l41 6q10 0 12 -2h31q6 -2 41 -2v-4v-41q0 -14 8 -58q9 -46 12 -84l15 -82l10 -61q21 -107 31 -178q10 -66 14 -119 q20 -114 20 -131l9 -57l6 -97q3 -73 6 -102l8 -94l8 -49q0 -20 9 -54l4 -32v-21l4 -20q-2 -2 -2 -17l-90 -8q-12 3 -15 20v13v8q-1 1 -2 4.5t-2 5.5v12v43q-10 89 -16 107l-13 84q-8 100 -16 127l-16 74q-7 34 -21 45q-3 2 -10 2q-5 0 -16.5 -2t-14.5 -2h-4q-2 -1 -7.5 -2 t-8.5 -2h-21h-43q-8 -4 -49 -7q-44 -3 -65 -12q-57 -247 -82 -399q-4 0 -19 -96q-31 0 -37 -3q-32 0 -34 -2q-3 2 -3 12zM388 1362v10q0 4 2 6q2 0 2 4q4 0 7 9q2 6 6 10q4 0 24 33q27 34 27 39q10 13 18 38q14 32 21 39v15l6 6l4 2v2q20 -3 23 -6q39 -3 65 -10l2 -5 q-5 -5 -2 -10q-8 -8 -8 -14q-8 0 -21 -29q-35 -49 -36 -51q-3 0 -5 -2q0 -2 -4 -6q-13 -30 -34 -64q-16 -4 -19 -4q-11 -4 -33 -8l-20 -4q-12 -4 -16 -4v-4h-3l-4 4z" />
<glyph unicode="&#xc2;" horiz-adv-x="673" d="M31 30q0 17 13 79l4 36q0 28 24 136l52 194q25 91 26 92q25 134 41 197q5 25 13 49q3 21 6 27q0 6 2 8v8l2 2q19 49 53 191l20 63l41 129q21 49 21 66l41 6q10 0 12 -2h31q6 -2 41 -2v-4v-41q0 -14 8 -58q9 -46 12 -84l15 -82l10 -61q21 -107 31 -178q10 -66 14 -119 q20 -114 20 -131l9 -57l6 -97q3 -73 6 -102l8 -94l8 -49q0 -20 9 -54l4 -32v-21l4 -20q-2 -2 -2 -17l-90 -8q-12 3 -15 20v13v8q-1 1 -2 4.5t-2 5.5v12v43q-10 89 -16 107l-13 84q-8 100 -16 127l-16 74q-7 34 -21 45q-3 2 -10 2q-5 0 -16.5 -2t-14.5 -2h-4q-2 -1 -7.5 -2 t-8.5 -2h-21h-43q-8 -4 -49 -7q-44 -3 -65 -12q-57 -247 -82 -399q-4 0 -19 -96q-31 0 -37 -3q-32 0 -34 -2q-3 2 -3 12zM288 1354q-3 16 4 26l2 2q0 7 4 9q0 4 4 12l35 61l43 84q8 7 10 15q4 4 6 10l5 4q22 0 28 -2h21q2 -2 8 -2l4 -14v-19l2 -2l4 -8l4 -8q2 -2 6 -15 l41 -92q7 -6 17 -31h-4q-1 -1 -5 -2t-6 -2q-21 -9 -26 -14l-15 -6q-12 12 -38 74l-11 16h-2q0 2 -2 4l-4 4q-4 4 -6 4l-10 -10q-2 -4 -8 -10q-11 -11 -46 -58q-4 -8 -6 -10q0 -4 -4 -4v-4l-2 -2q-23 -3 -26 -6q-7 0 -27 -4z" />
<glyph unicode="&#xc3;" horiz-adv-x="673" d="M31 30q0 17 13 79l4 36q0 28 24 136l52 194q25 91 26 92q25 134 41 197q5 25 13 49q3 21 6 27q0 6 2 8v8l2 2q19 49 53 191l20 63l41 129q21 49 21 66l41 6q10 0 12 -2h31q6 -2 41 -2v-4v-41q0 -14 8 -58q9 -46 12 -84l15 -82l10 -61q21 -107 31 -178q10 -66 14 -119 q20 -114 20 -131l9 -57l6 -97q3 -73 6 -102l8 -94l8 -49q0 -20 9 -54l4 -32v-21l4 -20q-2 -2 -2 -17l-90 -8q-12 3 -15 20v13v8q-1 1 -2 4.5t-2 5.5v12v43q-10 89 -16 107l-13 84q-8 100 -16 127l-16 74q-7 34 -21 45q-3 2 -10 2q-5 0 -16.5 -2t-14.5 -2h-4q-2 -1 -7.5 -2 t-8.5 -2h-21h-43q-8 -4 -49 -7q-44 -3 -65 -12q-57 -247 -82 -399q-4 0 -19 -96q-31 0 -37 -3q-32 0 -34 -2q-3 2 -3 12zM201 1364q18 84 35 90q3 6 11 14q32 41 84 41q8 0 24 -2h25l41 -16l10 -6q4 -2 10 -8q5 -1 37 -25q21 -19 41 -22q21 2 30 11t13 29l2 5q12 18 14 20 q13 0 39 -20q-3 -32 -16 -54l-2 -2l-4 -4l-4 -8q-9 -9 -11 -16q-17 -17 -43 -31h-32q-18 8 -31 12l-35 21l-4 2l-6 8q-8 8 -10 12l-33 19q-24 4 -51 4q-26 0 -39 -4l-2 -2q-7 0 -9 -2l-14 -21l-14 -45q0 -2 -2 -2v-4q-4 -4 -6 -4l-9 4q-14 0 -16 2l-12 4h-11z" />
<glyph unicode="&#xc4;" horiz-adv-x="673" d="M31 30q0 17 13 79l4 36q0 28 24 136l52 194q25 91 26 92q25 134 41 197q5 25 13 49q3 21 6 27q0 6 2 8v8l2 2q19 49 53 191l20 63l41 129q21 49 21 66l41 6q10 0 12 -2h31q6 -2 41 -2v-4v-41q0 -14 8 -58q9 -46 12 -84l15 -82l10 -61q21 -107 31 -178q10 -66 14 -119 q20 -114 20 -131l9 -57l6 -97q3 -73 6 -102l8 -94l8 -49q0 -20 9 -54l4 -32v-21l4 -20q-2 -2 -2 -17l-90 -8q-12 3 -15 20v13v8q-1 1 -2 4.5t-2 5.5v12v43q-10 89 -16 107l-13 84q-8 100 -16 127l-16 74q-7 34 -21 45q-3 2 -10 2q-5 0 -16.5 -2t-14.5 -2h-4q-2 -1 -7.5 -2 t-8.5 -2h-21h-43q-8 -4 -49 -7q-44 -3 -65 -12q-57 -247 -82 -399q-4 0 -19 -96q-31 0 -37 -3q-32 0 -34 -2q-3 2 -3 12zM283 1408q0 2 0.5 5t0.5 4q6 27 18 45l10 11l9 8l6 4v4h33v-4h12q0 -4 2 -4q4 0 8 -4q2 0 4 -2v-2q5 0 8 -3l2 -4h2q0 -73 -8 -86h-2q-2 -2 -2 -8 q-4 0 -6 -2v-2q-8 0 -10 -2v-4q-6 -3 -15 -6q-16 0 -18 -2l-35 14v2q-2 2 -6 2v2q-13 13 -13 34zM458 1421q0 7 2 17l16 32q3 3 9 3q7 11 20 11q6 0 10 -1v-2h13q4 -4 22 -13q16 -10 18 -16q13 0 13 -29v-12q-2 -2 -6 -14q-5 -5 -7 -11q-2 0 -2 -2l-6 -10h-2q-6 -12 -33 -18 l-24 8q-2 1 -23 8v2q-15 9 -18 27q-2 14 -2 20z" />
<glyph unicode="&#xc5;" horiz-adv-x="673" d="M31 30q0 17 13 79l4 36q0 28 24 136l52 194q25 91 26 92q25 134 41 197q5 25 13 49q3 21 6 27q0 6 2 8v8l2 2q19 49 53 191l20 63l41 129q21 49 21 66l6 1q-2 1 -8.5 4.5t-11.5 6.5v2h-4l-5 4l-4 4l-2 2q-2 2 -2 4q-10 10 -10 16q-25 31 -25 60q-2 2 -2 65q0 4 5 9l2 4 q2 2 2 8l6 12q2 2 4 2q6 34 51 51v2q42 26 70 33q7 3 20 6h4q1 1 3 2t3 2h9q24 -6 39 -18l6 -6l4 -4q2 0 2 -2l4 -2q12 -3 16 -15l8 -4l-2 -2q0 -1 7 -8l8 -14q4 -7 2 -7q11 -27 20 -94q0 -1 -1 -6l-3.5 -17.5t-5.5 -25.5q-13 -25 -29 -35q0 -5 -41 -35q-5 -5 -20 -9v-39 q0 -14 8 -58q9 -46 12 -84l15 -82l10 -61q21 -107 31 -178q10 -66 14 -119q20 -114 20 -131l9 -57l6 -97q3 -73 6 -102l8 -94l8 -49q0 -20 9 -54l4 -32v-21l4 -20q-2 -2 -2 -17l-90 -8q-12 3 -15 20v13v8q-1 1 -2 4.5t-2 5.5v12v43q-10 89 -16 107l-13 84q-8 100 -16 127 l-16 74q-7 34 -21 45q-3 2 -10 2q-5 0 -16.5 -2t-14.5 -2h-4q-2 -1 -7.5 -2t-8.5 -2h-21h-43q-8 -4 -49 -7q-44 -3 -65 -12q-57 -247 -82 -399q-4 0 -19 -96q-31 0 -37 -3q-32 0 -34 -2q-3 2 -3 12zM394 1575q2 0 2 2l4 2h-4q-2 -2 -2 -4z" />
<glyph unicode="&#xc6;" horiz-adv-x="813" d="M31 31q11 75 28 129q29 168 37 246l15 61q0 6 2 8l4 12v9l2 4l31 174q2 18 6 35l2 4v8q2 2 2 10l2 2v8q2 2 2 9q4 11 6 28q6 37 12 62l6 82l25 135l20 82q29 110 31 127l8 41q0 16 9 43q0 51 6 57q0 8 -2 10v8l-2 5q0 3 6 24t8 23q2 8 6 8q2 0 4 -2l2 2q35 0 37 -2 q20 7 49 7q14 0 21 -1q0 -2 2 -4t2 -6h-4q2 -2 8 -33q0 -23 10 -33q0 3 6 12q0 5 2 7t2 6q14 14 21 28l2 4q1 1 2 3q0 1 0.5 1.5t1.5 0.5l8 8l6 6q0 2 4 6l3 4h4l12 -4h16l6 -4h17q2 -2 10 -2l61 -6q104 -19 113 -19q6 0 8 -2t13 -2h6h14l4 -6q-6 -6 -6 -20q0 -31 2 -33v-25 q-2 0 -2 -14q-2 0 -5.5 -0.5t-5.5 -0.5q-25 0 -71 11l-74 4h-69q-1 -2 -4 -14t-6 -23q-2 -18 -2 -22q0 -8 2 -12q-3 -22 -5.5 -42.5t-4 -30t-1.5 -11.5q-5 -5 -5 -17q0 -9 1 -14l-2 -2v-10q-2 -2 -2 -11q-4 -20 -6 -32q-3 -24 -6 -76q0 -6 -2 -8v-7l-4 -4l-4 -16v-8 q-2 -2 -2 -6q-3 -3 -3 -9v-20q0 -33 -2 -35l-8 -67q36 -19 88 -19q2 -2 11 -2q-3 -3 -3 -35l7 -39l-41 -4q-24 6 -33 6h-6l-8 -4h-13v-4l-12 -4l-2 -4l-4 -4q0 -6 -2 -8l-2 -4l-2 -4v-7l-2 -4q0 -201 -15 -284h4q-8 -24 -8 -140q1 -15 1 -43q0 -62 -7 -94l6 -31 q-1 -4 -1 -12q0 -33 32 -39h43q24 -6 27 -6l16 -4h45q15 7 20 7q2 0 3 -1q0 -1 0.5 -3t1.5 -6.5t2 -8.5q0 -1 0.5 -3.5t1.5 -8t2 -11.5l-4 -8q0 -4 -4 -8q0 -2 -9 -2q-2 2 -6 2q-77 -9 -90 -17l-80 -2l-67 -16q-2 0 -2 2t-2 4h-5q0 16 -12 43l-6 41v29q2 4 2 51q0 23 -2 25 q2 2 4 2h-4q0 20 -2 22t-2 33q-1 1 -1 3q0 1 1 6.5t2 10.5l-4 154q-2 2 -2 8v12q2 2 2 9v20q0 29 -2 31v16l-19 209h-4v-4l-2 -2h-8q-2 -2 -8 -2q-10 -3 -35 -6v-4h-6l-12 -82l-31 -119q-7 -57 -21 -104q-3 -33 -6 -52q-8 -27 -8 -43q-29 -89 -55 -221q1 -6 1 -16t-3 -19 v-18q-2 -2 -2 -12q-11 0 -15 -2h-24q-6 -2 -35 -2l-4 2z" />
<glyph unicode="&#xc7;" horiz-adv-x="690" d="M37 545v12v25v53q0 20 2 22t2 23v27q0 143 31 235q34 100 73 145q3 16 13 19q18 32 39 53q46 46 65 58q39 33 103 45q27 8 60 8q31 0 69 -6l22 -23q13 -3 33 -29q23 -23 33 -28q0 -5 12 -29q3 -3 18 -41l6 -12q0 -8 -2 -8q18 -34 18 -42q0 -3 -1 -3q5 -5 8 -31l2 -2v-8 v-13q1 -5 2 -11.5t1.5 -10t0.5 -6.5l4 -23l-6 -6q0 -2 -6 -8q-7 1 -23 1q-17 0 -26 -1q-35 0 -47 -12q-13 13 -13 19q0 4 5 7q-2 10 -2 14q0 5 2 11v67q-9 125 -33 135q-18 18 -57 18q-13 0 -21 -1q-56 0 -66 -17q-18 -6 -22 -10t-10 -4q-107 -82 -142 -162 q-34 -72 -73 -293q2 -52 14 -100q0 -51 8 -78q2 -2 2 -12q2 -4 2 -14l4 -21q2 -2 2 -8q2 0 2 -2q-2 0 -2 -10l25 -60q19 -97 51 -141q36 -62 62 -88q25 -25 61 -45l45 -17q2 -2 21 -2l6 2l16 13l25 14q42 48 55 84q12 22 16 49q4 8 15 19q14 0 16 -2h25q6 0 8 -2t8 -2h10 l4 -3l-10 -51q-40 -118 -98 -182l-4 -2l-4 -4l-2 -2q-2 -2 -5 -2q-6 -6 -18 -10v-3q-27 -10 -31 -14q-5 0 -10 -0.5t-6 -0.5q2 -2 4 -6q35 -24 54 -52q30 -15 39 -82l-2 -43q-1 -2 -13 -22l-4 -4q-2 -2 -4 -2l-4 -4q-2 0 -2 -2l-4 -2q-6 -3 -6 -7h-4v-4q-6 0 -33 -12l-86 16 q-6 15 -10 19v43l49 -8q28 9 41 28v12q0 31 -17 48l-4 4l-2 4l-4 4l-6 6l-4 4q-1 1 -2 3t-2 3q-13 13 -15 19h-4v4q-9 9 -20 23.5t-20 19.5t-34 12l-26 14q-5 2 -13 4.5t-11 4.5t-12 10t-26 26q-67 70 -67 86q-12 0 -15 23h-4q-33 67 -33 79q-20 59 -24 78l-15 58l-6 28 q-3 9 -6 45q-3 43 -6 54z" />
<glyph unicode="&#xc8;" horiz-adv-x="489" d="M41 1085q0 74 2 80q2 38 2 59q0 20 -2 60q-2 2 -2 4q0 4 2 6t2 6q3 0 6 9h17q42 11 119 11q75 0 184 -9q72 0 80 -8q0 -5 2 -7h-7v-26q-1 -7 -1 -19q0 -10 1 -14l5 -29q0 -3 -5 -8q0 -4 -2 -6t-2 -4q-49 0 -98 -14q-2 2 -63 2q-9 0 -11 -2h-8l-2 -2q-29 0 -33 2t-71 2 l-4 -19q0 -27 2 -50t2 -52v-17l4 -16v-20v-50q3 -70 6 -100v-27q5 -1 15 -1q9 0 12 1h4l12 4h12q17 7 25 7q6 8 12 8l6 -2q0 -6 2 -8l-4 -2l-6 -76l6 -78l-8 -4v-4q-13 -3 -47 -6q-23 0 -25 -2q-20 0 -22 -2q4 0 4 -506q16 3 76 3q59 0 161 -3q19 0 19 -8q0 -1 -1 -7.5 t-1 -11.5q-2 -2 -2 -14q1 -4 1 -16q0 -22 -5 -89q-3 0 -6 -8q-2 -2 -17 -2v2q-18 6 -61 6q-51 0 -64 8q-98 0 -145 9h-30q-14 0 -21 -7q-2 2 -2 23v31v71v17v4l-5 8v10v27v67q0 27 -2 31q-2 2 -2 25q-2 4 -2 24l-4 52q0 98 2 108q-4 84 -4 127v25v262q0 11 -2.5 39t-2.5 41 q0 12 1 16v12zM83 1535q2 2 5 2v6q0 2 2 2t4 2q12 0 30 6q22 3 25 6v-4q0 4 2 6h12v4h11l8 -4v-6q0 -2 2 -2q0 -9 16 -31v-18q9 -14 9 -17l-1 -1l31 -82l4 -6l12 -13q0 -3 3 -6q2 -2 2 -4q-3 0 -7 -4q-2 -2 -2 -4l-36 -6q-9 6 -11 6l-2 2q0 4 -2 4h-4q0 7 -16 20l-23 33 q0 6 -12 21q-1 1 -2 3t-2 3l-4 4l-9 8q0 10 -24 37z" />
<glyph unicode="&#xc9;" horiz-adv-x="489" d="M41 1085q0 74 2 80q2 38 2 59q0 20 -2 60q-2 2 -2 4q0 4 2 6t2 6q3 0 6 9h17q42 11 119 11q75 0 184 -9q72 0 80 -8q0 -5 2 -7h-7v-26q-1 -7 -1 -19q0 -10 1 -14l5 -29q0 -3 -5 -8q0 -4 -2 -6t-2 -4q-49 0 -98 -14q-2 2 -63 2q-9 0 -11 -2h-8l-2 -2q-29 0 -33 2t-71 2 l-4 -19q0 -27 2 -50t2 -52v-17l4 -16v-20v-50q3 -70 6 -100v-27q5 -1 15 -1q9 0 12 1h4l12 4h12q17 7 25 7q6 8 12 8l6 -2q0 -6 2 -8l-4 -2l-6 -76l6 -78l-8 -4v-4q-13 -3 -47 -6q-23 0 -25 -2q-20 0 -22 -2q4 0 4 -506q16 3 76 3q59 0 161 -3q19 0 19 -8q0 -1 -1 -7.5 t-1 -11.5q-2 -2 -2 -14q1 -4 1 -16q0 -22 -5 -89q-3 0 -6 -8q-2 -2 -17 -2v2q-18 6 -61 6q-51 0 -64 8q-98 0 -145 9h-30q-14 0 -21 -7q-2 2 -2 23v31v71v17v4l-5 8v10v27v67q0 27 -2 31q-2 2 -2 25q-2 4 -2 24l-4 52q0 98 2 108q-4 84 -4 127v25v262q0 11 -2.5 39t-2.5 41 q0 12 1 16v12zM214 1369v10q0 3 3 6q2 0 2 4q3 0 6 9q2 6 6 10q4 0 24 33q27 35 27 38q9 12 18 39q14 32 21 39v15l6 6l4 2v2q20 -3 23 -6q34 -2 65 -11l2 -4q-5 -5 -2 -10q-8 -8 -8 -14q-7 0 -20 -29q-32 -46 -37 -51q-2 0 -4 -2q0 -2 -4 -6q-11 -24 -35 -64q-16 -4 -19 -4 q-12 -4 -32 -8l-21 -4q-12 -4 -16 -4v-4h-2l-4 4z" />
<glyph unicode="&#xca;" horiz-adv-x="489" d="M41 1085q0 74 2 80q2 38 2 59q0 20 -2 60q-2 2 -2 4q0 4 2 6t2 6q3 0 6 9h17q42 11 119 11q75 0 184 -9q72 0 80 -8q0 -5 2 -7h-7v-26q-1 -7 -1 -19q0 -10 1 -14l5 -29q0 -3 -5 -8q0 -4 -2 -6t-2 -4q-49 0 -98 -14q-2 2 -63 2q-9 0 -11 -2h-8l-2 -2q-29 0 -33 2t-71 2 l-4 -19q0 -27 2 -50t2 -52v-17l4 -16v-20v-50q3 -70 6 -100v-27q5 -1 15 -1q9 0 12 1h4l12 4h12q17 7 25 7q6 8 12 8l6 -2q0 -6 2 -8l-4 -2l-6 -76l6 -78l-8 -4v-4q-13 -3 -47 -6q-23 0 -25 -2q-20 0 -22 -2q4 0 4 -506q16 3 76 3q59 0 161 -3q19 0 19 -8q0 -1 -1 -7.5 t-1 -11.5q-2 -2 -2 -14q1 -4 1 -16q0 -22 -5 -89q-3 0 -6 -8q-2 -2 -17 -2v2q-18 6 -61 6q-51 0 -64 8q-98 0 -145 9h-30q-14 0 -21 -7q-2 2 -2 23v31v71v17v4l-5 8v10v27v67q0 27 -2 31q-2 2 -2 25q-2 4 -2 24l-4 52q0 98 2 108q-4 84 -4 127v25v262q0 11 -2.5 39t-2.5 41 q0 12 1 16v12zM126 1361q-3 16 4 26l3 2q0 7 4 9q0 4 4 12l35 61l43 84q7 7 10 15q4 4 6 10l4 4q23 0 29 -2h20q2 -2 8 -2l4 -15v-18l3 -2l4 -8l4 -8q1 -1 6 -15l41 -92q5 -5 16 -31h-4q-1 -1 -4.5 -2t-5.5 -2q-23 -10 -27 -14l-14 -6q-14 14 -39 74l-10 16h-2q0 2 -2 4 l-4 4q-4 4 -7 4l-10 -10q-2 -4 -8 -10q-8 -8 -45 -58q-4 -8 -6 -10q0 -4 -4 -4v-4l-2 -2q-25 -3 -27 -6q-7 0 -27 -4z" />
<glyph unicode="&#xcb;" horiz-adv-x="489" d="M41 1085q0 74 2 80q2 38 2 59q0 20 -2 60q-2 2 -2 4q0 4 2 6t2 6q3 0 6 9h17q42 11 119 11q75 0 184 -9q72 0 80 -8q0 -5 2 -7h-7v-26q-1 -7 -1 -19q0 -10 1 -14l5 -29q0 -3 -5 -8q0 -4 -2 -6t-2 -4q-49 0 -98 -14q-2 2 -63 2q-9 0 -11 -2h-8l-2 -2q-29 0 -33 2t-71 2 l-4 -19q0 -27 2 -50t2 -52v-17l4 -16v-20v-50q3 -70 6 -100v-27q5 -1 15 -1q9 0 12 1h4l12 4h12q17 7 25 7q6 8 12 8l6 -2q0 -6 2 -8l-4 -2l-6 -76l6 -78l-8 -4v-4q-13 -3 -47 -6q-23 0 -25 -2q-20 0 -22 -2q4 0 4 -506q16 3 76 3q59 0 161 -3q19 0 19 -8q0 -1 -1 -7.5 t-1 -11.5q-2 -2 -2 -14q1 -4 1 -16q0 -22 -5 -89q-3 0 -6 -8q-2 -2 -17 -2v2q-18 6 -61 6q-51 0 -64 8q-98 0 -145 9h-30q-14 0 -21 -7q-2 2 -2 23v31v71v17v4l-5 8v10v27v67q0 27 -2 31q-2 2 -2 25q-2 4 -2 24l-4 52q0 98 2 108q-4 84 -4 127v25v262q0 11 -2.5 39t-2.5 41 q0 12 1 16v12zM81 1415v9q5 25 19 45l10 10l8 9l6 4v4h33v-4h12q0 -4 2 -4q5 0 9 -4q1 0 4 -3v-2q6 0 8 -2l2 -4h2q0 -73 -8 -86h-2q-2 -2 -2 -8q-4 0 -6 -2v-2q-9 0 -11 -2v-4q-8 -4 -14 -6q-16 0 -18 -2l-35 14v2q-2 2 -6 2v2q-13 13 -13 34zM256 1428q0 12 1 17l17 32 q2 2 8 2q8 12 20 12q7 0 11 -1v-2h12q3 -3 23 -13q16 -9 18 -16q13 0 13 -29q0 -2 -0.5 -6t-0.5 -6q-2 -2 -6 -14q-4 -4 -6 -11q-2 0 -2 -2l-6 -10h-2q-6 -12 -33 -18l-25 8q-4 2 -22 8v2q-16 10 -19 27q-1 7 -1 20z" />
<glyph unicode="&#xcc;" horiz-adv-x="215" d="M-70 1503q2 2 4 2v6q0 2 3 2q1 0 4 3q12 0 30 6q22 3 25 6v-4q0 4 2 6h12v4h10l9 -4v-6q0 -2 2 -2q0 -9 16 -31v-18q9 -14 9 -17l-1 -2l31 -82l4 -6l12 -12q0 -4 2 -6t2 -5q-2 0 -6 -4q-2 -2 -2 -4l-37 -6q-9 6 -10 6l-2 2q0 4 -2 4h-4q0 8 -16 21l-23 33q0 5 -12 20 q-1 1 -2 3t-2 3l-4 4l-9 9q0 9 -24 36zM21 1221v4v6l4 14v19l-4 20q6 4 13 4q12 0 44 -10q29 -11 51 -11q2 0 5.5 0.5t4.5 0.5q5 0 5 -2q4 0 6 -2q-3 -12 -3 -31t3 -41v-57h-6q4 0 6 -2q0 -33 2 -39v-68q3 -33 3 -69q0 -34 -1 -52q-7 -69 -7 -112q0 -15 1 -21q1 -13 1 -49 q0 -43 -1 -70l-2 -2l14 -501l-4 -13q0 -18 2 -22q2 -2 2 -17q2 -4 2 -18l4 -41q0 -4 -2 -6v-4v-9q-2 -2 -2 -10l-102 -10q-7 0 -9 2q-4 0 -6 2q-1 3 -1 15q0 16 1 26q2 20 2 23q0 8 -2 10q2 130 2 167q0 55 -2 111q0 52 -6 205q-2 37 -8 101q0 254 -2 268v74v24v8l-4 8v7v14 v45q0 33 2 35q0 14 -2 16v23v20q-1 3 -2 9t-2 8z" />
<glyph unicode="&#xcd;" horiz-adv-x="212" d="M37 1221v4v6l4 14v19l-4 20q6 4 14 4q11 0 43 -10q29 -11 51 -11q2 0 6 0.5t5 0.5q4 0 4 -2q4 0 6 -2q-3 -12 -3 -31t3 -41v-57h-6q4 0 6 -2q0 -33 2 -39v-68q3 -33 3 -69q0 -34 -1 -52q-7 -69 -7 -112q0 -15 1 -21q1 -13 1 -49q0 -43 -1 -70l-2 -2l14 -501l-4 -13 q0 -18 2 -22q2 -2 2 -17q2 -4 2 -18l4 -41q0 -4 -2 -6v-4v-9q-2 -2 -2 -10l-102 -10q-6 0 -8 2q-5 0 -7 2q-1 3 -1 15q0 16 1 26q2 20 2 23q0 8 -2 10q2 130 2 167q0 55 -2 111q0 52 -6 205q-2 37 -8 101q0 254 -2 268v74v24v8l-4 8v7v14v45q0 33 2 35q0 14 -2 16v23v20 q-1 3 -2 9t-2 8zM78 1337v11q0 4 2 6q2 0 2 4q3 0 6 8q2 6 6 10q5 0 25 33q26 33 26 39q11 14 19 39q15 34 20 39v14l6 6l4 2v2q20 -3 23 -6q39 -2 65 -10l2 -4q-5 -5 -2 -10q-8 -8 -8 -15q-8 0 -20 -28q-35 -49 -37 -52q-2 0 -4 -2q0 -2 -4 -6q-9 -20 -35 -63 q-16 -4 -19 -4q-19 -6 -32 -9l-21 -4q-12 -4 -16 -4v-4h-2l-4 4z" />
<glyph unicode="&#xce;" horiz-adv-x="212" d="M-19 1329q-3 17 4 27l2 2q0 6 4 8q0 4 4 12l35 62l43 84q8 8 10 14q4 4 6 10l4 4q23 0 29 -2h21q2 -2 8 -2l4 -14v-18l2 -3l4 -8l4 -8q2 -2 6 -14l41 -92q6 -6 17 -31h-5q-1 -1 -4.5 -2t-5.5 -2q-19 -8 -26 -15l-15 -6q-14 14 -39 74l-10 16h-2q0 3 -2 5l-4 4q-4 4 -6 4 l-10 -11q-1 -2 -9 -10q-11 -10 -45 -57q-4 -8 -6 -10q0 -4 -4 -4v-5l-2 -2q-25 -3 -27 -6q-6 0 -26 -4zM28 1221v4v6l4 14v19l-4 20q6 4 14 4q11 0 43 -10q29 -11 51 -11q2 0 6 0.5t5 0.5q4 0 4 -2q4 0 6 -2q-3 -12 -3 -31t3 -41v-57h-6q4 0 6 -2q0 -33 2 -39v-68 q4 -44 4 -69q0 -16 -2 -52q-7 -69 -7 -112q0 -15 1 -21q2 -26 2 -49q0 -16 -2 -70l-2 -2l14 -501l-4 -13q0 -18 2 -22q2 -2 2 -17q2 -4 2 -18l5 -41q0 -3 -3 -6v-4v-9q-2 -2 -2 -10l-102 -10q-6 0 -8 2q-4 0 -6 2q-2 6 -2 15q0 6 2 26q1 10 1 23q0 9 -1 10q1 65 1 167 q0 83 -1 111q0 52 -6 205q-1 19 -9 101q0 254 -2 268v74v24v8l-4 8v7v14v45q0 33 2 35q0 14 -2 16v23v20q-1 3 -2 9t-2 8z" />
<glyph unicode="&#xcf;" horiz-adv-x="202" d="M-74 1384q0 2 0.5 5t0.5 4q6 27 18 45l10 10l9 8l6 4v4h33v-4h12q0 -4 2 -4q4 0 8 -4q2 0 4 -2v-2q6 0 8 -2l2 -4h2q0 -73 -8 -86h-2q-2 -2 -2 -8q-4 0 -6 -2v-3q-8 0 -10 -2v-4q-6 -3 -15 -6q-16 0 -18 -2l-35 14v3q-2 2 -6 2v2q-13 13 -13 34zM19 1221v4v6l4 14v19 l-4 20q6 4 14 4q12 0 44 -10q29 -11 50 -11q2 0 6 0.5t5 0.5q4 0 4 -2q4 0 6 -2q-3 -12 -3 -31t3 -41v-57h-6q4 0 6 -2q0 -33 2 -39v-68q4 -44 4 -69q0 -16 -2 -52q-7 -69 -7 -112q0 -15 1 -21q2 -26 2 -49q0 -16 -2 -70l-2 -2l15 -501l-5 -13q0 -18 2 -22q3 -3 3 -17 q2 -4 2 -18l4 -41q0 -4 -2 -6v-4v-9q-2 -2 -2 -10l-103 -10q-6 0 -8 2q-4 0 -6 2q-2 6 -2 15q0 6 2 26q1 10 1 23q0 9 -1 10q1 65 1 167q0 83 -1 111q0 52 -6 205q-1 19 -9 101q0 254 -2 268v74v24v8l-4 8v7v14v45q0 33 2 35q0 14 -2 16v23v20q-1 3 -2 9t-2 8zM101 1396 q0 7 2 17l16 33q2 2 8 2q7 12 21 12q2 0 10 -2v-2h12q1 -1 23 -12q15 -9 18 -17q13 0 13 -28v-13q-2 -2 -6 -14q-6 -6 -7 -10q-2 0 -2 -2l-6 -10h-2q-7 -13 -33 -19l-24 8q-8 4 -23 9v2q-15 9 -18 26q-2 14 -2 20z" />
<glyph unicode="&#xd0;" horiz-adv-x="786" d="M31 756q0 6 2 10l2 4q4 0 4 4q2 0 4 2q0 2 2 2q4 0 6 2l4 2q2 2 6 2q2 2 9 2q6 0 8 2q3 0 6 3q12 5 35 18q0 2 2 2q0 2 4 2v16q-10 51 -10 84q0 11 2 21v115l-8 49q-2 26 -7 45v74q-2 2 -2 28q-2 4 -2 23q2 2 2 16q2 6 2 19q0 10 2 12v12q2 2 2 6q0 11 -2 15v14 q-1 2 -1 6t1 6v21h-4v6l-4 8q9 0 13 4q4 0 8 4q31 8 43 8q14 5 28 7q17 3 54 3q36 0 90 -3q2 -2 14 -2q9 -3 16 -3l27 -4q0 -5 12 -8v-2q-2 0 -4 -2h15v-2q4 -5 22 -12l21 -13v-2h6v-4q14 -2 26 -14q15 0 35 -14q0 -6 13 -9v-4h4q0 -2 8 -10q1 -1 4.5 -3.5t5.5 -4.5 q0 -4 18 -19l19 -12l6 -4v-4h4q24 -41 43 -47q2 -6 17 -41h2v-4h4q2 -2 2 -12h2q7 -18 8 -19q0 2 6 2v-14q10 -29 12 -31h2q0 -3 3 -6q2 -2 2 -10l2 -4l2 -4q4 -4 4 -13q2 -3 3.5 -7t2.5 -5h-2q0 -2 4 -14q0 -5 6 -23l2 -10v-31q2 -10 2 -49q8 -19 8 -104q0 -7 2 -11v-28 q2 -10 2 -35q-2 -6 -2 -33q-26 -149 -28 -164q-1 -4 -4 -13t-8 -23.5t-9 -28.5q-18 -43 -18 -47q-9 -15 -20 -35t-13 -23h-2q-11 -25 -25 -39l-8 -16q-3 -9 -8 -14h-4q0 -5 -2 -7t-2 -4h-4l-17 -28q-4 0 -4 -2q-2 -2 -2 -9q-4 0 -10 -16l-8 -4v-4l-4 -4l-2 -4l-4 -4 q-1 -1 -2.5 -3.5t-2.5 -3.5t-2 -3t-2 -3l-30 -41q-3 -4 -19 -20l-8 -8l-4 -6q-7 -2 -10 -11l-13 -8l-8 -8l-4 -2q-41 -33 -55 -35v-4h-8v-4q-7 0 -23 -8q-4 -4 -12 -4q-3 -2 -7 -4t-5 -3v-2q-43 -9 -46 -16q-48 -15 -59 -21v-2h-6q-6 -2 -41 -12q-30 -6 -33 -6h-10l-8 4 q-2 6 -2 27q0 2 4 14q0 4 4 16l4 29v266q-8 8 -8 78q-3 9 -6 35q-3 27 -6 39v33q0 35 2 39l-11 112q2 4 2 19l-12 -2v-2q-2 2 -10 2v-4q-14 -3 -25 -9q-10 0 -12 -2v-4h-4v4h-6z" />
<glyph unicode="&#xd1;" horiz-adv-x="514" d="M39 74v12l2 94q0 172 6 230q25 486 25 763q0 60 -2 152q1 1 5 1q3 0 17.5 -1t26.5 -2q0 -8 6 -29q3 -17 6 -20q0 -19 45 -129l92 -256q44 -129 49 -129v-1q0 -4 21 -69q24 -67 29 -67v125v116v49q4 44 4 45v43q0 33 2 39t2 39v60q2 4 2 26l-2 2q0 85 18 138q3 1 9 1 l10 -1q2 -2 6 -2q3 0 6 -3q0 -2 2 -2t4 2q2 -2 14 -2q11 0 11 -18q-2 -84 -2 -169q0 -57 2 -255q-9 -46 -9 -96v-47q0 -15 13 -254q0 -23 2 -27q0 -22 2 -24q-2 -2 -2 -15v-6q2 -2 2 -4q2 -2 2 -6v-10v-27l4 -35v-22q2 -2 2 -25v-25q0 -34 2 -36v-60q0 -82 2 -88 q-2 -2 -2 -22l-63 -2q-4 4 -7 4l-26 75q-3 38 -86 304q-34 105 -49 210l-15 58l-32 110l-15 56q-3 23 -24 78h-2v-234l-4 -160v-100q-3 -9 -3 -57v-35v-23q0 -26 -2 -30v-54l-12 -149q0 -59 -8 -72q-22 -5 -36 -5q-8 0 -11 1q-28 3 -35 8v35v14q0 7 -2 9q0 4 -2 6zM40 1377 q18 84 35 90q5 10 10 15q32 40 85 40q8 0 24 -2h24l41 -16l10 -6q6 -3 11 -8q6 -1 37 -25q22 -19 40 -22q21 2 30 11t13 30l3 4q12 18 14 20q13 0 39 -20q-3 -29 -17 -54l-2 -2l-4 -4l-4 -8q-7 -7 -10 -16q-17 -17 -43 -31h-33q-17 7 -31 12l-34 21l-4 2l-7 8q-8 8 -10 12 l-33 19q-24 4 -51 4q-26 0 -39 -4l-2 -2q-6 0 -8 -2l-14 -21l-15 -45q0 -2 -2 -2v-4q-4 -4 -6 -4l-8 4q-14 0 -16 2l-13 4h-10z" />
<glyph unicode="&#xd2;" horiz-adv-x="727" d="M39 557v117q0 53 2 55l2 88q26 189 88 313q59 109 121 136v4h1q1 -1 2 -1q12 0 34 13q12 6 30 6q15 0 17 -2h12l33 -10q18 -6 27 -6v-4q22 -3 28 -9h2q76 -27 119 -88q0 -2 2 -6l4 -4q2 -2 2 -4l6 -12l2 -4h2l21 -43h4l2 -2v-9q2 -2 2 -8l12 -28q7 -9 23 -78 q0 -4 27 -154l14 -129q-2 -14 -2 -156q-5 -22 -5 -56q0 -20 1 -30l-23 -161q0 -7 -4 -11q0 -7 -8 -28q0 -3 -4 -19t-4 -18l-4 -12q0 -1 -0.5 -3t-1.5 -5.5t-2 -6.5q-3 -16 -9 -22q0 -11 -4 -15q-4 -20 -18 -45q-16 -29 -31 -41q-35 -21 -47 -26q-36 -19 -70 -27v-2h-10 l-12 -4h-12h-35v2q-60 9 -107 35q-45 23 -63 41q-19 19 -21 24h-4h-2q0 8 -39 70q-29 50 -49 111q-51 125 -51 274zM207 1503q2 2 4 2v6q0 2 2 2t5 3q12 0 30 6q22 3 25 6v-4q0 4 2 6h12v4h10l9 -4v-6q0 -2 2 -2q0 -9 16 -31v-18q9 -14 9 -17l-1 -2l31 -82l4 -6l12 -12 q0 -4 2 -6t2 -5q-2 0 -6 -4q-2 -2 -2 -4l-37 -6q-9 6 -10 6l-2 2q0 4 -2 4h-4q0 8 -16 21l-23 33q0 5 -12 20q-1 1 -2 3t-2 3l-4 4l-9 9q0 9 -24 36z" />
<glyph unicode="&#xd3;" horiz-adv-x="727" d="M39 557v117q0 53 2 55l2 88q26 189 88 313q59 109 121 136v4h1q1 -1 2 -1q12 0 34 13q12 6 30 6q15 0 17 -2h12l33 -10q18 -6 27 -6v-4q22 -3 28 -9h2q76 -27 119 -88q0 -2 2 -6l4 -4q2 -2 2 -4l6 -12l2 -4h2l21 -43h4l2 -2v-9q2 -2 2 -8l12 -28q7 -9 23 -78 q0 -4 27 -154l14 -129q-2 -14 -2 -156q-5 -22 -5 -56q0 -20 1 -30l-23 -161q0 -7 -4 -11q0 -7 -8 -28q0 -3 -4 -19t-4 -18l-4 -12q0 -1 -0.5 -3t-1.5 -5.5t-2 -6.5q-3 -16 -9 -22q0 -11 -4 -15q-4 -20 -18 -45q-16 -29 -31 -41q-35 -21 -47 -26q-36 -19 -70 -27v-2h-10 l-12 -4h-12h-35v2q-60 9 -107 35q-45 23 -63 41q-19 19 -21 24h-4h-2q0 8 -39 70q-29 50 -49 111q-51 125 -51 274zM347 1337v11q0 4 2 6q2 0 2 4q3 0 6 8q2 6 6 10q5 0 25 33q26 33 26 39q11 14 19 39q15 34 20 39v14l6 6l4 2v2q20 -3 23 -6q39 -2 65 -10l2 -4 q-5 -5 -2 -10q-8 -8 -8 -15q-8 0 -20 -28q-35 -49 -37 -52q-2 0 -4 -2q0 -2 -4 -6q-9 -20 -35 -63q-16 -4 -19 -4q-20 -6 -32 -9l-21 -4q-12 -4 -16 -4v-4h-2l-4 4z" />
<glyph unicode="&#xd4;" horiz-adv-x="727" d="M39 557v117q0 53 2 55l2 88q26 189 88 313q59 109 121 136v4h1q1 -1 2 -1q12 0 34 13q12 6 30 6q15 0 17 -2h12l33 -10q18 -6 27 -6v-4q22 -3 28 -9h2q76 -27 119 -88q0 -2 2 -6l4 -4q2 -2 2 -4l6 -12l2 -4h2l21 -43h4l2 -2v-9q2 -2 2 -8l12 -28q7 -9 23 -78 q0 -4 27 -154l14 -129q-2 -14 -2 -156q-5 -22 -5 -56q0 -20 1 -30l-23 -161q0 -7 -4 -11q0 -7 -8 -28q0 -3 -4 -19t-4 -18l-4 -12q0 -1 -0.5 -3t-1.5 -5.5t-2 -6.5q-3 -16 -9 -22q0 -11 -4 -15q-4 -20 -18 -45q-16 -29 -31 -41q-35 -21 -47 -26q-36 -19 -70 -27v-2h-10 l-12 -4h-12h-35v2q-60 9 -107 35q-45 23 -63 41q-19 19 -21 24h-4h-2q0 8 -39 70q-29 50 -49 111q-51 125 -51 274zM267 1329q-3 17 4 27l2 2q0 6 4 8q0 4 4 12l35 62l43 84q8 8 10 14q4 4 6 10l4 4q23 0 29 -2h20q2 -2 9 -2l4 -14v-18l2 -3l4 -8l4 -8q2 -2 6 -14l41 -92 q5 -5 16 -31h-4q-1 -1 -4.5 -2t-5.5 -2q-19 -8 -26 -15l-15 -6q-14 14 -39 74l-10 16h-2q0 3 -2 5l-4 4q-4 4 -6 4l-11 -11q-2 -4 -8 -10q-11 -10 -45 -57q-4 -8 -6 -10q0 -4 -4 -4v-5l-2 -2q-25 -3 -27 -6q-6 0 -26 -4z" />
<glyph unicode="&#xd5;" horiz-adv-x="727" d="M39 557v117q0 53 2 55l2 88q26 189 88 313q59 109 121 136v4h1q1 -1 2 -1q12 0 34 13q12 6 30 6q15 0 17 -2h12l33 -10q18 -6 27 -6v-4q22 -3 28 -9h2q76 -27 119 -88q0 -2 2 -6l4 -4q2 -2 2 -4l6 -12l2 -4h2l21 -43h4l2 -2v-9q2 -2 2 -8l12 -28q7 -9 23 -78 q0 -4 27 -154l14 -129q-2 -14 -2 -156q-5 -22 -5 -56q0 -20 1 -30l-23 -161q0 -7 -4 -11q0 -7 -8 -28q0 -3 -4 -19t-4 -18l-4 -12q0 -1 -0.5 -3t-1.5 -5.5t-2 -6.5q-3 -16 -9 -22q0 -11 -4 -15q-4 -20 -18 -45q-16 -29 -31 -41q-35 -21 -47 -26q-36 -19 -70 -27v-2h-10 l-12 -4h-12h-35v2q-60 9 -107 35q-45 23 -63 41q-19 19 -21 24h-4h-2q0 8 -39 70q-29 50 -49 111q-51 125 -51 274zM176 1339q19 86 35 91q4 8 10 14q32 41 85 41q8 0 24 -2h24l41 -17l11 -6q4 -2 10 -8q6 -1 37 -25q21 -19 41 -22q21 2 30 11t13 30l2 4q12 18 14 20 q13 0 39 -20q-3 -28 -17 -53l-2 -2l-4 -4l-4 -9q-7 -7 -10 -16q-17 -17 -43 -31h-33q-5 2 -12 5t-11 5t-7 3l-35 20l-4 2l-7 8q-7 7 -10 13l-33 18q-30 5 -51 5q-22 0 -39 -5l-2 -2q-6 0 -8 -2l-14 -21l-15 -45q0 -2 -2 -2v-4q-4 -4 -6 -4l-8 4q-14 0 -16 2l-13 4h-10z" />
<glyph unicode="&#xd6;" horiz-adv-x="727" d="M39 557v117q0 53 2 55l2 88q26 189 88 313q59 109 121 136v4h1q1 -1 2 -1q12 0 34 13q12 6 30 6q15 0 17 -2h12l33 -10q18 -6 27 -6v-4q22 -3 28 -9h2q76 -27 119 -88q0 -2 2 -6l4 -4q2 -2 2 -4l6 -12l2 -4h2l21 -43h4l2 -2v-9q2 -2 2 -8l12 -28q7 -9 23 -78 q0 -4 27 -154l14 -129q-2 -14 -2 -156q-5 -22 -5 -56q0 -20 1 -30l-23 -161q0 -7 -4 -11q0 -7 -8 -28q0 -3 -4 -19t-4 -18l-4 -12q0 -1 -0.5 -3t-1.5 -5.5t-2 -6.5q-3 -16 -9 -22q0 -11 -4 -15q-4 -20 -18 -45q-16 -29 -31 -41q-35 -21 -47 -26q-36 -19 -70 -27v-2h-10 l-12 -4h-12h-35v2q-60 9 -107 35q-45 23 -63 41q-19 19 -21 24h-4h-2q0 8 -39 70q-29 50 -49 111q-51 125 -51 274zM213 1384v9q5 25 19 45l10 10l8 8l6 4v4h33v-4h12q0 -4 3 -4q4 0 8 -4q2 0 4 -2v-2q6 0 8 -2l2 -4h2q0 -73 -8 -86h-2q-2 -2 -2 -8q-4 0 -6 -2v-3 q-9 0 -11 -2v-4q-8 -4 -14 -6q-16 0 -18 -2l-35 14v3q-2 2 -6 2v2q-13 13 -13 34zM388 1396q0 7 2 17l16 33q2 2 8 2q8 12 21 12q2 0 10 -2v-2h12q1 -1 23 -12q15 -9 18 -17q13 0 13 -28q0 -2 -0.5 -6.5t-0.5 -6.5q-2 -2 -6 -14q-4 -4 -6 -10q-2 0 -2 -2l-6 -10h-2 q-7 -13 -33 -19l-25 8q-10 5 -22 9v2q-15 9 -18 26q-2 14 -2 20z" />
<glyph unicode="&#xd7;" horiz-adv-x="487" d="M31 205v8l2 2q2 2 4 2q0 5 8 8q13 13 18 15v4h5q0 8 8 8q0 11 20 31q18 18 23 28l16 21h2q15 27 31 43q9 18 27 41q-4 20 -23 47q-10 18 -35 39q0 2 -2 4l-6 6l-4 4l-4 2l-4 4q-2 0 -4 2l-2 2q-2 2 -2 4q0 4 -3 7l-20 8q0 18 8 18v4q9 9 41 25q0 4 2 6q0 2 2 4q2 0 4 -2 t7 -2q6 -3 12 -12l8 -8q-3 0 -6 -3q10 -3 12 -10l2 -4q4 -4 4 -6l8 -8q6 -12 9 -15h6l2 -4q6 -6 8 -12l12 -12l19 -19h6q0 4 6 4v3q1 1 3 2.5t6.5 5t8.5 6.5v4l11 10q2 0 2 2l4 2l4 4q0 2 2 4q49 40 55 66q8 4 20 4q18 0 64 -8h2l2 -2q2 -2 4 -2v-8l-2 -4l-6 -7l-10 -10 l-18 -18l-4 -2v-4h-5q-8 -8 -20 -29h-4v-4q-8 0 -29 -41q-41 -38 -41 -45q-6 0 -8 -2v-4q21 -21 23 -21q0 -5 10 -8q0 -2 18 -23l23 -22v-2h2q32 -37 39 -41l4 -4l2 -4l8 -8v-5l2 -4q-8 -3 -12 -10l-17 -8l-8 -4q-6 -3 -6 -4v-4h-8v-4q-8 0 -17 -9v-6q-2 2 -4 2l-8 -4 q0 2 -4 6q0 6 2 8q-37 69 -53 76v4h-6v4q-11 7 -19 21l-4 2v8q-2 6 -8 12q-18 0 -57 -51l-54 -84q-18 -15 -24 -35l-2 -2h-6q-2 0 -2 -2l-4 -2l-3 -2q-23 20 -56 20q-11 0 -17 -1z" />
<glyph unicode="&#xd8;" horiz-adv-x="618" d="M-18 -61l2 4l4 12l4 16q0 2 2 4q0 21 10 31l23 64h2q0 9 10 26q3 9 6 15l2 8q33 59 37 78l2 2q0 55 2 61l-2 16l-1.5 12t-0.5 5q-1 4 -1 11q0 12 3 15q-2 2 -2 17q0 35 2 41q0 35 2 37l-6 176v39v10v4q-2 4 -4 6v6v9q0 57 8 65q0 74 2 84q3 67 6 111v8v6q2 2 2 4q2 2 2 6 v10v37q2 2 2 29q4 26 6 33q5 14 7 41q0 22 2 24v19l2 6q3 18 6 24l22 54l7 6q0 2 4 6l2 4q6 12 8 14l2 5l4 10l8 8l6 4v2q4 0 7 10h4q0 10 12 19l14 14l4 4l13 8l16 13h10q0 20 90 26l74 -35l6 -4q6 -5 13 -8q6 -3 6 -6l10 -20q5 0 14 -19l4 4q3 31 29 64q10 19 22 19 q13 0 23 -21h2q2 -2 4 -2q0 -2 2 -4v-3v-6l-8 -2q2 0 2 -2h2q-2 -2 -2 -8q-7 0 -16 -12l-17 -33q-7 -23 -8 -23v-2l-4 -4q-11 -27 -11 -42q0 -12 7 -19q-1 -1 -1 -3q0 -4 5 -24q2 -6 27 -143q2 -6 2 -14l6 -11l-4 2v-2q5 0 8 -8q-4 0 -4 -2q7 -17 7 -29q0 -4 -1 -6l4 -4v-16 l2 -2q0 -11 2 -21.5t2 -34.5l2 -2q-2 -2 -2 -14q2 -2 2 -4q2 -2 2 -6v-10q0 -9 -2 -9q1 -5 2 -10.5t1 -6.5q0 -2 -1 -3q-2 2 -2 6q0 -6 2 -8v-10l2 -11l-2 4h-2v-6h4q-2 -2 -2 -6q2 -2 2 -6q-4 0 -4 -31q0 -59 2 -63v-8q-1 -2 -2 -8t-2 -9v-20q0 -58 2 -60q-4 0 -4 -43 q-12 -174 -33 -245v-4l-43 -125l-8 -13q-3 -9 -6 -12q0 -1 -6 -10q-3 -10 -8 -17v-8l-2 -4h-4v-8h-4q-1 0 -4 -4t-9 -10.5t-12 -12.5v-4h-2q0 -11 -55 -51l-21 -8q-11 -3 -14 -6l-6 -2l-50 -7q-7 7 -28 7q-21 11 -62 43q-4 0 -6 2q-2 0 -4 2l-4 4l-4 2l-4 8l-6 8q-4 8 -6 10 q-20 28 -27 35q-8 0 -29 -61q-13 -16 -28 -57q-2 -2 -9 -19q-6 -9 -6 -12q-10 -26 -22 -29l2 2q-4 4 -19 8q-12 3 -18 9h-14zM532 1366l3 -2v-4h4v4z" />
<glyph unicode="&#xd9;" d="M37 782v9v8q3 140 24 438q3 107 7 111q-2 0 -2 10q18 9 38 9q13 0 25 -3l10 -37v-37q2 -4 2 -45l-4 -37q-13 -77 -16 -207q0 -80 -2 -96v-80q-2 -8 -2 -43v-98q1 -18 2 -41.5t1 -29.5q0 -9 -1 -11q12 -92 24 -143q6 -48 33 -125q19 -59 19 -60q22 -52 59 -98 q36 -36 51 -45l25 -8h12l12 -4q26 3 54 39l18 108l18 111q0 45 2 49v47q3 6 3 31q0 56 8 127l18 254q5 101 10 133l7 153q0 2 0.5 9t1.5 19.5t2 25.5v12l4 16v19v47l2 2q2 2 2 4q65 0 78 -8l4 -6v-8q2 0 2 -5v-20q0 -17 -2 -21v-24q-8 -63 -8 -78h-5l2 -2v-2q0 -8 -2 -10 v-15v-20v-23l-6 -108q-3 -103 -6 -139l-4 -72v-31v-10q0 -2 -2 -6q-2 0 -2 -4v-4q-2 -4 -2 -25q-2 -2 -2 -29q-2 -4 -2 -28q-2 -24 -2 -28q0 -9 2 -9l-10 -180l-9 -181q-6 -21 -12 -65q-2 -2 -2 -4q-2 -2 -2 -6v-11l-4 -18v-10q-4 -4 -4 -17q-8 -13 -8 -18q-8 -19 -21 -35 q-10 -17 -35 -31t-100 -14q-55 12 -72 29q-37 9 -84 65q-47 47 -47 69v3l-2 2l-4 8l-4 8l-2 4q-1 2 -6 15q-1 3 -4 9t-4 9q-9 15 -9 35q-5 8 -12 35q-5 15 -5 25q0 5 1 6q-13 22 -13 67q0 3 0.5 9.5t0.5 9.5q-9 36 -13 59l-6 39l-8 102q0 54 -6 109v43v12v6zM213 1582 q3 3 4 3v6q0 2 2 2t4 2q13 0 31 6q21 3 24 6v-4q0 3 3 6h12v4h10l8 -4v-6q0 -2 2 -2q0 -7 17 -31v-18q8 -13 8 -17v-2l31 -82l4 -6l12 -12q0 -4 2 -6t2 -4q-2 0 -6 -4q-2 -2 -2 -4l-37 -7q-2 2 -4.5 3.5t-3.5 2.5t-2 1l-2 2q0 4 -2 4h-4q0 6 -17 20l-22 33q0 4 -13 20 q-1 1 -2 3.5t-2 3.5l-4 4l-8 8q0 9 -25 37z" />
<glyph unicode="&#xda;" d="M37 782v9v8q3 140 24 438q3 107 7 111q-2 0 -2 10q18 9 38 9q13 0 25 -3l10 -37v-37q2 -4 2 -45l-4 -37q-13 -77 -16 -207q0 -80 -2 -96v-80q-2 -8 -2 -43v-98q1 -18 2 -41.5t1 -29.5q0 -9 -1 -11q12 -92 24 -143q6 -48 33 -125q19 -59 19 -60q22 -52 59 -98 q36 -36 51 -45l25 -8h12l12 -4q26 3 54 39l18 108l18 111q0 45 2 49v47q3 6 3 31q0 56 8 127l18 254q5 101 10 133l7 153q0 2 0.5 9t1.5 19.5t2 25.5v12l4 16v19v47l2 2q2 2 2 4q65 0 78 -8l4 -6v-8q2 0 2 -5v-20q0 -17 -2 -21v-24q-8 -63 -8 -78h-5l2 -2v-2q0 -8 -2 -10 v-15v-20v-23l-6 -108q-3 -103 -6 -139l-4 -72v-31v-10q0 -2 -2 -6q-2 0 -2 -4v-4q-2 -4 -2 -25q-2 -2 -2 -29q-2 -4 -2 -28q-2 -24 -2 -28q0 -9 2 -9l-10 -180l-9 -181q-6 -21 -12 -65q-2 -2 -2 -4q-2 -2 -2 -6v-11l-4 -18v-10q-4 -4 -4 -17q-8 -13 -8 -18q-8 -19 -21 -35 q-10 -17 -35 -31t-100 -14q-55 12 -72 29q-37 9 -84 65q-47 47 -47 69v3l-2 2l-4 8l-4 8l-2 4q-1 2 -6 15q-1 3 -4 9t-4 9q-9 15 -9 35q-5 8 -12 35q-5 15 -5 25q0 5 1 6q-13 22 -13 67q0 3 0.5 9.5t0.5 9.5q-9 36 -13 59l-6 39l-8 102q0 54 -6 109v43v12v6zM303 1417v10 q0 4 2 6q2 0 2 4q3 0 6 8q2 6 6 10q5 0 25 33q27 34 27 39q9 12 18 39q14 32 21 39v14l6 6l4 3v2q18 -3 22 -7q40 -3 66 -10l2 -4q-5 -5 -2 -10q-8 -8 -8 -14q-8 0 -21 -29q-32 -46 -37 -51q-2 0 -4 -2q0 -3 -4 -7q-9 -20 -35 -63q-16 -4 -18 -4q-11 -3 -33 -8l-20 -4 q-15 -5 -17 -5v-4h-2l-4 4z" />
<glyph unicode="&#xdb;" d="M37 782v9v8q3 140 24 438q3 107 7 111q-2 0 -2 10q18 9 38 9q13 0 25 -3l10 -37v-37q2 -4 2 -45l-4 -37q-13 -77 -16 -207q0 -80 -2 -96v-80q-2 -8 -2 -43v-98q1 -18 2 -41.5t1 -29.5q0 -9 -1 -11q12 -92 24 -143q6 -48 33 -125q19 -59 19 -60q22 -52 59 -98 q36 -36 51 -45l25 -8h12l12 -4q26 3 54 39l18 108l18 111q0 45 2 49v47q3 6 3 31q0 56 8 127l18 254q5 101 10 133l7 153q0 2 0.5 9t1.5 19.5t2 25.5v12l4 16v19v47l2 2q2 2 2 4q65 0 78 -8l4 -6v-8q2 0 2 -5v-20q0 -17 -2 -21v-24q-8 -63 -8 -78h-5l2 -2v-2q0 -8 -2 -10 v-15v-20v-23l-6 -108q-3 -103 -6 -139l-4 -72v-31v-10q0 -2 -2 -6q-2 0 -2 -4v-4q-2 -4 -2 -25q-2 -2 -2 -29q-2 -4 -2 -28q-2 -24 -2 -28q0 -9 2 -9l-10 -180l-9 -181q-6 -21 -12 -65q-2 -2 -2 -4q-2 -2 -2 -6v-11l-4 -18v-10q-4 -4 -4 -17q-8 -13 -8 -18q-8 -19 -21 -35 q-10 -17 -35 -31t-100 -14q-55 12 -72 29q-37 9 -84 65q-47 47 -47 69v3l-2 2l-4 8l-4 8l-2 4q-1 2 -6 15q-1 3 -4 9t-4 9q-9 15 -9 35q-5 8 -12 35q-5 15 -5 25q0 5 1 6q-13 22 -13 67q0 3 0.5 9.5t0.5 9.5q-9 36 -13 59l-6 39l-8 102q0 54 -6 109v43v12v6zM224 1408 q-3 17 4 27l2 2q0 6 4 8q0 5 4 13l35 61l43 84q8 8 10 14q4 3 6 11l5 4q22 0 28 -2h21q2 -2 8 -2l4 -15v-18l2 -2l4 -8l4 -9q2 -2 6 -14l41 -92q7 -6 17 -31h-4q-1 -1 -5 -2t-6 -2q-21 -9 -26 -14l-15 -6q-13 13 -38 73l-11 17h-2q0 2 -2 4l-4 4q-4 4 -6 4l-10 -10 q-3 -6 -8 -11q-14 -14 -46 -57q-4 -8 -6 -10q0 -4 -4 -4v-4l-2 -2q-22 -3 -26 -7q-7 0 -27 -4z" />
<glyph unicode="&#xdc;" d="M37 782v9v8q3 140 24 438q3 107 7 111q-2 0 -2 10q18 9 38 9q13 0 25 -3l10 -37v-37q2 -4 2 -45l-4 -37q-13 -77 -16 -207q0 -80 -2 -96v-80q-2 -8 -2 -43v-98q1 -18 2 -41.5t1 -29.5q0 -9 -1 -11q12 -92 24 -143q6 -48 33 -125q19 -59 19 -60q22 -52 59 -98 q36 -36 51 -45l25 -8h12l12 -4q26 3 54 39l18 108l18 111q0 45 2 49v47q3 6 3 31q0 56 8 127l18 254q5 101 10 133l7 153q0 2 0.5 9t1.5 19.5t2 25.5v12l4 16v19v47l2 2q2 2 2 4q65 0 78 -8l4 -6v-8q2 0 2 -5v-20q0 -17 -2 -21v-24q-8 -63 -8 -78h-5l2 -2v-2q0 -8 -2 -10 v-15v-20v-23l-6 -108q-3 -103 -6 -139l-4 -72v-31v-10q0 -2 -2 -6q-2 0 -2 -4v-4q-2 -4 -2 -25q-2 -2 -2 -29q-2 -4 -2 -28q-2 -24 -2 -28q0 -9 2 -9l-10 -180l-9 -181q-6 -21 -12 -65q-2 -2 -2 -4q-2 -2 -2 -6v-11l-4 -18v-10q-4 -4 -4 -17q-8 -13 -8 -18q-8 -19 -21 -35 q-10 -17 -35 -31t-100 -14q-55 12 -72 29q-37 9 -84 65q-47 47 -47 69v3l-2 2l-4 8l-4 8l-2 4q-1 2 -6 15q-1 3 -4 9t-4 9q-9 15 -9 35q-5 8 -12 35q-5 15 -5 25q0 5 1 6q-13 22 -13 67q0 3 0.5 9.5t0.5 9.5q-9 36 -13 59l-6 39l-8 102q0 54 -6 109v43v12v6zM206 1438v9 q6 25 19 45l10 11l8 8l6 4v4h33v-4h12q0 -4 2 -4q4 0 8 -4q3 0 5 -2v-2q6 0 8 -2l2 -5h2q0 -73 -8 -86h-2q-2 -2 -2 -8q-5 0 -7 -2v-2q-8 0 -10 -2v-4q-8 -4 -14 -6q-17 0 -19 -2l-34 14v2q-2 2 -7 2v2q-12 12 -12 34zM381 1451q0 12 1 17l17 33q2 2 8 2q7 11 20 11 q7 0 11 -1v-2h12q4 -4 22 -13q17 -10 19 -16q13 0 13 -29q0 -2 -0.5 -6t-0.5 -6q-2 -2 -6 -14q-4 -4 -6 -10q-2 0 -2 -2l-6 -11h-2q-6 -12 -33 -18l-25 8q-4 2 -22 8v2q-16 10 -19 27q-1 7 -1 20z" />
<glyph unicode="&#xdd;" horiz-adv-x="718" d="M31 6q0 35 18 53q23 61 47 113l4 8l6 13l3 6l170 395l2 4q4 4 4 12q0 4 4 8q0 9 4 13t14 31q7 17 8 18q-3 19 11 27l-31 51q-29 56 -29 57h-4l-31 57l-65 115l-21 33l-8 12l-4 8l-6 9l-59 131l-5 8q-17 34 -18 35l-10 26q0 7 -2 11q-2 6 -2 10q5 8 12 8h2q6 3 6 2 q56 0 58 -2q12 -4 22 -14q0 -9 14 -23l99 -192q50 -93 114 -232h7q9 21 51 88q40 61 78 133q3 0 30 52q12 20 19 34l22 41q14 25 19 37q40 64 53 72l8 -4v-2l37 -17v-4v-10q-12 -15 -18 -55h-5l-22 -54l-49 -108q-21 -53 -25 -53q0 -2 2 -4l-20 -41q-1 -1 -8 -19 q-7 -11 -7 -12l-4 -8q0 -4 -2 -6l-2 -5l-6 -12q-2 -2 -2 -10h-2q0 -3 -6 -6l-4 -17l-29 -53l-47 -94v-4q-217 -481 -233 -481q-5 -12 -33 -66q-5 -5 -10 -18q-11 -16 -17 -33q-4 -12 -20 -78h-9q-2 2 -61 2zM340 1243v10q0 5 2 7q2 0 2 4q3 0 6 8q2 6 6 10q5 0 25 33 q26 33 26 39q11 14 19 39q15 34 20 39v14l6 6l4 2v2q20 -3 23 -6q39 -2 65 -10l3 -4q-6 -6 -3 -11q-8 -8 -8 -14q-7 0 -20 -29q-32 -46 -37 -51q-2 0 -4 -2q0 -2 -4 -6q-9 -20 -35 -63q-3 -1 -7 -2t-6.5 -2t-4.5 -1q-11 -3 -33 -8l-21 -4q-12 -4 -16 -4v-4h-2l-4 4z" />
<glyph unicode="&#xde;" horiz-adv-x="604" d="M41 373v2v6l4 8v8v25q-2 2 -2 33q0 24 2 26l-4 2q2 2 4 2l-4 7h4v43q0 26 -2 30q-2 2 -2 43q0 25 2 27v51l8 33q0 68 2 76v69q2 6 2 47q0 4 -1.5 11t-1.5 9t1 3q-1 31 -1 79q0 61 5 79l-2 2q3 16 6 49v8v4l5 8v6v23q0 7 -1 23.5t-2 44t-2 53.5l5 41h10l2 -2v-2h6v2 q27 9 39 12v2q2 2 14 2q2 0 2 -2t2 -4q-5 -120 -5 -225q0 -66 3 -82q0 -2 2 -4t2 -7l25 9h16h11q4 0 6 2q0 2 4 2h4q12 0 14 -2q26 0 47 -8q18 -5 30 -5t17 2v-4q31 0 39 -14q27 -10 31 -14v-2q4 0 10 -6l9 -5q9 -12 28 -20q24 -9 31 -23h2v-6l29 -20q4 -4 4 -6t2 -2l2 -4 l2 -3h2v-2h4q4 -4 4 -8l6 -8q6 0 15 -18l10 -21l12 -47q0 -68 2 -74q-11 -75 -22 -112h-2q0 -9 -2 -11l-3 -4h-4q-37 -63 -41 -67q0 -11 -18 -17q0 -11 -39 -34v-3q-3 0 -16 -8q-18 -7 -37 -18q-2 0 -6 -4t-6 -4l-13 -6l-4 -3q-41 -6 -59 -12q-49 -4 -92 -4q-39 0 -54 4h-16 q2 -24 2 -29q0 -10 -2 -16q0 -2 0.5 -9l1.5 -21t2 -29v-15q1 -3 2 -13t2 -15v-35l12 -123l15 -86q0 -66 8 -66q-2 -2 -2 -4l4 -34v-13l4 -14q2 -2 2 -14h-10q-2 -2 -14 -2q-9 0 -11 2l-28 -9h-17h-4q-1 -1 -3 -2t-3 -2h-4q-14 0 -14 101q-4 22 -7 73l-8 74v76h-4l-4 94v2 q0 27 -2 29v18z" />
<glyph unicode="&#xdf;" horiz-adv-x="536" d="M43 301v12q1 3 2 11t2 12v24q0 4 4 54v88l-6 92q0 45 2 49q0 55 2 57q2 24 2 45q0 14 -2 62q-2 10 -2 94h4q-3 18 -3 41q0 45 11 117q11 16 11 27v6q0 21 8 45l14 37h4l6 18h2q5 5 5 12l4 8l2 5h4v10l4 2l8 8q21 35 31 35q0 4 4 4v2l22 16q6 0 21 9q12 9 27 12l28 8 q4 1 10 1q10 0 13 -3q3 5 13 5q6 0 9 -1q30 -3 33 -6q16 0 29 -8q21 -6 26 -6l6 -7l5 -2l12 -12l29 -20v-11h4q0 -2 2 -4h2v-4q-2 0 -2 -2h4l6 -20v-11l2 -4q2 0 4 -2v-2q0 -4 2 -4v-8v-12q5 -17 8 -39v-6l4 -5q9 -63 9 -108v-27q-5 -14 -7 -30q-3 -23 -6 -31v-8l-2 -4 l-2 -4v-3v-6v-12l-4 -8v-6q-8 -12 -31 -68q0 -3 -30 -65l6 -17q7 -4 10 -14q7 -14 10 -17q0 -24 15 -59q12 -28 18 -53q0 -6 2 -8v-13q0 -6 2 -10q2 -6 2 -10l8 -33l7 -31q0 -9 -3 -12v-18q-2 -2 -2 -23h-4q-2 -4 -2 -49q-10 -3 -10 -86h-6l-10 -51l-6 -8q-9 -9 -9 -13 q-3 -3 -3 -6t1 -4q-13 -13 -22 -47h-4q-3 -17 -11 -21l-18 -24q0 -2 -4 -6t-4 -6q-6 -6 -6 -9q-12 -4 -37 -36l-6 -5l-9 -8q-2 -2 -4 -2v-4h-6l-2 -8h-4q-13 -13 -37 -25q-21 -8 -35 -8h-6q-8 36 -8 43v17q0 6 -2 8t-2 6v8v45l6 2q0 12 21 15q2 2 22 14v4l2 2q7 7 9 7l1 -1 q4 4 4 8q5 5 5 6h4q4 15 10 21l16 35q5 0 11 12q3 13 12 16q2 2 2 11q3 0 12 26v17q0 2 2 2q3 8 6 28l2 7v8q1 4 2 9l1.5 7.5t0.5 3.5l2 12t2 9.5t1 5.5v6l4 8v8v27v18v9l4 16v14v56q0 2 2 2q-2 2 -2 16v6l-4 8q-2 2 -2 9l-7 14l-8 12h-2q-4 12 -22 35q-18 18 -35 25l-47 -2 l-8 4v18l-4 19q3 7 10 10q8 8 14 10t12 8l33 15q3 14 29 20l8 8q32 61 35 70q4 0 4 14h4q0 8 10 53q5 37 5 50q0 6 -1 8q0 4 -0.5 14.5t-1.5 30.5t-2 37v22q2 2 2 29v2q0 4 -2 6v8q-2 2 -2 8q-3 14 -10 21q-6 25 -64 43q-56 0 -98 -31l-33 -51l-6 -18l-8 -25l-2 -4 q-2 -2 -2 -6l-4 -8l-4 -23v-18v-11l-4 -8q-2 -12 -5 -26.5t-5 -23.5t-3 -15l-4 -29q0 -1 -0.5 -5l-1.5 -12l-2 -16v-33v-8q-2 -2 -2 -6q0 -2 -2 -6v-4v-8q0 -28 8 -64q0 -41 2 -45q1 -1 1 -6q0 -3 -1 -20t-2 -31q0 -140 2 -146q1 -16 2 -36t1 -25q0 -7 -1 -8q-1 -15 -1 -40 q0 -22 1 -30q0 -20 11 -207q-2 -14 -2 -166q0 -8 2 -10q-1 -1 -23 -12q-20 -10 -27 -17l-18 -6l-16 -8l-9 4l-8 51q0 58 -2 64q-1 18 -1 43q0 17 1 20q0 7 -2 9q0 85 -6 100q5 5 5 12q0 5 -1 8q-3 21 -6 27z" />
<glyph unicode="&#xe0;" horiz-adv-x="661" d="M33 911q2 2 2 31v19q0 8 -2 10q0 4 4 8h4h12h78h2h6q119 -11 133 -14l7 -2h8q52 -3 110 -29q53 -24 86 -57l6 -7l19 -18q8 -13 24 -29q19 -25 21 -32q7 0 16 -21q14 -32 27 -111q14 -60 14 -227q-7 -49 -10 -153q0 -15 -2 -25v-39q-1 -2 -1.5 -5t-1 -8t-1.5 -9v-27 q-2 -14 -2 -37l-12 -70l4 -51h-35q-5 -1 -15.5 -2t-13.5 -2h-16q-34 0 -47 -4h-13l-104 8l-84 6q-86 24 -92 37l-4 2h-4l-9 4l-4 2v4q-13 5 -32 21l-19 14q-6 13 -14 13q-29 63 -37 110q-2 20 -2 31q0 27 6 57q9 26 29 60q14 21 32 39q18 12 21 12l10 6q44 20 80 25h16 q3 1 7.5 1.5t11.5 1t12 1.5h39h45l23 2l53 -8q3 -3 6 -3q2 -2 8 -2l13 -4l4 -2h12q0 33 2 35v2v8v13q0 16 -2 20v23l-8 88q-4 28 -4 47q-4 18 -4 31v22q-4 18 -5 21q-29 68 -135 106q-101 37 -190 37l-4 -2h-11h-12h-16q-2 -1 -5 -1.5t-4.5 -1t-2.5 -1.5h-7q-22 0 -24 2 q0 22 -2 24zM177 1194q2 2 4 2v6q0 2 2 2t4 2q13 0 31 6q20 3 24 7v-5q0 5 2 7h13v4h10l8 -4v-7q0 -2 2 -2q0 -8 16 -30v-19q9 -14 9 -17v-1l30 -82l4 -6l13 -13q0 -4 2 -6t2 -4q-2 0 -6 -4q-2 -2 -2 -4l-37 -6q-9 6 -11 6l-2 2q0 4 -2 4h-4q0 8 -16 21l-23 32q0 6 -12 21 q-1 1 -2 3t-2 3l-4 4l-8 8q0 9 -25 37z" />
<glyph unicode="&#xe1;" horiz-adv-x="665" d="M53 932q0 14 4 18q0 7 6 13q1 0 2 1t2 1h1q4 -1 15 -1q23 0 26 3q1 1 4 1q5 0 8 -1q13 1 38 1q61 0 113 -16l2 2v-2q114 -16 164 -47q49 -30 103 -108q17 0 51 -135q0 -13 2 -15q0 -10 2 -12q0 -28 6 -148q0 -117 -20 -354q-13 -57 -13 -108q-2 2 -6 2q-11 -7 -22 -7 q-2 -2 -11 -2q-2 -2 -10 -2h-151l-29 4h-10l-35 5q-16 4 -25 4l-32 8q-5 0 -23 6q-9 3 -12 6l-10 4l-23 13q-12 6 -14 8q-10 3 -17 8q-6 2 -16 12l-4 4l-4 2l-4 4v2h-5q-14 14 -22 33q-14 25 -14 37q-5 12 -5 14t1 3q0 2 -3 2q-6 27 -6 51q0 23 5 50t10 32l18 32q9 9 21 25 l10 10l6 6l4 2q3 4 7 7.5t5 3.5q5 0 7 2t4 2l6 6q42 9 53 16q59 0 88 2h64q16 2 28 2q10 -3 29 -6h8q1 -1 4 -2t4 -2h2v-2q7 0 9 -2q6 0 8 -2q17 -13 24 -13q1 0 1 0.5t1 0.5q0 8 6 8q0 20 -2 22t-2 17q0 30 -1 78.5t-1 68.5q0 19 -6 31q0 3 0.5 8.5t0.5 8.5q0 47 -13 90 q-11 35 -33 57l-2 2q-65 59 -194 88q-49 12 -85 12q-15 0 -36.5 -3t-28.5 -3q-2 2 -16 2h-15q-2 2 -2 29zM254 1028v10q0 4 2 6q3 0 3 5q3 0 6 8q2 6 6 10q4 0 24 33q27 34 27 39q9 12 18 39q14 32 21 39v14l6 6l4 2v2q20 -3 23 -6q39 -3 65 -10l2 -4q-5 -5 -2 -11 q-8 -8 -8 -14q-7 0 -20 -29q-32 -46 -37 -51q-2 0 -4 -2q0 -1 -5 -6q-13 -30 -34 -64q-16 -4 -19 -4q-11 -4 -33 -8l-20 -4q-12 -4 -16 -4v-4h-2l-5 4z" />
<glyph unicode="&#xe2;" horiz-adv-x="661" d="M33 911q2 2 2 31v19q0 8 -2 10q0 4 4 8h4h12h78h2h6q119 -11 133 -14l7 -2h8q52 -3 110 -29q53 -24 86 -57l6 -7l19 -18q8 -13 24 -29q19 -25 21 -32q7 0 16 -21q14 -32 27 -111q14 -60 14 -227q-7 -49 -10 -153q0 -15 -2 -25v-39q-1 -2 -1.5 -5t-1 -8t-1.5 -9v-27 q-2 -14 -2 -37l-12 -70l4 -51h-35q-5 -1 -15.5 -2t-13.5 -2h-16q-34 0 -47 -4h-13l-104 8l-84 6q-86 24 -92 37l-4 2h-4l-9 4l-4 2v4q-13 5 -32 21l-19 14q-6 13 -14 13q-29 63 -37 110q-2 20 -2 31q0 27 6 57q9 26 29 60q14 21 32 39q18 12 21 12l10 6q44 20 80 25h16 q3 1 7.5 1.5t11.5 1t12 1.5h39h45l23 2l53 -8q3 -3 6 -3q2 -2 8 -2l13 -4l4 -2h12q0 33 2 35v2v8v13q0 16 -2 20v23l-8 88q-4 28 -4 47q-4 18 -4 31v22q-4 18 -5 21q-29 68 -135 106q-101 37 -190 37l-4 -2h-11h-12h-16q-2 -1 -5 -1.5t-4.5 -1t-2.5 -1.5h-7q-22 0 -24 2 q0 22 -2 24zM158 1020q-3 17 4 27l2 2q0 6 4 8q0 4 4 12l35 61l43 84q9 9 11 15q4 4 6 10l4 4q22 0 28 -2h21q2 -2 8 -2l4 -14v-19l2 -2l4 -8l4 -8q4 -4 7 -14l41 -93q6 -5 16 -30h-4q-1 -1 -4.5 -2t-5.5 -2q-21 -9 -27 -15l-14 -6q-14 14 -39 74l-10 16h-3q0 2 -2 4l-4 4 q-4 4 -6 4l-10 -10q-2 -4 -8 -10q-11 -10 -45 -57q-5 -10 -6 -11q0 -4 -5 -4v-4l-2 -2q-23 -3 -26 -6q-7 0 -27 -4z" />
<glyph unicode="&#xe3;" horiz-adv-x="661" d="M33 911q2 2 2 31v19q0 8 -2 10q0 4 4 8h4h12h78h2h6q119 -11 133 -14l7 -2h8q52 -3 110 -29q53 -24 86 -57l6 -7l19 -18q8 -13 24 -29q19 -25 21 -32q7 0 16 -21q14 -32 27 -111q14 -60 14 -227q-7 -49 -10 -153q0 -15 -2 -25v-39q-1 -2 -1.5 -5t-1 -8t-1.5 -9v-27 q-2 -14 -2 -37l-12 -70l4 -51h-35q-5 -1 -15.5 -2t-13.5 -2h-16q-34 0 -47 -4h-13l-104 8l-84 6q-86 24 -92 37l-4 2h-4l-9 4l-4 2v4q-13 5 -32 21l-19 14q-6 13 -14 13q-29 63 -37 110q-2 20 -2 31q0 27 6 57q9 26 29 60q14 21 32 39q18 12 21 12l10 6q44 20 80 25h16 q3 1 7.5 1.5t11.5 1t12 1.5h39h45l23 2l53 -8q3 -3 6 -3q2 -2 8 -2l13 -4l4 -2h12q0 33 2 35v2v8v13q0 16 -2 20v23l-8 88q-4 28 -4 47q-4 18 -4 31v22q-4 18 -5 21q-29 68 -135 106q-101 37 -190 37l-4 -2h-11h-12h-16q-2 -1 -5 -1.5t-4.5 -1t-2.5 -1.5h-7q-22 0 -24 2 q0 22 -2 24zM113 1030q19 85 34 90q4 8 11 15q32 40 85 40q15 0 23 -1h25l41 -17l10 -6q4 -2 10 -8q6 -1 37 -25q21 -19 41 -22q21 2 30 11t13 30l2 4q12 18 14 20q13 0 39 -20q-4 -31 -16 -54l-2 -2l-4 -4l-4 -8q-7 -7 -10 -16q-17 -17 -43 -31h-33q-18 8 -31 12l-35 21 l-4 2l-6 8q-8 8 -10 12l-33 19q-24 4 -51 4q-26 0 -39 -4l-2 -2q-6 0 -8 -2l-15 -21l-14 -45q0 -2 -2 -2v-4q-4 -4 -6 -4l-8 4q-15 0 -17 2l-12 4h-10z" />
<glyph unicode="&#xe4;" horiz-adv-x="661" d="M33 911q2 2 2 31v19q0 8 -2 10q0 4 4 8h4h12h78h2h6q119 -11 133 -14l7 -2h8q52 -3 110 -29q53 -24 86 -57l6 -7l19 -18q8 -13 24 -29q19 -25 21 -32q7 0 16 -21q14 -32 27 -111q14 -60 14 -227q-7 -49 -10 -153q0 -15 -2 -25v-39q-1 -2 -1.5 -5t-1 -8t-1.5 -9v-27 q-2 -14 -2 -37l-12 -70l4 -51h-35q-5 -1 -15.5 -2t-13.5 -2h-16q-34 0 -47 -4h-13l-104 8l-84 6q-86 24 -92 37l-4 2h-4l-9 4l-4 2v4q-13 5 -32 21l-19 14q-6 13 -14 13q-29 63 -37 110q-2 20 -2 31q0 27 6 57q9 26 29 60q14 21 32 39q18 12 21 12l10 6q44 20 80 25h16 q3 1 7.5 1.5t11.5 1t12 1.5h39h45l23 2l53 -8q3 -3 6 -3q2 -2 8 -2l13 -4l4 -2h12q0 33 2 35v2v8v13q0 16 -2 20v23l-8 88q-4 28 -4 47q-4 18 -4 31v22q-4 18 -5 21q-29 68 -135 106q-101 37 -190 37l-4 -2h-11h-12h-16q-2 -1 -5 -1.5t-4.5 -1t-2.5 -1.5h-7q-22 0 -24 2 q0 22 -2 24zM149 1075q0 1 0.5 4t0.5 4q6 27 18 45l11 11l8 8l6 4v4h33v-4h12q0 -4 2 -4q4 0 8 -4q2 0 4 -2v-2q6 0 8 -2l3 -4h2q0 -71 -9 -86h-2q-2 -2 -2 -9q-4 0 -6 -2v-2q-8 0 -10 -2v-4q-8 -4 -14 -6q-17 0 -19 -2l-35 14v2q-2 2 -6 2v2q-13 13 -13 35zM324 1087 q0 7 2 17l16 33q2 2 9 2q7 11 20 11q6 0 10 -1v-2h13q2 -2 22 -12q17 -10 19 -17q12 0 12 -28v-13q-2 -2 -6 -14q-4 -4 -6 -10q-2 0 -2 -2l-7 -11h-2q-6 -12 -32 -18l-25 8q-2 1 -23 8v2q-15 9 -18 27q-2 14 -2 20z" />
<glyph unicode="&#xe5;" horiz-adv-x="661" d="M33 911q2 2 2 31v19q0 8 -2 10q0 4 4 8h4h12h78h2h6q119 -11 133 -14l7 -2h8q52 -3 110 -29q53 -24 86 -57l6 -7l19 -18q8 -13 24 -29q19 -25 21 -32q7 0 16 -21q14 -32 27 -111q14 -60 14 -227q-7 -49 -10 -153q0 -15 -2 -25v-39q-1 -2 -1.5 -5t-1 -8t-1.5 -9v-27 q-2 -14 -2 -37l-12 -70l4 -51h-35q-5 -1 -15.5 -2t-13.5 -2h-16q-34 0 -47 -4h-13l-104 8l-84 6q-86 24 -92 37l-4 2h-4l-9 4l-4 2v4q-13 5 -32 21l-19 14q-6 13 -14 13q-29 63 -37 110q-2 20 -2 31q0 27 6 57q9 26 29 60q14 21 32 39q18 12 21 12l10 6q44 20 80 25h16 q3 1 7.5 1.5t11.5 1t12 1.5h39h45l23 2l53 -8q3 -3 6 -3q2 -2 8 -2l13 -4l4 -2h12q0 33 2 35v2v8v13q0 16 -2 20v23l-8 88q-4 28 -4 47q-4 18 -4 31v22q-4 18 -5 21q-29 68 -135 106q-101 37 -190 37l-4 -2h-11h-12h-16q-2 -1 -5 -1.5t-4.5 -1t-2.5 -1.5h-7q-22 0 -24 2 q0 22 -2 24zM150 1192q0 4 4 8l3 4q2 2 2 8l6 13q2 2 4 2q6 34 51 51v2q42 26 70 33q7 3 20 6h4q1 1 3 2t3 2h9q23 -6 38 -18l7 -7l4 -4q2 0 2 -2l4 -2q12 -3 16 -14l8 -4l-2 -2q0 -1 7 -8l8 -15q3 -6 2 -6q11 -27 20 -94q0 -1 -1 -6l-3.5 -17.5t-5.5 -25.5q-13 -25 -29 -35 q0 -5 -41 -35q-8 -8 -61 -20h-37l-12 4l-17 4v2q-3 0 -32 16v2h-4l-5 4l-4 4l-2 3q-2 2 -2 4q-10 10 -10 16q-25 31 -25 59q-2 2 -2 66zM263 1290q2 0 2 2l4 2h-4q-2 -2 -2 -4z" />
<glyph unicode="&#xe6;" horiz-adv-x="1007" d="M33 911q2 2 2 31v19q0 8 -2 10q0 4 4 8h4h12h78h2h6q119 -11 133 -14l7 -2h8q52 -3 110 -29q53 -24 86 -57l6 -7l19 -18q8 -13 24 -29q19 -25 21 -32q5 0 8 -5q14 32 44 46q14 14 20 18q11 11 23 15q0 6 26 18q21 15 35 15v4q41 12 49 12q2 -2 23 -2l33 -4q13 -3 16 -13 q14 0 29 -12q16 -9 28 -28l23 -23l14 -31l12 -26q9 -9 9 -27l4 -16q2 -2 2 -11l4 -32q2 -2 2 -35l4 -45v-21v-10v-6l4 -4v-12q-2 -2 -2 -7q-2 -6 -14 -10q-18 -4 -23 -6q-20 0 -55 -6h-27h-24l-11 2q-54 9 -201 12q2 -38 2 -60l1 -1q2 -2 2 -6v-13l2 -4q2 -2 2 -12 q1 -3 1 -6q0 -2 -1 -2q3 -5 6 -29v-8q2 -4 2 -5t-2 -3q8 -34 14 -70q9 -71 48 -154q3 0 6 -10l8 -24q3 -12 27 -27q21 -12 63 -12l16 4q27 6 29 8q18 6 33 33q11 19 26 69l-4 76q2 2 2 21v28l7 21h51l4 -17v-16v-4l-4 -8v-10v-27v-62v-12l-4 -16v-17q-2 -24 -7 -47 q-3 -20 -10 -39h-2l-24 -32q-7 -11 -21 -19l-14 -10h-4l-4 -4q-2 -2 -9 -2q-13 -3 -20 -6h-57q-12 4 -17 4q-8 4 -12 4h-10l-6 2l-13 2q-30 9 -51 33q-23 23 -35 39q-10 16 -14 16l-2 10l-10 21l-2 4v4q-5 5 -5 8q0 4 -2 6l-1 2q-1 -13 -1 -33l-12 -70l4 -51h-35 q-5 -1 -15.5 -2t-13.5 -2h-16q-34 0 -47 -4h-13l-104 8l-84 6q-86 24 -92 37l-4 2h-4l-9 4l-4 2v4q-13 5 -32 21l-19 14q-6 13 -14 13q-29 63 -37 110q-2 20 -2 31q0 27 6 57q9 26 29 60q14 21 32 39q18 12 21 12l10 6q44 20 80 25h16q3 1 7.5 1.5t11.5 1t12 1.5h39h45l23 2 l53 -8q3 -3 6 -3q2 -2 8 -2l13 -4l4 -2h12q0 33 2 35v2v8v13q0 16 -2 20v23l-8 88q-4 28 -4 47q-4 18 -4 31v22q-4 18 -5 21q-29 68 -135 106q-101 37 -190 37l-4 -2h-11h-12h-16q-2 -1 -5 -1.5t-4.5 -1t-2.5 -1.5h-7q-22 0 -24 2q0 22 -2 24z" />
<glyph unicode="&#xe7;" horiz-adv-x="475" d="M37 451v12v6q1 1 2 4.5t2 5.5v10v37l4 35l4 29q3 21 12 45q5 5 5 14q2 2 2 4q2 2 2 6l2 5l4 8q10 28 43 73q39 55 57 70q23 29 31 29v2q2 2 14 6v4l72 47l16 8q11 7 15 7l88 8q17 -7 18 -8q2 -2 2 -17q-3 -3 -3 -11q0 -5 1 -9q1 -3 1 -9q0 -7 -5 -12q0 -6 -20 -12 q-22 -8 -48 -12l-24 -7v-2q-3 -3 -19 -8q-8 -2 -20 -8q-9 -3 -21 -12l-12 -8l-2 -3q-2 -2 -4 -2l-4 -4l-6 -6v-2q-7 0 -25 -12q-11 -14 -16 -14l-4 -5q-2 -2 -8 -14l-11 -18q-9 -13 -28 -56h-2q-9 -21 -9 -34q-5 0 -26 -136v-100q0 -39 8 -80l10 -22q9 -16 12 -29l9 -21 q3 -13 6 -16l2 -4l4 -4q3 -6 12 -12l15 -17q22 -22 63 -37l115 -43q12 0 14 2q8 0 10 2l9 5q6 2 10 6v4h10l6 -99q-16 -3 -31 -12l-53 -8q-18 0 -26 1q1 -1 5 -7q34 -24 53 -51q30 -15 39 -82l-2 -43q-6 -12 -12 -22l-4 -4q-2 -2 -4 -2l-4 -4q-2 0 -2 -2l-5 -3q-6 -3 -6 -6 h-4v-4q-6 0 -33 -12l-86 16q-6 15 -10 19v43l49 -8q28 9 41 28q0 2 0.5 6t0.5 6q0 31 -17 48l-4 4l-2 4l-4 4l-6 6l-5 4q-1 1 -2 3t-2 3q-12 12 -14 19h-4v4q-14 14 -21.5 24t-14 16.5t-25.5 20.5l-12 10q-14 8 -25 12v4q-41 30 -41 37q-6 0 -12 14l-10 13q-34 60 -43 102 q-8 42 -17 55v7l-4 12v12v21q-1 2 -2 6.5t-2 5.5v6q-1 14 -2 26.5t-1.5 18t-0.5 6.5l-4 31q-1 6 -2 11.5t-1.5 8t-0.5 3.5z" />
<glyph unicode="&#xe8;" horiz-adv-x="520" d="M37 487v13v22v23v10l4 8v8v19v57q6 69 25 119q14 44 49 59q17 17 20 19q9 10 23 14q0 7 26 19q20 14 35 14v4q41 12 49 12q2 -2 23 -2l33 -4q13 -3 16 -12q14 0 29 -12q14 -9 28 -29l23 -23l14 -30l12 -27q9 -9 9 -27l4 -16q2 -2 2 -10l4 -33q2 -2 2 -35l4 -45v-20v-11 v-6l4 -4v-12q-2 -2 -2 -6q-2 -7 -14 -11q-18 -4 -23 -6q-20 0 -55 -6h-27h-24l-11 2q-63 10 -204 13v-27v-10v-6q1 0 2 -2q1 -1 1 -1.5t1 -1.5v-8q0 -4 2 -6t2 -6v-12l2 -4q2 -2 2 -13l2 -6q0 -2 -2 -2q3 -5 6 -29v-8q2 -4 2 -5t-2 -3q8 -34 14 -70q8 -69 48 -153q3 0 6 -10 l8 -25q3 -12 27 -27q21 -12 63 -12l16 4q27 6 29 8q18 6 33 33q10 18 26 70l-4 76q2 2 2 20v29q1 5 4 12t3 8h51l4 -16v-17v-4l-4 -8v-10v-27v-61v-12l-4 -17v-16q-3 -34 -6 -47q-2 -17 -11 -39h-2l-24 -33q-6 -9 -21 -18l-14 -11h-4l-4 -4q-2 -2 -9 -2q-13 -3 -20 -6h-57 q-12 4 -17 4q-8 4 -12 4h-10l-6 2l-13 2q-30 9 -51 33q-23 23 -35 39q-10 16 -14 16l-2 11l-10 20l-2 4v4q-5 5 -5 8q0 5 -2 7t-2 6l-12 28q-2 5 -6 23q-6 11 -10 33q-2 12 -8 24v6l-3 5q-2 6 -22 96v12v64v20v8zM123 1139q2 2 4 2v6q0 2 2 2t4 2q13 0 31 6q21 3 24 6v-4 q0 4 2 6h13v4h10l8 -4v-6q0 -2 2 -2q0 -7 17 -31v-18q8 -13 8 -17v-1l31 -82l4 -7l12 -12q0 -4 2 -6t2 -4q-2 0 -6 -4q-2 -2 -2 -4l-37 -6q-9 6 -10 6l-2 2q0 4 -2 4h-4q0 6 -17 20l-22 33q0 5 -13 21q-1 1 -2 3t-2 3l-4 4l-8 8q0 9 -25 37z" />
<glyph unicode="&#xe9;" horiz-adv-x="520" d="M37 487v13v22v23v10l4 8v8v19v57q6 69 25 119q14 44 49 59q17 17 20 19q9 10 23 14q0 7 26 19q20 14 35 14v4q41 12 49 12q2 -2 23 -2l33 -4q13 -3 16 -12q14 0 29 -12q14 -9 28 -29l23 -23l14 -30l12 -27q9 -9 9 -27l4 -16q2 -2 2 -10l4 -33q2 -2 2 -35l4 -45v-20v-11 v-6l4 -4v-12q-2 -2 -2 -6q-2 -7 -14 -11q-18 -4 -23 -6q-20 0 -55 -6h-27h-24l-11 2q-63 10 -204 13v-27v-10v-6q1 0 2 -2q1 -1 1 -1.5t1 -1.5v-8q0 -4 2 -6t2 -6v-12l2 -4q2 -2 2 -13l2 -6q0 -2 -2 -2q3 -5 6 -29v-8q2 -4 2 -5t-2 -3q8 -34 14 -70q8 -69 48 -153q3 0 6 -10 l8 -25q3 -12 27 -27q21 -12 63 -12l16 4q27 6 29 8q18 6 33 33q10 18 26 70l-4 76q2 2 2 20v29q1 5 4 12t3 8h51l4 -16v-17v-4l-4 -8v-10v-27v-61v-12l-4 -17v-16q-3 -34 -6 -47q-2 -17 -11 -39h-2l-24 -33q-6 -9 -21 -18l-14 -11h-4l-4 -4q-2 -2 -9 -2q-13 -3 -20 -6h-57 q-12 4 -17 4q-8 4 -12 4h-10l-6 2l-13 2q-30 9 -51 33q-23 23 -35 39q-10 16 -14 16l-2 11l-10 20l-2 4v4q-5 5 -5 8q0 5 -2 7t-2 6l-12 28q-2 5 -6 23q-6 11 -10 33q-2 12 -8 24v6l-3 5q-2 6 -22 96v12v64v20v8zM225 973v10q0 4 2 6q2 0 2 4q3 0 6 8q2 6 7 11q5 0 24 32 q27 34 27 39q9 12 18 39q14 32 21 39v15l6 6l4 2v2q20 -3 23 -6q34 -2 65 -11l2 -4q-5 -5 -2 -10q-8 -8 -8 -14q-8 0 -21 -29q-35 -50 -36 -51q-3 0 -5 -2q0 -2 -4 -6q-13 -30 -34 -64q-16 -4 -19 -4q-10 -3 -33 -8l-20 -4q-12 -4 -17 -4v-4h-2l-4 4z" />
<glyph unicode="&#xea;" horiz-adv-x="520" d="M37 487v13v22v23v10l4 8v8v19v57q6 69 25 119q14 44 49 59q17 17 20 19q9 10 23 14q0 7 26 19q20 14 35 14v4q41 12 49 12q2 -2 23 -2l33 -4q13 -3 16 -12q14 0 29 -12q14 -9 28 -29l23 -23l14 -30l12 -27q9 -9 9 -27l4 -16q2 -2 2 -10l4 -33q2 -2 2 -35l4 -45v-20v-11 v-6l4 -4v-12q-2 -2 -2 -6q-2 -7 -14 -11q-18 -4 -23 -6q-20 0 -55 -6h-27h-24l-11 2q-63 10 -204 13v-27v-10v-6q1 0 2 -2q1 -1 1 -1.5t1 -1.5v-8q0 -4 2 -6t2 -6v-12l2 -4q2 -2 2 -13l2 -6q0 -2 -2 -2q3 -5 6 -29v-8q2 -4 2 -5t-2 -3q8 -34 14 -70q8 -69 48 -153q3 0 6 -10 l8 -25q3 -12 27 -27q21 -12 63 -12l16 4q27 6 29 8q18 6 33 33q10 18 26 70l-4 76q2 2 2 20v29q1 5 4 12t3 8h51l4 -16v-17v-4l-4 -8v-10v-27v-61v-12l-4 -17v-16q-3 -34 -6 -47q-2 -17 -11 -39h-2l-24 -33q-6 -9 -21 -18l-14 -11h-4l-4 -4q-2 -2 -9 -2q-13 -3 -20 -6h-57 q-12 4 -17 4q-8 4 -12 4h-10l-6 2l-13 2q-30 9 -51 33q-23 23 -35 39q-10 16 -14 16l-2 11l-10 20l-2 4v4q-5 5 -5 8q0 5 -2 7t-2 6l-12 28q-2 5 -6 23q-6 11 -10 33q-2 12 -8 24v6l-3 5q-2 6 -22 96v12v64v20v8zM154 948q-3 17 4 27l3 2q0 6 4 8q0 4 4 12l35 62l43 84 q8 8 10 14q4 4 6 10l4 4q23 0 29 -2h20q2 -2 8 -2l4 -14v-18l2 -2l5 -9l4 -8q2 -2 6 -14l41 -92q5 -5 16 -31h-4q-1 -1 -4.5 -2t-5.5 -2q-23 -10 -27 -14l-14 -7q-14 14 -39 74l-10 16h-2q0 3 -2 5l-4 4q-4 4 -7 4l-10 -10q-3 -6 -8 -11q-11 -10 -45 -57q-4 -8 -6 -10 q0 -4 -4 -4v-4l-2 -3q-24 -4 -27 -6q-7 0 -27 -4z" />
<glyph unicode="&#xeb;" horiz-adv-x="520" d="M37 487v13v22v23v10l4 8v8v19v57q6 69 25 119q14 44 49 59q17 17 20 19q9 10 23 14q0 7 26 19q20 14 35 14v4q41 12 49 12q2 -2 23 -2l33 -4q13 -3 16 -12q14 0 29 -12q14 -9 28 -29l23 -23l14 -30l12 -27q9 -9 9 -27l4 -16q2 -2 2 -10l4 -33q2 -2 2 -35l4 -45v-20v-11 v-6l4 -4v-12q-2 -2 -2 -6q-2 -7 -14 -11q-18 -4 -23 -6q-20 0 -55 -6h-27h-24l-11 2q-63 10 -204 13v-27v-10v-6q1 0 2 -2q1 -1 1 -1.5t1 -1.5v-8q0 -4 2 -6t2 -6v-12l2 -4q2 -2 2 -13l2 -6q0 -2 -2 -2q3 -5 6 -29v-8q2 -4 2 -5t-2 -3q8 -34 14 -70q8 -69 48 -153q3 0 6 -10 l8 -25q3 -12 27 -27q21 -12 63 -12l16 4q27 6 29 8q18 6 33 33q10 18 26 70l-4 76q2 2 2 20v29q1 5 4 12t3 8h51l4 -16v-17v-4l-4 -8v-10v-27v-61v-12l-4 -17v-16q-3 -34 -6 -47q-2 -17 -11 -39h-2l-24 -33q-6 -9 -21 -18l-14 -11h-4l-4 -4q-2 -2 -9 -2q-13 -3 -20 -6h-57 q-12 4 -17 4q-8 4 -12 4h-10l-6 2l-13 2q-30 9 -51 33q-23 23 -35 39q-10 16 -14 16l-2 11l-10 20l-2 4v4q-5 5 -5 8q0 5 -2 7t-2 6l-12 28q-2 5 -6 23q-6 11 -10 33q-2 12 -8 24v6l-3 5q-2 6 -22 96v12v64v20v8zM116 1019v9q6 27 18 45l11 10l8 9l6 4v4h33v-4h12q0 -4 2 -4 q3 0 8 -5q2 0 4 -2v-2q7 0 9 -2l2 -4h2q0 -73 -8 -86h-2q-3 -3 -3 -8q-4 0 -6 -2v-2q-8 0 -10 -2v-4q-8 -4 -14 -6q-17 0 -19 -2l-35 14v2q-2 2 -6 2v2q-12 12 -12 34zM291 1032q0 12 1 17l17 32q2 2 8 2q7 12 20 12q6 0 10 -1v-2h13q4 -4 22 -13q17 -10 19 -16q13 0 13 -29 q0 -2 -0.5 -6t-0.5 -6q-2 -2 -6 -14q-3 -4 -6 -11q-2 0 -2 -2l-6 -10h-3q-6 -12 -32 -18l-25 8q-4 2 -22 8v2q-16 10 -19 27q-1 7 -1 20z" />
<glyph unicode="&#xec;" horiz-adv-x="174" d="M-78 1069q2 2 4 2v6q0 2 2 2t4 2q13 0 31 6q21 3 25 7v-4q0 4 2 6h12v4h10l8 -4v-6q0 -3 3 -3q0 -8 16 -30v-19q9 -14 9 -17l-1 -1l31 -82l4 -6l12 -12q0 -5 2 -7t2 -4q-2 0 -6 -4q-2 -2 -2 -4l-37 -6q-9 6 -10 6l-2 2q0 4 -2 4h-4q0 7 -17 21l-22 33q0 5 -12 20 q-1 1 -2 3t-2 3l-5 4l-8 8q0 10 -24 37zM24 756l11 20h10q2 2 29 2l26 -4l-8 -45q2 -2 2 -43v-63q9 -70 12 -78q0 -4 0.5 -12.5t1.5 -23.5t2 -28v-8q1 -2 2.5 -8t2.5 -8v-21q1 -5 1 -11q0 -4 -1 -5l8 -58q0 -1 -0.5 -9.5t-1.5 -27t-2 -38.5q0 -2 -0.5 -9.5t-1.5 -21 t-2 -27.5q0 -190 2 -200l-7 -19l-69 -10q-9 6 -12 33q0 150 2 164q-2 2 -2 45q0 42 6 45q-2 2 -2 24v29v53l2 29q0 31 -2 37v26l-2 9q0 45 2 47v18l-4 115q-1 23 -2 42.5t-2 29.5z" />
<glyph unicode="&#xed;" horiz-adv-x="174" d="M39 842v10q0 4 2 6q2 0 2 4q3 0 6 8q3 7 6 11q6 0 25 32q26 33 26 39q11 14 19 39q15 34 20 39v14l7 7l4 2v2q19 -3 22 -6q36 -2 66 -11l2 -4q-5 -5 -2 -10q-8 -8 -8 -14q-8 0 -21 -29q-32 -46 -37 -51q-2 0 -4 -2q0 -2 -4 -6q-11 -24 -35 -64q-16 -4 -18 -4 q-10 -4 -33 -8l-21 -4q-12 -4 -16 -4v-4h-2l-4 4zM43 756l10 20h10q2 2 29 2l27 -4l-8 -45q2 -2 2 -43v-63q9 -70 12 -78q0 -4 0.5 -12.5t1.5 -23.5t2 -28v-8q1 -2 2 -7.5t2 -8.5v-21q2 -10 2 -11q0 -3 -2 -5l8 -58q0 -1 -0.5 -9.5t-1.5 -27t-2 -38.5q0 -2 -0.5 -9.5 t-1.5 -21t-2 -27.5q0 -190 2 -200l-6 -19l-70 -10q-9 6 -12 33q0 150 2 164q-2 2 -2 45q0 42 6 45q-2 2 -2 24v29v53l2 29q0 31 -2 37v26l-2 9q0 45 2 47v18l-4 115q-1 22 -2 42.5t-1 29.5z" />
<glyph unicode="&#xee;" horiz-adv-x="167" d="M-38 842q-3 16 4 26l2 2q0 6 5 9q0 4 4 12l34 61l43 84q9 9 11 15q4 4 6 10l4 4q23 0 29 -2h20q2 -2 8 -2l4 -14v-19l2 -2l5 -8l4 -8q1 -2 6 -15l41 -92q5 -5 16 -31h-4q-1 -1 -4.5 -2t-5.5 -2q-23 -10 -27 -14l-14 -6q-14 14 -39 74l-10 16h-2q0 2 -2 4l-5 4q-4 4 -6 4 l-10 -10q-2 -4 -8 -10q-8 -8 -45 -58q-4 -8 -6 -10q0 -4 -4 -4v-4l-2 -2q-25 -4 -27 -6q-7 0 -27 -4zM32 746v10l10 20h10q2 2 29 2l27 -4l-9 -45q3 -3 3 -43v-63q9 -70 12 -78q0 -4 0.5 -12.5t1.5 -23.5t2 -28v-8q1 -2 2 -7.5t2 -8.5v-21q2 -10 2 -11q0 -3 -2 -5l8 -58 q0 -1 -0.5 -9.5t-1.5 -27t-2 -38.5q0 -2 -0.5 -9.5t-1.5 -21t-2 -27.5q0 -190 2 -200l-6 -19l-70 -10q-9 6 -12 33q0 150 2 164q-2 2 -2 45q0 42 6 45q-2 2 -2 24v29v53l2 29q0 31 -2 37v26l-2 9q0 45 2 47v18l-4 115q-1 22 -2 42.5t-2 29.5z" />
<glyph unicode="&#xef;" horiz-adv-x="155" d="M-74 892q0 2 0.5 5t0.5 4q6 27 18 45l10 10l9 9l6 4v4h33v-4h12q0 -4 2 -4q4 0 8 -4q1 0 4 -3v-2q6 0 8 -2l2 -4h2q0 -73 -8 -86h-2q-2 -2 -2 -8q-4 0 -6 -2v-2q-8 0 -10 -2v-4q-6 -3 -15 -6q-16 0 -18 -2l-35 14v2q-2 2 -6 2v2q-13 13 -13 34zM25 756l10 20h11q2 2 28 2 l27 -4l-8 -45q2 -2 2 -43v-63q9 -70 12 -78q0 -4 0.5 -12.5t1.5 -23.5t2 -28v-8q1 -2 2 -7.5t2 -8.5v-21q2 -10 2 -11q0 -3 -2 -5l8 -58q0 -1 -0.5 -9.5t-1.5 -27t-2 -38.5q0 -2 -0.5 -9.5t-1.5 -21t-2 -27.5q0 -190 2 -200l-6 -19l-70 -10q-9 6 -12 33q0 150 2 164 q-2 2 -2 45q0 42 6 45q-2 2 -2 24v29v53l2 29q0 31 -2 37v26l-2 9q0 45 2 47v18l-4 115q-1 22 -2 42.5t-1 29.5zM101 905q0 7 2 17l16 32q2 2 8 2q7 12 21 12q6 0 10 -1v-2h12q3 -3 23 -13q16 -10 18 -16q13 0 13 -29v-12q-2 -2 -6 -14q-5 -5 -7 -11q-2 0 -2 -2l-6 -10h-2 q-6 -12 -33 -18l-24 8q-2 1 -23 8v2q-15 9 -18 27q-2 14 -2 20z" />
<glyph unicode="&#xf0;" horiz-adv-x="620" d="M37 362l2 82q0 13 2 15v12l4 12v9q1 1 1.5 3t1 5.5t1.5 5.5v20v6l2 3q2 2 2 4v6v20q1 6 2 11.5t1.5 8t0.5 3.5q1 4 2 8.5t1.5 6.5t0.5 3q12 34 15 37q9 69 71 131q17 24 25 27q0 4 4 8l4 4l4 2l4 4q9 6 11 6q6 2 22 15l19 12q5 0 18 8h4l8 4q7 0 9 2q0 2 2 2t4 2 q16 0 18 2h29h18l12 -4h5l28 -4l-2 74q-3 -3 -3 -4t1 -2q-6 0 -8 -2v-4h-4v-4q-10 0 -14 -11q-25 -11 -27 -16q-10 0 -10 6q-4 4 -4 21q-2 2 -2 14q-6 8 -6 15q0 13 18 24q3 10 16 16q4 4 6 4l2 2q2 2 4 2l3 2l2 3h2v6q16 3 34 41q0 25 7 65q-2 6 -2 9q0 4 4 16q6 15 14 20 l37 6q24 11 32 11h3q0 -5 -2 -7v-12q-2 -2 -2 -14q1 -7 1 -22q0 -14 -1 -21h8v6q17 0 37 20q5 2 32 17q5 0 7 -2v-6q0 -2 2 -2l2 -5l-7 -12q7 -7 7 -20q-2 -10 -2 -13q0 -4 2 -10h-4q-3 -13 -19 -20q0 -2 -29 -31q-13 -8 -22 -23q-8 -13 -8 -26q0 -33 2 -35q1 -7 1 -18 q0 -9 -1 -11l-4 -63l-4 -49q-2 -4 -2 -21l4 -41q0 -41 -2 -43q0 -2 2 -4q0 -8 2 -10q0 -19 -2 -21v-26q-2 -6 -2 -9q0 -4 2 -6q-10 -50 -10 -84q0 -21 6 -53q-1 -8 -2 -15t-2 -10.5t-1 -4.5q0 -27 -2 -29v-86q2 0 4 -2h-4l4 -6q-4 0 -4 -2v-41q2 -2 2 -101q-2 -2 -2 -32 q-8 -5 -8 -52q0 -3 0.5 -10l1.5 -21l2 -28q-2 -2 -2 -14q-10 0 -12 -2l-8 -5h-10l-21 -4v-4q-29 -2 -59 -8q-6 2 -115 2l-4 -4l1 2h-1v2l-31 6v4q-13 4 -29 7q-2 0 -2 2q-7 0 -12 8l-4 4l-4 2l-4 4l-8 4q0 2 -2 2l-4 2l-5 2q-57 57 -69 125l-2 4q0 2 -2 2l-2 4q0 3 -4 7 q-21 72 -29 167z" />
<glyph unicode="&#xf1;" horiz-adv-x="477" d="M29 985q19 85 34 90q4 8 11 15q32 40 85 40q7 0 23 -2h25l41 -16l10 -6q4 -2 10 -8q6 -1 37 -25q21 -19 41 -22q21 2 30 11t13 30l2 4q10 15 15 20q12 0 38 -20q-4 -32 -16 -54l-2 -2l-4 -4l-4 -8q-7 -7 -10 -16q-17 -17 -43 -31h-33q-18 8 -31 12l-35 21l-4 2l-6 8 q-8 8 -10 12l-33 19q-24 4 -51 4q-26 0 -39 -4l-2 -2q-6 0 -8 -2l-15 -21l-14 -45q0 -2 -2 -2v-4q-4 -4 -6 -4l-8 4q-15 0 -17 2l-12 4h-10zM38 727q0 19 2 21v47v45q3 58 6 82l17 4q12 4 20 6q2 2 17 2q8 -3 12 -10q0 -2 -0.5 -6t-0.5 -5q0 -19 11 -30h2v2q0 6 8 14 q29 16 54 23q72 10 106 10l25 -8l2 -2h4q6 -9 10 -9t8 -4t9 -4q14 -14 36 -45q19 -37 21 -67l8 -52l8 -49q-2 -2 -2 -4q0 -41 2 -51v-37q2 -6 2 -14q0 -117 -2 -127t-2 -140q-2 -12 -2 -286q0 -6 -2 -8q0 -5 -2 -7q-25 -4 -49 -4q-22 0 -33 4q-10 10 -10 70q0 68 4 72 q-2 2 -2 6q0 2 2 10l4 19l-4 2q0 20 2 24v49q2 10 2 62q3 71 6 110q0 68 -8 115q4 4 4 20q0 23 -8 89v43q0 18 -8 45q-3 20 -13 37q-6 6 -8 10l-14 14q-13 11 -29 11q-1 0 -3 -0.5t-3 -0.5q-38 -3 -49 -10v-4q-10 0 -20 -16q-13 -13 -29 -68q-20 -54 -29 -135v-88v-62 q-1 -10 -1.5 -21.5t-1 -19t-1.5 -12.5v-29q6 -160 12 -241l2 -64q3 -20 3 -31t-3 -14h-16q-4 0 -6 -2l-4 -2q-2 -2 -10 -2h-7l-2 -2q-2 -2 -4 -2h-6h-20q-4 4 -4 12q0 3 -3 6q-2 2 -2 5q0 134 9 155q0 228 -2 240t-2 125v39q-4 25 -5 28v13v28q-1 4 -2 12t-2 11v10q0 2 4 2 h-4q0 17 -2 19t-2 22zM339 434h6q-4 0 -4 -2z" />
<glyph unicode="&#xf2;" d="M37 461v31q3 29 6 40q-1 1 2 37q0 1 4 17q0 4 6 28l6 21v10l2 6h3q0 3 16 49q16 32 37 62q20 33 22 35l27 18q10 10 49 39l27 18l32 21q22 16 31 16q5 5 25 11q29 7 37 4q2 -2 12 -2q4 -2 12 -2l19 -5v-4l47 -18l4 -4l2 -2q2 -2 2 -4l4 -2l8 -9q5 -5 2 -8q41 -30 56 -86 q6 -6 14 -28q9 -21 6 -27q7 -3 10 -29l11 -63q-3 -152 -13 -238q-9 -81 -12 -98q-3 -21 -12 -45q-9 -12 -15 -57q-35 -84 -47 -89v-2q-2 0 -14 -18q-13 -16 -23 -23q-12 -12 -65 -30q-50 -20 -135 -31q-50 16 -78 33v4q-40 12 -74 88l-27 88l-14 68q0 12 -2 14q0 4 -2 6v10 q-2 2 -2 8l-4 35zM217 1139q3 3 5 3v6q0 2 2 2t4 2q12 0 30 6q22 3 25 6v-4q0 4 2 6h12v4h11l8 -4v-6q0 -2 2 -2q0 -9 16 -31v-18q9 -14 9 -17l-1 -2l31 -82l4 -6l13 -12q0 -4 2 -6t2 -4q-3 0 -7 -4q-2 -2 -2 -4l-36 -7q-10 7 -11 7l-2 2q0 4 -2 4h-4q0 7 -16 20l-23 33 q0 5 -12 20q-1 1 -2 3.5t-2 3.5l-4 4l-8 8q0 9 -25 37z" />
<glyph unicode="&#xf3;" d="M37 461v31q3 29 6 40q-1 1 2 37q0 1 4 17q0 4 6 28l6 21v10l2 6h3q0 3 16 49q16 32 37 62q20 33 22 35l27 18q10 10 49 39l27 18l32 21q22 16 31 16q5 5 25 11q29 7 37 4q2 -2 12 -2q4 -2 12 -2l19 -5v-4l47 -18l4 -4l2 -2q2 -2 2 -4l4 -2l8 -9q5 -5 2 -8q41 -30 56 -86 q6 -6 14 -28q9 -21 6 -27q7 -3 10 -29l11 -63q-3 -152 -13 -238q-9 -81 -12 -98q-3 -21 -12 -45q-9 -12 -15 -57q-35 -84 -47 -89v-2q-2 0 -14 -18q-13 -16 -23 -23q-12 -12 -65 -30q-50 -20 -135 -31q-50 16 -78 33v4q-40 12 -74 88l-27 88l-14 68q0 12 -2 14q0 4 -2 6v10 q-2 2 -2 8l-4 35zM336 974v10q0 4 2 6q2 0 2 4q3 0 6 8q2 6 7 11q5 0 24 32q27 35 27 39q9 12 18 39q14 32 21 39v14l6 6l4 3v2q18 -3 22 -7q40 -3 66 -10l2 -4q-5 -5 -2 -10q-8 -8 -8 -14q-8 0 -21 -29q-32 -46 -37 -51q-2 0 -4 -2q0 -3 -4 -7q-9 -20 -35 -63 q-16 -4 -18 -4q-10 -4 -33 -8l-20 -4q-12 -4 -17 -4v-5h-2l-4 5z" />
<glyph unicode="&#xf4;" d="M37 461v31q3 29 6 40q-1 1 2 37q0 1 4 17q0 4 6 28l6 21v10l2 6h3q0 3 16 49q16 32 37 62q20 33 22 35l27 18q10 10 49 39l27 18l32 21q22 16 31 16q5 5 25 11q29 7 37 4q2 -2 12 -2q4 -2 12 -2l19 -5v-4l47 -18l4 -4l2 -2q2 -2 2 -4l4 -2l8 -9q5 -5 2 -8q41 -30 56 -86 q6 -6 14 -28q9 -21 6 -27q7 -3 10 -29l11 -63q-3 -152 -13 -238q-9 -81 -12 -98q-3 -21 -12 -45q-9 -12 -15 -57q-35 -84 -47 -89v-2q-2 0 -14 -18q-13 -16 -23 -23q-12 -12 -65 -30q-50 -20 -135 -31q-50 16 -78 33v4q-40 12 -74 88l-27 88l-14 68q0 12 -2 14q0 4 -2 6v10 q-2 2 -2 8l-4 35zM224 965q-3 17 4 27l2 2q0 6 4 8q0 5 4 13l35 61l43 84q8 8 10 14q4 3 6 11l4 4q23 0 29 -2h20q2 -2 9 -2l4 -15v-18l2 -2l4 -8l4 -9q2 -2 6 -14l41 -92q5 -5 16 -31h-4q-1 -1 -4.5 -2t-5.5 -2q-23 -10 -27 -14l-14 -6q-15 15 -39 73l-10 17h-2q0 2 -2 4 l-4 4q-4 4 -6 4l-11 -10q-3 -6 -8 -11q-11 -11 -45 -57q-4 -8 -6 -10q0 -4 -4 -4v-4l-2 -2q-25 -4 -27 -6q-1 0 -26 -5z" />
<glyph unicode="&#xf5;" d="M37 461v31q3 29 6 40q-1 1 2 37q0 1 4 17q0 4 6 28l6 21v10l2 6h3q0 3 16 49q16 32 37 62q20 33 22 35l27 18q10 10 49 39l27 18l32 21q22 16 31 16q5 5 25 11q29 7 37 4q2 -2 12 -2q4 -2 12 -2l19 -5v-4l47 -18l4 -4l2 -2q2 -2 2 -4l4 -2l8 -9q5 -5 2 -8q41 -30 56 -86 q6 -6 14 -28q9 -21 6 -27q7 -3 10 -29l11 -63q-3 -152 -13 -238q-9 -81 -12 -98q-3 -21 -12 -45q-9 -12 -15 -57q-35 -84 -47 -89v-2q-2 0 -14 -18q-13 -16 -23 -23q-12 -12 -65 -30q-50 -20 -135 -31q-50 16 -78 33v4q-40 12 -74 88l-27 88l-14 68q0 12 -2 14q0 4 -2 6v10 q-2 2 -2 8l-4 35zM129 943q18 84 35 90q4 8 10 14q32 41 85 41q8 0 24 -2h24l41 -16l10 -6q6 -3 11 -8q4 -1 36 -25q23 -20 41 -23q21 2 30 11t13 30l2 4q12 18 15 21q12 0 39 -21q-3 -28 -17 -53l-2 -2l-4 -4l-4 -8q-7 -7 -10 -16q-17 -17 -43 -31h-33q-18 8 -31 12l-35 21 l-4 2l-6 8q-8 8 -10 12l-33 19q-24 4 -51 4q-26 0 -39 -4l-2 -3q-6 0 -8 -2l-14 -20l-15 -45q0 -2 -2 -2v-4q-4 -4 -6 -4l-8 4q-15 0 -17 2l-12 4h-10z" />
<glyph unicode="&#xf6;" d="M37 461v31q3 29 6 40q-1 1 2 37q0 1 4 17q0 4 6 28l6 21v10l2 6h3q0 3 16 49q16 32 37 62q20 33 22 35l27 18q10 10 49 39l27 18l32 21q22 16 31 16q5 5 25 11q29 7 37 4q2 -2 12 -2q4 -2 12 -2l19 -5v-4l47 -18l4 -4l2 -2q2 -2 2 -4l4 -2l8 -9q5 -5 2 -8q41 -30 56 -86 q6 -6 14 -28q9 -21 6 -27q7 -3 10 -29l11 -63q-3 -152 -13 -238q-9 -81 -12 -98q-3 -21 -12 -45q-9 -12 -15 -57q-35 -84 -47 -89v-2q-2 0 -14 -18q-13 -16 -23 -23q-12 -12 -65 -30q-50 -20 -135 -31q-50 16 -78 33v4q-40 12 -74 88l-27 88l-14 68q0 12 -2 14q0 4 -2 6v10 q-2 2 -2 8l-4 35zM194 1016q0 1 0.5 4t0.5 5q6 27 18 45l11 10l8 8l6 4v4h33v-4h12q0 -4 2 -4q4 0 8 -4q2 0 4 -2v-2q6 0 8 -2l2 -4h3q0 -71 -9 -86h-2q-2 -2 -2 -8q-4 0 -6 -2v-2q-8 0 -10 -2v-4q-1 -1 -3 -2t-3.5 -1.5t-3.5 -1.5l-4 -2q-17 0 -19 -2l-35 15v2q-2 2 -6 2v2 q-13 13 -13 34zM369 1028q0 7 2 17l16 33q2 2 9 2q8 12 20 12q2 0 10 -2v-2h13q2 -2 22 -12q17 -10 19 -16q12 0 12 -29v-12q-2 -1 -6 -15q-4 -4 -6 -10q-3 0 -3 -2l-6 -10h-2q-7 -13 -32 -19l-25 9q-2 1 -23 8v2q-15 9 -18 26q-2 14 -2 20z" />
<glyph unicode="&#xf7;" horiz-adv-x="616" d="M37 436q0 12 4 25l5 51q0 10 12 25q0 2 4 2v4h8v8h49l66 -14q2 2 37 2q8 0 10 -2h6l8 -5q15 0 17 -2l53 -2q4 0 24 -14q57 -8 181 -8q34 -4 49 -8q4 0 4 -2l4 -2q-8 -8 -8 -58h-4q-5 -5 -25 -8l-12 2h-27q-2 2 -26 2q-13 0 -13 -2l-221 12q-118 -3 -201 -16q-4 1 -4 10z M234 682v27q9 32 29 67h4q0 2 4 6q8 8 39 13q15 0 43 -4l28 -17l13 -20v-19v-4q-1 -1 -2 -4.5t-2 -5.5v-16h-4v-9h-5q-4 -4 -4 -8q-4 -4 -4 -6l-6 -4q-6 -3 -6 -8h-4v-4l-25 -13l-24 -6q-15 0 -17 -2l-16 4v2q-6 0 -29 13zM243 300q0 17 7 32l4 6l13 12l4 8q2 2 16 2 q2 2 17 2q61 -9 61 -34l2 -4q2 -2 2 -7l4 -12l-4 -2h4v-41l-4 -8q-4 -4 -4 -8q-15 -3 -29 -10q-25 0 -28 -3h-11h-6l-4 5l-20 12q-24 24 -24 50zM279 778q0 2 4 6h-4v-6zM365 307l4 2q0 4 -4 8v-4v-6z" />
<glyph unicode="&#xf8;" horiz-adv-x="749" d="M31 113q7 7 32 43q18 18 19 20q10 20 24 23l13 18q0 8 -13 37q-8 19 -8 32v7q-2 2 -8 37q-4 11 -6 28v64l4 4q0 78 12 137q4 4 4 19l11 20q0 4 2 8l4 19q4 6 8 22q3 15 12 27q0 11 23 41h2q6 12 8 14q4 4 6 10l4 5q9 3 29 36l55 60q39 33 58 33v2q2 2 8 2v2q74 22 82 22 q44 13 47 13q44 0 84 -7l8 -4l8 -4q8 -4 10 -6l5 -2q-3 -3 -3 -4q5 0 15 -10l10 -11q4 5 18 27q7 13 13 18l6 7l4 4l2 4l4 4q0 4 21 4l37 -41l8 -4q0 -10 -15 -25l-22 -22l-10 -10l-4 -7q0 -5 -11 -16l-4 -8q-3 -6 -4 -6q0 -54 8 -62q3 -81 6 -119v-4l2 -2q3 -3 3 -4 q3 -46 3 -77t-3 -46q0 -39 2 -43q-2 -16 -2 -18q0 -6 2 -8q-7 -32 -7 -57v-13q-2 -2 -2 -20q-28 -105 -63 -154l-23 -41l-6 -6l-2 -4l-6 -6q0 -5 -4 -9l-12 -6l-9 -8l-6 -6l-2 -4l-8 -6q-1 -1 -4.5 -3.5t-5.5 -4.5l-10 -11q-20 -15 -29 -24l-43 -19v-4q-5 0 -23 -6 q-8 -8 -16 -8q-8 -4 -10 -6l-47 -4l-21 8v2l-47 6l-4 2h-6l-12 8l-5 2q-4 2 -10 2v2l-8 5q-6 2 -10 6v4q-18 12 -33 39h-2l-4 8q-2 6 -6 10q-11 11 -11 19h-4q-2 2 -2 6q-4 0 -6 -2v-2h-2v-5q-4 0 -4 -2v-2h-4l-12 -18h-4q-5 -6 -7 -10l-4 -4q-2 0 -2 -4h-2l-6 -5v-4l-2 -4 h-4l-4 -12h-8l-11 16l-4 11q-4 4 -4 8q-20 20 -20 37z" />
<glyph unicode="&#xf9;" horiz-adv-x="538" d="M39 653v52l8 96v49q11 26 12 27q2 2 4 2q2 2 7 2q36 23 39 26l12 6q3 1 7 2t5 1t2 -1l4 -18q-3 -25 -6 -37q-1 -7 -1 -20q0 -12 1 -17v-12q1 -2 2 -9.5t2 -10.5v-29v-39q2 -4 2 -35q-1 -3 -1 -24q0 -55 14 -277q-2 -16 -2 -20q0 -11 4 -19q0 -107 10 -192q9 -44 45 -64 q27 0 29 -2l6 4q8 0 10 2t8 2h12q71 56 80 101h2q3 16 9 22q18 59 24 137v56q0 57 2 59l4 23q0 14 -2 16q7 4 7 24q0 9 -1 15v7q0 2 2 40q-3 12 -3 49q0 40 1 66q3 41 3 69q0 29 -3 47q0 23 2 25q0 12 -2 14v13v12q3 6 7 10q16 -1 40 -1q18 0 23 1q0 -33 -2 -37t-2 -47 q-1 -1 -1 -3t1 -9.5t2 -13.5h-4l4 -5q2 -2 2 -4v-14q0 -23 -2 -25t-2 -40v-64l4 -37l4 -57q3 -59 12 -129q-6 -86 -6 -99t6 -43q-3 -47 -6 -63q6 -92 6 -100q2 -6 2 -10q0 -3 -2 -13q-2 -2 -2 -65q-3 0 -13.5 -2t-16.5 -3h-2h-7l-8 -4h-8q-2 -2 -16 -2l-9 2q-5 6 -8 13 q2 0 2 4q0 10 -2 12q0 6 2 8q0 6 -2 8q0 5 -2 7q-36 -65 -149 -91q-15 0 -17 -2l-55 19q-42 25 -66 74l-14 38q-5 30 -5 36q0 2 1 3q-24 125 -24 161q0 9 2 13l-9 123l-6 33q0 3 -0.5 8t-1.5 14.5t-2 18.5v27q-2 4 -2 18q-3 48 -6 92zM151 1106q2 2 5 2v6q0 2 2 2t4 2 q12 0 30 6q22 3 25 6v-4q0 5 2 7h12v4h11l8 -4v-7q0 -2 2 -2q0 -8 16 -30v-19q9 -14 9 -17l-1 -1l31 -82l4 -6l13 -13q0 -4 2 -6t2 -4q-3 0 -7 -4q-2 -2 -2 -4l-36 -6q-9 6 -11 6l-2 2q0 4 -2 4h-4q0 8 -16 21l-23 32q0 6 -12 21q-1 1 -2 3t-2 3l-4 4l-8 8q0 9 -25 37z" />
<glyph unicode="&#xfa;" horiz-adv-x="538" d="M39 653v52l8 96v49q11 26 12 27q2 2 4 2q2 2 7 2q36 23 39 26l12 6q3 1 7 2t5 1t2 -1l4 -18q-3 -25 -6 -37q-1 -7 -1 -20q0 -12 1 -17v-12q1 -2 2 -9.5t2 -10.5v-29v-39q2 -4 2 -35q-1 -3 -1 -24q0 -55 14 -277q-2 -16 -2 -20q0 -11 4 -19q0 -107 10 -192q9 -44 45 -64 q27 0 29 -2l6 4q8 0 10 2t8 2h12q71 56 80 101h2q3 16 9 22q18 59 24 137v56q0 57 2 59l4 23q0 14 -2 16q7 4 7 24q0 9 -1 15v7q0 2 2 40q-3 12 -3 49q0 40 1 66q3 41 3 69q0 29 -3 47q0 23 2 25q0 12 -2 14v13v12q3 6 7 10q16 -1 40 -1q18 0 23 1q0 -33 -2 -37t-2 -47 q-1 -1 -1 -3t1 -9.5t2 -13.5h-4l4 -5q2 -2 2 -4v-14q0 -23 -2 -25t-2 -40v-64l4 -37l4 -57q3 -59 12 -129q-6 -86 -6 -99t6 -43q-3 -47 -6 -63q6 -92 6 -100q2 -6 2 -10q0 -3 -2 -13q-2 -2 -2 -65q-3 0 -13.5 -2t-16.5 -3h-2h-7l-8 -4h-8q-2 -2 -16 -2l-9 2q-5 6 -8 13 q2 0 2 4q0 10 -2 12q0 6 2 8q0 6 -2 8q0 5 -2 7q-36 -65 -149 -91q-15 0 -17 -2l-55 19q-42 25 -66 74l-14 38q-5 30 -5 36q0 2 1 3q-24 125 -24 161q0 9 2 13l-9 123l-6 33q0 3 -0.5 8t-1.5 14.5t-2 18.5v27q-2 4 -2 18q-3 48 -6 92zM225 956v11q0 4 2 6q2 0 2 4q3 0 6 8 q1 5 7 10q4 0 24 33q27 34 27 39q9 12 18 39q14 32 21 39v14l6 6l4 2v2q19 -3 22 -6q40 -3 66 -10l2 -4q-5 -5 -2 -10q-8 -8 -8 -15q-9 0 -21 -28q-35 -49 -37 -52q-2 0 -4 -2q0 -2 -4 -6q-9 -20 -35 -63q-16 -4 -18 -4q-10 -3 -33 -8l-20 -5q-12 -4 -17 -4v-4h-2l-4 4z" />
<glyph unicode="&#xfb;" horiz-adv-x="538" d="M39 653v52l8 96v49q11 26 12 27q2 2 4 2q2 2 7 2q36 23 39 26l12 6q3 1 7 2t5 1t2 -1l4 -18q-3 -25 -6 -37q-1 -7 -1 -20q0 -12 1 -17v-12q1 -2 2 -9.5t2 -10.5v-29v-39q2 -4 2 -35q-1 -3 -1 -24q0 -55 14 -277q-2 -16 -2 -20q0 -11 4 -19q0 -107 10 -192q9 -44 45 -64 q27 0 29 -2l6 4q8 0 10 2t8 2h12q71 56 80 101h2q3 16 9 22q18 59 24 137v56q0 57 2 59l4 23q0 14 -2 16q7 4 7 24q0 9 -1 15v7q0 2 2 40q-3 12 -3 49q0 40 1 66q3 41 3 69q0 29 -3 47q0 23 2 25q0 12 -2 14v13v12q3 6 7 10q16 -1 40 -1q18 0 23 1q0 -33 -2 -37t-2 -47 q-1 -1 -1 -3t1 -9.5t2 -13.5h-4l4 -5q2 -2 2 -4v-14q0 -23 -2 -25t-2 -40v-64l4 -37l4 -57q3 -59 12 -129q-6 -86 -6 -99t6 -43q-3 -47 -6 -63q6 -92 6 -100q2 -6 2 -10q0 -3 -2 -13q-2 -2 -2 -65q-3 0 -13.5 -2t-16.5 -3h-2h-7l-8 -4h-8q-2 -2 -16 -2l-9 2q-5 6 -8 13 q2 0 2 4q0 10 -2 12q0 6 2 8q0 6 -2 8q0 5 -2 7q-36 -65 -149 -91q-15 0 -17 -2l-55 19q-42 25 -66 74l-14 38q-5 30 -5 36q0 2 1 3q-24 125 -24 161q0 9 2 13l-9 123l-6 33q0 3 -0.5 8t-1.5 14.5t-2 18.5v27q-2 4 -2 18q-3 48 -6 92zM145 952q-3 17 4 27l2 2q0 5 5 8 q0 4 4 12l34 62l43 84q9 9 11 14q4 4 6 10l4 5q23 0 29 -2h20q3 -3 8 -3l4 -14v-18l2 -2l5 -9l4 -8q2 -2 6 -14l41 -92q5 -5 16 -31h-4q-1 -1 -4.5 -2t-5.5 -2q-23 -10 -27 -14l-14 -7q-14 14 -39 74l-10 17h-2q0 2 -2 4l-5 4q-4 4 -6 4l-10 -10q-3 -6 -8 -11 q-11 -11 -45 -57q-4 -8 -6 -10q0 -4 -4 -4v-4l-2 -2q-23 -3 -27 -7q-7 0 -27 -4z" />
<glyph unicode="&#xfc;" horiz-adv-x="538" d="M39 653v52l8 96v49q11 26 12 27q2 2 4 2q2 2 7 2q36 23 39 26l12 6q3 1 7 2t5 1t2 -1l4 -18q-3 -25 -6 -37q-1 -7 -1 -20q0 -12 1 -17v-12q1 -2 2 -9.5t2 -10.5v-29v-39q2 -4 2 -35q-1 -3 -1 -24q0 -55 14 -277q-2 -16 -2 -20q0 -11 4 -19q0 -107 10 -192q9 -44 45 -64 q27 0 29 -2l6 4q8 0 10 2t8 2h12q71 56 80 101h2q3 16 9 22q18 59 24 137v56q0 57 2 59l4 23q0 14 -2 16q7 4 7 24q0 9 -1 15v7q0 2 2 40q-3 12 -3 49q0 40 1 66q3 41 3 69q0 29 -3 47q0 23 2 25q0 12 -2 14v13v12q3 6 7 10q16 -1 40 -1q18 0 23 1q0 -33 -2 -37t-2 -47 q-1 -1 -1 -3t1 -9.5t2 -13.5h-4l4 -5q2 -2 2 -4v-14q0 -23 -2 -25t-2 -40v-64l4 -37l4 -57q3 -59 12 -129q-6 -86 -6 -99t6 -43q-3 -47 -6 -63q6 -92 6 -100q2 -6 2 -10q0 -3 -2 -13q-2 -2 -2 -65q-3 0 -13.5 -2t-16.5 -3h-2h-7l-8 -4h-8q-2 -2 -16 -2l-9 2q-5 6 -8 13 q2 0 2 4q0 10 -2 12q0 6 2 8q0 6 -2 8q0 5 -2 7q-36 -65 -149 -91q-15 0 -17 -2l-55 19q-42 25 -66 74l-14 38q-5 30 -5 36q0 2 1 3q-24 125 -24 161q0 9 2 13l-9 123l-6 33q0 3 -0.5 8t-1.5 14.5t-2 18.5v27q-2 4 -2 18q-3 48 -6 92zM120 1007q0 1 0.5 4t0.5 5q6 27 18 45 l10 10l9 8l6 4v4h32v-4h13q0 -4 2 -4q4 0 8 -4q2 0 4 -2v-2q6 0 8 -2l2 -4h2q0 -73 -8 -86h-2q-2 -2 -2 -8q-4 0 -6 -2v-2q-8 0 -10 -2v-4q-12 -6 -15 -7q-16 0 -18 -2l-35 15v2q-2 2 -6 2v2q-13 13 -13 34zM295 1019q0 7 2 17l16 33q2 2 8 2q7 12 21 12q2 0 10 -2v-2h12 q1 -1 23 -12q16 -9 18 -16q13 0 13 -29v-12q-3 -3 -7 -15q-4 -4 -6 -10q-2 0 -2 -2l-6 -10h-2q-7 -13 -33 -19l-24 9q-2 1 -23 8v2q-15 9 -18 26q-2 14 -2 20z" />
<glyph unicode="&#xfd;" horiz-adv-x="563" d="M37 664v47v6l4 12v12q6 27 8 29q5 0 8 18q41 13 70 13v-2q2 0 8 -94q6 -95 6 -99q20 -105 52 -121v-2l4 -2q2 -2 6 -2t6 -2q0 -2 4 -2t4 -2q2 -2 10 -2l15 -4q4 -1 12.5 -2t11.5 -2q15 6 21 12q4 4 12 4l6 4q2 0 4 2q0 5 8 13l19 18q11 11 18 25q12 10 23 28q13 27 16 37 q10 17 13 37q8 13 8 35q4 28 4 31v10v6l4 4v6v27q-2 12 -2 17q0 6 2 14q0 22 2 24q10 2 17 2q15 0 38 -6q25 0 27 -2q-1 -30 -2 -65t-1 -42q0 -11 1 -12v-28q1 -3 2 -11t2 -10v-12v-25v-12v-4q1 -1 2 -3t2 -3v-13q-3 -105 -12 -135q-8 -23 -17 -215l-37 -121q-5 -13 -20 -28 q-14 -56 -94 -109q-46 -30 -97 -30q-32 0 -69 14q-80 44 -80 71q-3 0 -16 23l-13 33q0 17 15 32q12 12 28 21q6 5 13 5q3 0 4 -1l12 -33q34 -37 66 -45q29 -6 44 -6q7 0 15 2q25 8 53 27l21 14q1 1 3 2t3 2l4 4l6 4l4 4l2 3q2 2 2 4t2 4l4 4l19 41l33 223q0 69 6 104h-4 q0 -2 -6 -14q0 -7 -3 -10q-2 -2 -2 -4q-1 0 -20 -19q-9 -15 -21 -18q-25 -21 -73 -39q-39 -14 -82 -14q-9 0 -31 2q-62 9 -86 61h-2q-3 3 -6 15q-3 11 -6 14l-8 16q0 3 -3 6q-2 2 -2 4l-4 7q0 10 -2 12t-2 8q-2 2 -2 8q-10 0 -10 45l-2 46l-1.5 34.5t-0.5 14.5zM207 850v10 q0 4 2 6q2 0 2 4q3 0 6 9q2 6 6 10q5 0 25 33q26 33 26 39q11 15 19 38q15 34 20 39v15l6 6l4 2v2q20 -3 23 -6q39 -3 65 -10l2 -5q-5 -5 -2 -10q-8 -8 -8 -14q-7 0 -20 -29q-32 -46 -37 -51q-2 0 -4 -2q0 -2 -4 -6q-11 -24 -35 -64q-16 -4 -19 -4q-12 -4 -32 -8l-21 -4 q-12 -4 -16 -4v-4h-2l-4 4z" />
<glyph unicode="&#xfe;" horiz-adv-x="681" d="M43 88v176q7 41 7 96q0 24 -1 37l4 17q0 22 2 28v74q2 14 2 100q-2 2 -2 15v12v8q2 2 2 4q2 2 2 7v12v43l-6 147q2 2 2 5q0 2 -2 12q-2 2 -2 16l-4 68q-2 2 -2 4q0 47 10 57q5 -1 29.5 -3.5t42.5 -4.5v-176v-19l2 -39q7 0 16 9q8 8 17 8q0 4 12 4v4h-4q18 18 35 18v4 q33 12 57 15l2 2l8 4l9 4h8l20 4h29h41q4 2 31 2l18 -4q16 -3 21 -8q44 -3 47 -19q4 0 6 -2v-2q4 -4 8 -4q4 -4 6 -4l10 -14q7 0 17 -10q10 -13 14 -13q3 -19 16 -22q-2 0 -2 -2l23 -25q3 -8 6 -28q7 -3 10 -17q3 0 6 -10l9 -23q0 -8 4 -12q0 -13 6 -53q3 -15 3 -31 q0 -18 -1 -27q3 -3 3 -7q0 -5 -3 -13v-12q-2 -2 -2 -11l-6 -24l-13 -53l-2 -2q-9 -68 -47 -111l-4 -8q0 -4 -4 -8q-3 -3 -8 -13q-10 -10 -12 -16l-17 -16l-4 -9l-8 -8l-2 -4l-2 -4l-4 -4l-4 -4q-4 -4 -4 -6q-15 -12 -15 -17h-4l-6 -6l-4 -4q-1 -1 -3 -2t-3 -2q-4 0 -6 -2 l-4 -4q-2 -2 -5 -2q-6 -2 -14 -6l-6 -2q-19 -22 -84 -43h-86l-55 6q-5 5 -17 8q-4 4 -8 4q-4 4 -6 4l-51 19v-44q-2 -4 -2 -81q0 -80 -2 -84q5 -11 5 -47q0 -29 -1 -46l-4 -2q-4 4 -29 7q-26 0 -29 14l-2 39q0 93 -6 114l-1 8q0 8 -1 24.5t-2 35.5z" />
<glyph unicode="&#xff;" horiz-adv-x="563" d="M37 664v47v6l4 12v12q6 27 8 29q5 0 8 18q41 13 70 13v-2q2 0 8 -94q6 -95 6 -99q20 -105 52 -121v-2l4 -2q2 -2 6 -2t6 -2q0 -2 4 -2t4 -2q2 -2 10 -2l15 -4q4 -1 12.5 -2t11.5 -2q15 6 21 12q4 4 12 4l6 4q2 0 4 2q0 5 8 13l19 18q11 11 18 25q12 10 23 28q13 27 16 37 q10 17 13 37q8 13 8 35q4 28 4 31v10v6l4 4v6v27q-2 12 -2 17q0 6 2 14q0 22 2 24q10 2 17 2q15 0 38 -6q25 0 27 -2q-1 -30 -2 -65t-1 -42q0 -11 1 -12v-28q1 -3 2 -11t2 -10v-12v-25v-12v-4q1 -1 2 -3t2 -3v-13q-3 -105 -12 -135q-8 -23 -17 -215l-37 -121q-5 -13 -20 -28 q-14 -56 -94 -109q-46 -30 -97 -30q-32 0 -69 14q-80 44 -80 71q-3 0 -16 23l-13 33q0 17 15 32q12 12 28 21q6 5 13 5q3 0 4 -1l12 -33q34 -37 66 -45q29 -6 44 -6q7 0 15 2q25 8 53 27l21 14q1 1 3 2t3 2l4 4l6 4l4 4l2 3q2 2 2 4t2 4l4 4l19 41l33 223q0 69 6 104h-4 q0 -2 -6 -14q0 -7 -3 -10q-2 -2 -2 -4q-1 0 -20 -19q-9 -15 -21 -18q-25 -21 -73 -39q-39 -14 -82 -14q-9 0 -31 2q-62 9 -86 61h-2q-3 3 -6 15q-3 11 -6 14l-8 16q0 3 -3 6q-2 2 -2 4l-4 7q0 10 -2 12t-2 8q-2 2 -2 8q-10 0 -10 45l-2 46l-1.5 34.5t-0.5 14.5zM146 925 q0 1 0.5 4t0.5 5q6 27 18 45l10 10l8 8l7 4v5h32v-5h13q0 -4 2 -4q4 0 8 -4q2 0 4 -2v-2q6 0 8 -2l2 -4h2q0 -73 -8 -86h-2q-2 -2 -2 -8q-4 0 -6 -2v-2q-8 0 -10 -2v-4q-12 -6 -15 -7q-16 0 -18 -2l-35 15v2q-2 2 -6 2v2q-13 13 -13 34zM321 937q0 7 2 17l16 33q2 2 8 2 q7 12 21 12q2 0 10 -2v-2h12q1 -1 23 -12q16 -9 18 -16q13 0 13 -29q0 -2 -0.5 -6t-0.5 -6q-1 -2 -6 -15q-4 -4 -6 -10q-2 0 -2 -2l-6 -10h-2q-7 -13 -33 -19l-24 9q-2 1 -23 8v2q-15 9 -18 27q-2 14 -2 19z" />
<glyph unicode="&#x152;" horiz-adv-x="858" d="M37 508v6q2 2 2 12q0 11 -2 13q0 105 10 225q0 46 12 92q3 100 47 252q0 25 9 55q0 6 2 8q0 5 2 7h2q6 28 8 30q6 15 6 23q2 0 8 18q3 13 13 27q2 2 6 10l4 4q2 0 2 2t2 4h2l16 31q8 12 37 41l-2 2l21 14v5q14 14 20 14v2q34 37 49 37q0 8 19 8q0 12 45 12q30 2 36 2 q13 0 17 -2l12 -4l15 -4q30 -18 35 -18v-4q2 0 12 -7l18 -8l8 -2q8 8 86 17q0 -2 2 -2q-8 0 -8 -3q3 3 11 3q2 2 6 2q10 0 12 -2l6 -3h2q4 0 4 3h8h11q12 3 21 3q6 0 9 -1q1 -1 1 -4q0 -6 -5 -13l4 -12v-12l5 -15q-7 0 -9 -2v-8l-8 -2h-20q-4 -2 -29 -2v-2q-2 2 -35 2v-4 q-11 0 -35 -6q-20 -6 -20 -15q-6 0 -8 -2l4 -106l2 -2q-4 0 -4 -4q2 0 2 -2h2q-2 -2 -2 -4q2 0 2 -7v-6h4v-2h-4q0 -14 2 -16q2 0 2 -2q3 -22 6 -66l-2 2q2 -2 2 -12h-2l2 -4h-4v-17h4q-2 -2 -2 -18q2 0 2 -8v-6l4 -17q-2 -2 -2 -12h2q-1 -1 -1 -4q0 -4 1 -6h-4v-10h4 q-2 -2 -2 -7h2q-1 -1 -1 -2t1.5 -4.5t1.5 -5.5q-1 -1 -1 -2q0 -2 5 -14h-4l4 -17h-4v-24h-2q2 -10 2 -12q0 -5 -2 -5q0 -16 -2 -18q2 -2 2 -12q0 -109 2 -119q0 -4 2 -6q0 -4 2 -6t2 -7l4 -12q2 -2 15 -2h33q12 2 15 2q5 0 7 -2q2 -22 2 -30q0 -30 -10 -44l-25 -4 q-18 -3 -35 -6q0 -7 3 -10q0 -6 2 -8q-3 0 -5 -2l5 -2q1 -10 1 -25q0 -10 -1 -12q2 -2 2 -10q-2 -2 -2 -5q-2 -2 -2 -6v-10v-14q2 -2 2 -13q0 -18 -2 -20q-3 -3 -3 -14q0 -51 3 -60q-5 -30 -5 -91q0 -80 2 -132l9 -74q4 0 6 -2v-8h4v-4q15 -3 43 -6h14h4q1 -1 3.5 -2t3.5 -2 h6v-2q22 0 26 -2q23 0 25 -2l69 -7l-2 -2h7v2h26l-2 -2q-2 -2 -2 -4l-4 -4h6l-6 -31q5 -3 5 -16q0 -6 -1 -10q0 -22 -8 -25q0 -4 -16 -10q-36 4 -60 4h-6l-8 4h-8h-19q-46 4 -59 4l-90 6q-38 8 -52 17l-16 76q-2 0 -4 -2v-5q-31 -19 -31 -26q-4 0 -8 -4l-8 -4v-4h-4v-5 q-4 0 -6 -2v-2q-18 -13 -41 -16l-52 4q-32 4 -36 4q-13 8 -19 8v2q-2 2 -4 2v2q-3 3 -4 3q-2 0 -2 2l-4 2q-8 0 -12 4q-2 2 -2 4h-3v4q-4 4 -8 4l-2 2q-2 2 -4 2l-2 2q0 5 -8 10q-6 6 -6 11h-4q-14 26 -27 32l-6 13h-2v2h-4q-5 13 -10 18q-2 2 -5 2v4h-4v2l-4 4q-2 2 -2 5 l-4 4q-7 7 -7 10q0 1 1 2l-2 2q0 4 -2 4h-2l-4 10q-4 4 -4 9h-5v10q-22 28 -36 84q-7 0 -13 57q0 6 -2 8t-2 15q0 6 -2 8t-2 8l-4 27q-4 12 -4 18v23q0 6 -2 8q0 4 -2 6zM301 1430q2 2 4 2q-2 0 -2 2q0 -2 -2 -4zM332 1436l2 2zM473 1434l4 8h-4v-8zM483 1427l4 3q0 2 -2 4 h-2v-7zM557 1417l12 4h-10q-2 0 -2 -4zM692 1403h4l-4 8v-8z" />
<glyph unicode="&#x153;" horiz-adv-x="806" d="M37 385q12 163 26 195h3q0 13 6 22q4 26 10 39l8 23v8l2 6h4q0 14 17 45q0 6 2 8q4 0 10 25q3 8 16 28h4q0 3 11 21l10 20h4l4 13h2v4h4v4h4q0 4 4 8q0 2 2 4l5 4h2q3 10 18 19l5 5q6 4 11 9q5 0 7 2q2 0 4 2v2l8 8l4 2q96 30 136 30q9 0 13 -1q14 -5 21 -10q5 -5 18 -10 q2 2 29 2q4 2 33 2q66 4 86 4q57 8 112 8q8 1 22 1q18 0 24 -5v-2q2 2 8 2l-2 -8v-6l2 -3q2 -2 2 -4v-6v-20h4v-4l4 -9v-6q2 0 2 -16h-6q-2 -2 -2 -8q-8 0 -10 -2q-1 0 -4 -0.5l-9 -1.5l-12 -2h-4q-1 -2 -12 -5h-17h-4l-12 -4h-17l-53 -6q-31 0 -67 -4q1 -54 2 -119t1 -80 q0 -22 -1 -24l2 -2l4 -82q0 -14 8 -27q3 -8 23 -14v-4l38 4q2 -2 2 -4v-2v-4l-4 -8v-11v-18q-2 -2 -2 -12l4 -21q-2 0 -4 -2h4q0 -4 2 -4q-4 0 -6 -2t-2 -12h-12q-2 -2 -2 -4l-55 -3q-3 -15 -6 -24q0 -30 -3 -39v-29q-2 -4 -2 -14v-63q9 -67 17 -80q2 -2 6 -17h6v-4h49 q4 -2 60 -2q47 0 49 2l6 -2l20 4l7 -4q0 -51 2 -57q-5 0 -9 -4v-9q-2 0 -4 -2l-30 2l-39 -18l-178 -4q-11 0 -13 2h-4l-2 2q-2 2 -4 2t-4 2l-4 4q-12 76 -12 111h-5q-2 -2 -2 -8q-2 0 -4 -2q0 -4 -12 -31h-4q-4 -4 -4 -6l-37 -19q-16 -12 -29 -18v-2l-28 -12l-25 -9h-37 q-20 0 -35 9q-21 6 -30 6v4q-7 0 -17 10l-12 12h-2v4q-6 3 -12 9q-10 5 -11 6v4h-4v2h-2q0 2 -2 4t-2 6h-4l-2 4l-2 2q-2 2 -2 4l-4 9q-11 15 -13 20h-2q0 1 -6 16h-2q-19 28 -22 45h-4q0 4 -7 25q-4 13 -4 20v3h-2q0 19 -12 49q-7 52 -7 76q0 8 1 10q-2 2 -2 12z" />
<glyph unicode="&#x178;" horiz-adv-x="718" d="M31 6q0 35 18 53q23 61 47 113l4 8l6 13l3 6l170 395l2 4q4 4 4 12q0 4 4 8q0 9 4 13t14 31q7 17 8 18q-3 19 11 27l-31 51q-29 56 -29 57h-4l-31 57l-65 115l-21 33l-8 12l-4 8l-6 9l-59 131l-5 8q-17 34 -18 35l-10 26q0 7 -2 11q-2 6 -2 10q5 8 12 8h2q6 3 6 2 q56 0 58 -2q12 -4 22 -14q0 -9 14 -23l99 -192q50 -93 114 -232h7q9 21 51 88q40 61 78 133q3 0 30 52q12 20 19 34l22 41q14 25 19 37q40 64 53 72l8 -4v-2l37 -17v-4v-10q-12 -15 -18 -55h-5l-22 -54l-49 -108q-21 -53 -25 -53q0 -2 2 -4l-20 -41q-1 -1 -8 -19 q-7 -11 -7 -12l-4 -8q0 -4 -2 -6l-2 -5l-6 -12q-2 -2 -2 -10h-2q0 -3 -6 -6l-4 -17l-29 -53l-47 -94v-4q-217 -481 -233 -481q-5 -12 -33 -66q-5 -5 -10 -18q-11 -16 -17 -33q-4 -12 -20 -78h-9q-2 2 -61 2zM214 1318v9q6 25 19 45l10 10l8 9l6 4v4h33v-4h12q0 -4 2 -4 q3 0 8 -5q3 0 5 -2v-2q6 0 8 -2l2 -4h2q0 -73 -8 -86h-2q-2 -2 -2 -8q-5 0 -7 -2v-2q-8 0 -10 -2v-4q-8 -4 -14 -6q-17 0 -19 -2l-34 14v2q-2 2 -7 2v2q-12 12 -12 34zM389 1331q0 12 1 17l17 32q2 2 8 2q7 12 20 12q7 0 11 -1v-2h12q4 -4 22 -13q17 -10 19 -16q13 0 13 -29 q0 -2 -0.5 -6t-0.5 -6q-2 -2 -6 -14q-3 -4 -6 -11q-2 0 -2 -2l-6 -10h-2q-6 -12 -33 -18l-25 8q-4 2 -22 8v2q-16 10 -19 27q-1 7 -1 20z" />
<glyph unicode="&#x2c6;" horiz-adv-x="346" d="M48 958q-3 17 4 27l2 2q0 5 5 8q0 5 4 13l34 61l43 84q10 9 11 14q3 3 6 11l4 4q23 0 29 -2h20q2 -2 8 -2l4 -15v-18l2 -2l5 -8l4 -9q2 -2 6 -14l41 -92q5 -5 16 -31h-4q-1 -1 -4.5 -2t-5.5 -2q-23 -10 -27 -14l-14 -6q-15 15 -39 73l-10 17h-2q0 2 -2 4l-5 4q-4 4 -6 4 l-10 -10q-2 -4 -8 -10q-8 -8 -45 -58q-4 -8 -6 -10q0 -4 -4 -4v-4l-2 -2q-24 -3 -27 -6q-2 0 -27 -5z" />
<glyph unicode="&#x2dc;" horiz-adv-x="520" d="M53 1255q19 86 35 91q4 8 10 14q32 41 85 41q8 0 24 -2h24l41 -17l11 -6q4 -2 10 -8q5 -1 37 -25q21 -19 41 -22q21 2 30 11t13 30l2 4q12 18 14 20q13 0 39 -20q-3 -30 -16 -53l-2 -2l-5 -4l-4 -9q-7 -7 -10 -16q-17 -17 -43 -31h-33q-5 2 -12 5t-11 5t-7 3l-35 20l-4 2 l-6 8q-9 9 -11 13l-32 18q-30 5 -52 5t-39 -5l-2 -2q-6 0 -8 -2l-14 -21l-14 -45q0 -2 -3 -2v-4q-4 -4 -6 -4l-8 4q-14 0 -16 2l-13 4h-10z" />
<glyph unicode="&#x2000;" horiz-adv-x="816" />
<glyph unicode="&#x2001;" horiz-adv-x="1632" />
<glyph unicode="&#x2002;" horiz-adv-x="816" />
<glyph unicode="&#x2003;" horiz-adv-x="1632" />
<glyph unicode="&#x2004;" horiz-adv-x="544" />
<glyph unicode="&#x2005;" horiz-adv-x="408" />
<glyph unicode="&#x2006;" horiz-adv-x="272" />
<glyph unicode="&#x2007;" horiz-adv-x="272" />
<glyph unicode="&#x2008;" horiz-adv-x="204" />
<glyph unicode="&#x2009;" horiz-adv-x="326" />
<glyph unicode="&#x200a;" horiz-adv-x="90" />
<glyph unicode="&#x2010;" horiz-adv-x="497" d="M57 532q0 33 2 35v2l4 4q5 29 16 29q3 0 8 -1t7 -1h4h3l2 1q5 0 8 -3h10h6l41 6q13 0 41 4q139 0 209 6q5 1 12 2t8 1q2 0 2 -1v-8q-2 0 -4 -2q-2 -4 -2 -45l-4 -12q-2 -2 -2 -10l-2 -4q0 -3 -2 -3v-6v-2l-8 -12h-6q-13 8 -134 8l-49 -10q-29 0 -75 1t-76 1q-6 -2 -8 -2 q-3 0 -5 2q-3 7 -6 20z" />
<glyph unicode="&#x2011;" horiz-adv-x="497" d="M57 532q0 33 2 35v2l4 4q5 29 16 29q3 0 8 -1t7 -1h4h3l2 1q5 0 8 -3h10h6l41 6q13 0 41 4q139 0 209 6q5 1 12 2t8 1q2 0 2 -1v-8q-2 0 -4 -2q-2 -4 -2 -45l-4 -12q-2 -2 -2 -10l-2 -4q0 -3 -2 -3v-6v-2l-8 -12h-6q-13 8 -134 8l-49 -10q-29 0 -75 1t-76 1q-6 -2 -8 -2 q-3 0 -5 2q-3 7 -6 20z" />
<glyph unicode="&#x2012;" horiz-adv-x="497" d="M57 532q0 33 2 35v2l4 4q5 29 16 29q3 0 8 -1t7 -1h4h3l2 1q5 0 8 -3h10h6l41 6q13 0 41 4q139 0 209 6q5 1 12 2t8 1q2 0 2 -1v-8q-2 0 -4 -2q-2 -4 -2 -45l-4 -12q-2 -2 -2 -10l-2 -4q0 -3 -2 -3v-6v-2l-8 -12h-6q-13 8 -134 8l-49 -10q-29 0 -75 1t-76 1q-6 -2 -8 -2 q-3 0 -5 2q-3 7 -6 20z" />
<glyph unicode="&#x2013;" horiz-adv-x="493" d="M55 451q0 32 2 34v2l2 5l9 8q8 0 10 -2q0 11 8 14l-2 2q0 2 4 2q0 2 8 2q11 0 13 -2h10h6l41 6q13 0 41 4q139 0 209 6q5 1 11.5 2t7.5 1h3v-9q-2 0 -4 -2q-2 -4 -2 -45l-4 -12v-4q-1 -1 -2 -3t-2 -3v-6q-2 -2 -2 -7v-2l-8 -12h-6q-13 8 -134 8l-49 -10q-28 0 -32 -2h-31 q-2 -2 -21 -2q-2 2 -4 2l-2 2q-2 2 -4 2h-57q-3 -1 -8 -1q-4 0 -5 1q-3 6 -6 21z" />
<glyph unicode="&#x2014;" horiz-adv-x="675" d="M55 459q0 33 2 35v2l2 4l9 8q8 0 10 -2q0 11 8 14l-2 2q0 2 4 2q0 2 8 2q11 0 13 -2h10h6l41 6q6 0 41 5q321 0 391 6q5 1 12 2t8 1q3 0 3 -1v-8q-2 0 -5 -3q-2 -4 -2 -45q0 -1 0.5 -4t0.5 -4q0 -17 -11 -28l-8 -13h-6q-13 8 -133 8q-232 -3 -232 -10q-28 0 -32 -2h-31 q-2 -2 -21 -2q-2 2 -4 2l-2 2q-2 2 -4 2h-57q-3 -1 -8 -1q-4 0 -5 1q-3 6 -6 21z" />
<glyph unicode="&#x2018;" horiz-adv-x="301" d="M51 1112q5 38 16 60t11 24l14 31q28 22 35 24v4q65 22 84 25q2 -2 2 -10l1 -1q2 -1 2 -2l-1 -1q-9 -9 -20.5 -26t-14.5 -19q-20 -30 -25.5 -43.5t-5.5 -33.5q0 -2 0.5 -8t0.5 -10q72 5 85 5q8 0 9 -1l6 -6v-12q0 -18 -7.5 -69t-11.5 -64q-3 -9 -8 -14q-3 -3 -6.5 -4 l-10.5 -3t-13 -4q-11 -5 -29 -5h-3q-2 0 -4 -0.5t-3 -0.5q-33 -5 -64 -14q-17 0 -27 29q-8 40 -8 46v3l-2 8z" />
<glyph unicode="&#x2019;" horiz-adv-x="303" d="M51 1090v12q0 18 7.5 69t11.5 64q3 9 8 14q3 3 7 4t11 3t13 4q11 5 28 5h3q2 0 4 0.5t3 0.5q33 5 64 14q17 0 27 -29q8 -40 8 -46v-3l2 -8l2 -92q-5 -38 -16 -60t-11 -24l-14 -31q-28 -22 -35 -24v-5q-60 -21 -84 -24q-2 2 -2 10l-1 1q-2 1 -2 2l1 1q9 9 20.5 26t14.5 19 q20 30 25.5 43.5t5.5 33.5v17q-57 -4 -86 -4h-9z" />
<glyph unicode="&#x201a;" horiz-adv-x="307" d="M53 137v13q0 18 7.5 69t11.5 64q3 9 8 14q3 3 7 4t11 2.5t13 3.5q13 6 28 6h3h8q23 4 63 15q17 0 27 -29q8 -40 8 -47v-2l2 -8l2 -92q-5 -38 -16 -60t-11 -24l-14 -31q-30 -23 -35 -25v-4q-60 -21 -84 -24q-2 2 -2 10l-1 1q-2 1 -2 2l1 1q9 9 20.5 26t14.5 19 q20 30 25.5 43t5.5 33v18q-72 -5 -86 -5q-8 0 -9 1z" />
<glyph unicode="&#x201c;" horiz-adv-x="542" d="M51 1112q5 38 16 60t11 24l14 31q28 22 35 24v4q65 22 84 25q2 -2 2 -10l1 -1q2 -1 2 -2l-1 -1q-9 -9 -20.5 -26t-14.5 -19q-20 -30 -25.5 -43.5t-5.5 -33.5q0 -2 0.5 -8t0.5 -10q72 5 85 5q8 0 9 -1l6 -6v-12q0 -18 -7.5 -69t-11.5 -64q-3 -9 -8 -14q-3 -3 -6.5 -4 l-10.5 -3t-13 -4q-11 -5 -29 -5h-3q-2 0 -4 -0.5t-3 -0.5q-33 -5 -64 -14q-17 0 -27 29q-8 40 -8 46v3l-2 8zM293 1112q5 38 15.5 60.5t10.5 23.5l15 31q28 22 35 24v4q65 22 84 25q2 -2 2 -10q2 -2 2 -3v-1q-9 -9 -20.5 -26t-14.5 -19q-20 -30 -25.5 -43.5t-5.5 -33.5v-18 q72 5 85 5q8 0 9 -1l7 -6v-12q0 -18 -7.5 -69t-11.5 -64q-3 -9 -8 -14q-3 -3 -7 -4t-11 -3t-13 -4q-11 -5 -28 -5h-3q-2 0 -4.5 -0.5t-3.5 -0.5q-31 -5 -63 -14q-17 0 -27 29q-9 45 -9 46l1 3l-2 8z" />
<glyph unicode="&#x201d;" horiz-adv-x="544" d="M51 1090v12q0 18 7.5 69t11.5 64q3 9 8 14q3 3 7 4t11 3t13 4q11 5 28 5h3q2 0 4 0.5t3 0.5q33 5 64 14q17 0 27 -29q8 -40 8 -46v-3l2 -8l2 -92q-5 -38 -16 -60t-11 -24l-14 -31q-28 -22 -35 -24v-5q-60 -21 -84 -24q-2 2 -2 10l-1 1q-2 1 -2 2l1 1q9 9 20.5 26t14.5 19 q20 30 25.5 43.5t5.5 33.5v17q-57 -4 -86 -4h-9zM293 1090v12q0 18 7 69.5t11 63.5q3 9 8 14q3 3 7 4t11 3t13 4q11 5 29 5h2q2 0 4.5 0.5t3.5 0.5q33 5 64 14q16 0 26 -29q9 -45 9 -46l-1 -3l2 -8l3 -92q-5 -38 -16 -60t-11 -24l-14 -31q-28 -22 -35 -24v-5 q-60 -21 -84 -24q-2 2 -2 10l-1 1q-2 1 -2 2l1 1q9 9 20 26t14 19q20 31 26 44t6 33q0 2 -0.5 7.5t-0.5 9.5q-57 -4 -85 -4h-9z" />
<glyph unicode="&#x201e;" horiz-adv-x="548" d="M53 158v12q0 18 7.5 69t11.5 64q3 9 8 14q3 3 7 4t11 3t13 4q11 5 28 5h3q2 0 4.5 0.5t3.5 0.5q31 5 63 14q17 0 27 -29q8 -40 8 -46v-3l2 -8l2 -92q-5 -38 -16 -60t-11 -24l-14 -31q-28 -22 -35 -24v-4q-65 -22 -84 -25q-2 2 -2 10l-1 1q-2 1 -2 2l1 1q9 9 20.5 26 t14.5 19q20 30 25.5 43.5t5.5 33.5v18q-72 -5 -86 -5q-8 0 -9 1zM295 158v12q0 18 7 69.5t11 63.5q3 7 9 14q3 3 6.5 4l10.5 3t13 4q11 5 29 5h2q2 0 4.5 0.5t3.5 0.5q33 5 64 14q16 0 26 -29q9 -45 9 -46l-1 -3l3 -8l2 -92q-5 -38 -16 -60t-11 -24l-14 -31q-28 -22 -35 -24 v-4q-65 -22 -84 -25q-2 2 -2 10l-1 1q-2 1 -2 2l1 1q9 9 20.5 26t14.5 19q20 30 25.5 43.5t5.5 33.5q0 2 -0.5 8t-0.5 10q-72 -5 -85 -5q-8 0 -9 1z" />
<glyph unicode="&#x2022;" horiz-adv-x="514" d="M53 512v14q1 3 1.5 5.5t0.5 4.5t0.5 4t1.5 3q-1 1 -1 2t1 5.5t2 8.5l4 8q0 3 5 11l6 8v6v2h2q0 7 12 24q5 5 14.5 15.5t14.5 15.5q15 18 16 19l23 20q12 12 56 30.5t72 18.5q7 0 15 -2q6 -2 12 -2q4 -4 6 -4q21 -6 43 -20.5t34 -25.5t36 -34q32 -30 32 -101q0 -32 -9 -65 q-2 -9 -4.5 -19.5t-4 -16t-2.5 -7.5q-9 -26 -27 -53.5t-32 -30.5v-2q-1 0 -12 -8q-8 -4 -17 -10q-24 -12 -47 -17q-33 -8 -98 -14q-44 11 -59 19v4q-35 7 -56 37l-20 38l-11 31q0 4 -2 6l1 1l-1 1v4q-2 2 -2 5l-4 14z" />
<glyph unicode="&#x2026;" horiz-adv-x="602" d="M55 63q0 65 47 65q31 0 48 -17l2 -2q2 -2 2 -5q0 -4 2 -6l2 -4q6 -6 8 -6q-2 -2 -2 -4q3 -6 3 -17t-3 -26q-9 -20 -31 -33l-29 -6l-14 6q-15 0 -18 8q-6 3 -6 13q-2 2 -7 2q1 0 1 1l-2 10q-3 10 -3 21zM236 55q0 30 24 64q2 4 4 4q17 10 30 10q14 0 38 -22h-4v-2 q1 0 4 -3q4 0 6 -2q0 -2 2 -4t2 -10v-4l2 -2q2 -2 2 -4v-6q-2 -2 -2 -4q-2 -2 -2 -7v-10q-5 -5 -14 -20q-18 -12 -27 -21l-18 -4q-33 9 -47 47zM430 72q0 12 6 26q10 15 31 25t40 10q40 0 40 -39l-2 -4q-2 -2 -2 -8q-2 -2 -2 -3t2 -3q-7 -10 -11 -21q-12 -6 -18 -18 q-15 -6 -33 -12q-10 0 -12 -2q-2 0 -2 -3q-17 3 -21 11h-2l-10 20q-4 9 -4 21z" />
<glyph unicode="&#x202f;" horiz-adv-x="326" />
<glyph unicode="&#x2039;" horiz-adv-x="516" d="M49 381q0 22 37 65q35 35 41 39q1 1 6 11l4 4h4v2q20 13 31 30l6 5l10 10l6 5q6 4 11 9q3 7 16 21q16 9 19 16q2 0 22 20q23 20 31 25q0 4 2 4q3 0 20 17l9 8l6 4q2 0 4 2l4 4q0 4 10 14q9 12 25 25l16 16q28 28 70 57l8 7h2l-2 -2q0 -15 1 -43.5t1 -32.5v-4l-6 -19 l-8 -8l-4 -2v-4h-5l-4 -4q0 -2 -2 -4l-4 -4l-14 -15q-6 -3 -10 -14q-21 -12 -21 -24h-4l-22 -23q-6 -10 -23 -27q0 -1 -6 -10l-10 -10h-4l-66 -72l-4 -4q-2 0 -2 -2l-4 -2v-4h-2l-4 -4l-2 -4l-5 -4q-21 -21 -24 -35h-2l-2 -2q0 -4 -2 -4q-2 -2 -2 -8h-4q-6 -6 -15 -21 q20 -39 33 -39q0 -9 21 -27t30 -24v-2l19 -19l6 -8t4 -4q9 -6 12 -16q1 -1 2 -3t2 -3l4 -4q1 -1 4 -5t5 -6q2 0 4 -2v-4q8 -3 12 -10q2 0 4 -2v-2l4 -4l8 -13l11 -14q19 -29 39 -43q16 -16 28 -22v-3q2 -2 10 -2l19 -30q0 -13 2 -15l-14 -14q-17 -17 -17 -18l-10 -7v-2h-4 l-2 -2v-4l-8 -4q0 -4 -4 -8l-21 12l-29 37q-14 18 -37 41l-16 10v4l-16 13q-10 10 -13 16q-6 0 -32 29q-23 33 -27 33l-14 16l-2 2l-4 4l-5 8l-14 25q-8 8 -16 8q-2 12 -15 16q0 7 -14 13l-33 32q0 4 -8 9l-4 4l-2 2q-2 2 -4 2q-18 9 -27 43q-2 0 -4 2zM158 512q2 2 6 2h-6 v-2z" />
<glyph unicode="&#x203a;" horiz-adv-x="458" d="M47 2q-6 9 4 25h2l6 12q6 0 15 20t18 23q0 14 60 74l61 61q1 1 3 2t3 2l4 4l6 6q15 21 15 25q12 7 35 51q20 20 20 49q-1 0 -4 9l-4 2l-14 18l-7 6q-1 1 -3.5 4.5t-4.5 5.5l-10 21h-4q0 5 -8 18t-8 17l-56 88l-55 86h-2q0 10 -14 24q-15 15 -15 25q-9 3 -16 20 q-9 16 0 25l4 2l4 2l4 4q4 0 8 4q4 1 9 4.5t6 3.5q7 3 12 7q0 5 20 8l7 -8l10 -21l14 -29q24 -44 33 -53l37 -53q21 -27 35 -41v-4q0 -1 14 -23l20 -34l11 -17h4q0 -8 16 -24q3 -14 6 -17q7 0 21 -33q17 -32 26 -38q0 -12 15 -15q0 -24 -4 -28l-7 -7l-4 -4q-2 -4 -8 -10 q-25 -22 -33 -41h-4l-43 -59q-8 -12 -139 -131v-4q-9 0 -31 -25q-18 -21 -28 -41q-2 2 -21 2l-2 -2v2q-30 3 -39 0z" />
<glyph unicode="&#x205f;" horiz-adv-x="408" />
<glyph unicode="&#x20ac;" horiz-adv-x="681" d="M33 575q3 51 18 78l2 2l8 4l9 5q2 2 45 2v12v6q0 4 2 6t2 6v13v43h-33l-18 -4l-2 2q-5 0 -5 2q2 31 19 69q3 3 18 6q12 3 27 9.5t29 9.5v2q2 2 4 2q6 47 10 51q0 52 14 84l6 39q9 17 17 72l14 41h4q0 7 6 22l9 17h2q0 25 28 53l13 24q3 0 10 13q24 36 77 71t96 35 q7 0 17 -2q7 0 25 -5t24 -9q3 0 5 -2t10 -2h2q4 -4 6 -4q1 -1 3 -2.5t3 -2.5l2 -2q12 -6 14 -8v-4q9 0 31 -31q2 -2 4.5 -5.5t3.5 -4.5l7 -6q7 -11 10 -26.5t14 -30.5q2 -2 2 -25q-2 0 -2 -2v4h-4q1 -1 1 -3q0 -4 -3 -7l-8 -8q-4 0 -6 -2t-7 -2q-3 -3 -12 -6q-3 -3 -10 -3 q-19 0 -23 54l-8 20q-20 14 -20 23h-6v4l-9 4q-4 0 -6 2l-2 2q-2 2 -4 2l-2 2q-8 4 -10 6l-23 8l-30 -6q-46 -16 -54 -32l-4 -5q-2 -2 -4 -2q-3 -17 -22 -26q-21 -15 -21 -29h-4l-33 -65l-16 -39q-14 -35 -19 -50q-7 -14 -10 -40q-6 -27 -6 -48q-9 -6 -18 -75v-19l221 -10 q14 -9 14 -15q0 -4 -4 -8q2 -2 2 -18q-4 -4 -4 -16l-4 -9v-4l-2 -4q-6 -21 -6 -24h-64q-196 0 -196 -15q0 -10 -2 -14v-12l-4 -13v-16q-4 -4 -4 -8q0 -2 1 -2q3 -1 115.5 -5t132.5 -7q30 0 33 -3q0 -26 -2 -30t-2 -41q-2 -2 -2 -4q-2 -2 -2 -6v-11h-2q-2 -2 -2 -14h-6 q-2 -2 -2 -4v4h-248q-11 0 -25 -2q-8 -57 -8 -160l2 -72q8 -47 25 -108v-2l2 -4l2 -4v-13q3 -14 12 -26q7 -7 21.5 -24.5t26 -25t34.5 -14.5q22 -2 30 -2q31 0 50 10q32 17 53.5 38t48.5 61q3 6 6 26q0 5 2 7l4 4q3 3 3 4l6 12q0 6 2 8l4 4v4l16 5v-3q13 0 15 -2l4 -4v4 q2 2 20 2q0 5 16 5l5 -5l-5 -4q-2 -2 -4 -2h4v-8h-4q-9 -15 -32 -76q0 -13 -23 -57q-21 -37 -41 -47q0 -3 -12 -12l-4 -4q-2 -1 -10 -9l-13 -6v-2h-6q-38 -26 -113 -47q-2 -2 -36 -2l-21 6q-5 5 -22 12l-9 5l-8 4l-2 2l-8 2l-4 2q-1 1 -3 2t-3 2l-4 4l-13 8q-18 13 -26 25 q-8 8 -8 14h-3q0 2 -6 8v8q-8 0 -8 9h-2q-4 4 -4 12q-8 13 -8 18l-10 21q-7 0 -7 14q-8 8 -14 35q-7 30 -8 31q0 33 -2 39v28q-2 4 -2 13l4 4q0 4 -2 4v8q-2 0 -2 6h2q0 14 2 46t2 49v18v61q2 6 2 43h-49q-2 2 -2 12z" />
<glyph unicode="&#x2122;" horiz-adv-x="763" d="M49 1124l19 105q3 12 14 20q2 0 4 -2q3 -1 7 -1q2 0 3 1h25v2q43 0 80 -6q8 3 32 6q77 0 129 -24v-70q3 -9 3 -10q0 -9 -7 -25q-28 0 -30 2h-43q-16 0 -29 -8q-2 -2 -2 -10q0 -6 -2 -8l-4 -13q0 -4 2 -6q-2 0 -4 -2v-67q-7 -7 -7 -29q0 -10 1 -16l-9 -68q0 -25 2 -27 l5 -4h-5q2 -8 2 -10q0 -8 -6 -14q-2 -2 -2 -9l-67 -2q-2 2 -2 27q0 31 2 33v26v21q4 0 4 4v10q0 4 2 6q0 6 6 68q1 20 8 59v25l2 12q-2 2 -18 2q-28 0 -55 -8l-56 4l-2 2q-2 2 -2 4zM385 840q8 31 8 45q0 6 2 8t2 8q0 12 2 14t2 9q3 60 11 92h2q0 40 8 59l4 45l6 45 q0 15 2 17q0 12 2 14h-4q0 5 8 18h74q2 0 2 -2q2 0 2 -2q3 -17 6 -22q11 -18 13 -29q4 -4 8 -12l2 -6q-2 -2 -2 -4q4 0 6 -2v-5l4 7q3 6 12 18l17 27l6 6l2 4l10 10l16 12q5 0 56 7q0 2 8 2v4h12q-2 -2 -2 -4l4 -6v-17v-12h-4l4 -12l4 -21q0 -9 7 -37q0 -6 2 -8l-2 -14 q0 -11 -7 -72q0 -14 -0.5 -31t-1 -26t-0.5 -14v-7l-4 -49q-3 -52 -6 -72l-4 -8q-2 -6 -6 -10q-20 2 -28 2q-28 0 -42 -10q0 10 -2 12v8q-2 2 -2 6v93q-6 83 -12 126q-8 0 -8 -10q-7 0 -27 -20l-16 -15l-11 -12l-4 -6q-4 0 -14 10q-6 12 -6 19q-6 9 -6 14q-4 4 -21 31 q0 -36 -12 -107l-4 -45q-1 -14 -2 -29t-1 -18q0 -5 1 -6q-2 0 -4 -2q0 -10 -2 -12q-5 1 -15 1q-22 0 -47 -12q0 2 -4 6q0 5 -4 9zM684 1221h2q0 2 2 4z" />
<glyph unicode="&#x25fc;" horiz-adv-x="931" d="M0 0v932h932v-932h-932z" />
</font>
</defs>
</svg>
