<svg xmlns="http://www.w3.org/2000/svg" viewBox="0 0 22.87 22.87"><defs><style>.cls-1{fill:#0066b3;}.cls-2{fill:#fff;}</style></defs><title>Ресурс 31</title><g id="Слой_2" data-name="Слой 2"><g id="Слой_1-2" data-name="Слой 1"><path class="cls-1" d="M0,0V22.87H22.87V0Z"/><path class="cls-2" d="M19.43,13.88"/><path class="cls-2" d="M18.88,6a.45.45,0,0,1,.45.45v11a.45.45,0,0,1-.45.45H4a.45.45,0,0,1-.45-.45v-11A.45.45,0,0,1,4,6Zm-7.45,6.2,3.18-2.75,2.6-2.25H5.66l2.6,2.25ZM15.16,10l-3.45,3a.43.43,0,0,1-.56,0L7.71,10,4.85,7.57v8.71L7.71,13.8l1.6-1.38a.42.42,0,0,1,.55.63l-1.6,1.39-2.6,2.25H17.21l-2.6-2.25L13,13.06a.42.42,0,0,1,0-.59.41.41,0,0,1,.59,0l1.6,1.38L18,16.28V7.57Zm0,0"/></g></g></svg>