<svg xmlns="http://www.w3.org/2000/svg" viewBox="0 0 22.87 22.87"><defs><style>.cls-1{fill:#0066b3;}.cls-2{fill:#fff;}.cls-3{fill:#005ca9;}</style></defs><title>Ресурс 41</title><g id="Слой_2" data-name="Слой 2"><g id="Слой_1-2" data-name="Слой 1"><path class="cls-1" d="M0,0V22.87H22.87V0Z"/><path class="cls-2" d="M19.43,13.88v0a5.77,5.77,0,0,1-3.9,3.75h0a21.71,21.71,0,0,1-4.08.39c-.4,0-.8,0-1.2,0L8.39,19.92a.73.73,0,0,1-1.26-.51V17.59a5.82,5.82,0,0,1-3.68-3.7v0A16,16,0,0,1,3.44,7V7a5.78,5.78,0,0,1,3.9-3.75h0a21.65,21.65,0,0,1,8.15,0h0A5.77,5.77,0,0,1,19.43,7V7a16,16,0,0,1,0,6.87Z"/><path class="cls-3" d="M15.22,4.7a20.18,20.18,0,0,0-7.57,0A4.37,4.37,0,0,0,4.9,7.33a14.48,14.48,0,0,0,0,6.21,4.37,4.37,0,0,0,2.75,2.63h0a.1.1,0,0,1,.08.1v3a.17.17,0,0,0,.29.12l1.43-1.47,1.35-1.38a.1.1,0,0,1,.08,0,20.18,20.18,0,0,0,4.34-.35A4.37,4.37,0,0,0,18,13.54a14.46,14.46,0,0,0,0-6.21A4.36,4.36,0,0,0,15.22,4.7Zm0,9a2.33,2.33,0,0,1-1,1.1,2.4,2.4,0,0,1-.43.14c-.17-.05-.33-.09-.48-.15A10.89,10.89,0,0,1,9.24,12a10.65,10.65,0,0,1-1.57-2.4c-.2-.41-.37-.84-.54-1.26a1.09,1.09,0,0,1,.32-1.07,2.53,2.53,0,0,1,.85-.64A.54.54,0,0,1,9,6.84a8.74,8.74,0,0,1,1,1.47.7.7,0,0,1-.2.95l-.23.18a.75.75,0,0,0-.17.18.49.49,0,0,0,0,.43,3.91,3.91,0,0,0,2.2,2.43,1.12,1.12,0,0,0,.56.14c.34,0,.46-.42.7-.62a.66.66,0,0,1,.79,0c.25.16.5.33.75.51a8.48,8.48,0,0,1,.7.53.56.56,0,0,1,.17.69Zm-2-3.61h0A.25.25,0,0,1,13,9.84a2.53,2.53,0,0,0,0-.32A.91.91,0,0,0,12.6,9a.88.88,0,0,0-.27-.13c-.12,0-.25,0-.38-.06a.23.23,0,0,1-.19-.27.24.24,0,0,1,.26-.2,1.39,1.39,0,0,1,1.43,1.39.64.64,0,0,1,0,.2.2.2,0,0,1-.17.16ZM12.77,8A2.77,2.77,0,0,0,12,7.74l-.35,0a.22.22,0,0,1-.21-.25.22.22,0,0,1,.24-.22A3.18,3.18,0,0,1,13,7.57a2.69,2.69,0,0,1,1.46,2.09s0,.08,0,.13,0,.21,0,.35a.94.94,0,0,1,0,.14.23.23,0,0,1-.43,0,.61.61,0,0,1,0-.2,2.45,2.45,0,0,0-.31-1.23,2.29,2.29,0,0,0-1-.9Zm2.6,2.9c-.16,0-.24-.13-.25-.28s0-.58-.08-.86a3.62,3.62,0,0,0-2.92-3c-.23,0-.46-.05-.69-.08s-.33,0-.37-.2a.25.25,0,0,1,.24-.28h.12c1.95.05.12,0,0,0a4.12,4.12,0,0,1,4,3.4c.06.34.08.69.11,1a.24.24,0,0,1-.23.29Zm0,0"/><path class="cls-2" d="M19.43,13.88"/></g></g></svg>