<svg xmlns="http://www.w3.org/2000/svg" viewBox="0 0 22.87 22.87"><defs><style>.cls-1{fill:#0066b3;}.cls-2{fill:#fff;}</style></defs><title>Ресурс 51</title><g id="Слой_2" data-name="Слой 2"><g id="Слой_1-2" data-name="Слой 1"><rect class="cls-1" width="22.87" height="22.87"/><path class="cls-2" d="M3.44,19.44l1.12-4a8,8,0,1,1,3,2.92Zm4.31-2.51.24.15A6.63,6.63,0,1,0,5.86,15l.16.26-.65,2.29Zm0,0"/><path class="cls-2" d="M9.2,7.7l-.52,0a.63.63,0,0,0-.45.15A2.36,2.36,0,0,0,7.46,9a3.61,3.61,0,0,0,.84,2.83,8.41,8.41,0,0,0,4.53,3.3,2.21,2.21,0,0,0,1.87-.23,1.67,1.67,0,0,0,.73-1.06l.08-.39a.27.27,0,0,0-.15-.3l-1.75-.81a.27.27,0,0,0-.33.08l-.69.89a.2.2,0,0,1-.22.07,5.39,5.39,0,0,1-2.91-2.49.2.2,0,0,1,0-.22l.66-.76a.27.27,0,0,0,0-.28L9.43,7.86A.27.27,0,0,0,9.2,7.7Zm0,0"/></g></g></svg>