<?xml version="1.0" encoding="UTF-8" standalone="no"?>
<svg width="59px" height="53px" viewBox="0 0 59 53" version="1.1" xmlns="http://www.w3.org/2000/svg" xmlns:xlink="http://www.w3.org/1999/xlink">
    <!-- Generator: Sketch 3.7.2 (28276) - http://www.bohemiancoding.com/sketch -->
    <title>díjfizetési gyakoriság változtatás</title>
    <desc>Created with Sketch.</desc>
    <defs>
        <polygon id="path-1" points="0 52.5 58.75 52.5 58.75 0 0 0"></polygon>
    </defs>
    <g id="Page-1" stroke="none" stroke-width="1" fill="none" fill-rule="evenodd">
        <g id="Uniqa---ügyintézés-D-Copy" transform="translate(-217.000000, -735.000000)">
            <g id="3" transform="translate(74.000000, 722.000000)">
                <g id="díjfizetési-gyakoriság-változtatás" transform="translate(143.000000, 13.000000)">
                    <path d="M48.75,50 C44.608,50 41.25,46.642 41.25,42.5 C41.25,38.358 44.608,35 48.75,35 C52.892,35 56.25,38.358 56.25,42.5 C56.25,46.642 52.892,50 48.75,50 L48.75,50 Z M48.75,32.5 C43.227,32.5 38.75,36.977 38.75,42.5 C38.75,48.023 43.227,52.5 48.75,52.5 C54.273,52.5 58.75,48.023 58.75,42.5 C58.75,36.977 54.273,32.5 48.75,32.5 L48.75,32.5 Z" id="Fill-1" fill="#FFFFFF"></path>
                    <polygon id="Fill-3" fill="#FFFFFF" points="48.75 48.75 48.75 43.75 45.75 46.25"></polygon>
                    <path d="M48.75,37.5 C45.989,37.5 43.75,39.739 43.75,42.5 L46.25,42.5 C46.25,41.119 47.369,40 48.75,40 L48.75,37.5 Z" id="Fill-5" fill="#FFFFFF"></path>
                    <path d="M48.75,45 L48.75,47.5 C51.511,47.5 53.75,45.261 53.75,42.5 L51.25,42.5 C51.25,43.881 50.131,45 48.75,45" id="Fill-7" fill="#FFFFFF"></path>
                    <polygon id="Fill-9" fill="#FFFFFF" points="48.75 36.25 48.75 41.25 51.75 38.75"></polygon>
                    <mask id="mask-2" fill="white">
                        <use xlink:href="#path-1"></use>
                    </mask>
                    <g id="Clip-12"></g>
                    <polygon id="Fill-11" fill="#FFFFFF" mask="url(#mask-2)" points="8.75 15 11.25 15 11.25 0 8.75 0"></polygon>
                    <polygon id="Fill-13" fill="#FFFFFF" mask="url(#mask-2)" points="38.75 15 41.25 15 41.25 0 38.75 0"></polygon>
                    <polygon id="Fill-14" fill="#FFFFFF" mask="url(#mask-2)" points="16.25 40 18.75 40 18.75 21.25 16.25 21.25"></polygon>
                    <path d="M35.0991,29.4265 L35.0881,29.4185 C35.8031,28.5535 36.2501,27.4595 36.2501,26.2495 C36.2501,23.4885 34.0111,21.2495 31.2501,21.2495 C28.4891,21.2495 26.2501,23.4885 26.2501,26.2495 L28.7501,26.2495 C28.7501,24.8695 29.8691,23.7495 31.2501,23.7495 C32.6311,23.7495 33.7501,24.8695 33.7501,26.2495 C33.7501,26.9015 33.4951,27.4885 33.0871,27.9335 L33.0891,27.9345 L30.7631,31.2005 C30.7641,31.2005 30.7651,31.2005 30.7661,31.2015 L26.2791,37.4995 L26.2501,37.4995 L26.2501,39.9995 L36.2501,39.9995 L36.2501,37.4995 L29.3491,37.4995 L35.0991,29.4265 Z" id="Fill-15" fill="#FFFFFF" mask="url(#mask-2)"></path>
                    <path d="M38.767,50 L37.751,50 L12.249,50 L2.5,50 L2.5,40.251 L2.5,12.5 L47.5,12.5 L47.5,30.063 C47.911,30.022 48.328,30 48.75,30 C49.172,30 49.589,30.022 50,30.063 L50,11.25 L50,6.25 C50,6.25 49.998,6.149 49.983,5.991 C49.926,4.838 49.502,4.064 48.952,3.548 C48.436,2.998 47.662,2.574 46.509,2.517 C46.351,2.502 46.25,2.5 46.25,2.5 L41.25,2.5 L8.75,2.5 L3.75,2.5 C3.75,2.5 3.649,2.502 3.491,2.517 C2.338,2.574 1.564,2.998 1.048,3.548 C0.498,4.064 0.074,4.838 0.017,5.991 C0.002,6.149 0,6.25 0,6.25 L0,11.25 L0,40 L0,43.75 L0,48.75 C0,52.5 3.75,52.5 3.75,52.5 L8.75,52.5 L12.5,52.5 L37.5,52.5 L41.25,52.5 L41.273,52.5 C40.323,51.789 39.48,50.948 38.767,50" id="Fill-16" fill="#FFFFFF" mask="url(#mask-2)"></path>
                </g>
            </g>
        </g>
    </g>
</svg>