<?xml version="1.0" encoding="UTF-8" standalone="no"?>
<svg width="51px" height="60px" viewBox="0 0 51 60" version="1.1" xmlns="http://www.w3.org/2000/svg" xmlns:xlink="http://www.w3.org/1999/xlink">
    <!-- Generator: Sketch 3.7.2 (28276) - http://www.bohemiancoding.com/sketch -->
    <title>díjigazolás kérés</title>
    <desc>Created with Sketch.</desc>
    <defs></defs>
    <g id="Page-1" stroke="none" stroke-width="1" fill="none" fill-rule="evenodd">
        <g id="Uniqa---ügyintézés-D-Copy" transform="translate(-822.000000, -578.000000)" fill="#FFFFFF">
            <g id="2" transform="translate(63.000000, 572.000000)">
                <g id="díjigazolás-kérés" transform="translate(759.000000, 6.000000)">
                    <path d="M10,30 L30,30 L30,27.5 L10,27.5 L10,30 Z M20,52.5 L20,54.349 L5.651,40 L10,40 L16.25,40 C16.25,40 20,40 20,43.75 L20,52.5 Z M10,25 L30,25 L30,22.5 L10,22.5 L10,25 Z M10,17.5 L30,17.5 L30,15 L10,15 L10,17.5 Z M10,12.5 L30,12.5 L30,10 L10,10 L10,12.5 Z M27.5,50 C27.5,43.096 33.096,37.5 40,37.5 L40,31.25 L40,28.75 L40,12.693 L40,11.25 L40,7.477 L40,5.816 L40,5 L40,3.75 C40,3.75 39.998,3.649 39.983,3.491 C39.926,2.338 39.502,1.564 38.952,1.048 C38.436,0.498 37.662,0.074 36.509,0.017 C36.351,0.002 36.25,0 36.25,0 L35,0 L34.184,0 L30,0 L20,0 L12.49,0 L10,0 L6.25,0 L5.816,0 L5,0 L3.75,0 C3.75,0 3.496,0.001 3.123,0.067 C2.307,0.173 1.701,0.469 1.258,0.863 C0.61,1.374 0.081,2.195 0.016,3.494 C0.002,3.65 0,3.75 0,3.75 L0,5 L0,5.816 L0,11.25 L0,12.693 L0,28.75 L0,31.25 L0,32.5 L0,36.25 C0,36.25 0.007,38.128 1.34,39.225 L20.88,58.765 C21.427,59.446 22.31,60 23.75,60 L27.51,60 L30,60 L32.523,60 C29.479,57.72 27.5,54.096 27.5,50 L27.5,50 Z" id="Fill-1"></path>
                    <path d="M40.25,57.25 C36.108,57.25 32.75,53.892 32.75,49.75 C32.75,45.608 36.108,42.25 40.25,42.25 C44.392,42.25 47.75,45.608 47.75,49.75 C47.75,53.892 44.392,57.25 40.25,57.25 M40.25,39.75 C34.727,39.75 30.25,44.227 30.25,49.75 C30.25,55.273 34.727,59.75 40.25,59.75 C45.773,59.75 50.25,55.273 50.25,49.75 C50.25,44.227 45.773,39.75 40.25,39.75" id="Fill-3"></path>
                    <polygon id="Fill-4" points="39 51.758 41.5 51.758 41.5 45.508 39 45.508"></polygon>
                    <polygon id="Fill-5" points="44 50.2685 36.5 50.2685 40.25 54.2575"></polygon>
                </g>
            </g>
        </g>
    </g>
</svg>