<?xml version="1.0" encoding="UTF-8" standalone="no"?>
<svg width="50px" height="60px" viewBox="0 0 50 60" version="1.1" xmlns="http://www.w3.org/2000/svg" xmlns:xlink="http://www.w3.org/1999/xlink">
    <!-- Generator: Sketch 3.7.2 (28276) - http://www.bohemiancoding.com/sketch -->
    <title>díjrendezettség ellenőrzés</title>
    <desc>Created with Sketch.</desc>
    <defs>
        <polygon id="path-1" points="0 60 50 60 50 0 0 0"></polygon>
    </defs>
    <g id="Page-1" stroke="none" stroke-width="1" fill="none" fill-rule="evenodd">
        <g id="Uniqa---ügyintézés-D-Copy" transform="translate(-672.000000, -731.000000)">
            <g id="3" transform="translate(74.000000, 722.000000)">
                <g id="díjrendezettség-ellenőrzés" transform="translate(598.000000, 9.000000)">
                    <polygon id="Fill-1" fill="#FFFFFF" points="39.6967 50.2144 37.9287 48.4464 36.1607 50.2144 37.9287 51.9824 39.6967 53.7504 41.4647 51.9824 44.9997 48.4464 43.2327 46.6784"></polygon>
                    <g id="Group-6">
                        <path d="M40,57.5 C35.858,57.5 32.5,54.142 32.5,50 C32.5,45.858 35.858,42.5 40,42.5 C44.142,42.5 47.5,45.858 47.5,50 C47.5,54.142 44.142,57.5 40,57.5 L40,57.5 Z M40,40 C34.477,40 30,44.477 30,50 C30,55.523 34.477,60 40,60 C45.523,60 50,55.523 50,50 C50,44.477 45.523,40 40,40 L40,40 Z" id="Fill-2" fill="#FFFFFF"></path>
                        <mask id="mask-2" fill="white">
                            <use xlink:href="#path-1"></use>
                        </mask>
                        <g id="Clip-5"></g>
                        <path d="M10,30 L30,30 L30,27.5 L10,27.5 L10,30 Z M20,52.5 L20,54.349 L5.651,40 L10,40 L16.25,40 C16.25,40 20,40 20,43.75 L20,52.5 Z M10,25 L30,25 L30,22.5 L10,22.5 L10,25 Z M10,17.5 L30,17.5 L30,15 L10,15 L10,17.5 Z M10,12.5 L30,12.5 L30,10 L10,10 L10,12.5 Z M27.5,50 C27.5,43.096 33.096,37.5 40,37.5 L40,31.25 L40,28.75 L40,12.693 L40,11.25 L40,7.477 L40,5.816 L40,5 L40,3.75 C40,3.75 39.998,3.649 39.983,3.491 C39.926,2.338 39.502,1.564 38.952,1.048 C38.436,0.498 37.662,0.074 36.509,0.017 C36.351,0.002 36.25,0 36.25,0 L35,0 L34.184,0 L30,0 L20,0 L12.49,0 L10,0 L6.25,0 L5.816,0 L5,0 L3.75,0 C3.75,0 3.496,0.001 3.123,0.067 C2.307,0.173 1.701,0.469 1.258,0.863 C0.61,1.374 0.081,2.195 0.016,3.494 C0.002,3.65 0,3.75 0,3.75 L0,5 L0,5.816 L0,11.25 L0,12.693 L0,28.75 L0,31.25 L0,32.5 L0,36.25 C0,36.25 0.007,38.128 1.34,39.225 L20.88,58.765 C21.427,59.446 22.31,60 23.75,60 L27.51,60 L30,60 L32.523,60 C29.479,57.72 27.5,54.096 27.5,50 L27.5,50 Z" id="Fill-4" fill="#FFFFFF" mask="url(#mask-2)"></path>
                    </g>
                </g>
            </g>
        </g>
    </g>
</svg>