<?xml version="1.0" encoding="UTF-8" standalone="no"?>
<svg width="78px" height="68px" viewBox="0 0 78 68" version="1.1" xmlns="http://www.w3.org/2000/svg" xmlns:xlink="http://www.w3.org/1999/xlink">
    <!-- Generator: Sketch 3.7.2 (28276) - http://www.bohemiancoding.com/sketch -->
    <title>gépjármű kárbejelentés</title>
    <desc>Created with Sketch.</desc>
    <defs>
        <polygon id="path-1" points="6.77626358e-20 0.5 6.77626358e-20 20.5 33.7347 20.5 33.7347 0.5 0 0.5"></polygon>
        <polygon id="path-3" points="0 67.5 77.5 67.5 77.5 0 0 0"></polygon>
    </defs>
    <g id="Page-1" stroke="none" stroke-width="1" fill="none" fill-rule="evenodd">
        <g id="Uniqa---ügyintézés-D-Copy" transform="translate(-57.000000, -421.000000)">
            <g id="1" transform="translate(57.000000, 421.000000)">
                <g id="gépjármű-kárbejelentés">
                    <path d="M66.2347,60 C66.2347,55.858 62.8767,52.5 58.7347,52.5 C54.5927,52.5 51.2347,55.858 51.2347,60 C51.2347,64.142 54.5927,67.5 58.7347,67.5 C62.8767,67.5 66.2347,64.142 66.2347,60 L66.2347,60 Z" id="Fill-1" fill="#FFFFFF"></path>
                    <polygon id="Fill-3" fill="#FFFFFF" points="77.5 20 63.735 20 53.735 40 77.5 40"></polygon>
                    <path d="M47.4847,40 C43.7347,40 43.7347,43.75 43.7347,43.75 L43.7347,60 L48.7347,60 C48.7347,54.477 53.2117,50 58.7347,50 C64.2577,50 68.7347,54.477 68.7347,60 L77.4997,60 L77.4997,40 L47.4847,40 Z" id="Fill-5" fill="#FFFFFF"></path>
                    <path d="M11.2347,60 C11.2347,55.858 14.5927,52.5 18.7347,52.5 C22.8767,52.5 26.2347,55.858 26.2347,60 C26.2347,64.142 22.8767,67.5 18.7347,67.5 C14.5927,67.5 11.2347,64.142 11.2347,60" id="Fill-7" fill="#FFFFFF"></path>
                    <polygon id="Fill-9" fill="#FFFFFF" points="0 20 13.735 20 23.735 40 0 40"></polygon>
                    <g id="Group-13" transform="translate(0.000000, 39.500000)">
                        <mask id="mask-2" fill="white">
                            <use xlink:href="#path-1"></use>
                        </mask>
                        <g id="Clip-12"></g>
                        <path d="M29.9847,0.5 C33.7347,0.5 33.7347,4.25 33.7347,4.25 L33.7347,20.5 L28.7347,20.5 C28.7347,14.977 24.2577,10.5 18.7347,10.5 C13.2117,10.5 8.7347,14.977 8.7347,20.5 L-0.0003,20.5 L-0.0003,0.5 L29.9847,0.5 Z" id="Fill-11" fill="#FFFFFF" mask="url(#mask-2)"></path>
                    </g>
                    <mask id="mask-4" fill="white">
                        <use xlink:href="#path-3"></use>
                    </mask>
                    <g id="Clip-15"></g>
                    <polygon id="Fill-14" fill="#FFFFFF" mask="url(#mask-4)" points="37.485 10 39.985 10 39.985 0 37.485 0"></polygon>
                    <polygon id="Fill-16" fill="#FFFFFF" mask="url(#mask-4)" points="50.5025 20 48.7345 18.232 55.8055 11.161 57.5735 12.929"></polygon>
                    <polygon id="Fill-17" fill="#FFFFFF" mask="url(#mask-4)" points="26.9669 20 28.7349 18.232 21.6639 11.161 19.8959 12.929"></polygon>
                </g>
            </g>
        </g>
    </g>
</svg>