<?xml version="1.0" encoding="UTF-8" standalone="no"?>
<svg width="70px" height="40px" viewBox="0 0 70 40" version="1.1" xmlns="http://www.w3.org/2000/svg" xmlns:xlink="http://www.w3.org/1999/xlink">
    <!-- Generator: Sketch 3.7.2 (28276) - http://www.bohemiancoding.com/sketch -->
    <title>levelezési cím változtatás</title>
    <desc>Created with Sketch.</desc>
    <defs></defs>
    <g id="Page-1" stroke="none" stroke-width="1" fill="none" fill-rule="evenodd">
        <g id="Uniqa---ügyintézés-D-Copy" transform="translate(-211.000000, -588.000000)" fill="#FFFFFF">
            <g id="2" transform="translate(63.000000, 572.000000)">
                <g id="levelezési-cím-változtatás" transform="translate(148.000000, 16.000000)">
                    <path d="M60,37.0498 C55.858,37.0498 52.5,33.6918 52.5,29.5498 C52.5,25.4078 55.858,22.0498 60,22.0498 C64.142,22.0498 67.5,25.4078 67.5,29.5498 C67.5,33.6918 64.142,37.0498 60,37.0498 M60,19.5498 C54.477,19.5498 50,24.0268 50,29.5498 C50,35.0728 54.477,39.5498 60,39.5498 C65.523,39.5498 70,35.0728 70,29.5498 C70,24.0268 65.523,19.5498 60,19.5498" id="Fill-1"></path>
                    <path d="M60,35.7998 L60,30.7998 L57,33.2998 L60,35.7998 Z M60,32.0498 L60,34.5498 C62.761,34.5498 65,32.3108 65,29.5498 L62.5,29.5498 C62.5,30.9308 61.381,32.0498 60,32.0498 Z" id="Combined-Shape"></path>
                    <path d="M60,24.5498 C57.239,24.5498 55,26.7888 55,29.5498 L57.5,29.5498 C57.5,28.1688 58.619,27.0498 60,27.0498 L60,24.5498 Z M60,23.2998 L60,28.2998 L63,25.7998 L60,23.2998 Z" id="Combined-Shape"></path>
                    <path d="M56.25,0 L55,0 L5,0 L3.75,0 C3.75,0 2.165,0.007 1.056,1.041 L27.13,23.75 C30,26.25 32.87,23.75 32.87,23.75 L58.944,1.041 C57.835,0.007 56.25,0 56.25,0" id="Fill-11"></path>
                    <path d="M47.5,29.5498 C47.5,22.6458 53.096,17.0498 60,17.0498 L60,3.4208 L32.87,27.0498 C32.8,27.1108 32.73,27.1558 32.66,27.2108 C32.247,27.5088 31.248,28.1178 30,28.1528 C28.752,28.1178 27.753,27.5088 27.34,27.2108 C27.27,27.1558 27.2,27.1108 27.13,27.0498 L0,3.4208 L0,17.0498 L0,33.7338 L0,34.5498 L0,35.7998 C0,39.5498 3.75,39.5498 3.75,39.5498 L5,39.5498 L12.5,39.5498 L47.5,39.5498 L52.523,39.5498 C49.479,37.2698 47.5,33.6458 47.5,29.5498" id="Fill-13"></path>
                </g>
            </g>
        </g>
    </g>
</svg>