<?xml version="1.0" encoding="UTF-8" standalone="no"?>
<svg width="60px" height="40px" viewBox="0 0 60 40" version="1.1" xmlns="http://www.w3.org/2000/svg" xmlns:xlink="http://www.w3.org/1999/xlink">
    <!-- Generator: Sketch 3.7.2 (28276) - http://www.bohemiancoding.com/sketch -->
    <title>online díjfizetés</title>
    <desc>Created with Sketch.</desc>
    <defs></defs>
    <g id="Page-1" stroke="none" stroke-width="1" fill="none" fill-rule="evenodd">
        <g id="Uniqa---ügyintézés-D-Copy" transform="translate(-817.000000, -741.000000)" fill="#FFFFFF">
            <g id="3" transform="translate(74.000000, 722.000000)">
                <g id="online-díjfizetés" transform="translate(743.000000, 19.000000)">
                    <path d="M60,10 L60,5.816 L60,5 L60,3.75 C60,0 56.25,0 56.25,0 L28.75,0 L11.25,0 L5.816,0 L5,0 L3.75,0 C0,0 0,3.75 0,3.75 L0,10 L60,10 Z" id="Fill-1"></path>
                    <path d="M0,20 L0,36.25 C0,36.25 0,40 3.75,40 L5,40 L5.816,40 L11.25,40 L28.75,40 L54.184,40 L55,40 L56.25,40 C60,40 60,36.25 60,36.25 L60,20 L0,20 Z" id="Fill-3"></path>
                </g>
            </g>
        </g>
    </g>
</svg>