<?xml version="1.0" encoding="UTF-8" standalone="no"?>
<svg width="70px" height="40px" viewBox="0 0 70 40" version="1.1" xmlns="http://www.w3.org/2000/svg" xmlns:xlink="http://www.w3.org/1999/xlink">
    <!-- Generator: Sketch 3.7.2 (28276) - http://www.bohemiancoding.com/sketch -->
    <title>személyes adat változtatás</title>
    <desc>Created with Sketch.</desc>
    <defs>
        <polygon id="path-1" points="0 40 70 40 70 0 0 0"></polygon>
    </defs>
    <g id="Page-1" stroke="none" stroke-width="1" fill="none" fill-rule="evenodd">
        <g id="Uniqa---ügyintézés-D-Copy" transform="translate(-215.000000, -1240.000000)">
            <g id="5" transform="translate(67.000000, 1232.000000)">
                <g id="személyes-adat-változtatás" transform="translate(148.000000, 8.000000)">
                    <path d="M60,37.5 C55.858,37.5 52.5,34.142 52.5,30 C52.5,25.858 55.858,22.5 60,22.5 C64.142,22.5 67.5,25.858 67.5,30 C67.5,34.142 64.142,37.5 60,37.5 L60,37.5 Z M60,20 C54.477,20 50,24.477 50,30 C50,35.523 54.477,40 60,40 C65.523,40 70,35.523 70,30 C70,24.477 65.523,20 60,20 L60,20 Z" id="Fill-1" fill="#FFFFFF"></path>
                    <polygon id="Fill-3" fill="#FFFFFF" points="60 36.25 60 31.25 57 33.75"></polygon>
                    <path d="M60,25 C57.239,25 55,27.239 55,30 L57.5,30 C57.5,28.619 58.619,27.5 60,27.5 L60,25 Z" id="Fill-5" fill="#FFFFFF"></path>
                    <path d="M60,32.5 L60,35 C62.761,35 65,32.761 65,30 L62.5,30 C62.5,31.381 61.381,32.5 60,32.5" id="Fill-7" fill="#FFFFFF"></path>
                    <polygon id="Fill-9" fill="#FFFFFF" points="60 23.75 60 28.75 63 26.25"></polygon>
                    <mask id="mask-2" fill="white">
                        <use xlink:href="#path-1"></use>
                    </mask>
                    <g id="Clip-12"></g>
                    <path d="M30,12.5 L48.75,12.5 L48.75,10 L30,10 L30,12.5 Z M30,17.5 L48.75,17.5 L48.75,15 L30,15 L30,17.5 Z M5.601,30 C6.675,25.635 10.604,22.393 15.3,22.393 C19.997,22.393 23.926,25.635 25,30 L5.601,30 Z M15.3,10 C18.062,10 20.3,12.239 20.3,15 C20.3,17.761 18.062,20 15.3,20 C12.539,20 10.3,17.761 10.3,15 C10.3,12.239 12.539,10 15.3,10 L15.3,10 Z M59.983,3.491 C59.926,2.338 59.502,1.564 58.952,1.048 C58.436,0.498 57.662,0.074 56.509,0.017 C56.351,0.002 56.25,0 56.25,0 L55,0 L54.184,0 L48.75,0 L31.25,0 L28.75,0 L11.25,0 L5.816,0 L5,0 L3.75,0 C3.75,0 3.649,0.002 3.491,0.017 C2.338,0.074 1.564,0.498 1.048,1.048 C0.498,1.564 0.074,2.338 0.017,3.491 C0.002,3.649 0,3.75 0,3.75 L0,5 L0,5.816 L0,20 L0,21.026 L0,27.51 L0,36.25 C0,36.25 0,40 3.75,40 L5,40 L5.816,40 L11.25,40 L12.693,40 L28.75,40 L31.25,40 L47.307,40 L48.75,40 L52.523,40 C49.479,37.72 47.5,34.096 47.5,30 C47.5,26.42 49.012,23.2 51.426,20.923 C51.437,20.913 51.449,20.904 51.46,20.893 C51.779,20.595 52.114,20.315 52.462,20.051 C54.558,18.458 57.163,17.5 60,17.5 L60,5.816 L60,5 L60,3.75 C60,3.75 59.998,3.649 59.983,3.491 L59.983,3.491 Z" id="Fill-11" fill="#FFFFFF" mask="url(#mask-2)"></path>
                </g>
            </g>
        </g>
    </g>
</svg>