<?xml version="1.0" encoding="UTF-8" standalone="no"?>
<svg width="40px" height="60px" viewBox="0 0 40 60" version="1.1" xmlns="http://www.w3.org/2000/svg" xmlns:xlink="http://www.w3.org/1999/xlink">
    <!-- Generator: Sketch 3.7.2 (28276) - http://www.bohemiancoding.com/sketch -->
    <title>szerződés megszűntetése</title>
    <desc>Created with Sketch.</desc>
    <defs>
        <polygon id="path-1" points="39.9996 60 0 60 0 0.0005 39.9996 0.0005 39.9996 60"></polygon>
    </defs>
    <g id="Page-1" stroke="none" stroke-width="1" fill="none" fill-rule="evenodd">
        <g id="Uniqa---ügyintézés-D-Copy" transform="translate(-827.000000, -425.000000)">
            <g id="1" transform="translate(57.000000, 421.000000)">
                <g id="szerződés-megszűntetése" transform="translate(770.000000, 4.000000)">
                    <mask id="mask-2" fill="white">
                        <use xlink:href="#path-1"></use>
                    </mask>
                    <g id="Clip-2"></g>
                    <path d="M28.9276,25.2145 L25.3916,28.7505 L20.0886,23.4465 L14.7856,28.7505 L11.2496,25.2145 L16.5536,19.9115 L11.2496,14.6075 L14.7856,11.0725 L20.0886,16.3755 L25.3916,11.0725 L28.9276,14.6075 L23.6246,19.9115 L28.9276,25.2145 Z M19.9996,52.5005 L19.9996,54.3495 L5.6506,40.0005 L9.9996,40.0005 L16.2496,40.0005 C16.2496,40.0005 19.9996,40.0005 19.9996,43.7505 L19.9996,52.5005 Z M39.9836,3.4915 C39.9256,2.3375 39.5016,1.5635 38.9516,1.0485 C38.4366,0.4985 37.6616,0.0745 36.5086,0.0165 C36.3516,0.0015 36.2496,0.0005 36.2496,0.0005 L34.9996,0.0005 L34.1846,0.0005 L29.9996,0.0005 L19.9996,0.0005 L12.4906,0.0005 L9.9996,0.0005 L6.2496,0.0005 L5.8156,0.0005 L4.9996,0.0005 L3.7496,0.0005 C3.7496,0.0005 3.4956,0.0015 3.1236,0.0665 C2.3076,0.1735 1.7006,0.4685 1.2576,0.8635 C0.6096,1.3745 0.0806,2.1945 0.0166,3.4935 C0.0016,3.6495 -0.000400000001,3.7505 -0.000400000001,3.7505 L-0.000400000001,5.0005 L-0.000400000001,5.8155 L-0.000400000001,11.2505 L-0.000400000001,12.6925 L-0.000400000001,28.7505 L-0.000400000001,31.2505 L-0.000400000001,32.5005 L-0.000400000001,36.2505 C-0.000400000001,36.2505 0.0066,38.1275 1.3406,39.2255 L20.8806,58.7655 C21.4266,59.4465 22.3106,60.0005 23.7496,60.0005 L24.9996,60.0005 L27.5096,60.0005 L29.9996,60.0005 L32.5226,60.0005 L33.7496,60.0005 L36.2496,60.0005 C36.2496,60.0005 39.9996,60.0005 39.9996,56.2505 L39.9996,51.2505 L39.9996,37.5005 L39.9996,31.2505 L39.9996,28.7505 L39.9996,12.6925 L39.9996,11.2505 L39.9996,7.4775 L39.9996,5.8155 L39.9996,5.0005 L39.9996,3.7505 C39.9996,3.7505 39.9986,3.6485 39.9836,3.4915 L39.9836,3.4915 Z" id="Fill-1" fill="#FFFFFF" mask="url(#mask-2)"></path>
                </g>
            </g>
        </g>
    </g>
</svg>