<?xml version="1.0" encoding="UTF-8" standalone="no"?>
<svg width="40px" height="56px" viewBox="0 0 40 56" version="1.1" xmlns="http://www.w3.org/2000/svg" xmlns:xlink="http://www.w3.org/1999/xlink">
    <!-- Generator: Sketch 3.7.2 (28276) - http://www.bohemiancoding.com/sketch -->
    <title>vagyonbiztosítás kárbejelentés</title>
    <desc>Created with Sketch.</desc>
    <defs>
        <polygon id="path-1" points="19.9998 50 0 50 0 0 39.9996 0 39.9996 50 19.9998 50"></polygon>
    </defs>
    <g id="Page-1" stroke="none" stroke-width="1" fill="none" fill-rule="evenodd">
        <g id="Uniqa---ügyintézés-D-Copy" transform="translate(-227.000000, -427.000000)">
            <g id="1" transform="translate(57.000000, 421.000000)">
                <g id="vagyonbiztosítás-kárbejelentés" transform="translate(170.000000, 6.000000)">
                    <polygon id="Fill-1" fill="#FFFFFF" points="11 2.5 28.5 2.5 28.5 0 11 0"></polygon>
                    <polygon id="Fill-2" fill="#FFFFFF" points="11 55.5 28.5 55.5 28.5 53 11 53"></polygon>
                    <g id="Group-5" transform="translate(0.000000, 5.000000)">
                        <mask id="mask-2" fill="white">
                            <use xlink:href="#path-1"></use>
                        </mask>
                        <g id="Clip-4"></g>
                        <path d="M37.303,20 C37.303,20 37.257,19.815 37.135,19.723 C35.653,17.258 33.67,15.131 31.305,13.507 C29.337,10.56 28.121,7.533 27.373,5.09 L19.571,12.892 L26.643,19.963 L28.41,21.731 L26.643,23.499 L14.268,35.873 L12.5,34.105 L24.875,21.731 L17.804,14.66 L16.036,12.892 L17.804,11.124 L26.642,2.286 C26.34,0.878 26.25,0 26.25,0 L20,0 L13.75,0 C13.75,0 13.066,6.963 8.696,13.507 C6.331,15.131 4.348,17.258 2.866,19.723 C2.744,19.815 2.698,20 2.698,20 C0.992,22.944 0,26.353 0,30 C0,41.046 8.955,50 20,50 C31.046,50 40,41.046 40,30 C40,26.353 39.008,22.944 37.303,20" id="Fill-3" fill="#FFFFFF" mask="url(#mask-2)"></path>
                    </g>
                </g>
            </g>
        </g>
    </g>
</svg>